<svg width="31" height="30" viewBox="0 0 31 30" fill="none" xmlns="http://www.w3.org/2000/svg">
<g id="_&#195;&#144;&#194;&#161;&#195;&#144;&#194;&#187;&#195;&#144;&#194;&#190;&#195;&#144;&#194;&#185;_1" clip-path="url(#clip0_472_46237)">
<path id="Vector" d="M15.4922 30C7.19289 29.9956 0.48667 23.2839 0.50002 14.9945C0.51337 6.69834 7.23517 -0.0155504 15.51 2.70522e-05C23.8138 0.0156045 30.5045 6.71837 30.5 15.0145C30.4956 23.3173 23.7982 30.0023 15.4922 30ZM15.4833 2.39673C8.52791 2.41009 2.88525 8.06471 2.8897 15.0123C2.89415 21.9799 8.56351 27.6278 15.5323 27.6055C22.4966 27.5855 28.1259 21.9331 28.1059 14.9789C28.0859 8.0202 22.4299 2.38116 15.4833 2.39673Z" fill="#F41C1C"/>
<path id="Vector_2" d="M15.4516 16.6499C15.367 16.7745 15.3114 16.8925 15.2246 16.9793C13.9208 18.2878 12.6147 19.5918 11.3086 20.9003C10.9593 21.2519 10.5454 21.3832 10.067 21.2475C9.61536 21.1184 9.33501 20.8046 9.23266 20.3462C9.1303 19.8856 9.30163 19.5073 9.62871 19.1801C10.9303 17.885 12.2253 16.5831 13.527 15.2902C13.6137 15.2034 13.7383 15.1567 13.8474 15.0899C13.8429 15.0387 13.8362 14.9853 13.8318 14.9342C13.7272 14.8652 13.6093 14.8095 13.5225 14.7227C12.2142 13.4209 10.9081 12.1146 9.60201 10.8061C9.25713 10.459 9.1125 10.0495 9.26381 9.5666C9.40843 9.1015 9.73106 8.82556 10.2028 8.73432C10.6544 8.64753 11.0171 8.82556 11.3331 9.14378C12.6214 10.4367 13.9119 11.7252 15.2002 13.0159C15.2869 13.1027 15.3559 13.2117 15.4538 13.3386C15.5895 13.2117 15.6785 13.1316 15.7631 13.0471C17.0781 11.7341 18.3864 10.4145 19.7081 9.10818C20.4089 8.41387 21.517 8.69426 21.7529 9.62001C21.8752 10.1051 21.7084 10.5035 21.359 10.8506C20.0663 12.1369 18.778 13.4298 17.4875 14.7183C17.4007 14.8051 17.2984 14.8807 17.0848 15.0655C17.2472 15.1545 17.3785 15.1945 17.4652 15.2813C18.7669 16.5742 20.0618 17.8761 21.3635 19.1712C21.7128 19.5184 21.8775 19.9189 21.7529 20.4019C21.5215 21.2987 20.4379 21.5991 19.7526 20.9493C19.1518 20.3796 18.5778 19.7832 17.9926 19.1979C17.1693 18.3723 16.3461 17.5467 15.4494 16.6499H15.4516Z" fill="#F41C1C"/>
</g>
<defs>
<clipPath id="clip0_472_46237">
<rect width="30" height="30" fill="white" transform="translate(0.5)"/>
</clipPath>
</defs>
</svg>
