<svg width="31" height="30" viewBox="0 0 31 30" fill="none" xmlns="http://www.w3.org/2000/svg">
<g id="_&#195;&#144;&#194;&#161;&#195;&#144;&#194;&#187;&#195;&#144;&#194;&#190;&#195;&#144;&#194;&#185;_1" clip-path="url(#clip0_472_46193)">
<path id="Vector" d="M0.5 15.8792C0.5 15.2923 0.5 14.7077 0.5 14.1208C0.524743 13.9095 0.547237 13.7003 0.57198 13.489C0.931881 10.2601 2.16454 7.41343 4.34194 4.9985C6.65206 2.43517 9.51552 0.836456 12.9211 0.233848C13.4857 0.132664 14.057 0.0764503 14.6261 0C15.2132 0 15.798 0 16.3851 0C16.8867 0.0629591 17.3929 0.10793 17.89 0.191126C21.0234 0.715035 23.7541 2.06191 26.0035 4.3082C29.3753 7.67651 30.8577 11.7689 30.428 16.5088C30.1379 19.6905 28.8939 22.5034 26.7638 24.8913C23.9363 28.064 20.38 29.7729 16.1355 29.9798C13.1753 30.1237 10.3928 29.4334 7.85998 27.8886C3.9663 25.5164 1.5752 22.0762 0.733936 17.5813C0.628215 17.0192 0.576479 16.4481 0.5 15.8792ZM28.0504 15.0022C28.0504 8.09699 22.4157 2.46215 15.5079 2.4599C8.60002 2.4599 2.96307 8.09249 2.96082 14.9978C2.96082 21.903 8.59552 27.5379 15.5034 27.5401C22.4112 27.5401 28.0482 21.9075 28.0504 15.0022Z" fill="#39B54A"/>
<path id="Vector_2" d="M13.0988 18.2265C13.2136 18.0691 13.2676 17.9725 13.344 17.8983C16.1872 15.0539 19.0327 12.2095 21.8759 9.36506C22.1729 9.06825 22.499 8.86813 22.9331 8.89736C23.4145 8.92884 23.7677 9.16269 23.9701 9.59441C24.177 10.0374 24.1276 10.4691 23.8329 10.8626C23.7519 10.9705 23.6529 11.0672 23.5562 11.1639C20.4161 14.3051 17.2737 17.4463 14.1313 20.5853C13.4048 21.3115 12.7637 21.3093 12.0349 20.5808C10.4873 19.036 8.94424 17.4868 7.39442 15.9443C7.0885 15.6407 6.88831 15.3034 6.92655 14.856C6.96928 14.3636 7.22346 14.015 7.67334 13.8217C8.11647 13.6328 8.5326 13.7047 8.9105 13.9993C9.00947 14.078 9.09945 14.1679 9.18942 14.2579C10.4063 15.4721 11.621 16.6863 12.8357 17.9028C12.9121 17.9792 12.9706 18.0691 13.0988 18.2288V18.2265Z" fill="#39B54A"/>
</g>
<defs>
<clipPath id="clip0_472_46193">
<rect width="30" height="30" fill="white" transform="translate(0.5)"/>
</clipPath>
</defs>
</svg>
