<svg width="31" height="30" viewBox="0 0 31 30" fill="none" xmlns="http://www.w3.org/2000/svg">
<g id="_&#195;&#144;&#194;&#161;&#195;&#144;&#194;&#187;&#195;&#144;&#194;&#190;&#195;&#144;&#194;&#185;_1" clip-path="url(#clip0_472_46143)">
<path id="Vector" d="M0.5 14.293C0.576697 13.7095 0.63422 13.1261 0.730091 12.5465C0.994695 10.8811 1.55842 9.31618 2.3599 7.84013C3.47201 5.79995 4.98293 4.10752 6.86584 2.76285C8.58385 1.53411 10.4821 0.71494 12.5491 0.309222C16.4683 -0.463576 20.1267 0.224214 23.5206 2.35327C23.628 2.41896 23.7315 2.48465 23.8542 2.55806C24.1495 2.13302 24.4294 1.71958 24.7132 1.30999C24.7746 1.22112 24.8359 1.13225 24.9165 1.05884C25.1082 0.877228 25.2961 0.90814 25.4188 1.13611C25.4648 1.22112 25.4955 1.31772 25.5224 1.41046C25.8713 2.65853 26.2165 3.90659 26.5578 5.15466C26.7342 5.79995 26.4772 6.14771 25.81 6.20567C24.5637 6.31386 23.3212 6.42978 22.0787 6.54183C22.048 6.54183 22.0173 6.55729 21.9905 6.54956C21.8102 6.50319 21.5495 6.50706 21.4766 6.39114C21.4076 6.28295 21.4996 6.0202 21.5917 5.8695C21.8601 5.429 22.1669 5.01169 22.466 4.5712C21.6147 3.9916 20.7211 3.53952 19.7739 3.19562C18.0329 2.56579 16.2344 2.32236 14.3898 2.49237C12.0582 2.70876 9.92605 3.49701 8.04314 4.91123C5.54282 6.78913 3.93219 9.25822 3.22658 12.3224C2.88911 13.7829 2.83542 15.2629 3.03867 16.7466C3.49885 20.1083 5.02512 22.8826 7.65199 25.0156C9.27413 26.337 11.1302 27.1717 13.178 27.5774C13.945 27.7281 14.3745 28.3309 14.2364 29.0109C14.0945 29.6948 13.481 30.116 12.7945 29.9731C8.05848 29.0071 4.52275 26.3795 2.21801 22.1098C1.22862 20.286 0.699412 18.3038 0.549853 16.2288C0.546018 16.1516 0.515339 16.0782 0.5 16.0047C0.5 15.4329 0.5 14.8649 0.5 14.293Z" fill="#FCDD00"/>
<path id="Vector_2" d="M13.7891 11.0355C13.7891 9.47062 13.7891 7.9057 13.7891 6.34465C13.7891 5.72641 14.1841 5.3091 14.744 5.30138C15.2962 5.29365 15.7219 5.71096 15.7295 6.29056C15.741 7.02858 15.7295 7.7666 15.7295 8.50462C15.7295 10.5293 15.7295 12.5579 15.7257 14.5827C15.7257 14.7991 15.7871 14.9072 15.9788 15.0077C18.4676 16.2944 20.9526 17.5927 23.4376 18.891C23.9706 19.1692 24.1777 19.5595 24.0588 20.0541C23.9246 20.6144 23.3532 20.9351 22.8087 20.7496C22.6898 20.7071 22.5747 20.653 22.4635 20.595C19.6564 19.1344 16.8531 17.67 14.0422 16.2133C13.8313 16.1051 13.7776 15.9814 13.7814 15.7573C13.7891 14.1847 13.7853 12.6082 13.7853 11.0355H13.7891Z" fill="#FCDD00"/>
<path id="Vector_3" d="M24.8047 24.1152C24.8047 24.1152 24.8047 24.0959 24.8047 24.0843C24.82 23.3192 25.8171 22.2566 26.5189 22.2527C27.4431 22.245 28.0413 23.2535 27.5619 24.0495C27.351 24.3972 27.0864 24.7257 26.7988 25.0116C26.4422 25.3671 25.9935 25.4251 25.5256 25.228C25.0731 25.0387 24.8047 24.6136 24.8047 24.1152Z" fill="#FCDD00"/>
<path id="Vector_4" d="M18.6372 27.3918C19.3888 27.3879 19.8912 27.7937 19.9985 28.3578C20.1097 28.9567 19.7876 29.5518 19.2086 29.7334C18.8481 29.8454 18.4723 29.9304 18.0964 29.9768C17.5174 30.0502 16.9805 29.6484 16.8348 29.0688C16.6891 28.493 16.9728 27.8709 17.5251 27.67C17.9354 27.5232 18.3726 27.4536 18.6372 27.3879V27.3918Z" fill="#FCDD00"/>
<path id="Vector_5" d="M29.8584 19.3547C29.7663 19.7991 29.6398 20.3478 29.3138 20.8115C29.007 21.2481 28.405 21.3833 27.9218 21.1708C27.4079 20.9428 27.0896 20.4289 27.2085 19.8918C27.3005 19.4745 27.4424 19.0572 27.6226 18.6708C27.8527 18.1762 28.428 17.9521 28.9648 18.0796C29.4864 18.2071 29.8584 18.694 29.8622 19.3547H29.8584Z" fill="#FCDD00"/>
<path id="Vector_6" d="M28.4873 11.9512C28.0808 11.9319 27.7012 11.7117 27.5018 11.2403C27.3637 10.9157 27.2448 10.5834 27.149 10.2434C26.9879 9.67149 27.287 9.07644 27.8316 8.84073C28.3723 8.60503 29.0396 8.78277 29.308 9.30441C29.5189 9.70627 29.6876 10.1506 29.7758 10.595C29.9216 11.3021 29.308 11.959 28.4873 11.9474V11.9512Z" fill="#FCDD00"/>
<path id="Vector_7" d="M28.0837 15.0039C28.0837 14.8571 28.0799 14.7102 28.0837 14.5634C28.1106 13.8988 28.5746 13.4081 29.215 13.3617C29.8171 13.3192 30.377 13.7597 30.4613 14.405C30.5112 14.7991 30.515 15.2126 30.469 15.6067C30.4 16.2133 29.8439 16.6616 29.2687 16.6384C28.6206 16.6075 28.1298 16.1245 28.0952 15.4792C28.0876 15.3208 28.0952 15.1662 28.0952 15.0078C28.0952 15.0078 28.0914 15.0078 28.0876 15.0078L28.0837 15.0039Z" fill="#FCDD00"/>
<path id="Vector_8" d="M23.0938 25.456C23.623 25.4869 24.0717 25.8076 24.2404 26.2984C24.4053 26.7775 24.2749 27.3185 23.8684 27.6198C23.5578 27.8517 23.2242 28.0642 22.8752 28.2304C22.2923 28.5047 21.6442 28.2729 21.3413 27.7203C21.0383 27.1678 21.1917 26.5109 21.7248 26.1361C21.9894 25.9506 22.2616 25.7806 22.5454 25.6299C22.7141 25.541 22.9097 25.5101 23.0938 25.4521V25.456Z" fill="#FCDD00"/>
</g>
<defs>
<clipPath id="clip0_472_46143">
<rect width="30" height="30" fill="white" transform="translate(0.5)"/>
</clipPath>
</defs>
</svg>
