<svg width="31" height="30" viewBox="0 0 31 30" fill="none" xmlns="http://www.w3.org/2000/svg">
<g id="_&#195;&#144;&#194;&#161;&#195;&#144;&#194;&#187;&#195;&#144;&#194;&#190;&#195;&#144;&#194;&#185;_1" clip-path="url(#clip0_472_46313)">
<path id="Vector" d="M25.0702 11.2412C25.0169 11.4259 24.9636 11.8028 24.8 12.1245C24.4555 12.8041 24.1015 13.4895 23.6638 14.1082C22.678 15.4978 21.3097 16.3126 19.6255 16.5867C19.4314 16.6191 19.2354 16.6362 19.0413 16.6496C18.5922 16.6781 18.4894 16.8552 18.6892 17.2664C19.4942 18.9245 19.6065 20.6321 18.8852 22.3282C18.5389 23.1449 18.0669 23.9216 17.5588 24.6507C16.8489 25.6711 15.4825 25.8843 14.3407 25.2294C12.1693 23.9806 9.99979 22.7261 7.83029 21.4716C7.55625 21.3136 7.2784 21.1613 7.01578 20.9861C6.10231 20.3732 5.65318 19.2024 6.09089 18.1992C6.5952 17.0455 7.16612 15.9052 8.11766 15.0257C9.20812 14.0187 10.4984 13.4761 11.9771 13.3829C12.3977 13.3562 12.5099 13.1658 12.3196 12.7794C11.5337 11.1803 11.3871 9.52221 12.0551 7.87173C12.4148 6.98271 12.9248 6.13367 13.4805 5.34745C14.1961 4.3347 15.5472 4.16147 16.71 4.82775C18.3733 5.7834 20.0309 6.74475 21.6923 7.7023C22.4097 8.1173 23.131 8.52088 23.8408 8.9473C24.6306 9.42132 25.0283 10.1352 25.0721 11.2412H25.0702ZM14.5767 13.0174C14.5196 14.3461 13.4957 15.3836 12.1807 15.475C10.7249 15.5759 9.54686 16.1832 8.81799 17.5119C8.62387 17.866 8.41644 18.2106 8.21471 18.5609C7.93496 19.0482 7.9559 19.1339 8.42976 19.408C10.5916 20.6549 12.7535 21.898 14.9135 23.1487C15.7642 23.6418 15.7375 23.7312 16.2495 22.7984C16.5254 22.294 16.8718 21.8085 17.0507 21.2698C17.4084 20.1904 17.2638 19.1243 16.7728 18.0926C16.6263 17.7842 16.5178 17.4339 16.4969 17.0969C16.4169 15.7434 17.4503 14.664 18.8167 14.5631C20.2859 14.4546 21.4696 13.8416 22.1966 12.4977C22.3831 12.1531 22.5867 11.818 22.7827 11.4773C23.0644 10.988 23.0434 10.9062 22.5677 10.6321C20.3791 9.36801 18.1906 8.10397 16.0002 6.83994C15.2313 6.39638 15.2275 6.39257 14.7955 7.15594C14.5006 7.67755 14.1447 8.18012 13.9544 8.7379C13.5852 9.8268 13.7279 10.9043 14.2265 11.9456C14.3883 12.2825 14.4625 12.6595 14.5786 13.0193L14.5767 13.0174Z" fill="#E66A44"/>
<path id="Vector_2" d="M24.8022 23.9691C24.2865 23.9691 23.8545 23.9806 23.4225 23.9672C22.7679 23.9482 22.3283 23.478 22.3568 22.8536C22.3815 22.3415 22.7755 21.896 23.2893 21.8903C24.6747 21.8713 26.0602 21.8713 27.4437 21.8903C27.9613 21.8979 28.38 22.3529 28.3838 22.884C28.3952 24.2261 28.3971 25.5682 28.3838 26.9103C28.3781 27.4776 27.8985 27.9155 27.3409 27.9155C26.7852 27.9155 26.319 27.4738 26.3 26.9065C26.2847 26.4515 26.2962 25.9946 26.2962 25.4788C26.1763 25.5835 26.0963 25.6463 26.024 25.7167C23.5919 28.0868 20.6992 29.5774 17.3251 29.9067C11.2467 30.5006 6.39765 28.26 2.93596 23.2058C1.27839 20.7805 0.515258 18.0354 0.500034 15.0885C0.496227 14.5174 0.815943 14.1005 1.32977 13.9882C1.80744 13.8854 2.31747 14.1443 2.49445 14.6164C2.56867 14.8144 2.5877 15.0409 2.59151 15.256C2.63147 17.5195 3.2062 19.6383 4.38039 21.5686C6.6146 25.2408 9.87836 27.3881 14.1565 27.845C18.1738 28.2733 21.6508 26.9979 24.5739 24.2071C24.6291 24.1557 24.6785 24.0986 24.8041 23.9672L24.8022 23.9691Z" fill="#E66A44"/>
<path id="Vector_3" d="M6.21073 6.06326C6.72456 6.06326 7.16036 6.05183 7.59617 6.06706C8.13664 6.0842 8.56102 6.45351 8.62953 6.94085C8.70375 7.46436 8.4259 7.94218 7.93682 8.10019C7.8055 8.14207 7.65897 8.15539 7.51814 8.1573C6.26402 8.1611 5.00989 8.16301 3.75577 8.1573C3.01547 8.15349 2.60822 7.73658 2.60631 6.99606C2.60631 5.75296 2.60441 4.50795 2.60631 3.26485C2.60631 2.59286 3.03641 2.12455 3.64349 2.12075C4.25057 2.11694 4.69398 2.58715 4.69969 3.24962C4.7035 3.66463 4.69969 4.07772 4.69969 4.57268C4.82339 4.45655 4.90522 4.38421 4.98325 4.30807C7.44011 1.92467 10.3651 0.512141 13.7564 0.106659C21.2811 -0.793779 28.3111 4.12151 30.0886 11.4982C30.3493 12.5833 30.492 13.6837 30.4996 14.8011C30.5034 15.5626 30.1209 16.048 29.4853 16.0633C28.8382 16.0785 28.4158 15.5969 28.4062 14.8183C28.3739 12.5567 27.8258 10.4227 26.6383 8.50186C23.856 4.00158 19.7777 1.85614 14.5062 2.1493C11.3547 2.32444 8.64856 3.64559 6.38962 5.86147C6.34585 5.90525 6.30779 5.95475 6.21263 6.06516L6.21073 6.06326Z" fill="#E66A44"/>
</g>
<defs>
<clipPath id="clip0_472_46313">
<rect width="30" height="30" fill="white" transform="translate(0.5)"/>
</clipPath>
</defs>
</svg>
