<svg width="24" height="18" viewBox="0 0 24 18" fill="none" xmlns="http://www.w3.org/2000/svg">
<g id="Group 808">
<path id="Vector" d="M12 0.0253906C15.1775 0.0253906 18.3482 0.0253906 21.5256 0.0253906C22.9859 0.0253906 24 1.06198 24 2.55466C24 6.53515 24 10.5087 24 14.4892C24 15.9681 22.9724 17.0185 21.5189 17.0185C15.1775 17.0185 8.83606 17.0185 2.49465 17.0185C1.02761 17.0185 0.00676056 15.9681 0.00676056 14.4616C0 10.4949 0 6.52824 0 2.56157C0 1.06198 1.02085 0.0253906 2.47437 0.0253906C5.64507 0.0253906 8.82254 0.0253906 12 0.0253906ZM1.50761 15.8921C1.85915 15.9612 2.13634 16.0717 2.41352 16.0717C4.5431 16.0856 6.67268 16.0786 8.80225 16.0786C13.0411 16.0786 17.2868 16.0786 21.5256 16.0786C21.8569 16.0786 22.1611 16.0234 22.4518 15.8091C20.2208 13.2108 17.9966 10.6193 15.7589 8.01401C15.6642 8.09694 15.5899 8.15913 15.5155 8.22824C14.4676 9.16807 13.4265 10.1148 12.3786 11.0547C12.0946 11.3104 11.9121 11.3034 11.6282 11.0547C11.4862 10.9303 11.351 10.8059 11.2158 10.6815C10.2423 9.80385 9.26197 8.91929 8.26817 8.02092C6.03042 10.6262 3.8062 13.2177 1.51437 15.8921H1.50761ZM1.92676 1.05507C5.30028 4.09572 8.64676 7.11563 12.0068 10.1494C15.3735 7.10872 18.72 4.08881 22.0732 1.06198C21.7893 0.923765 2.29183 0.909943 1.92676 1.05507ZM1.11549 1.56645C1.04113 1.87742 0.932958 2.13311 0.932958 2.39572C0.919437 6.47295 0.926197 10.5502 0.932958 14.6343C0.932958 14.7656 0.966761 14.8969 0.993803 15.0904C3.21803 12.499 5.39493 9.96279 7.58535 7.40588C5.42873 5.46401 3.30592 3.54978 1.11549 1.56645ZM22.9724 15.0006C22.9724 15.0006 23.0265 14.9868 23.0468 14.9799C23.0535 14.8071 23.0738 14.6274 23.0738 14.4547C23.0738 12.036 23.0738 9.61035 23.0738 7.19165C23.0738 5.62295 23.0806 4.06116 23.067 2.49246C23.067 2.20913 22.9656 1.9258 22.8913 1.56645C20.6873 3.55669 18.5645 5.47092 16.4349 7.39206C18.6254 9.94206 20.7955 12.4713 22.9656 15.0006H22.9724Z" fill="white"/>
</g>
</svg>
