<svg width="17" height="24" viewBox="0 0 17 24" fill="none" xmlns="http://www.w3.org/2000/svg">
<g id="Group 837">
<path id="Vector" d="M7.74506 0.0470988C12.9498 -0.341066 17.3977 3.7343 16.9722 8.75121C16.6646 12.3755 12.5113 17.1425 9.84886 19.6213C9.62081 19.8333 9.22132 20.2112 8.98637 20.3845C8.75143 20.5577 8.55398 20.6096 8.25705 20.5365C8.0994 20.4978 6.90324 19.3837 6.69584 19.1827C4.19179 16.7616 0.275008 12.1862 0.0201647 8.70589C-0.297433 4.35639 3.17472 0.387749 7.74506 0.0470988ZM8.03129 1.30516C3.82522 1.58441 0.600259 5.37176 1.49413 9.37769C1.94412 11.3938 3.44563 13.5174 4.75505 15.1278C5.87239 16.5021 7.14507 17.834 8.48051 19.0131C8.60832 19.035 9.12949 18.5058 9.24734 18.391C11.7881 15.9195 15.8786 11.3587 15.6643 7.71684C15.4439 3.97992 11.9374 1.04712 8.03129 1.30589V1.30516Z" fill="white"/>
<path id="Vector_2" d="M3.0416 17.116C3.66838 17.0129 4.12296 17.4764 3.83368 18.0363C3.67909 18.3353 2.78752 18.5722 2.4263 18.771C0.92938 19.5927 1.03652 20.3938 2.50359 21.1614C5.38417 22.6695 11.6673 22.6841 14.5325 21.1417C15.9828 20.3609 16.0432 19.578 14.5731 18.771C14.0221 18.4684 12.9315 18.3426 13.0953 17.5809C13.305 16.608 14.7835 17.4069 15.2978 17.6957C17.2562 18.7973 17.6993 20.5744 15.7019 21.9304C12.506 24.0993 4.43979 24.1183 1.26381 21.9085C-0.680037 20.5554 -0.252237 18.8105 1.6656 17.7162C1.95488 17.551 2.73701 17.1672 3.04236 17.1167L3.0416 17.116Z" fill="white"/>
<path id="Vector_3" d="M8.43469 4.96863C12.7441 4.88383 12.9277 11.1274 8.64744 11.305C4.26995 11.4863 4.02123 5.05562 8.43469 4.96863ZM8.14464 6.28298C5.88396 6.57758 6.06839 10.0484 8.52117 10.0228C11.215 9.99504 11.0673 5.9014 8.14464 6.28298Z" fill="white"/>
</g>
</svg>
