<svg width="134" height="134" viewBox="0 0 134 134" fill="none" xmlns="http://www.w3.org/2000/svg">
<g id="nextreach logo FINAL-01 1">
<path id="Vector" opacity="0.3" fill-rule="evenodd" clip-rule="evenodd" d="M86.7899 71.3139L84.9531 78.1868C87.0606 79.966 89.7202 80.8427 92.5519 80.5549C97.4945 80.0527 102.012 76.1001 104.039 70.5039C104.039 70.5039 97.5491 81.0916 86.7896 71.3143L86.7899 71.3139Z" fill="#1E003D"/>
<path id="Vector_2" d="M102.987 49.478C106.88 49.478 110.036 46.322 110.036 42.429C110.036 38.5359 106.88 35.3799 102.987 35.3799C99.0935 35.3799 95.9375 38.5359 95.9375 42.429C95.9375 46.322 99.0935 49.478 102.987 49.478Z" fill="white"/>
<path id="Vector_3" fill-rule="evenodd" clip-rule="evenodd" d="M45.8173 93.9773L56.0851 55.5558C53.9602 53.6939 51.2617 52.7964 48.374 53.1361C43.3336 53.7291 38.6842 57.9779 36.5509 63.9399L31.823 81.6309C30.6375 86.0673 33.2726 90.6246 37.709 91.8102L45.817 93.977L45.8173 93.9773Z" fill="white"/>
<path id="Vector_4" fill-rule="evenodd" clip-rule="evenodd" d="M36.3324 64.9659C36.3324 64.9659 43.0451 53.7548 54.1302 63.0782L55.823 56.744C53.6549 55.0439 50.9508 54.1682 48.0999 54.3692C43.1242 54.7196 38.6583 58.2816 36.7434 63.4269L36.332 64.9656L36.3324 64.9659Z" fill="white"/>
<path id="Vector_5" fill-rule="evenodd" clip-rule="evenodd" d="M88.7098 59.8064L84.8281 77.6381C86.953 79.8759 89.6515 80.9546 92.5392 80.5462C97.5796 79.8333 102.229 74.7266 104.362 67.5606L107.34 53.7931L100.516 51.6009C95.3702 49.9483 90.0846 53.6216 88.7094 59.806L88.7098 59.8064Z" fill="white"/>
<path id="Vector_6" fill-rule="evenodd" clip-rule="evenodd" d="M108.122 53.917C108.071 54.1304 108.017 54.3481 107.961 54.5712L105.847 63.6015L104.255 70.535L102.971 76.1225L102.586 77.8005C101.615 79.847 100.527 81.5732 99.332 82.9823L96.718 82.1843L92.7656 80.9783L92.8715 80.5177L92.8919 80.4295L94.0678 75.3195L97.8539 58.8646L99.53 51.7033C99.5434 51.7006 99.5909 51.5646 99.664 51.3291L108.122 53.917Z" fill="white"/>
<path id="Vector_7" fill-rule="evenodd" clip-rule="evenodd" d="M45.4093 59.6488L36.8789 91.5693L45.7969 93.9525L53.8614 63.7754L55.8232 56.4342C53.4423 54.4992 50.4561 53.524 47.2934 53.7944C47.1838 53.8038 47.0743 53.8145 46.9651 53.8269L45.4093 59.6485V59.6488Z" fill="white"/>
<path id="Vector_8" fill-rule="evenodd" clip-rule="evenodd" d="M104.269 70.503C103.774 73.4815 102.611 78.2737 100.832 83.5077C98.3628 90.7729 97.0613 94.6019 93.8583 96.8515C91.0929 98.7938 87.8505 98.8976 85.0227 98.3697C79.9907 97.43 75.6457 94.2827 73.1141 89.8336C73.0257 89.6781 72.9383 89.52 72.8518 89.3592C72.4019 88.5203 62.8266 67.8274 58.0579 59.7877C57.3152 58.5358 56.3863 57.4652 55.3206 56.6096C53.2282 54.9299 50.6092 54.077 47.8397 54.2994C43.0053 54.6877 38.6413 58.2769 36.7422 63.4265L38.8182 55.6589L39.0929 54.6307C39.8091 52.0807 41.9149 45.3452 45.2941 40.8297C49.1335 35.6996 55.0071 34.0952 60.4146 36.3585C64.2356 38.0305 67.5438 41.0257 69.7785 45.1301C69.8405 45.2437 69.8978 45.36 69.9517 45.4775C70.2991 46.2326 70.6472 46.9894 70.9963 47.7468L70.9969 47.7482C75.3687 57.2307 79.8959 66.8328 84.6643 74.8724C85.407 76.1243 86.3359 77.195 87.4019 78.0506C89.2246 79.5139 91.0413 79.9939 91.7763 80.1544C91.7763 80.1544 93.4574 80.7849 94.8828 80.3604C98.7011 79.2238 101.886 75.9532 104.268 70.503H104.269Z" fill="white"/>
<g id="Group">
<path id="Vector_9" fill-rule="evenodd" clip-rule="evenodd" d="M37.1653 62.352L36.8789 63.4263C37.0364 62.9985 37.2109 62.5821 37.4012 62.1768C37.3221 62.2344 37.2434 62.2927 37.1653 62.352Z" fill="white"/>
<path id="Vector_10" fill-rule="evenodd" clip-rule="evenodd" d="M104.271 70.5032C104.026 71.9839 103.615 73.9131 103.046 76.1221C102.91 76.6511 102.765 77.1961 102.61 77.7549C102.603 77.77 102.596 77.785 102.589 77.8001C101.617 79.8466 100.53 81.5729 99.3346 82.9819C98.5132 83.9507 97.6409 84.7691 96.7206 85.4388C95.6034 86.2515 94.4158 86.8438 93.1632 87.2173C91.6648 87.6645 89.8983 87.0002 89.8983 87.0002C89.1258 86.8311 87.2163 86.3255 85.3008 84.7845C84.1802 83.8834 83.204 82.7561 82.4235 81.4376C77.4115 72.9708 72.6535 62.8581 68.0583 52.8718L68.0577 52.8701C67.6908 52.0725 67.3247 51.2755 66.9599 50.4805C66.9029 50.3566 66.8426 50.2343 66.7776 50.1144C64.4283 45.7922 60.9513 42.6375 56.9357 40.8768C52.6849 39.0946 48.1603 39.5904 44.4609 42.2134C44.7668 41.735 45.0844 41.2717 45.4143 40.8299C49.2461 35.6997 55.1079 34.0954 60.5048 36.3583C64.3181 38.0303 67.6195 41.0255 69.8503 45.1299C69.9119 45.2435 69.9692 45.3597 70.0231 45.4773C70.3698 46.2324 70.7172 46.9892 71.0656 47.7466L71.0663 47.7479C75.4297 57.2305 79.9475 66.8326 84.7065 74.8722C84.9571 75.2957 85.2291 75.6983 85.5202 76.0789C86.0904 76.8236 86.7346 77.4842 87.4384 78.0504C89.2578 79.5137 91.0708 79.9937 91.8041 80.1545C91.8041 80.1545 92.2584 80.325 92.8946 80.4292C92.99 80.4446 93.0895 80.4587 93.1921 80.4704C93.7207 80.5314 94.3331 80.531 94.9046 80.3605C95.527 80.1749 96.1327 79.9321 96.7206 79.6326C98.2526 78.8514 99.6653 77.6825 100.945 76.1221C102.175 74.6223 103.284 72.7607 104.257 70.5346C104.262 70.5243 104.266 70.5135 104.271 70.5032Z" fill="white"/>
</g>
</g>
</svg>
