<svg width="24" height="25" viewBox="0 0 24 25" fill="none" xmlns="http://www.w3.org/2000/svg">
<path id="Vector" d="M17.9758 24.0207C17.6479 23.9595 17.2994 23.9187 16.9715 23.8574C15.6598 23.6126 14.4301 23.1228 13.2414 22.5513C11.2943 21.5921 9.47023 20.4289 7.8511 19.0003C4.57186 16.1023 2.00994 12.7554 0.554776 8.61255C0.185861 7.59214 -0.0190921 6.55133 0.00140324 5.44929C0.0218985 4.40847 0.370319 3.46969 1.10815 2.71459C1.764 2.04112 2.39935 1.34724 3.11669 0.735C4.26443 -0.265 5.43266 -0.244592 6.5394 0.796224C7.64615 1.83704 8.71191 2.91867 9.75717 4.04112C10.618 4.95949 10.618 6.18398 9.75717 7.10235C9.1628 7.75541 8.52745 8.34725 7.91259 8.95949C7.78962 9.08194 7.76912 9.16357 7.8511 9.32684C8.46596 10.633 9.36776 11.7146 10.3515 12.7554C11.3353 13.8166 12.4421 14.7554 13.6718 15.5513C13.9997 15.7554 14.3481 15.9187 14.676 16.1228C14.799 16.2044 14.881 16.184 15.004 16.0819C15.5163 15.5513 16.0492 15.0207 16.5821 14.5105C16.992 14.1023 17.4634 13.7758 18.0373 13.6738C18.8366 13.5513 19.5129 13.7962 20.0663 14.3472C21.0911 15.3472 22.0953 16.3677 23.1201 17.3677C24.2064 18.4493 24.2883 19.6942 23.2841 20.837C22.5872 21.633 21.8084 22.3677 21.0501 23.1023C20.4967 23.6126 19.7999 23.8779 19.062 23.9595C19.0005 23.9595 18.9596 23.9799 18.8981 24.0003H17.9553L17.9758 24.0207ZM1.21063 5.46969C1.21063 6.75541 1.51806 7.79622 1.90747 8.79622C2.97322 11.6534 4.69483 14.0819 6.76485 16.286C8.77339 18.4289 11.1099 20.1636 13.7742 21.4493C15.0859 22.1023 16.4591 22.6126 17.9348 22.7758C18.8366 22.8779 19.6974 22.7758 20.3737 22.1228C21.0706 21.4493 21.7469 20.7758 22.3823 20.0615C22.9152 19.4901 22.8947 18.9187 22.3618 18.3472C21.3165 17.286 20.2508 16.2248 19.185 15.184C18.7546 14.7554 18.2012 14.7554 17.7093 15.1228C17.6069 15.2044 17.5044 15.3064 17.4019 15.4085C16.828 15.9799 16.2337 16.5717 15.6598 17.1432C15.2704 17.5105 14.8605 17.5921 14.3891 17.3472C14.0407 17.184 13.7128 17.0003 13.3848 16.7962C11.8272 15.8779 10.495 14.6942 9.26528 13.3677C8.26101 12.2656 7.33872 11.1023 6.70337 9.71459C6.37544 9.00031 6.43693 8.69418 7.0108 8.16357C7.62566 7.57173 8.22002 7.00031 8.81438 6.38806C9.30627 5.85745 9.30627 5.30643 8.81438 4.77582C8.05606 3.9799 7.25674 3.20439 6.47792 2.40847C6.19099 2.12275 5.90405 1.83704 5.59662 1.57173C5.12523 1.14316 4.57186 1.14316 4.07997 1.53092C3.97749 1.61255 3.89551 1.69418 3.79303 1.77582C3.23966 2.30643 2.70678 2.85745 2.15341 3.38806C1.51806 4.00031 1.21063 4.75541 1.23112 5.42888L1.21063 5.46969Z" fill="white"/>
</svg>
