<svg width="24" height="24" viewBox="0 0 24 24" fill="none" xmlns="http://www.w3.org/2000/svg">
<g id="Layer_1" clip-path="url(#clip0_1239_3550)">
<path id="Vector" d="M23.2157 0.000260889C22.2244 1.13278 21.2347 2.26687 20.2413 3.39782C18.2852 5.62504 16.327 7.85042 14.3698 10.0766C14.349 10.1001 14.3303 10.1254 14.297 10.1663C17.5236 14.7601 20.7518 19.3564 24 23.9815C23.9005 23.9877 23.8339 23.9956 23.7672 23.9956C21.5316 23.9961 19.296 23.9945 17.0603 23.9997C16.9062 24 16.8193 23.9533 16.732 23.8289C14.6487 20.855 12.5603 17.8845 10.4724 14.9135C10.4236 14.8438 10.3716 14.7765 10.3103 14.6933C9.73292 15.3486 9.16968 15.9865 8.60804 16.6254C6.4999 19.0233 4.39096 21.4208 2.28735 23.8223C2.17161 23.9543 2.05454 24.0031 1.87959 24C1.27422 23.9898 0.668578 23.9961 0 23.9961C3.14181 20.4232 6.25028 16.8884 9.36889 13.3419C8.86512 12.6242 8.36563 11.9117 7.86532 11.1997C5.29022 7.53396 2.71485 3.86821 0.140276 0.201928C0.0962731 0.139054 0.0648043 0.0675704 0.0274685 0.000260889C2.40709 0.000260889 4.78645 0.000260889 7.16608 0.000260889C7.18181 0.0271325 7.19568 0.0550477 7.21355 0.0806148C9.22648 2.94779 11.2399 5.81496 13.2537 8.68162C13.2796 8.7184 13.3118 8.75101 13.3513 8.79745C13.4204 8.72493 13.4806 8.6657 13.5364 8.60231C15.8517 5.96993 18.1671 3.33782 20.4803 0.703619C20.6808 0.47534 20.867 0.2348 21.0598 0C21.7785 0 22.497 0 23.2157 0V0.000260889ZM21.0849 22.502C21.0369 22.424 21.0187 22.3901 20.9966 22.359C16.0789 15.4767 11.1613 8.59448 6.23722 1.71665C6.17828 1.63421 6.03267 1.56847 5.9268 1.56716C4.98487 1.55568 4.04267 1.56038 3.10047 1.5609C3.04874 1.5609 2.99673 1.5669 2.90526 1.57264C2.9834 1.68613 3.0386 1.76883 3.09647 1.84997C4.86566 4.32529 6.63564 6.8006 8.40483 9.27592C11.5136 13.6257 14.6226 17.9753 17.727 22.328C17.8209 22.4597 17.9175 22.5067 18.0777 22.5056C18.9959 22.4988 19.9141 22.5022 20.8323 22.5022C20.9019 22.5022 20.9715 22.5022 21.0851 22.5022L21.0849 22.502Z" fill="white"/>
</g>
<defs>
<clipPath id="clip0_1239_3550">
<rect width="24" height="24" fill="white"/>
</clipPath>
</defs>
</svg>
