<svg width="24" height="24" viewBox="0 0 24 24" fill="none" xmlns="http://www.w3.org/2000/svg">
<g id="Layer_1">
<path id="Vector" d="M11.743 20C9.78418 19.9384 7.82509 19.8892 5.86687 19.8074C5.27208 19.7827 4.67644 19.696 4.08825 19.5878C3.55257 19.4891 3.08776 19.1962 2.71821 18.7328C2.43215 18.3741 2.28238 17.9342 2.15126 17.4836C1.96677 16.8489 1.91914 16.1888 1.86491 15.5293C1.72891 13.8613 1.73034 12.1889 1.76793 10.5177C1.7906 9.50987 1.86979 8.5024 1.955 7.49819C2.0055 6.9029 2.15613 6.32487 2.39629 5.78856C2.77502 4.94107 3.40854 4.4735 4.21679 4.31841C4.62996 4.2389 5.0523 4.206 5.47178 4.1871C6.75144 4.12877 8.03168 4.07697 9.31191 4.0421C10.3534 4.01376 11.3958 3.98802 12.4373 4.00594C14.1574 4.03591 15.8772 4.09554 17.5967 4.15745C18.1215 4.17635 18.6494 4.21056 19.1685 4.2956C20.2674 4.47578 20.9815 5.1887 21.3184 6.39525C21.4828 6.98436 21.5574 7.58845 21.6096 8.19971C21.7694 10.0732 21.7657 11.952 21.7152 13.8294C21.6899 14.7665 21.6162 15.7046 21.5109 16.6345C21.4575 17.1066 21.3204 17.5778 21.1591 18.0203C20.8168 18.9593 20.1566 19.4891 19.2893 19.6471C18.7249 19.7498 18.149 19.7869 17.5769 19.813C16.278 19.8723 14.9786 19.9137 13.6788 19.9479C13.0341 19.9648 12.3886 19.9508 11.7433 19.9508L11.7427 20H11.743ZM9.70011 14.9131C11.4982 13.8555 13.2731 12.8115 15.0701 11.7545C13.2717 10.6891 11.4936 9.63532 9.70011 8.57278V14.9131Z" fill="white"/>
</g>
</svg>
