<svg width="14" height="22" viewBox="0 0 14 22" fill="none" xmlns="http://www.w3.org/2000/svg">
<path id="control" d="M2.76983 0.421646L13.4378 9.85908C13.8217 10.1939 14 10.566 14 11C14 11.434 13.808 11.8309 13.4378 12.1533L2.76983 21.5784C2.45446 21.8512 2.08423 22 1.63173 22C0.713026 22 -9.33462e-07 21.3551 -8.97685e-07 20.5366C-8.80338e-07 20.1398 0.178256 19.7554 0.493633 19.4701L10.1058 11.0124L0.493634 2.52988C0.178257 2.24464 -8.18541e-08 1.8726 -6.39655e-08 1.46336C-2.81882e-08 0.64487 0.713027 -5.80792e-07 1.63173 -5.40634e-07C2.07052 -5.21454e-07 2.45446 0.148816 2.76983 0.421646Z" fill="black"/>
</svg>
