<svg width="18" height="12" viewBox="0 0 18 12" fill="none" xmlns="http://www.w3.org/2000/svg">
<path id="control" d="M17.655 2.53874L9.93349 11.2671C9.65953 11.5812 9.35513 11.7271 9 11.727C8.64487 11.727 8.32018 11.57 8.05637 11.2671L0.344989 2.53873C0.121764 2.2807 4.667e-06 1.97779 4.69937e-06 1.60756C4.76508e-06 0.855893 0.527627 0.272507 1.1973 0.272507C1.52199 0.272507 1.83653 0.418355 2.0699 0.67639L8.98986 8.54087L15.9301 0.676391C16.1635 0.418356 16.4679 0.272508 16.8027 0.272509C17.4724 0.272509 18 0.855894 18 1.60756C18 1.96657 17.8782 2.2807 17.655 2.53874Z" fill="#9F9F9F"/>
</svg>
