<svg width="15" height="16" viewBox="0 0 15 16" fill="none" xmlns="http://www.w3.org/2000/svg">
<g id="Layer_1" clip-path="url(#clip0_1421_1608)">
<path id="Vector" d="M8.86866 16.0001C8.86866 16.0001 8.32122 16.0001 8.10224 15.8905C7.11684 15.6714 6.24092 15.1234 5.4745 14.3563C4.59859 13.5892 3.94165 12.7125 3.17523 11.7262C2.40881 10.6303 1.64238 9.64397 0.98545 8.43849C0.547494 7.56178 0.219027 6.68507 4.88721e-05 5.69877C-0.218929 4.05493 0.328516 2.52069 1.64238 1.20562C1.97085 0.87685 2.29932 0.548083 2.73728 0.328905C3.61319 -0.32863 4.92706 0.000137472 5.4745 0.986439C5.91246 1.75356 6.35041 2.52069 6.67888 3.3974C6.89786 3.94534 6.67888 4.49329 6.35041 4.82205C5.91246 5.15082 5.58399 5.37 5.14603 5.69877C4.92706 5.91795 4.81757 6.24671 4.81757 6.57548C4.81757 6.68507 4.81757 6.79466 5.03655 6.90425C5.80297 8.10973 6.67888 9.20562 7.4453 10.4111C7.77377 10.8495 8.21173 10.959 8.75917 10.6303C9.08764 10.4111 9.41611 10.1919 9.74457 9.86315C10.292 9.53438 10.8395 9.53438 11.2774 10.0823C11.8249 10.7399 12.4818 11.2878 13.0292 11.9453C13.7957 12.8221 13.6862 14.1371 12.7008 14.7947C11.8249 15.3426 10.949 15.781 9.96355 16.0001C9.85406 16.0001 9.63509 16.0001 9.5256 16.0001H8.75917H8.86866ZM11.4964 14.6851C11.4964 14.6851 11.4964 14.6851 11.3869 14.5755C10.511 13.5892 9.63509 12.4933 8.75917 11.507C8.75917 11.507 8.64968 11.3974 8.43071 11.3974C7.88326 11.3974 7.33581 11.1782 7.00735 10.7399C6.78837 10.5207 6.67888 10.1919 6.4599 9.97274C5.80297 8.98644 5.14603 8.10973 4.4891 7.12342C4.16063 6.68507 4.16063 6.24671 4.27012 5.80836C4.27012 5.58918 4.4891 5.37 4.59859 5.15082C3.83217 4.05493 3.06574 2.84945 2.18983 1.64397C1.31392 2.52069 0.766472 3.50699 0.656983 4.71247C0.656983 5.69877 0.875961 6.57548 1.31392 7.45219C1.75187 8.43849 2.40881 9.42479 2.95625 10.3015C3.72268 11.2878 4.37961 12.3837 5.25552 13.2604C5.91246 13.9179 6.67888 14.5755 7.55479 14.9042C8.86866 15.4522 10.1825 15.3426 11.4964 14.6851ZM9.30662 11.0686C10.292 12.1645 11.1679 13.2604 12.1533 14.3563C12.3723 14.2467 12.5913 14.0275 12.8103 13.8084C13.1387 13.37 13.1387 12.7125 12.8103 12.2741C12.2628 11.6166 11.6059 10.959 11.0584 10.3015C10.949 10.0823 10.73 10.0823 10.511 10.3015C10.1825 10.5207 9.85406 10.7399 9.41611 11.0686H9.30662ZM5.14603 4.82205C5.14603 4.82205 5.69348 4.3837 6.02195 4.16452C6.24092 4.05493 6.24092 3.83575 6.13144 3.61658C5.69348 2.84945 5.36501 2.08233 4.92706 1.31521C4.81757 0.986439 4.4891 0.87685 4.16063 0.767261C3.61319 0.657672 3.17523 0.87685 2.73728 1.31521C3.5037 2.52069 4.37961 3.72616 5.14603 4.93164V4.82205Z" fill="white"/>
<path id="Vector_2" d="M14.9997 6.24644C14.9997 6.24644 14.9997 6.6848 14.9997 6.90398C14.9997 7.12316 14.7807 7.23275 14.6712 7.23275C14.4522 7.23275 14.3427 7.01357 14.3427 6.79439C14.3427 6.13685 14.3427 5.36973 14.2332 4.7122C13.5763 2.52042 12.153 1.20535 9.85368 0.766992C9.63471 0.766992 9.41573 0.547814 9.52522 0.328636C9.52522 0.219047 9.74419 -0.000131518 9.96317 0.109458C12.3719 0.547814 14.0143 1.97247 14.8902 4.38343C15.1092 4.93138 15.1092 5.47932 15.1092 6.24644H14.9997Z" fill="white"/>
<path id="Vector_3" d="M13.2482 6.02741C13.2482 6.02741 13.2482 6.46577 13.2482 6.68495C13.2482 6.90413 13.0293 7.01372 12.9198 7.01372C12.7008 7.01372 12.5913 6.79454 12.5913 6.57536C12.5913 6.137 12.5913 5.58906 12.5913 5.1507C12.1533 3.61646 11.1679 2.73974 9.63509 2.41098C9.63509 2.41098 9.63509 2.41098 9.5256 2.41098C9.30662 2.41098 9.19714 2.1918 9.30662 1.97262C9.30662 1.75344 9.5256 1.64385 9.63509 1.75344C9.96356 1.75344 10.4015 1.86303 10.6205 1.97262C12.3723 2.73974 13.2482 4.05481 13.3577 5.91783L13.2482 6.02741Z" fill="white"/>
<path id="Vector_4" d="M11.4959 6.24682C11.4959 6.24682 11.4959 6.466 11.4959 6.57559C11.4959 6.79476 11.277 6.90435 11.1675 6.90435C10.9485 6.90435 10.839 6.68518 10.839 6.466C10.839 6.13723 10.839 5.80846 10.7295 5.4797C10.4011 4.82216 9.9631 4.38381 9.19667 4.27422C8.86821 4.27422 8.75872 3.94545 8.86821 3.72627C8.86821 3.61668 9.08719 3.50709 9.30616 3.61668C10.62 3.83586 11.4959 4.93175 11.4959 6.24682Z" fill="white"/>
</g>
<defs>
<clipPath id="clip0_1421_1608">
<rect width="15" height="16" fill="white"/>
</clipPath>
</defs>
</svg>
