<svg width="20" height="20" viewBox="0 0 20 20" fill="none" xmlns="http://www.w3.org/2000/svg">
<g id="_&#195;&#144;&#194;&#161;&#195;&#144;&#194;&#187;&#195;&#144;&#194;&#190;&#195;&#144;&#194;&#185;_1" clip-path="url(#clip0_1421_1598)">
<path id="Vector" d="M9.99482 20C4.46193 19.997 -0.00888683 15.5226 1.32651e-05 9.99631C0.00891336 4.46556 4.49011 -0.010367 10.0067 1.80348e-05C15.5425 0.010403 20.003 4.47891 20 10.0097C19.997 15.5449 15.5322 20.0015 9.99482 20ZM9.98889 1.59782C5.35194 1.60672 1.59016 5.37647 1.59313 10.0082C1.5961 14.6532 5.37567 18.4185 10.0215 18.4037C14.6644 18.3903 18.4173 14.6221 18.4039 9.98592C18.3906 5.3468 14.6199 1.58744 9.98889 1.59782Z" fill="#E66A44"/>
<path id="Vector_2" d="M9.96643 11.1003C9.91006 11.1833 9.87298 11.262 9.81513 11.3198C8.94588 12.1922 8.07516 13.0615 7.20443 13.9339C6.97155 14.1683 6.69564 14.2558 6.37672 14.1653C6.0756 14.0793 5.8887 13.8701 5.82047 13.5645C5.75223 13.2574 5.86645 13.0052 6.0845 12.7871C6.95226 11.9236 7.81557 11.0558 8.68333 10.1938C8.74118 10.1359 8.82425 10.1048 8.89693 10.0603C8.89397 10.0262 8.88952 9.99055 8.88655 9.95643C8.81683 9.91044 8.73822 9.87335 8.68037 9.81549C7.80816 8.9476 6.93743 8.07675 6.0667 7.20441C5.83678 6.97297 5.74037 6.69999 5.84123 6.37806C5.93765 6.06799 6.15274 5.88403 6.46721 5.8232C6.76833 5.76534 7.01011 5.88403 7.22075 6.09618C8.07961 6.95813 8.93995 7.81712 9.79881 8.67759C9.85666 8.73545 9.90264 8.80815 9.96791 8.89271C10.0584 8.80815 10.1177 8.75474 10.1741 8.69836C11.0508 7.82306 11.923 6.9433 12.8041 6.07244C13.2713 5.60957 14.01 5.7965 14.1673 6.41366C14.2489 6.73708 14.1376 7.00264 13.9047 7.23408C13.0429 8.09158 12.184 8.95354 11.3237 9.81252C11.2658 9.87038 11.1976 9.92082 11.0552 10.044C11.1635 10.1033 11.251 10.13 11.3089 10.1879C12.1766 11.0498 13.0399 11.9177 13.9077 12.7811C14.1406 13.0126 14.2503 13.2796 14.1673 13.6016C14.013 14.1994 13.2906 14.3997 12.8337 13.9665C12.4332 13.5867 12.0505 13.1891 11.6604 12.7989C11.1116 12.2485 10.5627 11.6981 9.96495 11.1003H9.96643Z" fill="#E66A44"/>
</g>
<defs>
<clipPath id="clip0_1421_1598">
<rect width="20" height="20" fill="white"/>
</clipPath>
</defs>
</svg>
