<svg width="24" height="24" viewBox="0 0 24 24" fill="none" xmlns="http://www.w3.org/2000/svg">
<path id="bubble.middle.bottom" d="M12.0271 24C12.6664 24 13.1431 23.6714 13.6524 22.8102L15.6027 19.4788H18.9074C22.1688 19.4788 24 17.5071 24 14.1416V5.33711C24 1.97167 22.1688 0 18.9074 0H5.09255C1.84199 0 0 1.97167 0 5.33711V14.1416C0 17.5184 1.84199 19.4788 5.09255 19.4788H8.44063L10.4018 22.8102C10.9002 23.6714 11.3878 24 12.0271 24ZM12.0271 21.7224L10.1634 18.1643C9.7842 17.4164 9.49165 17.2125 8.70068 17.2125H5.1684C3.13138 17.2125 2.15621 16.136 2.15621 14.0737V5.4051C2.15621 3.34278 3.13138 2.26629 5.1684 2.26629H18.8424C20.8686 2.26629 21.8438 3.34278 21.8438 5.4051V14.0737C21.8438 16.136 20.8686 17.2125 18.8424 17.2125H15.3535C14.5517 17.2125 14.2483 17.4164 13.8691 18.1643L12.0271 21.7224Z" fill="#1C1C1E"/>
</svg>
