<svg width="25" height="25" viewBox="0 0 25 25" fill="none" xmlns="http://www.w3.org/2000/svg">
<g id="DESIGNED_BY_FREEPIK" clip-path="url(#clip0_872_2796)">
<path id="Vector" d="M22.0996 2.88533C22.3467 2.89868 22.5724 2.89 22.7907 2.92537C23.8265 3.09554 24.4983 3.90165 24.4989 4.97269C24.5009 8.46209 24.4996 11.9515 24.4996 15.4402C24.4996 17.7384 24.4996 20.0373 24.4996 22.3356C24.4996 23.6522 23.6635 24.487 22.3453 24.487C16.6051 24.487 10.8642 24.471 5.12396 24.499C3.7697 24.5057 2.80743 23.5234 2.90025 22.2789C2.90426 22.2295 2.90025 22.1794 2.90025 22.088C2.7647 22.088 2.63581 22.0893 2.50693 22.088C1.38106 22.072 0.503594 21.2111 0.502926 20.0894C0.49892 14.227 0.49892 8.36466 0.503594 2.50229C0.50493 1.37853 1.38039 0.50435 2.5056 0.503015C8.37071 0.498344 14.2365 0.498344 20.1016 0.503015C21.2248 0.503682 22.0829 1.38054 22.0989 2.5083C22.1009 2.63108 22.0989 2.7532 22.0989 2.88466L22.0996 2.88533ZM1.30159 4.50958V4.72445C1.30159 9.82074 1.30159 14.9164 1.30159 20.0127C1.30159 20.7967 1.80977 21.2899 2.61378 21.2899C8.40343 21.2899 14.1937 21.2899 19.9834 21.2899C20.8101 21.2899 21.2983 20.7974 21.2989 19.9653C21.2996 18.1168 21.2989 16.2683 21.2989 14.4199V14.1343C21.1921 14.2357 21.126 14.2958 21.0632 14.3585C19.8432 15.577 18.6265 16.7982 17.4011 18.0114C17.2695 18.1415 17.1019 18.2543 16.9303 18.3217C15.8158 18.7594 14.6952 19.1812 13.5787 19.6129C13.3817 19.689 13.1947 19.7424 13.0218 19.5762C12.8475 19.4087 12.8969 19.2205 12.973 19.023C13.4051 17.9066 13.8271 16.7868 14.2672 15.6731C14.338 15.4943 14.4548 15.3194 14.5911 15.1826C16.7654 12.9992 18.9463 10.821 21.1286 8.64627C21.2495 8.52615 21.3043 8.4087 21.3029 8.23453C21.2949 7.07741 21.2989 5.91961 21.2989 4.76249C21.2989 4.68174 21.2989 4.60167 21.2989 4.51024H1.30159V4.50958ZM3.72697 22.0893C3.59074 23.099 4.10092 23.6882 5.08657 23.6882C10.8355 23.6882 16.5844 23.6882 22.3333 23.6882C23.2301 23.6882 23.6989 23.2158 23.6996 22.3136C23.6996 18.8822 23.6996 15.4515 23.6996 12.0202V11.7193C23.1867 12.2331 22.728 12.7002 22.2585 13.158C22.1417 13.2714 22.0956 13.3862 22.0962 13.549C22.1016 15.6644 22.0996 17.7798 22.0996 19.8952C22.0996 21.2672 21.2802 22.0893 19.9126 22.0893C14.6305 22.0893 9.34767 22.0893 4.06553 22.0893H3.72697ZM1.30426 3.68077H21.3003C21.3003 3.33043 21.3003 2.99811 21.3003 2.66578C21.3003 1.76891 20.8281 1.30046 19.9253 1.30046C14.1757 1.30046 8.42613 1.30046 2.67655 1.30046C2.59308 1.30046 2.5096 1.29846 2.4268 1.30313C1.83248 1.33983 1.33565 1.8223 1.30827 2.41554C1.2889 2.83061 1.30426 3.24702 1.30426 3.6801V3.68077ZM20.0989 10.8457C18.4942 12.4493 16.9049 14.0382 15.337 15.605C15.5033 15.7785 15.6782 15.9614 15.8325 16.1222C17.4245 14.5307 19.0171 12.9378 20.5957 11.3589C20.4408 11.1987 20.2685 11.0206 20.0989 10.8457ZM16.4715 16.7521C16.6378 16.931 16.8061 17.1118 16.9403 17.256C18.5403 15.6564 20.1336 14.0642 21.7156 12.4833C21.566 12.3272 21.3944 12.147 21.2408 11.9862C19.6508 13.5757 18.0562 15.1686 16.4722 16.7521H16.4715ZM23.4358 10.8311C22.8762 10.2665 22.3226 9.70797 21.8044 9.18546C21.4445 9.54648 21.0779 9.91483 20.76 10.2338C21.2916 10.7677 21.8452 11.3242 22.3914 11.8721C22.7253 11.5391 23.0846 11.1807 23.4351 10.8311H23.4358ZM23.6996 6.09312C23.6996 5.68272 23.7056 5.29367 23.6983 4.9053C23.6836 4.07649 22.9216 3.51928 22.1203 3.73482V6.09245H23.6989L23.6996 6.09312ZM23.6816 9.87813V6.90924H22.1003C22.1003 7.35167 22.0989 7.78276 22.1029 8.21318C22.1029 8.25789 22.125 8.31394 22.1557 8.34531C22.6512 8.84713 23.1507 9.34561 23.6816 9.87746V9.87813ZM16.2091 17.7344C15.7543 17.2807 15.3036 16.8316 14.8528 16.3825C14.8181 16.4705 14.7921 16.5887 14.7306 16.6841C14.5096 17.0264 14.6218 17.2586 14.9056 17.5196C15.4839 18.0507 15.4685 18.0681 16.1944 17.7444C16.2018 17.7411 16.2084 17.7351 16.2091 17.7344ZM14.5777 18.3677C14.4582 18.2383 14.352 18.1228 14.2298 17.99C14.1577 18.1835 14.0942 18.355 14.0068 18.5893C14.2452 18.4965 14.4161 18.4298 14.5777 18.3671V18.3677Z" fill="#E66A44"/>
<path id="Vector_2" d="M3.68992 2.11413H2.91797V2.88154H3.68992V2.11413ZM4.51597 2.11279V2.88287H5.28191V2.11279H4.51597ZM6.89593 2.11613H6.1193V2.87887H6.89593V2.11613Z" fill="#E66A44"/>
<path id="Vector_3" d="M6.50151 10.8953C5.47647 10.8953 4.45209 10.896 3.42705 10.8953C3.03573 10.8953 2.90284 10.7625 2.90284 10.3701C2.90218 9.12092 2.90218 7.8717 2.90284 6.62249C2.90284 6.23011 3.03506 6.09865 3.42772 6.09865C5.47713 6.09798 7.52722 6.09798 9.57663 6.09865C9.96862 6.09865 10.1008 6.23144 10.1015 6.62316C10.1022 7.87237 10.1022 9.12158 10.1015 10.3708C10.1015 10.7618 9.96795 10.8946 9.57597 10.8953C8.55092 10.8966 7.52655 10.8953 6.50151 10.8953ZM3.71219 10.0772H9.28949V6.9121H3.71219V10.0772Z" fill="#E66A44"/>
<path id="Vector_4" d="M4.51172 13.2764V12.5083H14.8883V13.2764H4.51172Z" fill="#E66A44"/>
<path id="Vector_5" d="M2.91406 14.8765V14.1064H13.2813V14.8765H2.91406Z" fill="#E66A44"/>
<path id="Vector_6" d="M2.91016 16.4741V15.7061H11.6868V16.4741H2.91016Z" fill="#E66A44"/>
<path id="Vector_7" d="M2.91016 18.0737V17.3057H11.6868V18.0737H2.91016Z" fill="#E66A44"/>
<path id="Vector_8" d="M11.6898 18.9077V19.6778H2.92188V18.9077H11.6892H11.6898Z" fill="#E66A44"/>
<path id="Vector_9" d="M11.7109 8.87946V8.10938H18.8789V8.87946H11.7109Z" fill="#E66A44"/>
<path id="Vector_10" d="M13.3125 7.28473V6.51465H19.6851V7.28473H13.3125Z" fill="#E66A44"/>
<path id="Vector_11" d="M11.7148 9.7085H17.2861V10.4779H11.7148V9.7085Z" fill="#E66A44"/>
<path id="Vector_12" d="M11.7109 7.28268V6.5166H12.4816V7.28268H11.7109Z" fill="#E66A44"/>
<path id="Vector_13" d="M3.68859 13.2839H2.91797V12.5098H3.68859V13.2839Z" fill="#E66A44"/>
<path id="Vector_14" d="M3.68992 2.11426V2.88167H2.91797V2.11426H3.68992Z" fill="#E66A44"/>
<path id="Vector_15" d="M4.51562 2.11279H5.28157V2.88287H4.51562V2.11279Z" fill="#E66A44"/>
<path id="Vector_16" d="M6.89382 2.11621V2.87895H6.11719V2.11621H6.89382Z" fill="#E66A44"/>
</g>
<defs>
<clipPath id="clip0_872_2796">
<rect width="24" height="24" fill="white" transform="translate(0.5 0.5)"/>
</clipPath>
</defs>
</svg>
