<svg width="27" height="19" viewBox="0 0 27 19" fill="none" xmlns="http://www.w3.org/2000/svg">
<g id="Group 925">
<path id="Vector" d="M8.62133 9.58085C8.06133 9.00085 7.39133 8.68085 6.61133 8.65085C5.71133 8.62085 4.81133 8.62085 3.91133 8.65085C2.36133 8.71085 1.11133 10.0008 1.07133 11.5608C1.06133 11.9908 1.07133 12.4308 1.07133 12.8608C1.07133 13.0508 1.12133 13.1608 1.30133 13.2108C2.14133 13.4608 2.97133 13.7308 3.82133 13.9608C4.29133 14.0908 4.55133 14.4608 4.28133 14.7908C4.17133 14.9308 3.92133 15.0408 3.74133 15.0208C2.51133 14.8708 1.36133 14.4708 0.281333 13.8908C0.161333 13.8208 0.0313331 13.6308 0.0213331 13.5008C0.0113331 12.7108 -0.0386669 11.9108 0.0613331 11.1308C0.271333 9.52085 1.19133 8.42085 2.71133 7.82085C2.78133 7.79085 2.85133 7.76085 2.92133 7.73085C1.17133 5.96085 1.68133 3.71085 2.96133 2.56085C4.33133 1.33085 6.38133 1.36085 7.70133 2.66085C8.95133 3.89085 9.30133 6.02085 7.65133 7.70085C8.00133 7.88085 8.36133 8.03085 8.69133 8.24085C9.01133 8.45085 9.29133 8.73085 9.63133 9.00085C9.92133 8.90085 10.2513 8.79085 10.6113 8.66085C9.41133 7.63085 8.78133 6.36085 8.90133 4.78085C8.99133 3.58085 9.52133 2.59085 10.4213 1.80085C12.2513 0.190848 14.9313 0.320848 16.5913 2.07085C18.2713 3.85085 18.3713 6.74085 16.1213 8.66085C16.4613 8.78085 16.7913 8.90085 17.1313 9.02085C17.6513 8.42085 18.3013 7.98085 19.1113 7.73085C18.2613 6.90085 17.8513 5.91085 17.9813 4.74085C18.0813 3.84085 18.5113 3.10085 19.1913 2.51085C20.5613 1.33085 22.5513 1.40085 23.8613 2.65085C25.0713 3.81085 25.5113 5.99085 23.8013 7.73085C24.5113 7.97085 25.1313 8.34085 25.6413 8.90085C26.3413 9.67085 26.7013 10.5808 26.7213 11.6308C26.7213 12.2108 26.7213 12.7908 26.7213 13.3708C26.7213 13.6508 26.6113 13.8308 26.3713 13.9508C25.3513 14.4608 24.2813 14.8308 23.1613 15.0108C23.1113 15.0108 23.0513 15.0308 22.9913 15.0308C22.6413 15.0508 22.4013 14.8808 22.3613 14.5808C22.3213 14.2708 22.5013 14.0508 22.8413 13.9708C23.4713 13.8208 24.1013 13.6908 24.7113 13.4908C25.6513 13.1808 25.6613 13.1608 25.6413 12.1608C25.6413 11.7008 25.6413 11.2108 25.5013 10.7808C25.1313 9.58085 24.2913 8.81085 23.0313 8.70085C21.9613 8.60085 20.8813 8.65085 19.8013 8.70085C19.1313 8.73085 18.5613 9.09085 18.0913 9.58085C18.3513 9.82085 18.6013 10.0408 18.8213 10.2808C19.8013 11.3608 20.2413 12.6408 20.2113 14.1008C20.2013 14.7608 20.2113 15.4108 20.2213 16.0708C20.2213 16.3808 20.1113 16.5908 19.8213 16.7308C15.5013 18.8708 11.1813 18.8608 6.87133 16.7008C6.70133 16.6208 6.51133 16.3708 6.51133 16.2008C6.48133 15.3008 6.49133 14.4008 6.53133 13.5008C6.61133 11.9608 7.29133 10.7108 8.47133 9.73085C8.52133 9.69085 8.57133 9.64085 8.63133 9.58085H8.62133ZM13.3513 9.57085C13.3513 9.57085 13.3513 9.61085 13.3513 9.62085C12.7913 9.62085 12.2413 9.62085 11.6813 9.62085C9.75133 9.65085 8.00133 11.0508 7.68133 12.9508C7.53133 13.8508 7.59133 14.7908 7.58133 15.7108C7.58133 15.7908 7.70133 15.9208 7.79133 15.9608C11.4913 17.6708 15.1913 17.6608 18.9013 15.9708C19.0913 15.8808 19.1313 15.7708 19.1313 15.5808C19.1213 14.9808 19.1113 14.3808 19.1113 13.7808C19.1013 11.8308 17.7913 10.1408 15.8813 9.75085C15.0613 9.58085 14.2013 9.62085 13.3613 9.56085L13.3513 9.57085ZM13.3513 1.74085C11.5113 1.74085 9.94133 3.29085 9.94133 5.13085C9.94133 6.98085 11.4913 8.54085 13.3313 8.55085C15.1913 8.55085 16.7613 7.00085 16.7613 5.14085C16.7613 3.30085 15.2013 1.74085 13.3613 1.74085H13.3513ZM5.25133 7.55085C6.59133 7.55085 7.68133 6.47085 7.68133 5.14085C7.68133 3.81085 6.58133 2.72085 5.25133 2.73085C3.94133 2.73085 2.85133 3.82085 2.84133 5.13085C2.84133 6.46085 3.92133 7.55085 5.25133 7.55085ZM21.4213 7.55085C22.7613 7.55085 23.8513 6.48085 23.8513 5.15085C23.8513 3.82085 22.7613 2.73085 21.4313 2.73085C20.1113 2.73085 19.0113 3.83085 19.0213 5.16085C19.0213 6.47085 20.1113 7.55085 21.4213 7.55085Z" fill="#E66A44"/>
</g>
</svg>
