<svg width="25" height="18" viewBox="0 0 25 18" fill="none" xmlns="http://www.w3.org/2000/svg">
<path id="person.2" d="M16.9189 8.9873C19.0459 8.9873 20.7686 7.11523 20.7686 4.8125C20.7686 2.54492 19.0547 0.734375 16.9189 0.734375C14.8096 0.734375 13.0693 2.57129 13.0693 4.83008C13.0781 7.12402 14.8008 8.9873 16.9189 8.9873ZM6.73242 9.18945C8.58691 9.18945 10.0811 7.5459 10.0811 5.51562C10.0811 3.53809 8.58691 1.93848 6.73242 1.93848C4.89551 1.93848 3.375 3.56445 3.38379 5.52441C3.38379 7.55469 4.88672 9.18945 6.73242 9.18945ZM16.9189 7.44922C15.7061 7.44922 14.6777 6.30664 14.6777 4.82129C14.6777 3.38867 15.6973 2.27246 16.9189 2.27246C18.1494 2.27246 19.1602 3.37109 19.1602 4.8125C19.1602 6.28906 18.1406 7.44922 16.9189 7.44922ZM6.73242 7.66895C5.73926 7.66895 4.89551 6.71973 4.89551 5.52441C4.89551 4.38184 5.73047 3.4502 6.73242 3.4502C7.75195 3.4502 8.57812 4.36426 8.57812 5.51562C8.57812 6.71973 7.73438 7.66895 6.73242 7.66895ZM1.89844 17.2666H8.72754C8.24414 16.9854 7.91895 16.3438 7.98047 15.7637H1.81934C1.65234 15.7637 1.58203 15.6846 1.58203 15.5352C1.58203 13.5225 3.9375 11.6064 6.72363 11.6064C7.70801 11.6064 8.69238 11.8525 9.44824 12.2744C9.74707 11.8438 10.1162 11.4746 10.5996 11.1582C9.4834 10.4727 8.09473 10.1035 6.72363 10.1035C3.00586 10.1035 0 12.7578 0 15.6758C0 16.7305 0.632812 17.2666 1.89844 17.2666ZM11.4434 17.2666H22.3945C23.915 17.2666 24.6533 16.7832 24.6533 15.7461C24.6533 13.3291 21.6299 10.1123 16.9189 10.1123C12.208 10.1123 9.18457 13.3291 9.18457 15.7461C9.18457 16.7832 9.92285 17.2666 11.4434 17.2666ZM11.1621 15.7285C10.96 15.7285 10.8809 15.6582 10.8809 15.5C10.8809 14.1553 13.0518 11.6504 16.9189 11.6504C20.7861 11.6504 22.957 14.1553 22.957 15.5C22.957 15.6582 22.8779 15.7285 22.667 15.7285H11.1621Z" fill="#1C1C1E"/>
</svg>
