<svg width="14" height="13" viewBox="0 0 14 13" fill="none" xmlns="http://www.w3.org/2000/svg">
<g id="Layer_1" clip-path="url(#clip0_472_13068)">
<path id="Vector" d="M3.08786 0.131451C5.6384 0.0232468 8.25076 0.201011 10.809 0.123722C12.5171 0.185554 13.3596 0.834781 13.3673 2.63561C13.2977 5.18615 13.4678 7.79079 13.3673 10.3413C13.3055 12.0417 12.6253 12.8687 10.8554 12.8764C8.30487 12.8068 5.70023 12.9769 3.14969 12.8764C1.43388 12.8146 0.614616 12.119 0.614616 10.3413C0.699634 7.79079 0.529598 5.19388 0.622345 2.6588C0.691905 0.904341 1.32567 0.20874 3.08786 0.131451ZM2.95647 0.680203C1.65029 0.749763 1.2252 1.27533 1.1711 2.55832C1.05516 5.30208 1.24066 8.15404 1.20201 10.9055C1.24839 11.663 1.84351 12.2504 2.60094 12.3045C5.36016 12.2658 8.22758 12.459 10.9791 12.3354C12.293 12.2735 12.7722 11.7944 12.834 10.4804C12.9654 7.72896 12.7567 4.86153 12.8031 2.10232C12.6794 1.09756 11.9761 0.672474 11.0022 0.672474C8.35124 0.77295 5.59975 0.533354 2.95647 0.672474V0.680203Z" fill="#E66A44" stroke="#E66A44" stroke-width="0.25" stroke-miterlimit="10"/>
<path id="Vector_2" d="M5.88011 8.75684H11.244C11.5918 8.78002 11.6072 9.25149 11.244 9.29013H5.9574C5.63278 9.25921 5.5555 8.85731 5.88011 8.75684Z" fill="#E66A44" stroke="#E66A44" stroke-width="0.25" stroke-miterlimit="10"/>
<path id="Vector_3" d="M5.91054 2.38062H11.2203C11.5217 2.38062 11.6222 2.73614 11.3594 2.89845L5.926 2.92164C5.58593 2.88299 5.58593 2.4579 5.90281 2.38834L5.91054 2.38062Z" fill="#E66A44" stroke="#E66A44" stroke-width="0.25" stroke-miterlimit="10"/>
<path id="Vector_4" d="M5.85793 5.58032L11.3609 5.59578C11.5619 5.71171 11.5464 5.94358 11.3609 6.07497L5.89657 6.09043C5.60288 6.05951 5.58742 5.67307 5.8502 5.58032H5.85793Z" fill="#E66A44" stroke="#E66A44" stroke-width="0.25" stroke-miterlimit="10"/>
<path id="Vector_5" d="M3.36043 5.44879C4.84438 5.23238 5.04533 7.39647 3.7005 7.55105C2.26293 7.72108 2.08516 5.63428 3.36043 5.44879ZM3.44545 5.98981C2.92761 6.08256 2.93534 6.93274 3.46864 7.01003C4.24926 7.11823 4.24153 5.85069 3.44545 5.98981Z" fill="#E66A44" stroke="#E66A44" stroke-width="0.25" stroke-miterlimit="10"/>
<path id="Vector_6" d="M3.44372 8.62556C4.78855 8.47871 5.05906 10.4959 3.76061 10.7278C2.32303 10.9906 1.99842 8.78013 3.44372 8.62556ZM3.18867 10.0399C3.66786 10.5578 4.39438 9.7617 3.89973 9.29024C3.40508 8.81878 2.74812 9.56848 3.18867 10.0399Z" fill="#E66A44" stroke="#E66A44" stroke-width="0.25" stroke-miterlimit="10"/>
<path id="Vector_7" d="M3.52359 2.24901C5.01527 2.21037 4.92252 4.53676 3.43858 4.37446C2.11693 4.22761 2.23287 2.27993 3.52359 2.24901ZM3.52359 2.79003C2.85891 2.84414 2.92074 3.89527 3.59315 3.84116C4.26557 3.78706 4.15736 2.73593 3.52359 2.79003Z" fill="#E66A44" stroke="#E66A44" stroke-width="0.25" stroke-miterlimit="10"/>
<path id="Vector_8" d="M5.88011 10.0862L9.24218 10.1016C9.50496 10.2562 9.38903 10.5963 9.10306 10.6272H5.9574C5.63278 10.5963 5.5555 10.1944 5.88011 10.0939V10.0862Z" fill="#E66A44" stroke="#E66A44" stroke-width="0.25" stroke-miterlimit="10"/>
<path id="Vector_9" d="M9.32588 3.79489C9.47272 3.95719 9.34906 4.24316 9.13265 4.25089H5.93289C5.58509 4.21225 5.58509 3.74851 5.96381 3.70987C6.96856 3.77943 8.09698 3.61712 9.08628 3.70987C9.16357 3.70987 9.2795 3.74079 9.3336 3.80262L9.32588 3.79489Z" fill="#E66A44" stroke="#E66A44" stroke-width="0.25" stroke-miterlimit="10"/>
<path id="Vector_10" d="M5.85788 6.90967L9.25086 6.92513C9.44408 7.03333 9.44408 7.28838 9.25086 7.39659H5.81923C5.61828 7.28065 5.62601 6.98696 5.85788 6.90967Z" fill="#E66A44" stroke="#E66A44" stroke-width="0.25" stroke-miterlimit="10"/>
</g>
<defs>
<clipPath id="clip0_472_13068">
<rect width="13" height="13" fill="white" transform="translate(0.5)"/>
</clipPath>
</defs>
</svg>
