<svg width="14" height="19" viewBox="0 0 14 19" fill="none" xmlns="http://www.w3.org/2000/svg">
<g id="Layer_1" clip-path="url(#clip0_472_13082)">
<path id="Vector" d="M6.42233 0.519586C10.4022 0.222772 13.8033 3.33904 13.478 7.17526C13.2427 9.94664 10.0669 13.5917 8.03102 15.4872C7.85663 15.6493 7.55116 15.9383 7.37151 16.0707C7.19185 16.2032 7.04087 16.2429 6.81382 16.187C6.69327 16.1574 5.77862 15.3055 5.62003 15.1518C3.70529 13.3005 0.710287 9.80187 0.515419 7.1406C0.272565 3.81472 2.92757 0.780067 6.42233 0.519586ZM6.64119 1.48158C3.42498 1.6951 0.958993 4.59113 1.6425 7.6543C1.98659 9.19594 3.13473 10.8198 4.13599 12.0512C4.99037 13.102 5.96354 14.1205 6.9847 15.0221C7.08242 15.0389 7.48094 14.6342 7.57106 14.5464C9.51389 12.6565 12.6417 9.16911 12.4779 6.38431C12.3093 3.52685 9.628 1.28426 6.64119 1.48214V1.48158Z" fill="#E66A44"/>
<path id="Vector_2" d="M2.82578 13.5716C3.30505 13.4928 3.65266 13.8472 3.43146 14.2753C3.31325 14.504 2.6315 14.6851 2.35529 14.8371C1.21066 15.4654 1.29259 16.078 2.41439 16.6649C4.61705 17.8181 9.42146 17.8293 11.6124 16.6498C12.7213 16.0529 12.7676 15.4542 11.6434 14.8371C11.2221 14.6057 10.3882 14.5095 10.5134 13.9271C10.6738 13.1831 11.8044 13.7941 12.1976 14.0149C13.6951 14.8572 14.0339 16.2161 12.5066 17.253C10.0628 18.9114 3.89493 18.926 1.46639 17.2362C-0.0199964 16.2015 0.307125 14.8673 1.77361 14.0305C1.99481 13.9042 2.59288 13.6107 2.82637 13.5721L2.82578 13.5716Z" fill="#E66A44"/>
<path id="Vector_3" d="M6.94899 4.28264C10.2442 4.2178 10.3846 8.99197 7.11167 9.1278C3.76438 9.26643 3.57419 4.34915 6.94899 4.28264ZM6.7272 5.28767C4.99855 5.51293 5.13958 8.16693 7.01511 8.14737C9.07498 8.12613 8.96204 4.99588 6.7272 5.28767Z" fill="#E66A44"/>
</g>
<defs>
<clipPath id="clip0_472_13082">
<rect width="13" height="18" fill="white" transform="translate(0.5 0.5)"/>
</clipPath>
</defs>
</svg>
