<svg width="21" height="26" viewBox="0 0 21 26" fill="none" xmlns="http://www.w3.org/2000/svg">
<g id="Layer_1" clip-path="url(#clip0_472_13108)">
<path id="Vector" d="M10.8799 0.207503C14.4463 0.459515 17.4498 3.21096 17.5775 6.33478C17.6212 7.41555 16.6547 8.31013 15.4207 7.76912C14.5431 7.3842 14.7037 6.73599 14.5854 6.04829C14.077 3.10188 9.87823 1.64497 7.32998 3.73316C6.30824 4.57007 5.90887 5.68469 5.84004 6.88269C5.77264 8.05686 5.89525 9.28182 5.84219 10.461H19.3241C19.36 10.461 19.8217 10.6328 19.8877 10.6691C20.2261 10.8553 20.4577 11.244 20.4971 11.5869L20.5 24.6426C20.4175 25.2733 19.8368 25.7942 19.0975 25.8181H1.40247C0.689763 25.7617 0.0645308 25.2156 0 24.5925L0.00215103 11.5863C0.0451716 11.2559 0.349183 10.8459 0.669686 10.6691C0.735651 10.6328 1.19669 10.461 1.23254 10.461H2.92109C3.02219 8.51826 2.62067 6.44386 3.37639 4.58198C4.28341 2.35023 6.80585 0.418139 9.56275 0.207503C9.91982 0.179919 10.5207 0.182427 10.8792 0.207503H10.8799ZM9.95208 14.376C7.67271 14.5634 6.50686 16.8416 7.9882 18.4132C8.22983 18.6696 8.56539 18.8439 8.80702 19.0984C8.86653 20.2663 8.38685 22.1282 10.4497 21.9633C12.1418 21.8279 11.584 20.1064 11.693 19.0984C11.9662 18.8439 12.306 18.6896 12.5692 18.4132C14.2606 16.6391 12.3813 14.176 9.95208 14.376Z" fill="#E66A44"/>
</g>
<defs>
<clipPath id="clip0_472_13108">
<rect width="20.5" height="25.63" fill="white" transform="translate(0 0.1875)"/>
</clipPath>
</defs>
</svg>
