<svg width="21" height="26" viewBox="0 0 21 26" fill="none" xmlns="http://www.w3.org/2000/svg">
<g id="Group 170">
<path id="Vector" d="M10.8904 0.1875C14.4049 0.489612 17.4263 2.96543 18.0764 6.23288C18.3089 7.3987 18.1553 8.61279 18.1987 9.79617H20.0394C20.2506 9.79617 20.5412 10.1603 20.4951 10.3697V23.8356C20.3815 24.8999 19.5216 25.7059 18.3878 25.8125H2.16568C1.01379 25.7335 0.159888 24.9469 0.00754914 23.8832L0.00487653 10.3697C-0.041226 10.1603 0.249421 9.79617 0.460557 9.79617H2.30132C2.34542 8.61279 2.19174 7.3987 2.42359 6.23288C3.06368 3.01745 6.1158 0.435082 9.60958 0.1875H10.8898H10.8904ZM14.7844 9.79617V7.16867C14.7844 6.65094 14.312 5.69008 13.996 5.25571C12.1947 2.7799 8.30401 2.78115 6.50333 5.25571C6.1873 5.69008 5.71491 6.65032 5.71491 7.16867V9.79617H14.7838H14.7844ZM9.80935 14.1122C8.43363 14.2978 7.67527 15.7826 8.12828 16.9666C8.29331 17.3979 8.63207 17.6517 8.9167 17.9802L8.55456 21.069C8.60401 21.2752 8.68686 21.4168 8.90601 21.492C9.24543 21.6093 10.7588 21.5905 11.1858 21.5591C11.6127 21.5278 11.916 21.4331 11.9601 20.98L11.584 17.9802C11.5933 17.8372 11.7711 17.8034 11.8452 17.7238C13.3606 16.1086 12.0851 13.8057 9.80935 14.1122Z" fill="#E66A44"/>
</g>
</svg>
