<svg width="154" height="49" viewBox="0 0 154 49" fill="none" xmlns="http://www.w3.org/2000/svg">
<g id="OBJECTS" clip-path="url(#clip0_694_2549)">
<path id="Vector" d="M153.021 24.5H23.9414" stroke="#9C9A9A" stroke-width="2.4" stroke-miterlimit="22.93"/>
<path id="Vector_2" d="M23.94 48.4396C37.1617 48.4396 47.88 37.7213 47.88 24.4996C47.88 11.2779 37.1617 0.55957 23.94 0.55957C10.7183 0.55957 0 11.2779 0 24.4996C0 37.7213 10.7183 48.4396 23.94 48.4396Z" fill="#E66A44"/>
<path id="Vector_3" d="M147.98 29.8197C150.918 29.8197 153.3 27.4378 153.3 24.4997C153.3 21.5615 150.918 19.1797 147.98 19.1797C145.042 19.1797 142.66 21.5615 142.66 24.4997C142.66 27.4378 145.042 29.8197 147.98 29.8197Z" fill="#9C9A9A"/>
</g>
<defs>
<clipPath id="clip0_694_2549">
<rect width="153.3" height="47.88" fill="white" transform="translate(0 0.55957)"/>
</clipPath>
</defs>
</svg>
