<svg width="38" height="38" viewBox="0 0 38 38" fill="none" xmlns="http://www.w3.org/2000/svg">
<g id="Star">
<path id="Star 1" d="M17.6567 3.82737C18.2082 2.71728 19.7918 2.71728 20.3433 3.82737L23.6937 10.5705C24.0577 11.3032 24.7572 11.8114 25.5665 11.9312L33.0149 13.0338C34.2411 13.2153 34.7305 14.7214 33.8451 15.589L28.4673 20.8591C27.883 21.4317 27.6159 22.254 27.752 23.0607L29.005 30.4853C29.2113 31.7076 27.9302 32.6384 26.8315 32.0645L20.1574 28.5785C19.4323 28.1997 18.5677 28.1997 17.8426 28.5785L11.1685 32.0645C10.0698 32.6384 8.7887 31.7076 8.99498 30.4853L10.248 23.0607C10.3842 22.254 10.117 21.4317 9.53267 20.8591L4.15486 15.589C3.26955 14.7214 3.75889 13.2153 4.98508 13.0338L12.4335 11.9312C13.2428 11.8114 13.9423 11.3032 14.3063 10.5705L17.6567 3.82737Z" stroke="#9F9F9F"/>
</g>
</svg>
