<svg width="25" height="25" viewBox="0 0 25 25" fill="none" xmlns="http://www.w3.org/2000/svg">
<g id="Layer_1" clip-path="url(#clip0_656_7651)">
<path id="Vector" d="M23.4071 0.561052C22.4158 1.69357 21.4262 2.82766 20.4328 3.95861C18.4766 6.18583 16.5184 8.41121 14.5612 10.6374C14.5404 10.6609 14.5217 10.6862 14.4884 10.7271C17.715 15.3209 20.9432 19.9172 24.1914 24.5423C24.0919 24.5485 24.0253 24.5564 23.9586 24.5564C21.723 24.5569 19.4874 24.5553 17.2517 24.5605C17.0976 24.5608 17.0107 24.5141 16.9235 24.3896C14.8401 21.4158 12.7517 18.4453 10.6638 15.4743C10.615 15.4046 10.563 15.3373 10.5017 15.2541C9.92432 15.9094 9.36108 16.5473 8.79945 17.1862C6.69131 19.5841 4.58237 21.9816 2.47876 24.3831C2.36302 24.5151 2.24594 24.5639 2.071 24.5608C1.46562 24.5506 0.859984 24.5569 0.191406 24.5569C3.33322 20.984 6.44169 17.4492 9.5603 13.9027C9.05653 13.185 8.55703 12.4725 8.05673 11.7605C5.48163 8.09476 2.90625 4.429 0.331682 0.762719C0.287679 0.699845 0.256211 0.628361 0.218875 0.561052C2.5985 0.561052 4.97786 0.561052 7.35748 0.561052C7.37322 0.587924 7.38709 0.615839 7.40495 0.641406C9.41789 3.50858 11.4314 6.37576 13.4451 9.24241C13.471 9.27919 13.5032 9.3118 13.5427 9.35824C13.6118 9.28572 13.672 9.22649 13.7278 9.1631C16.0431 6.53072 18.3585 3.89861 20.6717 1.26441C20.8723 1.03613 21.0584 0.795591 21.2512 0.560791C21.9699 0.560791 22.6884 0.560791 23.4071 0.560791V0.561052ZM21.2763 23.0628C21.2283 22.9848 21.2101 22.9508 21.188 22.9198C16.2703 16.0375 11.3527 9.15527 6.42862 2.27744C6.36968 2.195 6.22407 2.12926 6.1182 2.12795C5.17627 2.11647 4.23408 2.12117 3.29188 2.12169C3.24014 2.12169 3.18814 2.12769 3.09667 2.13343C3.17481 2.24692 3.23001 2.32962 3.28788 2.41076C5.05706 4.88608 6.82705 7.3614 8.59623 9.83671C11.705 14.1865 14.814 18.5361 17.9185 22.8888C18.0123 23.0205 18.1089 23.0675 18.2691 23.0664C19.1873 23.0596 20.1055 23.063 21.0237 23.063C21.0933 23.063 21.1629 23.063 21.2765 23.063L21.2763 23.0628Z" fill="black"/>
</g>
<defs>
<clipPath id="clip0_656_7651">
<rect width="24" height="24" fill="white" transform="translate(0.191406 0.561035)"/>
</clipPath>
</defs>
</svg>
