<svg width="26" height="17" viewBox="0 0 26 17" fill="none" xmlns="http://www.w3.org/2000/svg">
<g id="DESIGNED_BY_FREEPIK" clip-path="url(#clip0_872_2814)">
<g id="Group 924">
<path id="Vector" d="M25.9186 8.71004C23.6986 12.39 20.6486 15.05 16.4386 16.15C12.3886 17.21 8.58859 16.5 5.10859 14.19C3.10859 12.86 1.48859 11.14 0.198594 9.11004C-0.0714062 8.69004 -0.0714062 8.31004 0.198594 7.89004C2.17859 4.85004 4.73859 2.49004 8.18859 1.25004C12.3786 -0.259959 16.4286 0.180041 20.2386 2.47004C22.4786 3.82004 24.2686 5.66004 25.6686 7.86004C25.7586 8.00004 25.8386 8.15004 25.9186 8.29004V8.70004V8.71004ZM13.1386 2.02004C11.5786 2.02004 10.2486 2.24004 8.96859 2.70004C5.95859 3.78004 3.66859 5.77004 1.84859 8.35004C1.74859 8.50004 1.78859 8.58004 1.86859 8.70004C3.28859 10.71 5.01859 12.38 7.20859 13.53C10.5486 15.29 14.0086 15.49 17.5186 14.08C20.2386 12.99 22.3286 11.09 24.0086 8.72004C24.1186 8.56004 24.1386 8.45004 24.0086 8.28004C23.2186 7.17004 22.3186 6.15004 21.2886 5.26004C18.8886 3.20004 16.1386 2.02004 13.1386 2.01004V2.02004Z" fill="#E66A44"/>
<path id="Vector_2" d="M12.9498 3.64014C15.6298 3.64014 17.8098 5.82014 17.8098 8.50014C17.8098 11.1801 15.6298 13.3601 12.9498 13.3701C10.2698 13.3701 8.08984 11.1901 8.08984 8.51014C8.08984 5.83014 10.2698 3.65014 12.9498 3.65014V3.64014ZM9.70984 8.49014C9.70984 10.2701 11.1498 11.7401 12.9298 11.7501C14.7298 11.7501 16.1898 10.3001 16.1898 8.51014C16.1898 6.73014 14.7398 5.27014 12.9598 5.27014C11.1798 5.27014 9.70984 6.72014 9.70984 8.50014V8.49014Z" fill="#E66A44"/>
</g>
</g>
<defs>
<clipPath id="clip0_872_2814">
<rect width="25.92" height="16.26" fill="white" transform="translate(0 0.370117)"/>
</clipPath>
</defs>
</svg>
