<svg width="48" height="48" viewBox="0 0 48 48" fill="none" xmlns="http://www.w3.org/2000/svg">
<g id="Layer_1" clip-path="url(#clip0_1852_1583)">
<path id="Vector" d="M-0.000444122 22.3201C0.123839 21.4591 0.22149 20.5936 0.376845 19.737C1.40662 14.0871 4.14529 9.41359 8.49521 5.68544C11.8242 2.8405 15.6637 1.07406 19.9737 0.337309C22.8322 -0.150902 25.6951 -0.110957 28.5448 0.43939C28.78 0.483773 29.0375 0.572538 29.2195 0.72344C29.5524 0.998613 29.6189 1.3803 29.4458 1.78419C29.2638 2.20139 28.8555 2.40555 28.3628 2.3301C27.7458 2.23689 27.1333 2.13037 26.5119 2.05049C23.3826 1.65104 20.3021 1.94397 17.3149 2.9337C11.0253 5.01969 6.47561 9.09404 3.75025 15.139C2.2766 18.41 1.6907 21.8541 1.93926 25.4447C2.24109 29.7942 3.68811 33.7087 6.27143 37.215C6.35576 37.3259 6.44454 37.4325 6.55106 37.57C7.69181 37.0241 8.85918 36.9398 10.0266 37.4458C10.8743 37.8097 11.5091 38.4178 11.9352 39.2344C12.7963 40.8766 12.3746 42.9315 10.9321 44.1076C9.48504 45.2882 7.42549 45.2971 5.95628 44.1209C4.65574 43.0779 3.86566 41.0141 5.06854 38.9637C4.22519 37.5656 3.33745 36.243 2.60063 34.8449C1.15362 32.0976 0.341335 29.1506 0.083891 26.0527C0.0705749 25.9018 0.026188 25.7509 -0.00488281 25.6C-0.00488281 24.5082 -0.00488281 23.4119 -0.00488281 22.3201H-0.000444122ZM10.5015 41.0452C10.4926 39.9268 9.54718 38.9947 8.42863 38.9992C7.31008 39.008 6.36908 39.9578 6.37795 41.0718C6.38683 42.1858 7.34559 43.1312 8.45526 43.1223C9.57381 43.1135 10.5104 42.1637 10.5015 41.0452Z" fill="#E66A44"/>
<path id="Vector_2" d="M22.3089 48.0001C21.4345 47.8713 20.5557 47.7471 19.6812 47.6184C19.557 47.6006 19.4371 47.574 19.3173 47.5429C18.7491 47.4009 18.4295 46.9615 18.5272 46.46C18.6382 45.8963 19.1175 45.6167 19.7212 45.6922C20.9907 45.8519 22.2601 46.0916 23.5296 46.1005C30.7913 46.1493 36.7436 43.3443 41.3243 37.7166C44.0497 34.3657 45.6032 30.4822 46.0071 26.1859C46.5442 20.4161 45.035 15.1923 41.5418 10.5587C41.524 10.5321 41.5019 10.5143 41.4441 10.4566C40.2235 11.0247 38.9762 11.0958 37.7423 10.4566C36.9389 10.0439 36.3485 9.41809 35.9712 8.59257C35.2211 6.94153 35.7005 4.97537 37.1164 3.87024C38.5812 2.72516 40.6052 2.74292 42.0522 3.91019C43.2152 4.84666 44.1873 6.86164 42.8601 9.16955C44.205 10.896 45.3147 12.769 46.1536 14.7973C47.6361 18.3923 48.2398 22.1249 47.9113 26.0084C47.0103 36.6247 39.3979 45.2661 28.9581 47.5074C28.0171 47.7116 27.045 47.7826 26.0907 47.9246C25.9531 47.9424 25.82 47.9867 25.6868 48.0134H22.3134L22.3089 48.0001ZM39.5621 9.01421C40.6763 9.00977 41.6217 8.05998 41.6128 6.94597C41.6039 5.83196 40.6541 4.88661 39.5399 4.89548C38.4258 4.90436 37.4848 5.85415 37.4937 6.96816C37.4981 8.08661 38.4436 9.02308 39.5621 9.01865V9.01421Z" fill="#E66A44"/>
<path id="Vector_3" d="M31.5056 36.9309C30.2983 37.4014 29.2241 37.8141 28.1588 38.2491C28.0301 38.3024 27.8881 38.4932 27.8792 38.6308C27.8437 39.1146 27.8792 39.5983 27.8614 40.0821C27.8392 40.7212 27.493 41.0585 26.8539 41.0585C24.9497 41.063 23.041 41.063 21.1368 41.0585C20.5021 41.0585 20.1559 40.7212 20.1337 40.0777C20.1159 39.5939 20.147 39.1101 20.1159 38.6264C20.107 38.4888 19.965 38.2979 19.8363 38.2447C18.771 37.8053 17.6968 37.397 16.4895 36.9221C16.2232 37.2061 15.8681 37.5967 15.4997 37.9695C14.9093 38.5642 14.4388 38.5687 13.8529 37.9872C12.5702 36.709 11.2874 35.4264 10.009 34.1437C9.42312 33.5534 9.42756 33.0963 10.009 32.4971C10.3686 32.1287 10.9323 31.8003 11.0166 31.3742C11.0965 30.9836 10.6393 30.4999 10.4529 30.0427C10.2043 29.4391 9.97352 28.8266 9.77378 28.2008C9.69388 27.9434 9.58735 27.8458 9.32103 27.8546C8.85497 27.8724 8.38447 27.868 7.91397 27.8546C7.2748 27.8325 6.93302 27.4907 6.93302 26.856C6.92858 24.952 6.92858 23.0436 6.93302 21.1395C6.93302 20.5049 7.27036 20.1542 7.90953 20.1276C8.39335 20.1054 8.8816 20.1409 9.36098 20.1054C9.49858 20.0965 9.68501 19.9501 9.74271 19.8214C10.1644 18.8538 10.5505 17.8685 10.9767 16.901C11.0743 16.6791 11.0832 16.5459 10.9012 16.3773C10.5683 16.071 10.2532 15.7426 9.93801 15.4186C9.45419 14.9171 9.44088 14.4289 9.92469 13.9406C11.2563 12.6003 12.5923 11.2644 13.9328 9.93287C14.4211 9.4491 14.9093 9.45798 15.4109 9.93731C15.7483 10.2613 16.0634 10.6119 16.4141 10.9226C16.5073 11.0025 16.7248 11.0336 16.8446 10.9847C17.8566 10.5853 18.8642 10.1725 19.8629 9.74203C19.9783 9.69321 20.1026 9.5068 20.1115 9.37809C20.1426 8.89432 20.1115 8.41054 20.1292 7.92677C20.1514 7.28766 20.4977 6.95479 21.1368 6.95035C23.041 6.94591 24.9497 6.94591 26.8539 6.95035C27.493 6.95035 27.8348 7.28766 27.857 7.93121C27.8748 8.39723 27.8703 8.86769 27.857 9.33815C27.8526 9.57337 27.928 9.68433 28.1633 9.77753C29.1487 10.1592 30.1252 10.5675 31.0928 10.9892C31.3192 11.0868 31.4479 11.0824 31.6166 10.9049C31.9362 10.5631 32.2691 10.2302 32.6108 9.91068C33.0725 9.47573 33.5696 9.46242 34.0179 9.91068C35.385 11.2599 36.7433 12.618 38.0971 13.985C38.5409 14.4333 38.5232 14.9304 38.0793 15.3964C37.7597 15.7381 37.4268 16.071 37.085 16.3906C36.8986 16.5637 36.9164 16.6968 37.014 16.9143C37.4357 17.8685 37.8396 18.8272 38.2125 19.7992C38.3101 20.0566 38.4211 20.1409 38.6741 20.132C39.1402 20.1187 39.6107 20.1143 40.0812 20.132C40.7203 20.1587 41.0532 20.5049 41.0532 21.144C41.0577 23.048 41.0577 24.9565 41.0532 26.8605C41.0532 27.4951 40.7114 27.8369 40.0678 27.8591C39.6151 27.8768 39.1623 27.8768 38.7096 27.8591C38.4433 27.8502 38.3146 27.9212 38.208 28.2053C37.8396 29.1817 37.4313 30.1404 37.0096 31.0902C36.9119 31.3076 36.8986 31.4408 37.085 31.6094C37.4313 31.9246 37.7597 32.2619 38.0793 32.5992C38.5365 33.0785 38.5454 33.5712 38.0793 34.0416C36.7388 35.3953 35.3939 36.7445 34.0357 38.0849C33.5696 38.5465 33.0725 38.5332 32.5931 38.0627C32.1936 37.6721 31.8163 37.2549 31.5012 36.9221L31.5056 36.9309ZM22.0645 8.84106C22.0423 8.91207 22.0246 8.9387 22.0246 8.96977C22.0246 9.3914 22.0246 9.81304 22.0157 10.2347C22.0112 10.9093 21.7893 11.2155 21.1457 11.3709C19.6943 11.7215 18.3316 12.2763 17.0665 13.0663C16.5517 13.3859 16.1477 13.337 15.7216 12.9065C15.3843 12.5648 15.0736 12.1964 14.8028 11.8946C13.8041 12.8976 12.8853 13.8208 11.9354 14.775C12.2284 15.0591 12.5746 15.3742 12.9031 15.7071C13.338 16.1553 13.3958 16.5326 13.0673 17.0563C12.2728 18.3212 11.7135 19.6838 11.3673 21.1351C11.2119 21.7831 10.9012 22.0139 10.2398 22.0183C9.77822 22.0227 9.31215 22.0183 8.83721 22.0183V25.9284C8.89048 25.9506 8.91711 25.9684 8.94818 25.9684C9.3521 25.9728 9.76046 25.9773 10.1644 25.9773C10.9367 25.9773 11.2208 26.1814 11.3895 26.9137C11.7179 28.3251 12.2683 29.6344 13.0273 30.8682C13.4002 31.4718 13.3602 31.8269 12.8498 32.324C12.5213 32.648 12.1574 32.9365 11.8245 33.2294C12.8454 34.2458 13.7597 35.1601 14.7318 36.132C15.0603 35.7814 15.3887 35.4086 15.7438 35.058C16.1566 34.6541 16.5295 34.6008 17.0133 34.9026C18.3094 35.7104 19.6943 36.2829 21.1768 36.6336C21.776 36.7756 22.0024 37.0951 22.0112 37.7032C22.0157 38.1825 22.0112 38.6619 22.0112 39.1634H25.9129C25.9351 39.1146 25.9572 39.0879 25.9572 39.0613C25.9617 38.6264 25.9661 38.187 25.9706 37.752C25.9794 37.0818 26.2014 36.7756 26.8494 36.6203C28.3009 36.2741 29.6636 35.7148 30.9286 34.9204C31.4568 34.5875 31.8208 34.6363 32.2735 35.0846C32.6197 35.4219 32.9349 35.7859 33.2189 36.0877C34.1955 35.1157 35.1187 34.197 36.0952 33.225C35.7712 32.9232 35.4117 32.6036 35.0699 32.2574C34.6482 31.8313 34.5949 31.4497 34.9056 30.9526C35.709 29.6743 36.2728 28.2985 36.6234 26.8338C36.7743 26.2036 37.0762 25.9861 37.7198 25.9817C38.1947 25.9817 38.6741 25.9817 39.1402 25.9817V22.0272C38.6563 22.0272 38.2036 22.0272 37.7508 22.0272C37.0806 22.0183 36.7699 21.792 36.6145 21.1484C36.2639 19.6971 35.709 18.3345 34.9145 17.0696C34.5816 16.5415 34.6304 16.1687 35.0699 15.7248C35.4072 15.3831 35.7756 15.068 36.0775 14.7884C35.0965 13.8031 34.1777 12.8799 33.25 11.9479C33.2678 11.939 33.25 11.9434 33.2411 11.9523C32.9304 12.2585 32.6197 12.5692 32.3046 12.871C31.8208 13.3415 31.4435 13.3947 30.8842 13.0441C29.628 12.2585 28.2787 11.7126 26.845 11.3664C26.1969 11.2111 25.9706 10.9093 25.9617 10.2436C25.9617 9.78197 25.9617 9.32039 25.9617 8.84106H22.0512H22.0645Z" fill="#E66A44"/>
<path id="Vector_4" d="M32.6155 1.69096C33.1615 1.68652 33.5609 2.07709 33.5609 2.61856C33.5609 3.15115 33.1437 3.57279 32.6199 3.56391C32.1272 3.55947 31.7056 3.14227 31.6878 2.64519C31.6745 2.11703 32.0784 1.69539 32.6111 1.69096H32.6155Z" fill="#E66A44"/>
<path id="Vector_5" d="M15.4158 44.4583C15.9262 44.4627 16.3524 44.911 16.3435 45.4302C16.3302 45.9584 15.904 46.3623 15.3714 46.3445C14.8698 46.3268 14.457 45.9051 14.457 45.4125C14.457 44.9154 14.9187 44.4583 15.4158 44.4627V44.4583Z" fill="#E66A44"/>
<path id="Vector_6" d="M24.009 31.7692C19.7612 31.7737 16.2458 28.2763 16.2325 24.0289C16.2191 19.7593 19.739 16.2397 24.009 16.2441C28.2613 16.2486 31.759 19.7548 31.759 24.0067C31.759 28.2541 28.2569 31.7604 24.009 31.7692ZM29.8548 23.9978C29.8459 20.749 27.2227 18.1437 23.978 18.157C20.7466 18.1704 18.1544 20.7668 18.1455 23.9934C18.1367 27.2333 20.7555 29.8563 24.0002 29.8563C27.2449 29.8563 29.8637 27.2333 29.8548 23.9934V23.9978Z" fill="#E66A44"/>
</g>
<defs>
<clipPath id="clip0_1852_1583">
<rect width="48" height="48" fill="white"/>
</clipPath>
</defs>
</svg>
