<svg width="48" height="48" viewBox="0 0 48 48" fill="none" xmlns="http://www.w3.org/2000/svg">
<g id="Group 1338">
<g id="Group 1363">
<path id="Vector" d="M0 30.93C0.0910074 30.5351 0.182015 30.1403 0.279523 29.7455C0.799565 27.7211 1.85265 26.113 3.48429 25.0219C5.21993 23.8589 6.98157 22.7534 8.74972 21.655C8.97073 21.5186 9.28276 21.5617 9.55578 21.5115C9.7248 21.4827 9.93281 21.5115 10.0498 21.411C13.6186 18.3528 16.7909 14.8783 19.1766 10.6213C19.8656 9.39375 20.4117 8.07286 20.9967 6.78069C21.0942 6.5725 21.1137 6.27817 21.0617 6.04128C20.6262 3.8733 21.5948 1.72685 23.4019 0.915654C25.2351 0.0900988 27.2957 0.82233 28.3228 2.73188C29.6359 5.17265 30.9035 7.64931 32.1906 10.1116C32.2361 10.1978 32.2946 10.2767 32.3661 10.3916C33.6012 9.74551 34.8559 9.65936 36.1235 10.2337C37.0855 10.6716 37.8136 11.3966 38.3141 12.3945C39.2892 14.3184 39.0942 17.1396 36.819 18.9558C36.9945 19.2932 37.1635 19.6306 37.3456 19.968C38.4897 22.1647 39.6597 24.3399 40.7778 26.5509C42.0389 29.042 40.9989 32.0499 38.5937 32.9113C37.1635 33.421 35.8374 33.1123 34.7128 32.014C34.4073 31.7125 34.0888 31.5976 33.7183 31.5545C31.1245 31.253 28.5438 31.3966 25.9761 31.8704C22.9534 32.4303 20.0346 33.4066 17.1939 34.6773C17.1094 34.7132 17.0249 34.7634 16.8949 34.8352C17.5904 35.8474 18.273 36.8453 18.9621 37.8431C19.9826 39.3219 21.0097 40.8007 22.0303 42.2867C22.9209 43.5789 22.8104 44.8567 21.7248 45.9551C21.2957 46.3858 20.8732 46.8165 20.4442 47.2401C19.3131 48.3671 17.909 48.2307 16.9794 46.8955C15.2307 44.3829 13.4756 41.8632 11.7465 39.3363C11.5189 38.9989 11.3564 38.9773 11.0314 39.1712C6.49403 41.8991 0.968579 38.9414 0.0910074 33.3349C0.0780064 33.2559 0.0325027 33.1841 0 33.1123C0 32.3873 0 31.6622 0 30.9372L0 30.93ZM33.0877 29.3722C29.4799 22.4806 25.9111 15.6464 22.3033 8.74766C19.5926 14.7634 15.5428 19.3866 10.8429 23.4067C12.5265 26.6299 14.1972 29.8173 15.8678 33.0118C21.3867 30.5208 27.0292 28.963 33.0877 29.3722ZM37.0985 31.0448C38.2751 31.0592 39.1137 30.3844 39.3607 29.3937C39.5362 28.6687 39.3867 28.0154 39.0487 27.3693C36.143 21.8202 33.2437 16.271 30.338 10.7218C29.1419 8.43898 27.9523 6.15614 26.7562 3.8733C26.3077 3.01903 25.6121 2.5883 24.728 2.6888C23.8245 2.78931 23.2004 3.35643 22.9339 4.33274C22.7454 5.02907 22.8819 5.68234 23.2134 6.31407C25.3131 10.3054 27.3997 14.3112 29.4864 18.3097C31.4756 22.1145 33.4647 25.9192 35.4474 29.7239C35.8699 30.528 36.4615 31.0161 37.092 31.0448H37.0985ZM8.91873 23.9092C7.24809 25.0147 5.52545 25.9766 3.99133 27.2257C2.15168 28.7333 1.53413 30.9228 2.04767 33.3851C2.87974 37.3549 6.82556 39.286 10.0823 37.3549C11.2199 36.6801 12.3315 35.9407 13.4496 35.2229C13.7811 35.0075 14.1192 34.7921 14.4832 34.5552C12.624 31.0018 10.7909 27.4842 8.91223 23.902L8.91873 23.9092ZM13.0986 37.8718C14.9252 40.4992 16.7194 43.0836 18.507 45.6679C18.702 45.9551 18.923 45.9335 19.1441 45.711C19.5731 45.2875 19.9891 44.8424 20.4377 44.4332C20.7627 44.1389 20.7627 43.8804 20.5092 43.5215C19.7551 42.4662 19.0271 41.3822 18.2925 40.3126C17.3759 38.9845 16.4593 37.6565 15.5298 36.314C14.7107 36.8381 13.9176 37.3478 13.0921 37.8718H13.0986ZM33.3217 12.2581C34.1733 13.8876 35.0119 15.4885 35.8504 17.0894C37.0075 16.2064 37.3131 14.584 36.6175 13.3062C35.9414 12.0714 34.4918 11.5904 33.3217 12.2581Z" fill="#E66A44"/>
<path id="Vector_2" d="M44.7686 16.9744C45.4706 16.9744 46.1727 16.9744 46.8748 16.9744C47.5768 16.9816 48.0059 17.4051 47.9994 18.0512C47.9928 18.6829 47.5768 19.0706 46.8813 19.0778C45.4771 19.0849 44.073 19.0849 42.6624 19.0778C41.9474 19.0778 41.5248 18.6542 41.5313 18.0081C41.5443 17.3907 41.9799 16.9816 42.6494 16.9744C43.3515 16.9672 44.0535 16.9744 44.7556 16.9744H44.7686Z" fill="#E66A44"/>
<path id="Vector_3" d="M34.96 5.3304C34.999 5.20836 35.0575 4.97864 35.1615 4.77045C35.87 3.39931 36.5851 2.02817 37.3067 0.664213C37.6512 0.010948 38.1647 -0.168521 38.6718 0.161702C39.1463 0.470387 39.2633 1.0734 38.9448 1.69077C38.2232 3.09781 37.4887 4.49766 36.7541 5.89034C36.4876 6.39285 36.0781 6.58668 35.6555 6.43592C35.2265 6.28517 34.986 5.96212 34.96 5.3304Z" fill="#E66A44"/>
<path id="Vector_4" d="M40.3475 12.1004C39.7755 12.1004 39.4764 11.8276 39.3334 11.3538C39.1969 10.9087 39.3594 10.4349 39.7755 10.1621C40.51 9.67397 41.2576 9.20735 41.9986 8.73355C42.4862 8.42487 42.9672 8.109 43.4613 7.8075C43.9943 7.48445 44.5339 7.62085 44.8069 8.13772C45.0799 8.64741 44.9304 9.26478 44.4103 9.595C43.2012 10.3847 41.9856 11.1528 40.7635 11.9209C40.6075 12.0214 40.419 12.0645 40.341 12.0932L40.3475 12.1004Z" fill="#E66A44"/>
</g>
</g>
</svg>
