<svg width="48" height="48" viewBox="0 0 48 48" fill="none" xmlns="http://www.w3.org/2000/svg">
<g id="Isolation_Mode" clip-path="url(#clip0_1803_10237)">
<path id="Vector" d="M48 24.0194C48.0803 37.1568 37.2989 47.9309 24.162 48.0001C10.9107 48.0702 -0.0202775 37.3736 2.8245e-05 23.9595C0.020334 10.657 10.8313 0.0305043 23.9719 6.37899e-05C37.2463 -0.0303767 48.1025 10.8378 48 24.0185V24.0194ZM46.5011 23.9927C46.5712 11.7667 36.4571 1.17341 23.3599 1.51655C11.4266 1.82834 1.52204 11.6348 1.51834 24.0065C1.51465 36.3976 11.5448 46.3351 23.6968 46.491C36.4368 46.6542 46.5657 36.3017 46.502 23.9936L46.5011 23.9927Z" fill="#E66A44"/>
<path id="Vector_2" d="M24.6951 21.4089C22.3166 21.4089 20.01 21.4089 17.7035 21.4089C16.8857 21.4089 16.5617 21.086 16.5599 20.2706C16.5599 19.9016 16.5488 19.5317 16.5728 19.1646C16.6023 18.7098 16.8645 18.4137 17.3103 18.3584C17.7432 18.3049 18.1862 18.3132 18.6246 18.3122C20.5952 18.3086 22.5648 18.3104 24.7154 18.3104C24.3084 17.8879 24.0213 17.4987 23.6503 17.2219C22.6101 16.4462 21.3862 16.1574 20.1189 16.0652C19.2929 16.0052 18.4612 16.0135 17.6315 16.0015C16.8349 15.9895 16.4482 15.6261 16.4214 14.8264C16.4104 14.4887 16.4085 14.1493 16.427 13.8117C16.4731 12.94 16.8626 12.5756 17.7385 12.5756C20.3847 12.5747 23.03 12.5756 25.6762 12.5756C27.5841 12.5756 29.4909 12.5747 31.3988 12.5756C32.3051 12.5756 32.6753 12.951 32.678 13.8624C32.678 14.2314 32.6845 14.6004 32.6771 14.9693C32.6633 15.6086 32.2802 15.9932 31.6378 15.9979C30.5607 16.0052 29.4845 15.9997 28.4074 16.0006C28.2588 16.0006 28.1092 16.0006 27.9708 16.0006C28.3243 16.7773 28.6612 17.5199 29.0184 18.3049C29.7946 18.3049 30.6355 18.3132 31.4763 18.303C32.4713 18.2901 32.8183 18.6139 32.8156 19.6018C32.8146 19.9523 32.8248 20.3121 32.7556 20.6525C32.6503 21.1672 32.3319 21.4015 31.8067 21.407C30.9917 21.4163 30.1758 21.4135 29.3608 21.407C29.1402 21.4052 28.9916 21.4227 28.9501 21.7031C28.3824 25.5534 25.4732 27.4628 22.0332 27.5043C21.9566 27.5043 21.8809 27.5043 21.7 27.5043C21.988 27.8466 22.2243 28.1316 22.4652 28.4129C24.8354 31.171 27.2075 33.9273 29.5759 36.6872C29.7651 36.9077 29.9423 37.1411 30.1038 37.3827C30.4389 37.8836 30.258 38.2425 29.6488 38.26C29.0341 38.2784 28.4184 38.2563 27.8028 38.2572C27.3238 38.2572 26.8438 38.2489 26.3666 38.2757C26.051 38.2941 25.8313 38.1936 25.6236 37.9537C22.6691 34.5444 19.7036 31.1452 16.7537 27.7322C16.6106 27.5671 16.5202 27.3042 16.5137 27.0828C16.486 26.2258 16.5027 25.368 16.5027 24.5267C17.2032 24.5267 17.8595 24.5461 18.5139 24.523C19.9768 24.4723 21.4102 24.273 22.7254 23.5683C23.6143 23.0923 24.3102 22.4374 24.696 21.4098L24.6951 21.4089Z" fill="#E66A44"/>
</g>
<defs>
<clipPath id="clip0_1803_10237">
<rect width="48" height="48" fill="white"/>
</clipPath>
</defs>
</svg>
