<svg width="40" height="51" viewBox="0 0 40 51" fill="none" xmlns="http://www.w3.org/2000/svg">
<g id="Layer_1" clip-path="url(#clip0_1852_1607)">
<path id="Vector" d="M20.518 0C21.887 0.38504 22.9324 1.27818 23.9986 2.11177C25.0896 2.96124 26.2927 3.36216 27.6949 3.29468C28.6283 3.25101 29.5659 3.24307 30.4993 3.27086C31.9679 3.31452 32.9303 4.05682 33.4116 5.35881C33.7559 6.29561 34.0463 7.24829 34.345 8.197C34.6561 9.18937 35.2535 9.97136 36.1413 10.5588C36.9668 11.1066 37.8048 11.6385 38.6055 12.2221C39.8874 13.1549 40.2691 14.2584 39.8127 15.7311C39.5389 16.6203 39.207 17.4896 38.8834 18.3629C38.481 19.4505 38.481 20.5302 38.8917 21.6178C39.2153 22.4753 39.5265 23.3327 39.8086 24.202C40.2773 25.631 39.8915 26.8218 38.6345 27.7229C37.8878 28.2588 37.1203 28.7788 36.3404 29.267C35.2908 29.926 34.6229 30.8231 34.2744 31.9703C33.9675 32.9706 33.5941 33.9471 33.2871 34.9474C33.229 35.1419 33.2871 35.3999 33.3701 35.6024C34.6769 38.8256 35.9961 42.0448 37.3112 45.2681C37.7633 46.3716 37.2863 47.0265 36.0708 46.9075C34.3823 46.7407 32.698 46.5462 31.0179 46.3319C30.5615 46.2723 30.2545 46.3597 29.9517 46.7169C28.9104 47.9395 27.8277 49.1264 26.7573 50.3252C25.8613 51.3334 25.0233 51.2064 24.5213 49.9798C23.2228 46.8043 21.9285 43.6287 20.6341 40.4531C20.5677 40.2864 20.4889 40.1196 20.4225 39.9608H19.5804C18.9581 41.4851 18.3358 43.0094 17.7094 44.5337C16.9544 46.3835 16.1952 48.2333 15.436 50.0791C14.9921 51.1548 14.1334 51.3057 13.3493 50.4363C12.2168 49.182 11.0925 47.9197 9.98073 46.6415C9.74426 46.3676 9.50365 46.2723 9.13858 46.316C7.4045 46.5304 5.66627 46.7209 3.92804 46.9154C2.77061 47.0464 2.23545 46.3716 2.66275 45.3197C3.56712 43.1007 4.4798 40.8818 5.38417 38.6628C5.81147 37.6149 6.24707 36.5709 6.66192 35.515C6.72829 35.3443 6.76978 35.122 6.71585 34.9553C6.38811 33.9272 6.0023 32.919 5.68702 31.8869C5.35099 30.7874 4.69552 29.9379 3.70402 29.3028C2.91166 28.7947 2.13174 28.2747 1.36841 27.7269C0.115557 26.8258 -0.2827 25.6389 0.190231 24.2099C0.480627 23.3287 0.804211 22.4514 1.12365 21.5781C1.50946 20.5223 1.51361 19.4703 1.13194 18.4145C0.812508 17.5213 0.464033 16.6401 0.186082 15.7351C-0.274403 14.2465 0.0989632 13.1668 1.38915 12.226C2.18982 11.6425 3.02367 11.1066 3.84922 10.5628C4.737 9.97533 5.33439 9.18937 5.64553 8.20097C5.94007 7.26814 6.23462 6.33134 6.5665 5.41041C7.05188 4.06476 8.03093 3.30262 9.54514 3.27086C10.5325 3.24704 11.5198 3.26292 12.5072 3.29468C13.76 3.33437 14.8594 2.98903 15.8218 2.22688C16.1952 1.92917 16.5644 1.61955 16.9751 1.37741C17.7924 0.897105 18.6387 0.456491 19.4725 0C19.821 0 20.1653 0 20.5138 0L20.518 0ZM28.367 34.6695C29.1054 34.6695 29.7443 34.6695 30.3873 34.6695C30.8768 34.6695 31.217 34.4552 31.3746 34.0146C31.6111 33.3397 31.8849 32.6729 32.055 31.9861C32.5653 29.9022 33.7808 28.3342 35.6891 27.2307C36.3072 26.8734 36.8839 26.4368 37.4647 26.016C37.8256 25.754 37.9749 25.3968 37.8214 24.9602C37.585 24.2853 37.3858 23.5986 37.1079 22.9436C36.2574 20.9549 36.2574 18.9821 37.1245 17.0013C37.3443 16.4972 37.5227 15.9772 37.7011 15.4572C38.0206 14.5283 37.9127 14.2187 37.0664 13.6431C36.5437 13.2899 36.0168 12.9326 35.4775 12.6111C33.7849 11.5949 32.6607 10.1936 32.1628 8.33196C31.9886 7.67699 31.777 7.026 31.5572 6.38294C31.2502 5.46599 30.9805 5.27942 29.9766 5.28339C29.3336 5.28339 28.6905 5.28736 28.0517 5.32705C26.1475 5.4382 24.4093 5.03728 22.8992 3.86628C22.335 3.42964 21.7542 3.00887 21.1734 2.58414C20.2151 1.88551 19.7837 1.88948 18.8171 2.59605C18.3358 2.94933 17.8463 3.29468 17.3817 3.66781C15.7887 4.95789 13.9509 5.46996 11.8849 5.31912C11.2294 5.27148 10.5657 5.27545 9.9102 5.27942C9.05976 5.27942 8.81915 5.4382 8.5246 6.21622C8.30058 6.80767 8.09315 7.40707 7.94796 8.01837C7.45428 10.0507 6.28855 11.5909 4.43002 12.6785C3.79529 13.0517 3.2062 13.4923 2.60467 13.9091C2.17737 14.2068 2.04047 14.6117 2.20641 15.096C2.42628 15.739 2.62541 16.394 2.89506 17.0212C3.74966 19.0099 3.74966 20.9788 2.89506 22.9675C2.62126 23.6066 2.42628 24.2814 2.19811 24.9403C2.04462 25.3889 2.18567 25.766 2.57148 26.0399C3.23939 26.5122 3.9073 26.9846 4.6084 27.4173C6.23877 28.4215 7.32983 29.7871 7.83595 31.5892C8.05167 32.3553 8.31303 33.1095 8.56194 33.8677C8.74447 34.4234 9.13028 34.7092 9.75671 34.6933C10.6569 34.6735 11.5613 34.6933 12.4615 34.6616C14.1749 34.61 15.7098 35.0625 17.054 36.0827C17.4895 36.4121 17.9334 36.7337 18.3732 37.0552C19.9579 38.2222 20.045 38.2103 21.6339 37.0711C22.5051 36.4479 23.3763 35.8048 24.318 35.2888C25.5999 34.5822 27.0477 34.6219 28.3794 34.6814L28.367 34.6695ZM13.9923 48.0308C15.1913 45.0855 16.3611 42.2354 17.5061 39.3773C17.5559 39.2503 17.4812 38.9923 17.3692 38.901C16.9129 38.5199 16.3943 38.2063 15.938 37.8253C14.793 36.8647 13.4489 36.6106 11.972 36.6741C10.8353 36.7257 9.69863 36.686 8.47067 36.686C7.41695 39.2702 6.31344 41.9694 5.18504 44.7282C5.42566 44.7044 5.57915 44.6885 5.7285 44.6726C7.05188 44.5218 8.3794 44.3829 9.69863 44.2161C10.2919 44.1407 10.7192 44.3352 11.0967 44.7798C12.0177 45.8555 12.976 46.8995 13.9882 48.0308H13.9923ZM25.9982 48.0149C26.1765 47.8244 26.33 47.6736 26.4711 47.5148C27.3049 46.582 28.1471 45.6531 28.9643 44.7084C29.2921 44.3313 29.6696 44.1487 30.1882 44.2122C30.9598 44.3074 31.7356 44.3868 32.5113 44.4702C33.2581 44.5536 34.0006 44.6369 34.8138 44.7282C33.6771 41.9575 32.5777 39.2622 31.5198 36.6821C30.1218 36.6821 28.8109 36.694 27.5041 36.6821C26.4172 36.6701 25.4049 36.8647 24.5213 37.5037C23.8866 37.9642 23.2435 38.4167 22.6296 38.905C22.5175 38.9923 22.4387 39.2543 22.4927 39.3813C23.6418 42.2393 24.8075 45.0894 26.0064 48.0189L25.9982 48.0149Z" fill="#E66A44"/>
<path id="Vector_2" d="M19.9838 33.0936C12.4252 33.0619 6.28956 27.2902 6.29786 19.9467C6.30616 12.6666 12.4999 6.84337 20.0668 6.87513C27.588 6.90689 33.7486 12.7778 33.7113 19.9705C33.6698 27.3895 27.4636 33.0777 19.988 33.0936H19.9838ZM8.4302 19.9744C8.4219 26.0835 13.5868 31.0493 19.9755 31.0771C26.3393 31.1009 31.5457 26.143 31.5706 20.026C31.5997 13.9011 26.3891 8.8956 19.9963 8.89957C13.6117 8.89957 8.43849 13.8575 8.4302 19.9744Z" fill="#E66A44"/>
<path id="Vector_3" d="M14.686 25.8295C14.8685 24.8173 15.0469 23.686 15.2792 22.5666C15.3829 22.0704 15.3165 21.7172 14.8892 21.3559C14.0678 20.6692 13.3128 19.911 12.5287 19.1806C12.1637 18.8432 11.8982 18.4701 12.089 17.9501C12.2757 17.438 12.7071 17.2912 13.2215 17.2237C14.4205 17.0728 15.6235 16.9101 16.8141 16.7156C17.005 16.6838 17.229 16.4933 17.3244 16.3226C17.8762 15.3104 18.3989 14.2823 18.9216 13.2542C19.1456 12.8136 19.436 12.4524 20.0002 12.4563C20.5603 12.4563 20.8548 12.8056 21.083 13.2542C21.6015 14.2823 22.1491 15.2985 22.6636 16.3306C22.8005 16.6044 22.9788 16.7116 23.29 16.7473C24.5096 16.8942 25.7252 17.0689 26.9407 17.2435C27.3929 17.307 27.7579 17.5095 27.9197 17.9541C28.0857 18.4066 27.9197 18.7639 27.5837 19.0774C26.7167 19.8912 25.8579 20.7129 24.9701 21.5028C24.6922 21.7489 24.6175 21.9871 24.6839 22.3285C24.8872 23.3685 25.0697 24.4164 25.2564 25.4604C25.2854 25.6231 25.3103 25.7898 25.3145 25.9526C25.3352 26.8418 24.576 27.326 23.738 26.9291C22.6511 26.417 21.5808 25.8732 20.5229 25.3095C20.1454 25.1071 19.8509 25.1111 19.4775 25.3095C18.4196 25.8732 17.3452 26.4131 16.2624 26.9331C15.441 27.326 14.6569 26.8219 14.6901 25.8335L14.686 25.8295ZM17.1377 24.1981C17.9052 23.817 18.5482 23.5272 19.1498 23.1819C19.7347 22.8445 20.2657 22.8445 20.8507 23.1819C21.4646 23.5312 22.116 23.821 22.8502 24.1901C22.7175 23.4042 22.6553 22.7254 22.4769 22.0744C22.286 21.3797 22.5267 20.9034 23.0494 20.4469C23.5638 19.9984 24.0284 19.4903 24.547 18.9742C23.7588 18.8631 23.0162 18.7242 22.2611 18.6567C21.6264 18.6011 21.2697 18.2875 21.0166 17.7556C20.7138 17.1125 20.3653 16.4933 19.9919 15.7709C19.5854 16.5528 19.2203 17.2396 18.8677 17.9342C18.6602 18.3391 18.3532 18.5852 17.872 18.6289C17.6314 18.6487 17.3908 18.6924 17.1543 18.7281C16.5901 18.8115 16.0259 18.8988 15.4825 18.9822C16.0633 19.5697 16.6026 20.1294 17.1626 20.6732C17.5235 21.0225 17.648 21.4036 17.5443 21.8918C17.3908 22.6182 17.2829 23.3526 17.1336 24.206L17.1377 24.1981Z" fill="#E66A44"/>
</g>
<defs>
<clipPath id="clip0_1852_1607">
<rect width="40" height="51" fill="white"/>
</clipPath>
</defs>
</svg>
