<svg width="24" height="24" viewBox="0 0 24 24" fill="none" xmlns="http://www.w3.org/2000/svg">
<g id="Layer_1" clip-path="url(#clip0_1695_4550)">
<g id="Group 1363">
<path id="Vector" d="M0 15.4651C0.0454976 15.2677 0.0909953 15.0703 0.139743 14.8729C0.399729 13.8608 0.926202 13.0569 1.74191 12.5113C2.60961 11.9299 3.49032 11.3772 4.37427 10.8281C4.48477 10.7599 4.64076 10.7814 4.77725 10.7563C4.86175 10.7419 4.96574 10.7563 5.02424 10.706C6.8084 9.17709 8.39431 7.43999 9.587 5.31168C9.93148 4.69795 10.2045 4.03756 10.497 3.39153C10.5457 3.28745 10.5555 3.1403 10.5295 3.02186C10.3117 1.93797 10.7959 0.86484 11.6994 0.459277C12.6158 0.0465359 13.646 0.412619 14.1595 1.36731C14.816 2.58759 15.4497 3.82581 16.0932 5.05685C16.1159 5.09992 16.1452 5.1394 16.1809 5.19683C16.7984 4.87381 17.4256 4.83074 18.0593 5.11787C18.5403 5.3368 18.9043 5.6993 19.1545 6.19817C19.642 7.16004 19.5445 8.57054 18.407 9.47857C18.4948 9.64725 18.5793 9.81594 18.6703 9.98462C19.2422 11.0829 19.8272 12.1704 20.3862 13.2758C21.0167 14.5212 20.4967 16.025 19.2942 16.4557C18.5793 16.7105 17.9163 16.5562 17.3541 16.0071C17.2014 15.8563 17.0421 15.7989 16.8569 15.7774C15.5602 15.6266 14.27 15.6984 12.9863 15.9353C11.4752 16.2152 10.016 16.7033 8.5958 17.3386C8.55356 17.3565 8.51131 17.3817 8.44631 17.4176C8.79404 17.9236 9.13527 18.4225 9.47976 18.9214C9.98998 19.6607 10.5035 20.4001 11.0137 21.143C11.4589 21.789 11.4037 22.4279 10.8609 22.977C10.6464 23.1923 10.4352 23.4077 10.2207 23.6194C9.65525 24.1829 8.95328 24.1147 8.48856 23.4472C7.61435 22.191 6.7369 20.9312 5.87244 19.6679C5.7587 19.4992 5.67745 19.4884 5.51496 19.5853C3.24658 20.9492 0.484225 19.4705 0.0454976 16.6674C0.038998 16.628 0.0162492 16.5921 0 16.5562C0 16.1937 0 15.8312 0 15.4687L0 15.4651ZM16.5416 14.6863C14.738 11.2408 12.9538 7.82401 11.1502 4.37493C9.79499 7.38256 7.77035 9.69391 5.42072 11.7038C6.26242 13.3153 7.09763 14.9088 7.93284 16.5059C10.6919 15.2605 13.5128 14.4817 16.5416 14.6863ZM18.5468 15.5225C19.135 15.5297 19.5542 15.1923 19.6777 14.6971C19.7655 14.3346 19.6907 14.008 19.5217 13.6849C18.0691 10.9106 16.6196 8.13626 15.167 5.36192C14.569 4.2206 13.9743 3.07929 13.3763 1.93797C13.1521 1.51087 12.8043 1.29553 12.3624 1.34577C11.9106 1.39602 11.5986 1.67956 11.4654 2.16767C11.3712 2.5158 11.4394 2.84241 11.6051 3.15825C12.6548 5.15376 13.698 7.15645 14.7412 9.15555C15.7357 11.0578 16.7301 12.96 17.7213 14.8621C17.9326 15.2641 18.2283 15.5082 18.5435 15.5225H18.5468ZM4.45877 11.955C3.62356 12.5077 2.76236 12.9887 1.9954 13.6132C1.07569 14.3669 0.76696 15.4615 1.0237 16.6926C1.43968 18.6773 3.41232 19.6428 5.04049 18.6773C5.60921 18.3399 6.16493 17.9703 6.7239 17.6114C6.88964 17.5037 7.05863 17.396 7.24062 17.2776C6.31117 15.501 5.39472 13.7424 4.45552 11.9514L4.45877 11.955ZM6.54841 18.9357C7.46161 20.2493 8.35857 21.5414 9.25227 22.8334C9.34976 22.977 9.46026 22.9662 9.57075 22.855C9.78524 22.6432 9.99323 22.4207 10.2175 22.2161C10.38 22.069 10.38 21.9398 10.2532 21.7603C9.87624 21.2327 9.51225 20.6908 9.14502 20.156C8.6868 19.492 8.22857 18.8281 7.76385 18.1569C7.35437 18.4189 6.95789 18.6737 6.54516 18.9357H6.54841ZM16.6586 6.12998C17.0844 6.9447 17.5036 7.74506 17.9228 8.54541C18.5013 8.10396 18.654 7.29284 18.3063 6.65398C17.9683 6.03667 17.2436 5.7962 16.6586 6.12998Z" fill="#333333"/>
<path id="Vector_2" d="M22.3816 8.48792C22.7326 8.48792 23.0835 8.48792 23.4345 8.48792C23.7855 8.49151 24 8.70327 23.9967 9.02628C23.9935 9.34212 23.7855 9.53593 23.4378 9.53952C22.7358 9.54311 22.0339 9.54311 21.3286 9.53952C20.9712 9.53952 20.7599 9.32776 20.7632 9.00475C20.7697 8.69609 20.9874 8.49151 21.3221 8.48792C21.6731 8.48433 22.0241 8.48792 22.3751 8.48792H22.3816Z" fill="#333333"/>
<path id="Vector_3" d="M17.4776 2.66643C17.4971 2.60541 17.5263 2.49056 17.5783 2.38648C17.9326 1.70097 18.29 1.01546 18.6508 0.333542C18.823 0.00693837 19.0798 -0.082788 19.3332 0.0823085C19.5705 0.236638 19.629 0.538118 19.4697 0.846777C19.109 1.55023 18.7418 2.2501 18.3745 2.94637C18.2413 3.19761 18.0366 3.29451 17.8253 3.21914C17.6108 3.14377 17.4906 2.98226 17.4776 2.66643Z" fill="#333333"/>
<path id="Vector_4" d="M20.1717 6.05109C19.8857 6.05109 19.7362 5.91471 19.6647 5.67783C19.5965 5.45531 19.6777 5.21843 19.8857 5.08205C20.2529 4.83799 20.6267 4.6047 20.9972 4.36783C21.2409 4.2135 21.4814 4.05558 21.7284 3.90484C21.9949 3.74333 22.2646 3.81152 22.4011 4.06994C22.5376 4.32476 22.4628 4.63342 22.2028 4.79851C21.5984 5.19331 20.9907 5.57734 20.3797 5.96137C20.3017 6.01161 20.2074 6.03315 20.1685 6.0475L20.1717 6.05109Z" fill="#333333"/>
</g>
</g>
<defs>
<clipPath id="clip0_1695_4550">
<rect width="24" height="24" fill="white"/>
</clipPath>
</defs>
</svg>
