<svg width="24" height="24" viewBox="0 0 24 24" fill="none" xmlns="http://www.w3.org/2000/svg">
<g id="OBJECTS" clip-path="url(#clip0_1694_4403)">
<path id="Vector" d="M11.077 18.4477C11.077 17.4098 11.0793 16.3719 11.077 15.3332C11.0732 13.9116 10.0855 12.9254 8.66255 12.9231C6.57703 12.9208 4.49152 12.92 2.40523 12.9231C0.999992 12.9254 0.00538544 13.9155 0.00307419 15.3163C-7.47654e-06 17.4113 -7.47654e-06 19.5071 0.00307419 21.6022C0.00461502 23.0053 0.996911 23.9954 2.40215 23.9977C4.49768 24.0008 6.59244 24.0008 8.68797 23.9977C10.0747 23.9954 11.0701 23.0037 11.0755 21.6199C11.0801 20.5627 11.0763 19.5056 11.0763 18.4484L11.077 18.4477ZM0.924492 18.49C0.924492 17.4421 0.922951 16.395 0.924492 15.3471C0.926033 14.4248 1.49614 13.8469 2.40985 13.8462C4.49537 13.8446 6.58089 13.8446 8.6664 13.8462C9.57087 13.8462 10.1518 14.421 10.1525 15.3178C10.1548 17.4129 10.1548 19.5079 10.1525 21.6029C10.1518 22.5006 9.57087 23.0738 8.66717 23.0746C6.58166 23.0762 4.49614 23.0762 2.41062 23.0746C1.49614 23.0746 0.925262 22.4975 0.924492 21.5752C0.922951 20.5466 0.924492 19.5187 0.924492 18.49Z" fill="#333333"/>
<path id="Vector_2" d="M18.453 12.9229C17.4153 12.9229 16.3767 12.9206 15.339 12.9229C13.916 12.926 12.926 13.9122 12.9237 15.3323C12.9214 17.4181 12.9214 19.5038 12.9237 21.5896C12.9253 23.0097 13.9153 23.9959 15.3398 23.9975C17.4253 23.9998 19.5108 24.0006 21.5971 23.9975C23.0023 23.9952 23.9946 23.0066 23.9977 21.6035C24.0015 19.5085 24.0015 17.4127 23.9977 15.3176C23.9954 13.9153 23.0015 12.9275 21.5963 12.9236C20.5485 12.9206 19.5008 12.9236 18.453 12.9236V12.9229ZM18.4314 13.8459C19.4884 13.8459 20.5455 13.8436 21.6032 13.8459C22.4884 13.8483 23.0732 14.4246 23.0747 15.303C23.0778 17.408 23.0778 19.5123 23.0747 21.6174C23.0732 22.4965 22.4892 23.0736 21.604 23.0744C19.5092 23.0767 17.4137 23.0767 15.319 23.0744C14.4353 23.0736 13.8482 22.4942 13.8475 21.6181C13.8451 19.5131 13.8451 17.4088 13.8475 15.3038C13.8482 14.4269 14.4345 13.8483 15.3182 13.8459C16.3559 13.8436 17.3945 13.8459 18.4322 13.8459H18.4314Z" fill="#333333"/>
<path id="Vector_3" d="M0.00154271 5.56836C0.00154271 6.60625 -0.000768535 7.64413 0.00154271 8.68279C0.00616521 10.0851 0.99692 11.0745 2.40293 11.076C4.49846 11.0791 6.59322 11.0799 8.68875 11.076C10.0747 11.0737 11.0724 10.0805 11.0755 8.69665C11.0801 6.59161 11.0801 4.48656 11.0755 2.38229C11.0724 0.99921 10.074 0.00524616 8.68875 0.00293446C6.58398 -0.000918388 4.4792 -0.00168896 2.37365 0.00293446C1.00539 0.00601578 0.00770604 1.00306 0.00154271 2.36765C-0.00307978 3.43481 0.000772297 4.5012 0.000772297 5.56836H0.00154271ZM0.924501 5.53908C0.924501 4.51045 0.924501 3.48258 0.924501 2.45394C0.925272 1.4908 1.48459 0.925241 2.43991 0.925241C4.50617 0.92447 6.57242 0.92447 8.63868 0.925241C9.58012 0.925241 10.1525 1.49234 10.1525 2.42697C10.1541 4.50274 10.1541 6.57851 10.1525 8.65428C10.1525 9.57812 9.58167 10.1529 8.66564 10.1537C6.58013 10.1552 4.49461 10.1552 2.40909 10.1537C1.50617 10.1537 0.926042 9.57812 0.924501 8.68124C0.92219 7.63334 0.924501 6.58621 0.924501 5.53831V5.53908Z" fill="#333333"/>
<path id="Vector_4" d="M18.4638 11.0771C21.4908 11.0864 23.9946 8.59375 23.9985 5.56563C24.0023 2.51516 21.537 0.0140705 18.5154 0.00405312C15.4176 -0.00673389 12.9361 2.45198 12.9245 5.54329C12.9137 8.58374 15.3999 11.0671 18.4638 11.0771ZM23.0747 5.52787C23.0732 8.07366 21.0108 10.1533 18.4869 10.154C15.9099 10.154 13.8475 8.096 13.8467 5.52325C13.8459 2.9844 15.9322 0.918654 18.4915 0.925589C21.0046 0.932524 23.077 3.01291 23.0747 5.52865V5.52787Z" fill="#333333"/>
</g>
<defs>
<clipPath id="clip0_1694_4403">
<rect width="24" height="24" fill="white" transform="matrix(1 0 0 -1 0 24)"/>
</clipPath>
</defs>
</svg>
