<svg width="24" height="24" viewBox="0 0 24 24" fill="none" xmlns="http://www.w3.org/2000/svg">
<g id="Layer_1" clip-path="url(#clip0_1694_4518)">
<path id="Vector" d="M11.9956 24C5.38202 23.9982 -0.102728 18.6038 5.58704e-05 12.0062C0.115245 4.76274 5.36253 -0.00709006 12.0187 7.91101e-06C18.6429 0.00710588 23.8866 4.76097 23.9983 12.0186C24.0993 18.6162 18.6128 24.0036 11.9956 24.0018V24ZM11.9921 1.19779C6.09974 1.21021 1.17144 6.02973 1.2689 11.9033C1.377 18.3997 5.99518 22.6549 11.9956 22.662C17.9464 22.6691 22.6337 18.4618 22.7241 11.9122C22.8074 5.99069 17.9571 1.23151 11.9903 1.19779H11.9921Z" fill="#333333"/>
<path id="Vector_2" d="M18.0067 6.64726C17.9889 6.70404 17.9641 6.81584 17.9234 6.92053C16.9522 9.44031 15.9776 11.9601 15.0082 14.4816C14.9161 14.7194 14.769 14.8809 14.5315 14.9714C11.9973 15.9491 9.46497 16.9287 6.93436 17.9117C6.65436 18.02 6.39918 18.004 6.18298 17.7822C5.96855 17.5622 5.95792 17.3066 6.06779 17.0263C7.04601 14.4994 8.02245 11.9725 8.99535 9.44386C9.0875 9.20608 9.23991 9.0517 9.47737 8.95942C11.9956 7.98878 14.5173 7.02523 17.0267 6.03329C17.5264 5.83632 17.9907 6.13976 18.0067 6.64726ZM16.2274 7.74035C16.1654 7.75277 16.1335 7.75632 16.1034 7.76697C14.1576 8.51758 12.2118 9.26819 10.2695 10.0277C10.1756 10.0649 10.0852 10.182 10.0462 10.2832C9.42598 11.8678 8.8146 13.456 8.20144 15.0442C8.05789 15.4168 7.91612 15.7894 7.75309 16.21C7.886 16.1656 7.96574 16.1408 8.04372 16.1106C9.91686 15.3866 11.7865 14.6591 13.6614 13.9422C13.8262 13.8783 13.9095 13.7878 13.9715 13.6281C14.6928 11.7436 15.4229 9.86441 16.1495 7.98168C16.176 7.91247 16.1955 7.83972 16.2257 7.74035H16.2274Z" fill="#333333"/>
<path id="Vector_3" d="M12.0044 11.3355C12.3482 11.3372 12.6335 11.6336 12.6282 11.9778C12.6211 12.3238 12.327 12.6078 11.9832 12.5989C11.6518 12.59 11.3736 12.3043 11.3736 11.969C11.3736 11.6229 11.6606 11.3337 12.0062 11.3355H12.0044Z" fill="#333333"/>
</g>
<defs>
<clipPath id="clip0_1694_4518">
<rect width="24" height="24" fill="white"/>
</clipPath>
</defs>
</svg>
