<svg width="24" height="24" viewBox="0 0 24 24" fill="none" xmlns="http://www.w3.org/2000/svg">
<g id="OBJECTS" clip-path="url(#clip0_1694_4390)">
<g id="Group 1331">
<path id="Vector" d="M23.5013 12.1493C23.4892 12.1302 23.4775 12.1116 23.4665 12.0941C23.4492 12.0666 23.4337 12.0421 23.4215 12.0232C23.3724 11.9473 23.3368 11.8994 23.3057 11.8668L23.3051 11.8661C22.337 10.8449 21.365 9.83103 20.389 8.82277L20.3885 8.82226C20.2859 8.71597 20.2001 8.59223 20.1442 8.44047C20.0897 8.29258 20.0734 8.14458 20.0734 8.00306V8.00183C20.0784 5.95909 20.0777 3.91638 20.077 1.87284C20.0769 1.53205 20.0767 1.19123 20.0766 0.850392V0.850255C20.0766 0.72089 20.0676 0.636695 20.0559 0.583196C20.0542 0.575741 20.0526 0.569294 20.0511 0.563774C20.029 0.560063 19.9937 0.55641 19.9404 0.556318L19.9403 0.556318C19.0893 0.554679 18.2383 0.553862 17.3883 0.556316L17.3877 0.556318C17.3431 0.556397 17.3121 0.559142 17.2915 0.562129C17.2905 0.566076 17.2895 0.570442 17.2884 0.575257C17.277 0.626752 17.2681 0.70828 17.2678 0.833991C17.2678 0.834052 17.2678 0.834114 17.2678 0.834176L16.7678 0.833049C16.7665 1.48289 16.7666 2.13305 16.7666 2.78313C16.7667 3.05007 16.7667 3.31699 16.7666 3.58388L23.5013 12.1493ZM23.5013 12.1493V12.2018C23.4667 12.2547 23.4321 12.3075 23.3975 12.3604C23.153 12.7339 22.9094 13.1059 22.6641 13.4761L22.6639 13.4764C22.6377 13.516 22.6151 13.547 22.596 13.5712C22.5767 13.5537 22.5548 13.5323 22.5302 13.5065L22.5299 13.5062C19.6899 10.5315 16.8499 7.5573 14.0095 4.58273L12.5963 3.10281C12.5962 3.10272 12.5962 3.10263 12.5961 3.10254C12.5378 3.04138 12.4776 2.98095 12.4137 2.91689C12.3935 2.8967 12.373 2.87615 12.3521 2.8551L11.9908 2.49138L11.6362 2.86171C11.4985 3.00554 11.3605 3.14944 11.2225 3.29339C10.989 3.53679 10.7555 3.78034 10.5229 4.02398C8.4451 6.19971 6.36754 8.37584 4.28991 10.5521C3.34435 11.5425 2.39877 12.5329 1.45314 13.5234L23.5013 12.1493ZM17.2586 4.18561C17.2625 4.10656 17.2665 4.02515 17.2665 3.9534L1.4531 13.5234C1.43479 13.5426 1.41827 13.5588 1.4035 13.5724C1.38725 13.5519 1.36896 13.527 1.34863 13.4967L1.34851 13.4965C1.102 13.1295 0.85651 12.7632 0.613883 12.3949L0.61356 12.3945C0.498955 12.2209 0.498779 12.1495 0.500114 12.1323C0.501194 12.1185 0.509199 12.0545 0.643973 11.9134C2.21199 10.2721 3.78038 8.63128 5.34887 6.9903C6.42698 5.86236 7.50515 4.73438 8.58327 3.60618C8.8479 3.32948 9.11157 3.05279 9.37489 2.77648C9.97428 2.14751 10.5718 1.52047 11.1748 0.899506C11.4212 0.64571 11.6471 0.536866 11.8476 0.507992C12.048 0.47913 12.2835 0.521464 12.565 0.680589C12.6746 0.742803 12.7863 0.857431 12.9651 1.04475L12.9656 1.04526C13.7062 1.81883 14.4446 2.59472 15.1836 3.37129C15.5227 3.72762 15.862 4.0841 16.2016 4.44056L16.2016 4.44059C16.2492 4.49055 16.3096 4.54515 16.3613 4.59197C16.3805 4.60929 16.3984 4.62555 16.4141 4.64011L17.2115 5.37933L17.2537 4.29285C17.255 4.25841 17.2568 4.22226 17.2586 4.18561Z" stroke="#333333"/>
<path id="Vector_2" d="M10.1792 7.45115C10.7856 6.8231 11.392 6.1951 11.9984 5.56724C12.3156 5.89551 12.6318 6.22265 12.9472 6.54898C13.8375 7.47014 14.7215 8.38483 15.6051 9.29996L15.6051 9.29997C15.9318 9.63832 16.2584 9.97688 16.5852 10.3155C17.7342 11.5063 18.884 12.6979 20.0375 13.8838L20.0378 13.8841C20.0644 13.9115 20.068 13.923 20.0691 13.9262C20.0718 13.9337 20.0801 13.9606 20.0799 14.0319L20.0799 14.0325C20.0764 15.9423 20.0764 17.8529 20.0764 19.7629C20.0764 20.7179 20.0764 21.6727 20.076 22.6272V22.6274C20.076 23.003 19.992 23.2192 19.9029 23.3318C19.8279 23.4266 19.711 23.4979 19.4893 23.4981H19.4892C18.0055 23.5002 16.5218 23.4994 15.0376 23.4986C14.8303 23.4985 14.6231 23.4984 14.4158 23.4983V16.8412V16.3412H13.9158H10.0972H9.59719V16.8412V23.4973C9.08561 23.4974 8.57416 23.4975 8.06277 23.4977C6.88094 23.4981 5.69947 23.4984 4.51774 23.4973H4.51728C4.28606 23.4973 4.1699 23.4247 4.09666 23.3315C4.00782 23.2184 3.92335 22.9978 3.92335 22.6061C3.92335 22.0354 3.92343 21.4646 3.9235 20.8937C3.92382 18.6099 3.92413 16.3252 3.91943 14.0411C3.91947 13.9677 3.92851 13.9385 3.9324 13.9282C3.9352 13.9208 3.94225 13.9037 3.97597 13.8688C6.04556 11.7323 8.1126 9.59153 10.1792 7.45115Z" stroke="#333333"/>
</g>
</g>
<defs>
<clipPath id="clip0_1694_4390">
<rect width="24" height="24" fill="white"/>
</clipPath>
</defs>
</svg>
