<svg width="41" height="40" viewBox="0 0 41 40" fill="none" xmlns="http://www.w3.org/2000/svg">
<g id="Designed_by_freepik" clip-path="url(#clip0_777_952)">
<path id="Vector" d="M10.0719 34.0494C10.0719 32.1741 10.0719 30.3343 10.0719 28.4946C10.0719 27.7605 10.1898 27.6448 10.9303 27.6448C11.1437 27.6448 11.3594 27.6448 11.6285 27.6448C11.6285 27.1109 11.6285 26.6082 11.6285 26.1077C11.6285 25.4114 11.7464 25.2913 12.4268 25.289C12.5847 25.289 12.7426 25.289 12.9182 25.289C12.9538 25.16 12.9894 25.051 13.0161 24.9398C13.2095 24.1389 13.6009 23.4471 14.2591 22.9555C14.5838 22.713 14.6572 22.4549 14.655 22.079C14.6416 18.7176 14.6483 15.3541 14.6483 11.9928C14.6483 11.0518 14.3748 10.7826 13.4275 10.7826C9.84953 10.7826 6.27159 10.7826 2.69587 10.7826C1.83308 10.7826 1.55066 11.0673 1.54844 11.926C1.54844 12.2886 1.55289 12.6512 1.54399 13.0138C1.5351 13.3342 1.3661 13.5477 1.04144 13.5544C0.694539 13.5611 0.512195 13.3453 0.507748 13.0027C0.501076 12.4955 0.481063 11.9861 0.516642 11.4811C0.583353 10.5068 1.40835 9.75707 2.40902 9.7415C3.1295 9.73038 3.84998 9.73928 4.61048 9.73928C4.61048 8.66703 4.61048 7.64151 4.61048 6.61598C4.61048 6.2823 4.60826 5.94861 4.61048 5.61715C4.61715 5.03209 4.77059 4.88304 5.36209 4.86969C5.43325 4.86969 5.50664 4.86302 5.6156 4.85857V2.98103C4.94552 2.87722 4.61048 2.47902 4.61048 1.78644C4.61048 1.39491 4.59936 1.00339 4.61493 0.611865C4.6305 0.189197 4.81729 0.00455756 5.23979 0.00455756C8.67319 0.000108418 12.1044 0.000108418 15.5378 0.00455756C15.958 0.00455756 16.1382 0.195871 16.1448 0.622988C16.1537 1.15911 16.1493 1.69523 16.1448 2.23135C16.1404 2.75858 15.9714 2.93209 15.4399 2.93432C13.9767 2.93877 12.5135 2.93432 11.0503 2.93432C10.8924 2.93432 10.7346 2.93432 10.5478 2.93432V4.81408C10.5834 4.83188 10.6056 4.85635 10.6301 4.85857C11.5418 4.91418 11.5596 4.93198 11.5596 5.86185C11.5596 7.13431 11.5596 8.40676 11.5596 9.73928C12.24 9.73928 12.8849 9.73928 13.532 9.73928C14.9151 9.73928 15.6868 10.5045 15.6868 11.8904C15.689 15.1361 15.6868 18.3817 15.6868 21.6296C15.6868 21.8009 15.6868 21.9722 15.6868 22.1702C16.3027 22.0745 16.8698 21.99 17.4368 21.901C17.7882 21.8454 18.0639 21.9544 18.1217 22.3237C18.1795 22.6974 17.926 22.8731 17.588 22.931C17.1455 23.0044 16.7008 23.0689 16.2582 23.1379C15.1108 23.3158 14.1568 24.2212 14.0568 25.2557H26.9721C26.9609 23.6295 25.9692 22.0545 23.7143 20.0969C23.4853 20.306 23.2585 20.524 23.0205 20.7309C22.1244 21.5117 21.1059 22.0701 19.9785 22.4438C19.6383 22.5573 19.3714 22.5083 19.2158 22.1702C19.0801 21.8721 19.2469 21.5918 19.6472 21.4583C21.0548 20.9889 22.24 20.1948 23.2073 19.0691C23.5053 18.7221 23.7633 18.6865 24.0612 18.9757C24.8951 19.781 25.7535 20.5663 26.5117 21.4383C26.9943 21.9944 27.3145 22.6907 27.6992 23.3092C27.6036 22.3192 27.508 21.2892 27.4057 20.2593C27.1299 17.4496 26.8275 14.64 26.5829 11.8281C26.4228 9.98398 26.3361 8.13314 26.2382 6.2823C26.2049 5.64162 26.385 5.4859 27.021 5.4859C31.2505 5.4859 35.4799 5.4859 39.7094 5.4859C40.3254 5.4859 40.4566 5.63717 40.4811 6.25338C40.57 8.59585 40.212 10.9072 39.9985 13.2274C39.7406 16.0393 39.4515 18.8489 39.1757 21.6585C38.8978 24.4971 38.6176 27.3379 38.3396 30.1764C38.2729 30.8549 38.204 31.5312 38.1395 32.2097C38.0839 32.8014 37.946 32.9326 37.3523 32.9393C37.1966 32.9393 37.0388 32.9393 36.8586 32.9393V33.7824C37.5191 33.9871 37.9994 34.4075 38.1061 35.1439C38.1506 35.442 38.1262 35.7512 38.1262 36.0559C38.1262 36.8234 38.1328 37.5931 38.1262 38.3606C38.115 39.3416 37.4613 39.9979 36.4873 40.0023C35.1975 40.009 33.91 40.0068 32.6203 40.0023C32.1844 40.0023 31.962 39.8177 31.962 39.484C31.962 39.1481 32.1844 38.9635 32.618 38.9635C33.8633 38.959 35.1086 38.9635 36.3539 38.9612C36.912 38.9612 37.081 38.7922 37.0832 38.2405C37.0877 37.3128 37.0832 36.3852 37.0832 35.4575C37.0832 35.0771 36.9098 34.8235 36.5273 34.8213C34.6772 34.808 32.8248 34.8146 30.9102 34.8146C30.9102 35.1439 30.9102 35.442 30.9102 35.7401C30.9102 36.6099 30.9169 37.4797 30.9102 38.3495C30.9013 39.3528 30.2453 40.0046 29.2402 40.0046C20.6656 40.0068 12.091 40.009 3.51642 40.0046C1.78193 40.0046 0.505524 38.7143 0.5033 36.9725C0.498853 29.7693 0.501076 22.5684 0.5033 15.3652C0.5033 14.7757 0.658959 14.6178 1.24602 14.6178C4.28805 14.6178 7.33007 14.6178 10.3699 14.6178C10.9614 14.6178 11.1081 14.769 11.1104 15.3652C11.1104 18.8578 11.1104 22.3504 11.1104 25.8429C11.1104 25.9453 11.146 26.081 11.0948 26.141C10.9503 26.3123 10.779 26.5526 10.5989 26.5748C10.4455 26.5926 10.2253 26.3679 10.103 26.1989C10.0252 26.0899 10.0675 25.8919 10.0675 25.7317C10.0675 22.5728 10.0675 19.4139 10.0675 16.255V15.6989H1.5818V34.0605H10.0741L10.0719 34.0494ZM27.3701 8.87614C27.3701 9.03409 27.3612 9.13419 27.3701 9.2343C27.5213 10.7915 27.6747 12.3465 27.8282 13.9014C28.1662 17.3295 28.4975 20.7598 28.8466 24.1879C28.8956 24.6639 28.7799 25.2023 29.2714 25.5649C29.3625 25.6316 29.3514 25.8607 29.3536 26.0165C29.3625 26.5481 29.3581 27.0776 29.3581 27.6448C29.5649 27.6448 29.7228 27.6448 29.8784 27.6448C30.8769 27.6448 30.9169 27.6871 30.9169 28.706C30.9169 29.5313 30.9169 30.3566 30.9169 31.1819V31.8893H31.3238C33.1184 31.8893 34.9151 31.8782 36.7097 31.8982C37.0855 31.9027 37.1611 31.7581 37.1855 31.4244C37.2634 30.3989 37.3723 29.3778 37.4724 28.3545C37.7504 25.5315 38.0283 22.7063 38.3063 19.8833C38.5865 17.0448 38.8644 14.2062 39.1424 11.3677C39.2224 10.5535 39.2936 9.73705 39.3759 8.87614C39.1602 8.87614 39.0045 8.87614 38.8466 8.87614C36.5451 8.87614 34.2436 8.87614 31.9398 8.87614C31.8086 8.87614 31.6441 8.92286 31.5573 8.86057C31.3794 8.73155 31.1259 8.54913 31.1193 8.38006C31.1126 8.20877 31.3416 7.99744 31.5129 7.85952C31.604 7.78833 31.793 7.83282 31.9376 7.83282C34.268 7.83282 36.5985 7.83282 38.9311 7.83282C39.0868 7.83282 39.2402 7.83282 39.4115 7.83282V6.55592H27.3034V7.83282C28.0328 7.83282 28.7399 7.82837 29.4448 7.83282C29.8896 7.83504 30.1586 8.04638 30.1253 8.37784C30.083 8.78049 29.8073 8.88282 29.4448 8.87837C28.7666 8.86947 28.0884 8.87614 27.3634 8.87614H27.3701ZM11.1148 37.5531C11.1148 37.7399 11.1148 37.869 11.1148 37.9958C11.1104 38.8634 11.2038 38.9546 12.0866 38.9546C17.7348 38.9546 23.383 38.9546 29.029 38.9546C29.7361 38.9546 29.8718 38.8211 29.8718 38.127C29.8718 35.1416 29.8718 32.1585 29.8718 29.1731C29.8718 29.0196 29.8718 28.8661 29.8718 28.7149H11.146V30.0874H11.693C16.1537 30.0874 20.6145 30.0874 25.073 30.0874C25.7423 30.0874 25.8802 30.2276 25.8802 30.9038C25.8802 32.8303 25.8802 34.759 25.8802 36.6855C25.8802 37.4174 25.7512 37.5509 25.0308 37.5509C20.5856 37.5509 16.1382 37.5509 11.693 37.5509H11.1126L11.1148 37.5531ZM11.1148 36.4764H24.8128V31.1641H11.1148V36.4764ZM1.55066 35.1439C1.55066 35.7467 1.55066 36.3095 1.55066 36.8701C1.55511 38.1648 2.33786 38.9501 3.63205 38.9523C5.65785 38.9546 7.68364 38.9523 9.70944 38.9523C9.85175 38.9523 9.99407 38.9523 10.0786 38.9523V35.1416H1.55066V35.1439ZM12.6936 27.6115H28.2952V26.3546H12.6936V27.6115ZM10.49 9.72815V5.93971H5.6912V9.72815H10.49ZM5.67786 1.85762H15.0752V1.0768H5.67786V1.85762ZM9.46038 2.96546H6.72967V4.83632H9.46038V2.96546ZM35.7713 32.9638H30.9391V33.7357H35.7713V32.9638Z" fill="#E66A44"/>
<path id="Vector_2" d="M33.3561 11.6146C34.3967 11.6146 35.4374 11.6101 36.4804 11.6146C37.0229 11.6168 37.1808 11.7769 37.183 12.3086C37.1875 13.1918 37.1875 14.0727 37.183 14.9559C37.1808 15.4831 37.0118 15.6477 36.4759 15.6477C34.4079 15.6499 32.3398 15.6477 30.2718 15.6477C29.7158 15.6477 29.5446 15.4786 29.5424 14.9292C29.538 14.0616 29.538 13.194 29.5424 12.3242C29.5446 11.7725 29.707 11.6146 30.2762 11.6123C31.3036 11.6079 32.3287 11.6123 33.3561 11.6123V11.6146ZM36.1223 12.6823H30.612V14.5755H36.1223V12.6823Z" fill="#E66A44"/>
</g>
<defs>
<clipPath id="clip0_777_952">
<rect width="40" height="40" fill="white" transform="translate(0.5)"/>
</clipPath>
</defs>
</svg>
