<svg width="41" height="41" viewBox="0 0 41 41" fill="none" xmlns="http://www.w3.org/2000/svg">
<g id="Designed_by_freepik" clip-path="url(#clip0_777_1096)">
<path id="Vector" d="M0.5 34.6829C0.5 34.2307 0.5 33.7786 0.5 33.3283C0.524008 33.253 0.555404 33.1795 0.568332 33.1022C1.01157 30.5175 2.47608 28.8389 4.90648 28.0175C4.99698 27.9873 5.12441 28.0175 5.17612 27.8724C5.01914 27.7424 4.85108 27.6162 4.69779 27.4749C3.01905 25.9376 2.2914 24.0178 2.66076 21.7515C3.10584 19.0273 5.00252 17.1546 7.71178 16.6441C7.9611 16.597 8.04975 16.5103 8.0479 16.2409C8.03497 14.5397 8.03128 12.8404 8.04975 11.1392C8.05344 10.7906 7.9611 10.6324 7.62868 10.5175C5.76894 9.88069 3.91475 9.21754 2.0624 8.55628C1.46773 8.34339 1.15931 7.91573 1.15746 7.34866C1.15746 6.78536 1.47696 6.3464 2.05871 6.13917C5.2149 5.02199 8.37294 3.90669 11.5291 2.79139C11.627 2.75748 11.7267 2.7198 11.8283 2.7085C12.1386 2.67082 12.3657 2.79516 12.4636 3.10601C12.5615 3.41686 12.447 3.65613 12.1774 3.81061C12.0425 3.88785 11.8893 3.93118 11.7415 3.98205C8.73307 5.0446 5.72277 6.10714 2.71432 7.17157C2.59059 7.2149 2.43361 7.21302 2.36897 7.37127C2.40406 7.39388 2.42253 7.4146 2.44653 7.42402C4.22686 8.05703 6.00718 8.68627 7.78566 9.32304C8.0756 9.42666 8.03867 9.22696 8.06083 9.06306C8.15871 8.36035 8.60933 7.86863 9.28526 7.74995C12.2531 7.22432 15.2394 6.90594 18.2515 6.84377C22.091 6.76464 25.8991 7.05854 29.6796 7.74053C30.4017 7.87052 30.9169 8.35658 30.9631 9.03668C30.9871 9.37768 31.0757 9.38521 31.3491 9.28725C33.0297 8.68438 34.714 8.09471 36.3964 7.49938C36.4943 7.46547 36.6328 7.47489 36.6623 7.3091C36.5755 7.27142 36.4943 7.23186 36.4093 7.20172C31.0536 5.31023 25.6978 3.42063 20.3439 1.5235C19.777 1.32191 19.2322 1.32568 18.667 1.53103C17.4315 1.98318 16.1886 2.4146 14.9476 2.85168C14.7518 2.9195 14.5579 3.00616 14.3418 2.91197C14.0999 2.80458 13.9651 2.61242 13.9688 2.3562C13.9725 2.0397 14.1664 1.85884 14.4545 1.75899C15.6974 1.32568 16.944 0.90556 18.1758 0.440225C19.0604 0.106766 19.9155 0.102998 20.8038 0.417617C26.1558 2.31664 31.5134 4.20435 36.8692 6.09772C37.6116 6.35959 37.8665 6.72319 37.8683 7.51822C37.872 8.76728 37.8775 10.0163 37.8628 11.2654C37.8609 11.5178 37.9422 11.629 38.1693 11.7251C39.584 12.3279 40.0789 13.9858 39.2386 15.3102C39.1223 15.493 39.113 15.6286 39.1906 15.817C39.5877 16.7967 39.9884 17.7763 40.3633 18.7673C40.825 19.9843 40.0586 21.126 38.7862 21.1373C37.9403 21.1448 37.0926 21.1279 36.2468 21.1429C35.6244 21.1542 35.0168 21.1429 34.544 20.6286C34.0417 21.7948 34.0676 24.0197 34.5625 25.0785C34.6327 25.2292 34.7324 25.2499 34.8654 25.2726C35.9051 25.4421 36.5663 26.2748 36.437 27.3261C36.3927 27.6878 36.4407 27.7688 36.8045 27.7914C37.7815 27.8517 38.4833 28.6015 38.5368 29.5642C38.5867 30.4779 37.9366 31.2955 36.9911 31.4745C36.799 31.5103 36.6993 31.5706 36.6383 31.7628C36.1655 33.2379 36.1655 34.7093 36.6457 36.1825C36.7067 36.369 36.7971 36.4557 36.9892 36.4971C37.9939 36.7138 38.631 37.5446 38.5313 38.479C38.4205 39.502 37.6578 40.1859 36.6125 40.1859C26.5972 40.1859 16.582 40.1897 6.56676 40.1859C3.81871 40.1859 1.44187 38.3132 0.717923 35.6079C0.636664 35.2989 0.572025 34.99 0.5 34.6829ZM21.4225 38.9877C26.4107 38.9877 31.3989 38.9877 36.3872 38.9877C37.0372 38.9877 37.353 38.7767 37.3641 38.3377C37.377 37.8837 37.0428 37.6482 36.3798 37.6482C35.1036 37.6482 33.8275 37.652 32.5513 37.6463C32.0675 37.6444 31.7868 37.3035 31.9142 36.8833C32.0139 36.5499 32.2743 36.4538 32.5846 36.4538C33.4433 36.4538 34.304 36.4425 35.1627 36.4594C35.449 36.4651 35.4785 36.3747 35.4084 36.1203C35.0094 34.6942 35.0113 33.2624 35.3991 31.8362C35.4656 31.5894 35.4619 31.4915 35.1627 31.4934C33.4951 31.5065 31.8292 31.5065 30.1616 31.4934C29.8753 31.4915 29.8162 31.5932 29.8199 31.8607C29.8328 32.7914 29.8273 33.7202 29.8236 34.6509C29.8199 35.3573 29.4598 35.6512 28.8577 35.3234C27.8937 34.7997 26.9998 34.8053 26.0358 35.3234C25.4411 35.6437 25.0644 35.3423 25.0607 34.6452C25.0552 33.756 25.0404 32.8649 25.0681 31.9756C25.0792 31.5989 24.9905 31.4896 24.6027 31.4896C18.8591 31.5047 13.1155 31.499 7.37197 31.499C7.07279 31.499 6.77176 31.4896 6.47257 31.5047C4.87693 31.5819 3.78178 33.1795 4.2601 34.7281C4.59253 35.8076 5.51778 36.4538 6.7459 36.4538C14.2735 36.4538 21.8011 36.4538 29.3287 36.4538C29.4967 36.4538 29.6722 36.4444 29.8328 36.482C30.1542 36.5574 30.3241 36.7816 30.289 37.1226C30.2576 37.4429 30.0655 37.6218 29.7479 37.6444C29.6186 37.6539 29.4875 37.6501 29.3582 37.6501C24.5787 37.6501 19.7991 37.6501 15.0196 37.6501C12.1681 37.6501 9.31481 37.6765 6.46334 37.6369C4.03294 37.6049 2.36897 35.0992 3.17787 32.765C3.7116 31.2277 5.05977 30.3046 6.78099 30.3046C16.6392 30.3046 26.4994 30.3046 36.3576 30.3046C36.5017 30.3046 36.6476 30.3178 36.7861 30.2952C37.124 30.2405 37.329 30.0201 37.3493 29.6791C37.3678 29.3381 37.1979 29.0876 36.8581 29.0084C36.6826 28.967 36.4961 28.9689 36.3151 28.9689C26.5086 28.9689 16.702 28.9689 6.89365 28.9689C6.76252 28.9689 6.63325 28.9689 6.50212 28.9726C3.83718 29.0668 1.7152 31.2013 1.66534 33.837C1.61178 36.6949 3.80025 38.9877 6.60555 38.9896C11.5421 38.9952 16.4767 38.9896 21.4132 38.9896L21.4225 38.9877ZM34.5939 17.7612H34.0454C27.4689 17.7612 20.8924 17.7612 14.316 17.7612C12.375 17.7612 10.434 17.7217 8.49483 17.7782C6.4892 17.8366 5.02652 18.8652 4.18807 20.7021C2.66261 24.0442 5.08562 27.7612 8.76631 27.765C17.3096 27.7707 25.853 27.7669 34.3945 27.765C34.4849 27.765 34.5773 27.7669 34.6678 27.7594C35.039 27.7273 35.2791 27.4787 35.2865 27.1226C35.2938 26.7477 35.0538 26.4839 34.6622 26.45C34.52 26.4368 34.376 26.4425 34.2319 26.4425C28.3462 26.4425 22.4585 26.4425 16.5728 26.4425C16.4047 26.4425 16.2311 26.4463 16.0686 26.4067C15.7583 26.3332 15.6124 26.1071 15.6364 25.7888C15.6604 25.4873 15.8322 25.3008 16.1295 25.2631C16.2828 25.2443 16.4416 25.2481 16.5968 25.2481C22.0412 25.2481 27.4837 25.2443 32.9281 25.2537C33.279 25.2537 33.3713 25.201 33.2679 24.8148C32.893 23.4282 32.9022 22.0322 33.2827 20.6456C33.3602 20.3649 33.3288 20.2726 33.0223 20.2726C27.3175 20.2801 21.6145 20.2801 15.9098 20.2726C15.6383 20.2726 15.5515 20.3536 15.557 20.6324C15.5718 21.5612 15.5681 22.4918 15.5607 23.4225C15.557 24.0932 15.1747 24.3946 14.6022 24.0819C13.6271 23.5487 12.7203 23.5506 11.7452 24.0819C11.1672 24.3965 10.8033 24.0989 10.7996 23.4187C10.796 22.4881 10.7996 21.5593 10.7996 20.6286C10.7996 20.4591 10.8366 20.2688 10.5651 20.2763C9.79867 20.3008 9.02671 20.2179 8.26213 20.3253C6.96383 20.508 6.02934 21.8212 6.25096 23.1305C6.46703 24.4097 7.42922 25.2349 8.74969 25.2443C10.2733 25.2556 11.7969 25.2443 13.3205 25.2481C13.797 25.2481 14.0445 25.4553 14.0482 25.8321C14.0519 26.207 13.7952 26.4387 13.3372 26.4406C11.7877 26.4463 10.2364 26.4689 8.68874 26.4368C6.09583 26.3841 4.39122 23.8822 5.27954 21.4726C5.83358 19.9674 7.16328 19.0838 8.89559 19.0838C17.1268 19.0838 25.3562 19.0838 33.5874 19.0838C33.7038 19.0838 33.8219 19.0819 33.9383 19.0838C34.038 19.0838 34.1174 19.0555 34.1562 18.9538C34.2966 18.5732 34.4388 18.1927 34.5976 17.7631L34.5939 17.7612ZM19.5295 16.5668C22.8242 16.5668 26.1171 16.5612 29.4118 16.5744C29.7368 16.5744 29.8439 16.4858 29.8218 16.1542C29.7941 15.7435 29.7941 15.3291 29.8218 14.9203C29.8439 14.5981 29.759 14.4869 29.421 14.4945C28.4053 14.519 27.3895 14.5058 26.3738 14.502C25.8918 14.502 25.6221 14.2722 25.6332 13.8841C25.6424 13.5092 25.8918 13.3095 26.3682 13.3076C27.3969 13.3038 28.4256 13.2944 29.4542 13.3132C29.7534 13.3189 29.8255 13.2266 29.8218 12.9327C29.8051 11.8306 29.8144 10.7285 29.8144 9.62636C29.8144 8.95944 29.8144 8.96698 29.1588 8.85582C26.9611 8.48469 24.7541 8.22282 22.5287 8.10601C18.209 7.87805 13.9189 8.13427 9.65832 8.89727C9.31112 8.95944 9.20585 9.11581 9.20954 9.45115C9.22062 10.5928 9.22801 11.7364 9.20585 12.8781C9.19846 13.2379 9.30927 13.3151 9.64724 13.3151C14.1387 13.3038 18.6301 13.3076 23.1234 13.3076C23.2674 13.3076 23.4115 13.2982 23.5518 13.3189C23.8455 13.3622 24.0209 13.5469 24.0449 13.8483C24.0708 14.1478 23.9341 14.3701 23.6516 14.4568C23.5057 14.502 23.345 14.5001 23.1899 14.5001C19.1398 14.502 15.0916 14.5001 11.0416 14.5001C10.5337 14.5001 10.0258 14.5114 9.51796 14.4945C9.27418 14.4869 9.20216 14.5774 9.21139 14.8148C9.22616 15.2518 9.23725 15.6927 9.2077 16.1297C9.18369 16.4877 9.30742 16.5725 9.64724 16.5706C12.9419 16.5574 16.2348 16.5631 19.5295 16.5631V16.5668ZM30.9889 13.5789C30.9889 14.4417 31 15.3046 30.9834 16.1674C30.976 16.4726 31.0517 16.58 31.3694 16.5744C32.4091 16.5536 33.4526 16.5386 34.4905 16.58C34.9577 16.5989 35.2181 16.4632 35.3179 15.996C35.3677 15.7643 35.5302 15.5872 35.3474 15.3027C34.4886 13.9783 35.0021 12.3355 36.45 11.7062C36.6291 11.629 36.7085 11.5442 36.7067 11.3351C36.6937 10.5514 36.6937 9.76954 36.7067 8.98582C36.7104 8.72395 36.6549 8.66931 36.4001 8.76163C34.6973 9.37391 32.9927 9.97677 31.2826 10.5683C31.0573 10.6475 30.9816 10.7511 30.9852 10.9903C30.9982 11.8532 30.9908 12.716 30.9908 13.5789H30.9889ZM37.2939 19.941C37.776 19.941 38.258 19.9466 38.7381 19.941C39.2479 19.9353 39.4455 19.6414 39.2571 19.1554C38.9136 18.268 38.5535 17.3863 38.2081 16.5009C38.1416 16.3313 38.0788 16.2428 37.8683 16.305C37.4879 16.4199 37.0926 16.4142 36.7122 16.305C36.5349 16.2541 36.4536 16.2937 36.389 16.4632C36.0326 17.375 35.6614 18.2793 35.3123 19.1931C35.1443 19.632 35.3529 19.9316 35.811 19.941C36.3059 19.9504 36.8008 19.9429 37.2939 19.9429V19.941ZM28.6527 32.7499C28.6527 32.4316 28.6435 32.1113 28.6564 31.7929C28.6657 31.5762 28.6066 31.4858 28.3757 31.4915C27.7515 31.5065 27.1254 31.5028 26.5012 31.4915C26.2962 31.4877 26.2297 31.5612 26.2316 31.7665C26.2408 32.3769 26.2519 32.9892 26.2279 33.5996C26.2131 33.9613 26.3387 33.9783 26.5972 33.8294C27.1624 33.5035 27.7293 33.4941 28.2963 33.8238C28.3295 33.8426 28.3683 33.8558 28.4034 33.8728C28.5752 33.9557 28.6657 33.9293 28.6564 33.707C28.6453 33.3886 28.6527 33.0702 28.6546 32.7499H28.6527ZM14.3898 21.4971C14.3898 21.2051 14.3769 20.9131 14.3935 20.623C14.4083 20.3686 14.3326 20.2669 14.0685 20.2744C13.472 20.2914 12.8736 20.2876 12.2771 20.2744C12.0407 20.2688 11.9594 20.346 11.965 20.5909C11.9798 21.1995 11.9834 21.8099 11.965 22.4184C11.9557 22.733 12.085 22.7123 12.2789 22.603C12.8662 22.2733 13.4517 22.2356 14.0445 22.5936C14.2846 22.7386 14.4194 22.7066 14.3935 22.3713C14.3714 22.0811 14.388 21.7891 14.388 21.4971H14.3898ZM36.1138 13.9783C36.1212 14.6527 36.6586 15.1915 37.3106 15.1802C37.9606 15.1689 38.4851 14.6113 38.4777 13.9387C38.4685 13.2661 37.9329 12.7311 37.2736 12.7405C36.6162 12.7481 36.1046 13.2944 36.1138 13.9783Z" fill="#E66A44"/>
</g>
<defs>
<clipPath id="clip0_777_1096">
<rect width="40" height="40" fill="white" transform="translate(0.5 0.184082)"/>
</clipPath>
</defs>
</svg>
