<svg width="41" height="41" viewBox="0 0 41 41" fill="none" xmlns="http://www.w3.org/2000/svg">
<g id="Designed_by_freepik" clip-path="url(#clip0_777_1033)">
<path id="Vector" d="M0.5 20.5352C0.674749 12.7648 3.86391 6.59262 10.7432 2.79748C18.1351 -1.27952 25.4629 -0.672185 32.4179 4.12549C32.7237 4.33762 32.9683 4.44224 33.3644 4.33472C34.2702 4.09353 35.1789 4.19814 36.0439 4.56719C36.2711 4.66599 36.4895 4.70958 36.7371 4.68633C37.0312 4.65727 37.3254 4.64565 37.6225 4.64274C38.4554 4.64274 39.1428 5.17162 39.3583 5.97075C39.5622 6.7292 39.2156 7.53995 38.4991 7.94096C38.0826 8.17344 37.6574 8.39138 37.2235 8.58608C36.9759 8.69941 36.9643 8.7924 37.1128 9.01325C38.5923 11.1985 39.6233 13.5814 40.1068 16.1763C41.2543 22.3049 39.9175 27.8581 36.0002 32.7139C32.7324 36.7648 28.4336 39.1157 23.2843 39.8829C13.3994 41.3562 3.7445 34.9428 1.199 25.2428C0.794161 23.7027 0.578637 22.1393 0.505825 20.5352H0.5ZM31.7276 5.02923C26.5725 1.48691 21.0854 0.47856 15.1323 2.13784C14.9226 2.19596 14.8498 2.33254 14.8061 2.51852C14.6343 3.23337 14.5644 3.95404 14.5993 4.68924C14.6255 5.20649 14.6809 5.72375 14.6867 6.241C14.6954 7.23773 14.2527 8.00199 13.3761 8.47565C12.8839 8.743 12.3625 8.95513 11.847 9.17889C10.3151 9.84144 9.36559 10.9486 9.09764 12.6282C8.95202 13.5407 8.72776 14.4415 8.19769 15.229C7.28899 16.5745 5.91139 16.9261 4.49592 16.1357C4.094 15.9119 3.72703 15.6213 3.34258 15.3627C3.0659 15.1767 2.82416 14.9384 2.48922 14.8106C2.44845 14.9471 2.40767 15.0663 2.37272 15.1854C1.56306 18.1349 1.47277 21.1077 2.13099 24.0921C3.02221 28.1371 5.04347 31.5254 8.15982 34.2599C8.25885 34.3471 8.33457 34.4517 8.51806 34.4081C9.07143 34.2802 9.17045 34.3442 9.43549 34.8614C9.58694 35.1578 9.6947 35.4775 10.0005 35.678C10.9733 36.3231 11.9926 36.881 13.0586 37.3576C13.2858 37.4593 13.3703 37.4215 13.411 37.1745C13.6236 35.9279 14.3255 34.998 15.3274 34.2657C16.4167 33.4695 17.6458 32.9551 18.9156 32.5338C19.6 32.3071 20.0253 31.8596 20.2728 31.2029C20.5524 30.4589 20.6602 29.6802 20.6747 28.8927C20.7213 26.719 20.7272 24.5454 20.7825 22.3718C20.8495 19.7506 22.3349 18.4575 24.8862 18.783C25.757 18.8934 26.5696 19.2188 27.3705 19.5617C28.853 20.1981 30.3296 20.2737 31.815 19.5879C32.2868 19.37 32.7674 19.1694 33.2305 18.9428C34.9634 18.0913 36.7866 17.5625 38.7117 17.4143C39.07 17.3881 39.1137 17.237 39.0583 16.9348C38.5778 14.2642 37.5963 11.7971 36.0614 9.55085C35.9158 9.33871 35.8109 9.2835 35.5663 9.41136C34.3838 10.0245 33.1897 10.6202 31.9956 11.2101C31.7713 11.3205 31.6665 11.4484 31.6461 11.7129C31.5121 13.4738 31.3519 15.2348 31.2121 16.9929C31.1801 17.3997 31.017 17.6642 30.618 17.8153C30.0529 18.0274 29.5054 18.2802 28.9491 18.5127C28.3229 18.7713 28.0433 18.6377 27.8628 17.9867C27.5249 16.7721 27.1871 15.5574 26.8492 14.3427C26.7618 14.0289 26.5696 13.9465 26.2725 14.0957C23.8785 15.2988 21.4844 16.5047 19.0904 17.7078C18.1292 18.1901 17.1536 18.1989 16.3089 17.5305C15.1789 16.6326 14.1188 15.6417 13.0411 14.6798C12.7528 14.4241 12.7557 14.0783 13.0266 13.8255C13.644 13.2559 14.3459 12.8897 15.2255 12.9391C15.8837 12.9769 16.4254 13.3111 16.9934 13.5755C17.1856 13.6656 17.3283 13.6918 17.5293 13.5697C19.6641 12.2708 21.8019 10.9806 23.9513 9.70486C24.2396 9.53341 24.1756 9.44914 23.9717 9.27478C23.1067 8.53377 22.2533 7.78695 21.4 7.03141C21.0068 6.68561 21.0068 6.34852 21.3941 5.99981C21.8514 5.58426 22.3378 5.20068 22.7805 4.7677C23.1329 4.42189 23.4795 4.39284 23.9251 4.56719C25.559 5.20649 27.1987 5.82255 28.8413 6.4386C28.9753 6.49091 29.1064 6.59843 29.2753 6.49672C30.0646 6.01725 30.8568 5.54358 31.7305 5.01761L31.7276 5.02923ZM39.3379 20.1197C39.3146 19.6867 39.2855 19.2537 39.2709 18.8178C39.2651 18.5999 39.1836 18.5243 38.9593 18.5592C38.502 18.6318 38.0419 18.6783 37.5817 18.7481C35.8488 19.0067 34.276 19.7158 32.7266 20.48C30.749 21.4564 28.7773 21.5029 26.7618 20.5963C25.8794 20.1981 24.9648 19.8727 23.9629 19.9308C22.8242 19.9976 22.1892 20.5759 22.0291 21.7092C21.9562 22.2236 21.9533 22.7437 21.9446 23.261C21.9067 25.4898 21.9941 27.7216 21.7698 29.9446C21.5776 31.8393 20.8349 33.3068 18.7845 33.8531C17.6749 34.1495 16.6439 34.6958 15.7439 35.4397C15.1061 35.9657 14.6721 36.6137 14.5236 37.4419C14.4653 37.7732 14.5411 37.9359 14.8906 38.0434C17.9603 38.9791 21.0738 39.168 24.2163 38.5258C33.0295 36.727 39.3175 29.0525 39.3379 20.1197ZM13.5566 2.73065C13.446 2.7568 13.4052 2.76261 13.3673 2.77714C13.2741 2.81201 13.1839 2.84398 13.0936 2.88466C10.4228 4.04412 8.13652 5.72665 6.23467 7.92643C4.84833 9.5305 3.77072 11.3293 2.996 13.2995C2.94357 13.4332 2.79503 13.5785 3.02512 13.7296C3.64548 14.1364 4.23962 14.5897 4.86581 14.9878C5.94051 15.6707 6.76183 15.4382 7.36472 14.3107C7.688 13.7092 7.82489 13.0496 7.94139 12.387C8.2705 10.5011 9.26365 9.11496 10.9995 8.27805C11.5179 8.02814 12.0451 7.80148 12.5722 7.56901C13.2392 7.27551 13.5712 6.78441 13.51 6.0434C13.4198 4.95368 13.3324 3.86686 13.5566 2.72484V2.73065ZM31.8325 9.91699C31.981 9.94314 32.08 9.85306 32.1907 9.79785C33.746 9.01616 35.2983 8.23446 36.8536 7.44986C37.1798 7.28713 37.506 7.1244 37.8322 6.95876C38.1089 6.81928 38.2836 6.60424 38.2108 6.28168C38.1322 5.95041 37.8904 5.80221 37.5526 5.81674C37.2439 5.83127 36.9351 5.8458 36.6264 5.86614C36.3439 5.88648 36.0759 5.88357 35.808 5.7499C34.6838 5.19487 33.5858 5.27333 32.5198 5.92135C31.4276 6.5839 30.3325 7.24064 29.2374 7.90028C25.4745 10.1669 21.7058 12.4248 17.9516 14.7059C17.5118 14.9733 17.1448 15.014 16.708 14.7524C16.3847 14.5577 16.0293 14.4183 15.6857 14.2555C15.3828 14.1102 15.0624 14.0899 14.7391 14.1538C14.6372 14.1742 14.4945 14.1771 14.4624 14.2991C14.4333 14.4095 14.5615 14.456 14.6314 14.5171C15.3041 15.1128 15.9798 15.7056 16.6526 16.3013C17.3836 16.9464 17.8526 17.0162 18.7176 16.5803C20.9369 15.4644 23.1533 14.3456 25.3726 13.2297C25.6988 13.067 26.1444 12.9682 26.3075 12.7038C26.491 12.4045 26.1706 12.0005 26.1007 11.6344C26.1007 11.6199 26.0949 11.6082 26.092 11.5937C25.9871 11.2159 26.1036 10.9486 26.456 10.7539C27.953 9.9199 29.4384 9.07137 30.9354 8.24027C31.4917 7.92934 31.914 8.19669 31.9082 8.82727C31.9053 9.19051 31.7946 9.54503 31.8412 9.91118L31.8325 9.91699ZM30.6354 9.76298C29.584 10.3529 28.6113 10.9108 27.6268 11.4455C27.3851 11.5763 27.3298 11.7012 27.4084 11.9715C27.8365 13.4506 28.2385 14.9384 28.652 16.4204C28.8879 17.269 28.885 17.2573 29.6831 16.9348C29.9364 16.8331 30.0471 16.7081 30.0646 16.4233C30.1054 15.6678 30.1927 14.9152 30.2597 14.1596C30.382 12.7212 30.5044 11.2857 30.6325 9.76298H30.6354ZM27.8103 7.38303C27.7055 7.24064 27.5569 7.2232 27.4288 7.17671C26.4094 6.78441 25.3638 6.45023 24.3736 5.9969C23.7183 5.69469 23.2465 5.77024 22.8242 6.32237C22.8067 6.34561 22.7834 6.36305 22.763 6.37758C22.629 6.47057 22.6232 6.55193 22.7572 6.66527C23.5639 7.35978 24.3649 8.06011 25.1658 8.76334C25.2823 8.86505 25.3755 8.85633 25.5007 8.77787C26.2638 8.31002 27.0327 7.85088 27.8074 7.38012L27.8103 7.38303Z" fill="#CA6A48"/>
<path id="Vector_2" d="M11.6571 20.8054C11.6687 20.9885 11.5755 21.1279 11.4823 21.2674C11.0891 21.8631 10.7338 22.4792 10.4018 23.1098C10.1833 23.5253 9.88626 23.6561 9.56298 23.5021C9.21931 23.3364 9.14358 23.0052 9.3591 22.5751C9.71734 21.8631 10.1222 21.1773 10.5707 20.5177C10.7338 20.2765 10.9668 20.1632 11.261 20.2707C11.5114 20.3608 11.6425 20.5439 11.6571 20.8054Z" fill="#CA6A48"/>
<path id="Vector_3" d="M7.27734 30.6333C7.28608 30.424 7.27734 30.209 7.31229 30.0056C7.37346 29.6714 7.5948 29.4825 7.93848 29.5145C8.25302 29.5435 8.46272 29.7382 8.46272 30.0666C8.46272 30.8657 8.53262 31.6591 8.63747 32.4524C8.68407 32.8098 8.51806 33.051 8.15982 33.1265C7.83363 33.1934 7.56568 32.9842 7.48122 32.5977C7.43462 32.3797 7.39967 32.156 7.37928 31.9351C7.33851 31.5021 7.31229 31.0692 7.28026 30.6362L7.27734 30.6333Z" fill="#CA6A48"/>
<path id="Vector_4" d="M7.60372 27.5036C7.76682 26.6929 7.98526 25.8385 8.30854 25.0191C8.42504 24.7256 8.69299 24.6035 9.00463 24.7052C9.33082 24.8098 9.49101 25.0656 9.39199 25.3939C9.15316 26.1989 8.92599 27.0038 8.7192 27.8146C8.63474 28.1488 8.35223 28.2737 8.02312 28.1923C7.71148 28.1139 7.5746 27.8785 7.60081 27.5007L7.60372 27.5036Z" fill="#CA6A48"/>
<path id="Vector_5" d="M36.4632 12.6455C36.6962 12.6571 36.8913 12.7763 36.9991 13.0146C37.2787 13.6393 37.5204 14.2815 37.7039 14.9412C37.8 15.287 37.6195 15.595 37.3107 15.6648C36.9583 15.7461 36.7079 15.6095 36.5797 15.2696C36.3554 14.668 36.1312 14.0665 35.9186 13.4621C35.7759 13.0552 36.0322 12.6629 36.4632 12.6455Z" fill="#CA6A48"/>
<path id="Vector_6" d="M12.6397 19.4717C12.3717 19.4775 12.197 19.3787 12.0776 19.184C11.9465 18.9689 11.9611 18.7394 12.1125 18.5563C12.4067 18.2018 12.727 17.8676 13.0998 17.5944C13.3387 17.4201 13.6124 17.4462 13.8309 17.6526C14.0318 17.8414 14.1105 18.1059 13.9386 18.3355C13.6299 18.7481 13.2484 19.0968 12.8435 19.4165C12.7853 19.463 12.6863 19.46 12.6426 19.4717H12.6397Z" fill="#CA6A48"/>
</g>
<defs>
<clipPath id="clip0_777_1033">
<rect width="40" height="40" fill="white" transform="translate(0.5 0.092041)"/>
</clipPath>
</defs>
</svg>
