<svg width="41" height="40" viewBox="0 0 41 40" fill="none" xmlns="http://www.w3.org/2000/svg">
<g id="Designed_by_freepik" clip-path="url(#clip0_777_977)">
<path id="Vector" d="M21.1083 40.0001C15.0458 40.0001 8.98059 40.0001 2.91802 40.0001C1.24235 40.0001 0.378498 39.064 0.5138 37.4496C0.80522 33.9704 1.07582 30.4913 1.35944 27.0122C1.67167 23.1901 1.99432 19.3681 2.30916 15.5461C2.41063 14.2996 2.51731 13.0556 2.60318 11.8091C2.69685 10.4475 3.55289 9.65907 4.98137 9.65656C5.66829 9.65656 6.35521 9.66407 7.04213 9.65406C7.6666 9.64405 8.29107 9.70162 8.91294 9.62152C9.03003 9.02581 8.95457 8.4251 8.95717 7.82689C8.96238 7.10604 9.02743 6.39519 9.21477 5.69436C10.4897 0.973753 15.9565 -1.38154 20.4553 0.858616C20.7129 0.986268 20.8976 0.976256 21.1474 0.851107C26.3409 -1.73196 32.557 1.86481 32.6246 7.48899C32.6325 8.10722 32.6377 8.72546 32.622 9.34119C32.6168 9.58648 32.6923 9.65907 32.9499 9.65656C33.9647 9.64405 34.982 9.64655 35.9968 9.65156C37.2874 9.65656 38.1616 10.4525 38.2605 11.684C38.7054 17.1379 39.153 22.5944 39.5979 28.0484C39.8971 31.7128 40.199 35.3796 40.4982 39.044C40.5528 39.7223 40.2874 39.9951 39.5719 39.9951C33.4182 39.9951 27.2646 39.9951 21.111 39.9951L21.1083 40.0001ZM17.0987 38.621H18.5324C22.8178 38.621 27.1059 38.616 31.3913 38.631C31.779 38.631 31.8701 38.5309 31.8284 38.1754C31.7426 37.4346 31.7009 36.6862 31.6411 35.9428C31.4199 33.222 31.2014 30.5013 30.9776 27.7831C30.7226 24.6619 30.4624 21.5407 30.21 18.4195C30.0201 16.0867 29.8301 13.7514 29.6506 11.4187C29.6298 11.1433 29.5543 11.0257 29.2291 11.0307C27.8552 11.0507 26.4814 11.0482 25.1076 11.0307C24.8083 11.0282 24.7329 11.1183 24.7381 11.3961C24.7537 12.3573 24.7459 13.3209 24.7433 14.2846C24.7433 14.8602 24.4753 15.1831 24.0147 15.1731C23.5724 15.1631 23.3122 14.8452 23.3122 14.2996C23.3096 13.3234 23.3018 12.3448 23.3174 11.3686C23.3226 11.0983 23.2342 11.0332 22.9636 11.0332C18.9019 11.0407 14.8402 11.0407 10.7759 11.0332C10.4871 11.0332 10.3935 11.1033 10.3987 11.3911C10.4169 12.3673 10.4065 13.3459 10.4039 14.3221C10.4039 14.8627 10.1307 15.1806 9.68312 15.1731C9.24079 15.1681 8.97539 14.8477 8.97279 14.3046C8.97019 13.3409 8.95978 12.3798 8.97799 11.4162C8.98319 11.1183 8.90514 11.0257 8.58509 11.0307C7.4064 11.0482 6.22511 11.0382 5.04642 11.0382C4.30486 11.0382 4.0915 11.2409 4.03946 11.9443C3.94579 13.1908 3.84432 14.4372 3.74284 15.6812C3.428 19.5033 3.10796 23.3253 2.79572 27.1473C2.51211 30.6265 2.2363 34.1056 1.95008 37.5847C1.88504 38.3882 2.0984 38.6235 2.94143 38.6235C7.6614 38.6235 12.3814 38.6235 17.0987 38.6235V38.621ZM33.158 36.8939L33.2465 36.9114C33.832 35.9353 34.4226 34.9616 35.0002 33.9804C35.0523 33.8903 35.0419 33.7577 35.0315 33.6451C34.8181 30.9969 34.5995 28.3513 34.3836 25.7056C34.126 22.5594 33.8684 19.4106 33.6108 16.2644C33.4781 14.6475 33.3454 13.0306 33.2231 11.4136C33.2023 11.1383 33.1294 11.0082 32.8042 11.0282C32.328 11.0582 31.8493 11.0457 31.3731 11.0307C31.1285 11.0232 31.0427 11.0757 31.0661 11.3411C31.3653 14.9178 31.6463 18.4946 31.9377 22.0713C32.2578 26.021 32.5804 29.9682 32.9057 33.9179C32.9863 34.9116 33.0748 35.9027 33.1606 36.8964L33.158 36.8939ZM38.7913 36.8263C38.8199 36.8163 38.8485 36.8088 38.8772 36.7988C38.6638 34.1657 38.4504 31.5325 38.2345 28.9019C37.9795 25.7807 37.7219 22.662 37.4669 19.5408C37.2535 16.9352 37.0454 14.3296 36.8294 11.7265C36.793 11.286 36.5302 11.0532 36.0722 11.0382C35.7444 11.0282 35.4139 11.0532 35.0861 11.0307C34.7504 11.0057 34.6308 11.0757 34.6646 11.4437C34.8467 13.4736 34.9924 15.5085 35.159 17.5409C35.5935 22.8647 36.0332 28.1886 36.4729 33.5124C36.4834 33.6375 36.4573 33.7702 36.5458 33.8853C37.2952 34.864 38.0445 35.8452 38.7939 36.8238L38.7913 36.8263ZM19.4743 1.92238C19.2948 1.84979 19.1491 1.78472 18.9982 1.73215C15.5349 0.545745 11.7075 2.43799 10.6693 5.83453C10.3076 7.01843 10.4377 8.22486 10.4039 9.42629C10.3961 9.67909 10.5626 9.65156 10.7291 9.65156C12.6702 9.65156 14.6086 9.64655 16.5497 9.65656C16.8203 9.65656 16.8671 9.55645 16.8645 9.32867C16.8515 8.72546 16.8515 8.12224 16.8645 7.51903C16.8984 5.68685 17.5254 4.06492 18.7614 2.66827C18.9825 2.41797 19.2219 2.18519 19.4769 1.91988L19.4743 1.92238ZM22.0841 1.96743C22.2558 2.1051 22.3937 2.1952 22.5056 2.30784C23.6349 3.43417 24.3478 4.76826 24.634 6.30759C24.8188 7.30377 24.7303 8.31247 24.7355 9.31616C24.7355 9.57397 24.7979 9.66157 25.0815 9.65907C27.007 9.64655 28.9325 9.64655 30.8579 9.65907C31.1493 9.65907 31.204 9.56395 31.1988 9.31115C31.1832 8.70794 31.1988 8.10472 31.191 7.5015C31.1779 6.27755 30.8111 5.15622 30.1059 4.14001C28.36 1.62453 24.8083 0.633349 22.0815 1.96493L22.0841 1.96743ZM20.7805 9.65406C21.483 9.65406 22.1856 9.63904 22.8855 9.66157C23.2029 9.67158 23.3356 9.61151 23.3174 9.2686C23.2836 8.69542 23.3174 8.11974 23.307 7.54405C23.2758 5.68935 22.516 4.15753 21.0979 2.90855C20.8716 2.70831 20.7233 2.72083 20.5047 2.91105C19.5758 3.72202 18.9201 4.69317 18.5532 5.84954C18.1811 7.03095 18.3216 8.24238 18.2904 9.44381C18.2852 9.66908 18.4335 9.65406 18.587 9.65406C19.3182 9.65406 20.0493 9.65406 20.7831 9.65406H20.7805ZM38.3672 38.6034C37.5528 37.5397 36.7826 36.541 36.0228 35.5373C35.8849 35.3571 35.812 35.3971 35.7158 35.5673C35.5206 35.9052 35.3151 36.2381 35.1147 36.571C34.714 37.2343 34.3133 37.8976 33.8866 38.6034H38.3698H38.3672Z" fill="#E66A44"/>
<path id="Vector_2" d="M10.2332 25.4879C10.2332 23.9511 10.2436 22.4142 10.228 20.8774C10.2228 20.4244 10.3971 20.129 10.8108 19.9037C12.653 18.8976 14.4848 17.8763 16.3114 16.8451C16.6912 16.6299 17.0191 16.6349 17.3964 16.8451C19.2386 17.8813 21.086 18.9051 22.936 19.9238C23.3159 20.134 23.472 20.4194 23.472 20.8374C23.4642 23.9536 23.4642 27.0723 23.472 30.1885C23.472 30.624 23.3054 30.9118 22.9099 31.1296C21.0704 32.1383 19.236 33.1595 17.4094 34.1907C17.0165 34.411 16.6808 34.4085 16.2853 34.1857C14.4848 33.167 12.679 32.1583 10.8602 31.1721C10.3971 30.9218 10.2176 30.6015 10.2228 30.0959C10.2436 28.559 10.2306 27.0222 10.2306 25.4854L10.2332 25.4879ZM18.9315 25.5505C18.9315 24.732 18.9211 23.916 18.9367 23.0975C18.9419 22.8397 18.8743 22.6795 18.6219 22.5544C18.1197 22.3041 17.6358 22.0213 17.1492 21.7409C16.954 21.6283 16.7901 21.5958 16.5768 21.7234C16.0564 22.0313 15.523 22.3166 14.9896 22.6045C14.8308 22.6896 14.7528 22.7922 14.7528 22.9749C14.758 24.6669 14.758 26.3614 14.7528 28.0534C14.7528 28.2311 14.81 28.3438 14.9766 28.4314C15.523 28.7217 16.0668 29.0196 16.6028 29.3299C16.7797 29.4326 16.9176 29.4301 17.0946 29.3299C17.6045 29.0346 18.1171 28.7417 18.6453 28.4764C18.8847 28.3563 18.9393 28.2011 18.9367 27.9633C18.9237 27.1599 18.9315 26.3564 18.9315 25.553V25.5505ZM11.6747 29.2098C12.1716 28.937 12.601 28.6842 13.0459 28.4614C13.2645 28.3513 13.3269 28.2086 13.3269 27.9808C13.3191 26.3314 13.3217 24.6819 13.3217 23.0325C13.3217 22.9073 13.3529 22.7596 13.2124 22.682C12.7181 22.4017 12.2185 22.1264 11.6747 21.8235V29.2073V29.2098ZM22.0357 21.8135C21.5283 22.0938 21.1146 22.3416 20.6801 22.5569C20.4303 22.6795 20.3574 22.8397 20.36 23.1C20.373 24.364 20.3652 25.628 20.3652 26.892C20.3652 27.8615 20.8067 28.5724 21.6896 29.0246C21.7026 29.0321 21.7156 29.0371 21.7287 29.0446C21.929 29.1723 22.0409 29.1773 22.0409 28.8894C22.0357 26.5642 22.0383 24.2389 22.0383 21.8135H22.0357ZM12.3902 20.6196C12.7076 20.7973 12.9861 20.9099 13.2098 21.0877C13.7692 21.5307 14.2558 21.4756 14.8673 21.1027C16.1448 20.3217 16.1604 20.3593 16.1344 18.8925C16.1292 18.5421 16.0173 18.5897 15.7858 18.7198C14.9011 19.2204 14.0138 19.711 13.1266 20.2041C12.9002 20.3318 12.6738 20.4594 12.3928 20.6171L12.3902 20.6196ZM17.5681 32.4937C18.8353 31.7879 20.0452 31.1146 21.3071 30.4137C20.7763 30.1159 20.3132 29.8631 19.8552 29.5978C19.7095 29.5127 19.5898 29.5277 19.4467 29.6103C18.8977 29.9231 18.3409 30.2285 17.7841 30.5289C17.6436 30.604 17.5629 30.6866 17.5655 30.8593C17.5785 31.3749 17.5707 31.888 17.5707 32.4937H17.5681ZM16.1318 32.4862C16.1318 31.8955 16.124 31.3949 16.137 30.8918C16.1422 30.7041 16.059 30.6065 15.9029 30.5214C15.3564 30.226 14.8152 29.9231 14.2714 29.6253C14.1569 29.5627 14.0555 29.4776 13.9045 29.5652C13.4258 29.8406 12.9392 30.1034 12.3954 30.4062C13.6574 31.1096 14.8543 31.7753 16.1318 32.4862ZM17.5655 18.5521C17.5655 19.1729 17.5707 19.6985 17.5629 20.2266C17.5603 20.3918 17.6696 20.4469 17.7867 20.512C18.3435 20.8198 18.9003 21.1252 19.4545 21.4356C19.5768 21.5031 19.6835 21.5432 19.8214 21.4631C20.2924 21.1928 20.7685 20.9325 21.3019 20.6346C20.053 19.9388 18.8587 19.273 17.5681 18.5521H17.5655Z" fill="#E66A44"/>
</g>
<defs>
<clipPath id="clip0_777_977">
<rect width="40" height="40" fill="white" transform="translate(0.5)"/>
</clipPath>
</defs>
</svg>
