<svg width="51" height="38" viewBox="0 0 51 38" fill="none" xmlns="http://www.w3.org/2000/svg">
<g id="Designed_by_freepik" clip-path="url(#clip0_777_1049)">
<path id="Vector" d="M0.453125 30.9246C0.731374 29.87 0.845947 28.7875 1.03067 27.7165C1.44687 25.3105 1.83969 22.8998 2.24187 20.4914C2.25823 20.3956 2.27928 20.2997 2.30266 20.2038C2.41489 19.7689 2.77732 19.5164 3.16313 19.6006C3.56296 19.6894 3.80848 20.0495 3.73599 20.4891C3.50918 21.871 3.27068 23.2505 3.0392 24.6301C2.67678 26.7976 2.29565 28.9628 1.95894 31.135C1.62691 33.2768 3.09999 35.4116 5.25817 35.9822C7.42571 36.555 9.75458 35.435 10.5168 33.3259C11.5199 30.5575 12.4178 27.7516 13.3601 24.9621C13.4069 24.8242 13.4466 24.6815 13.4981 24.5459C13.7436 23.8702 14.1855 23.7088 14.7864 24.104C15.9696 24.8826 17.2439 25.1024 18.6141 24.7564C19.3717 24.5646 20.0357 24.1905 20.5922 23.6434C20.8541 23.3862 21.1347 23.2692 21.5042 23.2692C24.1604 23.2786 26.8166 23.2786 29.4752 23.2692C29.8446 23.2692 30.1228 23.3838 30.3917 23.634C32.0028 25.1351 34.2568 25.3362 36.1134 24.1601C36.8569 23.6901 37.2474 23.8304 37.5327 24.6722C37.9185 25.8132 38.3043 26.9519 38.6854 28.0953C38.8725 28.6612 38.7088 29.0657 38.2505 29.2107C37.825 29.3439 37.4836 29.1148 37.2895 28.5513C37.0136 27.7516 36.7353 26.9519 36.4828 26.1453C36.3893 25.8436 36.3238 25.7454 35.9661 25.8881C33.684 26.7929 31.5632 26.4749 29.6435 24.9364C29.4635 24.7914 29.2881 24.7376 29.0683 24.7376C26.688 24.7423 24.31 24.7423 21.9297 24.7376C21.6865 24.7376 21.5065 24.8148 21.3171 24.9668C19.4044 26.4866 17.2953 26.7836 15.0319 25.8927C14.6836 25.7548 14.6157 25.8319 14.5152 26.1406C13.6851 28.6425 12.8597 31.1444 11.9923 33.6323C11.1622 36.0126 8.95023 37.5745 6.48107 37.5862C3.91136 37.5979 1.68771 36.078 0.822564 33.6977C0.665903 33.2768 0.574713 32.8302 0.453125 32.393C0.453125 31.9043 0.453125 31.4156 0.453125 30.9246Z" fill="#E66A44"/>
<path id="Vector_2" d="M25.4898 7.16359C23.7291 7.16359 21.9684 7.17294 20.2077 7.15658C19.8383 7.1519 19.6933 7.22672 19.7144 7.63124C19.7565 8.44728 20.1984 8.9383 21.0261 8.95467C21.9708 8.97338 22.9177 8.95935 23.8624 8.96168C24.2084 8.96168 24.5147 9.04352 24.6784 9.3849C24.8959 9.83618 24.634 10.381 24.1196 10.4044C22.8663 10.4652 21.6037 10.5493 20.3621 10.3576C19.1672 10.1729 18.2015 9.03885 18.2857 7.81362C18.3512 6.84325 17.9093 6.34054 17.1914 5.85419C12.5711 2.7233 6.20646 5.49176 5.33196 11.0193C4.99292 13.1588 4.62114 15.2913 4.25638 17.4261C4.16753 17.9475 3.8355 18.207 3.38188 18.1345C2.95866 18.0667 2.72017 17.737 2.80668 17.218C3.20885 14.8096 3.53854 12.3825 4.07166 10.0045C4.70064 7.19633 6.466 5.20884 9.04272 3.95321C9.35604 3.80122 9.48932 3.64223 9.45893 3.29851C9.43087 2.9922 9.44724 2.67888 9.45659 2.37023C9.48699 1.16371 10.3895 0.235434 11.5961 0.205037C12.5571 0.181654 13.5204 0.181654 14.4814 0.205037C15.6786 0.233095 16.6747 1.1263 16.5882 2.30944C16.5063 3.45049 16.822 4.18002 17.9023 4.58453C18.1665 4.68273 18.4143 4.88616 18.6084 5.09894C19.076 5.61101 19.6325 5.71389 20.3036 5.70922C23.9395 5.67882 27.5731 5.69051 31.2091 5.7022C31.5388 5.7022 31.7866 5.62972 32.0345 5.39589C32.6284 4.83238 33.3065 4.37877 34.05 4.03037C34.2909 3.91814 34.3891 3.7755 34.3774 3.50895C34.3587 3.08573 34.361 2.66017 34.3844 2.23695C34.4499 1.1263 35.3314 0.242448 36.4467 0.209713C37.4568 0.181654 38.4693 0.179316 39.477 0.209713C40.5994 0.244786 41.5885 1.17774 41.509 2.29541C41.4341 3.35696 41.7919 3.87371 42.7342 4.40449C45.3904 5.90095 46.7396 8.32101 47.2189 11.3139C48.1448 17.0847 49.1433 22.8437 50.1089 28.6098C50.2469 29.4282 50.3942 30.2465 50.5041 31.0696C50.9273 34.2753 48.2781 37.4272 45.042 37.5792C42.152 37.7148 39.8325 36.1342 38.9089 33.4008C38.7171 32.8303 38.5207 32.2621 38.336 31.6892C38.1606 31.1468 38.3266 30.7516 38.7709 30.616C39.2011 30.4827 39.5402 30.6885 39.7249 31.2099C39.9751 31.916 40.1879 32.6362 40.4614 33.3307C41.2892 35.4374 43.6017 36.5784 45.7739 35.9728C47.9788 35.3579 49.3747 33.2371 49.003 30.9971C47.8876 24.2677 46.798 17.5313 45.6102 10.8136C45.1005 7.92351 43.3351 5.92667 40.5573 4.97501C37.7959 4.02569 35.2612 4.58921 33.0189 6.46446C32.7944 6.65152 32.7196 6.85494 32.7289 7.13787C32.743 7.57512 32.7593 8.0147 32.6377 8.44961C32.3455 9.49948 31.4523 10.2991 30.3697 10.3974C29.2473 10.4979 28.1226 10.4418 26.9979 10.4278C26.5163 10.4207 26.2427 10.1238 26.2404 9.70524C26.238 9.27033 26.5256 8.98039 27.0377 8.9687C27.9823 8.94999 28.9293 8.9687 29.874 8.95701C30.7952 8.94532 31.2558 8.46364 31.2722 7.57044C31.2769 7.25244 31.1927 7.15424 30.8677 7.15658C29.0743 7.1706 27.2809 7.16359 25.4874 7.16359H25.4898ZM13.0364 1.66643C12.5828 1.66643 12.1268 1.65474 11.6732 1.66876C11.2149 1.68279 10.9577 1.94234 10.925 2.39595C10.9133 2.55729 10.939 2.7233 10.918 2.8823C10.8712 3.23771 11.0326 3.28214 11.3365 3.21901C12.3326 3.01558 13.338 3.0226 14.3388 3.18627C15.2086 3.3289 15.2086 3.33826 15.1548 2.4357C15.1244 1.92363 14.8743 1.67578 14.3528 1.66409C13.9156 1.65474 13.476 1.66409 13.0387 1.66409L13.0364 1.66643ZM37.9806 1.66409C37.6228 1.66409 37.2674 1.66409 36.9097 1.66409C35.9814 1.66409 35.5371 2.31178 35.8458 3.19562C35.9066 3.36865 36.0024 3.31487 36.11 3.29149C37.3306 3.02493 38.5534 2.9922 39.781 3.23771C39.9774 3.27746 40.0943 3.24239 40.0756 3.00623C40.0616 2.84489 40.0756 2.68122 40.0733 2.51988C40.0593 1.92597 39.8044 1.67578 39.2011 1.66643C38.7943 1.66175 38.3898 1.66643 37.9829 1.66643L37.9806 1.66409Z" fill="#E66A44"/>
<path id="Vector_3" d="M12.9411 17.1432C11.7767 17.1385 10.8671 16.3271 10.6847 15.1183C10.6473 14.8681 10.6426 14.6974 10.2849 14.667C9.10409 14.5665 8.23894 13.6171 8.19686 12.4644C8.15477 11.3304 8.97782 10.3015 10.1516 10.1472C10.5748 10.0911 10.6567 9.9321 10.7104 9.56734C10.8835 8.40758 11.8819 7.60791 13.051 7.64766C14.1804 7.68507 15.1274 8.5619 15.2209 9.7053C15.2466 10.0256 15.3588 10.0841 15.6511 10.1215C16.8904 10.2758 17.7251 11.2462 17.6994 12.4527C17.6737 13.6335 16.8179 14.5524 15.588 14.674C15.3097 14.7021 15.2489 14.7933 15.2256 15.0505C15.111 16.2757 14.1453 17.1479 12.9411 17.1432ZM12.9668 9.11606C12.5296 9.10905 12.1812 9.42471 12.1368 9.90872C12.1087 10.215 12.1368 10.5284 12.1157 10.837C12.0877 11.2976 11.8305 11.5431 11.3675 11.5642C11.0752 11.5759 10.7806 11.5548 10.4883 11.5759C10.0113 11.6109 9.67461 11.957 9.6676 12.3872C9.66058 12.8338 10.0207 13.1963 10.514 13.2196C10.7899 13.2337 11.0682 13.215 11.3441 13.2267C11.8305 13.2477 12.0923 13.5026 12.1181 13.9866C12.1368 14.3116 12.1087 14.6413 12.1485 14.9616C12.2069 15.4176 12.56 15.6935 12.9926 15.6748C13.4251 15.6561 13.7338 15.3498 13.7642 14.8868C13.7805 14.6436 13.7665 14.3981 13.7712 14.1549C13.7829 13.4932 14.0377 13.236 14.6854 13.2243C14.9286 13.2196 15.1741 13.2337 15.4173 13.2196C15.9036 13.1892 16.217 12.8666 16.224 12.4106C16.231 11.9593 15.9247 11.6203 15.4407 11.5782C15.1507 11.5525 14.8538 11.5782 14.5615 11.5665C14.0752 11.5478 13.8086 11.2976 13.7759 10.8136C13.7548 10.505 13.7829 10.194 13.7595 9.88534C13.7268 9.4364 13.3924 9.12542 12.9645 9.1184L12.9668 9.11606Z" fill="#E66A44"/>
<path id="Vector_4" d="M33.3936 17.3115C35.0748 17.3115 36.445 18.6841 36.4333 20.3536C36.4216 22.002 35.0608 23.3652 33.4123 23.3792C31.7428 23.3932 30.368 22.0254 30.3633 20.3465C30.3586 18.6513 31.6984 17.3115 33.3936 17.3115ZM31.834 20.3161C31.8247 21.1883 32.5332 21.9131 33.3936 21.9108C34.2284 21.9108 34.9462 21.1977 34.9626 20.3606C34.9789 19.5211 34.2822 18.801 33.4381 18.7823C32.5449 18.7636 31.8434 19.4323 31.834 20.3161Z" fill="#E66A44"/>
<path id="Vector_5" d="M20.6248 20.335C20.6248 22.0185 19.2616 23.3863 17.5898 23.3817C15.925 23.377 14.5408 21.9787 14.5548 20.3209C14.5688 18.6655 15.9227 17.3187 17.5805 17.314C19.278 17.3093 20.6225 18.6421 20.6225 20.335H20.6248ZM19.1564 20.3279C19.1517 19.4675 18.4713 18.7847 17.6132 18.78C16.741 18.7754 16.0209 19.4885 16.0279 20.349C16.0349 21.1814 16.7551 21.9016 17.5875 21.9109C18.4479 21.9203 19.1634 21.2001 19.1588 20.3279H19.1564Z" fill="#E66A44"/>
<path id="Vector_6" d="M42.1933 10.2618C43.3858 10.2805 44.3047 11.2322 44.2884 12.4364C44.272 13.6172 43.2899 14.5642 42.1115 14.5361C40.926 14.5057 39.972 13.519 40.0047 12.3522C40.0375 11.162 41.0008 10.2431 42.1956 10.2595L42.1933 10.2618ZM42.1582 11.7349C41.7771 11.7326 41.4685 12.0412 41.4801 12.4153C41.4918 12.7731 41.7841 13.056 42.1465 13.0583C42.5136 13.0607 42.8012 12.7895 42.8153 12.4247C42.8316 12.0365 42.5464 11.7373 42.1559 11.7349H42.1582Z" fill="#E66A44"/>
<path id="Vector_7" d="M38.5395 13.8743C39.7343 13.8743 40.6743 14.8142 40.6743 16.0114C40.6743 17.2039 39.7273 18.1509 38.5371 18.1485C37.354 18.1485 36.3906 17.1852 36.3906 16.0091C36.3906 14.8283 37.3516 13.8766 38.5395 13.8766V13.8743ZM38.5301 16.6708C38.9019 16.6755 39.1848 16.4089 39.2012 16.0418C39.2175 15.6513 38.9346 15.352 38.5488 15.3473C38.163 15.3427 37.8614 15.6443 37.8707 16.0254C37.8801 16.3855 38.1677 16.6661 38.5324 16.6708H38.5301Z" fill="#E66A44"/>
<path id="Vector_8" d="M38.5909 6.64927C39.7787 6.66797 40.6953 7.62898 40.6743 8.83551C40.6532 9.99293 39.6945 10.9352 38.5348 10.9306C37.361 10.9282 36.3883 9.95084 36.3906 8.77939C36.393 7.57988 37.3774 6.62822 38.5909 6.64927ZM39.2012 8.79342C39.2059 8.40294 38.9159 8.11533 38.5254 8.12235C38.163 8.12936 37.8754 8.41463 37.8684 8.77471C37.8637 9.15117 38.177 9.46215 38.5535 9.45514C38.9136 9.44812 39.1965 9.15818 39.2012 8.79576V8.79342Z" fill="#E66A44"/>
<path id="Vector_9" d="M34.9442 10.2618C36.1414 10.2688 37.0697 11.2134 37.0603 12.4129C37.0533 13.5984 36.0876 14.5501 34.9068 14.5384C33.7213 14.5267 32.7697 13.5563 32.7814 12.3779C32.793 11.19 33.7494 10.2547 34.9419 10.2618H34.9442ZM35.5872 12.4082C35.5942 12.0178 35.3066 11.7302 34.9138 11.7348C34.5467 11.7395 34.2685 12.0178 34.2615 12.3825C34.2544 12.766 34.5537 13.0653 34.9372 13.0606C35.302 13.0536 35.5802 12.7753 35.5872 12.4082Z" fill="#E66A44"/>
<path id="Vector_10" d="M22.2599 13.7855C22.6176 13.7855 22.9754 13.7738 23.3331 13.7879C23.7493 13.8042 23.9972 14.0287 24.0393 14.4472C24.079 14.8518 23.8265 15.2025 23.4033 15.2235C22.6246 15.2609 21.8437 15.2586 21.065 15.2259C20.6371 15.2072 20.3846 14.8705 20.4033 14.4683C20.422 14.0684 20.6956 13.8042 21.1422 13.7855C21.5163 13.7692 21.8904 13.7832 22.2645 13.7832L22.2599 13.7855Z" fill="#E66A44"/>
<path id="Vector_11" d="M28.7954 13.7856C29.1532 13.7856 29.5109 13.7715 29.8687 13.7902C30.3082 13.8113 30.5795 14.0895 30.5888 14.4917C30.5982 14.8915 30.3386 15.2166 29.9061 15.2329C29.1438 15.2633 28.3769 15.2633 27.6146 15.2329C27.182 15.2142 26.9318 14.8869 26.9459 14.48C26.9599 14.0732 27.2241 13.8113 27.6731 13.7902C28.0472 13.7739 28.4213 13.7879 28.7954 13.7879V13.7856Z" fill="#E66A44"/>
</g>
<defs>
<clipPath id="clip0_777_1049">
<rect width="50.0941" height="37.4046" fill="white" transform="translate(0.453125 0.184082)"/>
</clipPath>
</defs>
</svg>
