<svg width="41" height="41" viewBox="0 0 41 41" fill="none" xmlns="http://www.w3.org/2000/svg">
<g id="Designed_by_freepik" clip-path="url(#clip0_777_989)">
<path id="Vector" d="M0.5 26.1278C0.783773 25.6915 1.17724 25.551 1.68994 25.5607C3.14695 25.5873 4.60636 25.5679 6.06337 25.5704C6.65953 25.5704 6.86461 25.7133 7.07208 26.2901C7.11738 26.4186 7.17462 26.4598 7.29623 26.438C8.05932 26.3071 8.8224 26.1762 9.58549 26.0478C9.60934 26.009 9.63318 25.9678 9.65703 25.929C9.26833 25.5631 8.86056 25.2117 8.49094 24.8263C5.26213 21.4746 4.45135 16.1841 6.51407 11.989C6.61422 11.783 6.71676 11.5819 6.96 11.5237C7.19131 11.468 7.40354 11.5116 7.56093 11.7055C7.7517 11.9406 7.72547 12.1926 7.59908 12.4471C7.09592 13.4722 6.76207 14.5555 6.64046 15.6946C6.31376 18.7603 7.08161 21.4867 9.13956 23.7915C9.69995 24.4192 10.3057 25.0008 10.878 25.6164C11.0234 25.7715 11.157 25.7933 11.3597 25.757C12.8572 25.4855 14.3595 25.2432 15.8571 24.9645C17.524 24.6518 19.1718 24.7633 20.8148 25.1293C21.4491 25.2698 22.1001 25.345 22.7296 25.5001C23.8194 25.7667 24.697 26.3483 25.1477 27.434C25.7462 28.8784 24.8877 30.3859 23.3067 30.7349C22.6295 30.8851 21.9594 30.7979 21.2869 30.7179C20.3569 30.6064 19.4269 30.4828 18.4993 30.3592C17.9079 30.2792 17.5693 30.4852 17.4763 30.9966C17.3928 31.4571 17.7028 31.8279 18.268 31.9272C20.0994 32.2495 21.9141 32.6761 23.7622 32.899C24.6326 33.0057 25.4577 32.6785 26.2995 32.5307C26.3972 32.5137 26.4831 32.3925 26.5641 32.3077C29.2683 29.4989 32.0202 26.7361 34.66 23.8642C37.3356 20.9512 37.9127 17.5025 36.8133 13.7218C36.7418 13.4795 36.6512 13.4674 36.4294 13.5643C32.3755 15.331 28.0712 13.2589 26.836 8.94267C26.7549 8.66155 26.6548 8.6979 26.464 8.78272C25.3051 9.29408 24.2797 10.0066 23.3806 10.9057C23.1112 11.1747 22.8465 11.4486 22.5579 11.6958C22.1216 12.0666 21.7662 12.0714 21.3322 11.6958C20.9674 11.3783 20.6359 11.022 20.2806 10.6876C18.6304 9.13655 16.7108 8.18169 14.4454 8.06294C12.4781 7.95873 10.7587 8.58642 9.33272 9.99205C9.25879 10.0648 9.18964 10.1472 9.11095 10.215C8.8391 10.4525 8.54102 10.4549 8.30255 10.2271C8.06409 10.0017 8.05216 9.65034 8.29301 9.37406C8.58632 9.03719 8.91779 8.73667 9.27549 8.47009C11.8271 6.57733 14.5885 6.45373 17.4691 7.5128C19.0764 8.10414 20.4356 9.09535 21.6089 10.3459C21.8569 10.6076 21.9904 10.6537 22.2623 10.3628C23.4236 9.11959 24.778 8.15019 26.3662 7.54673C26.5641 7.4716 26.5999 7.35285 26.5999 7.16139C26.5999 6.12898 26.8074 5.14019 27.2342 4.20229C27.4465 3.73455 27.7326 3.57703 28.076 3.72728C28.4337 3.88481 28.51 4.21926 28.3002 4.70153C26.7621 8.23258 28.7795 12.1781 32.4971 12.9221C35.5471 13.5304 38.5398 11.4728 39.2075 8.30771C39.8466 5.27106 37.884 2.13746 34.8937 1.44434C33.1601 1.04204 31.5647 1.37406 30.1196 2.43313C30.0553 2.47918 29.9956 2.53007 29.9289 2.57127C29.6141 2.76515 29.2922 2.71183 29.1014 2.43798C28.9226 2.18109 28.9655 1.84907 29.2326 1.62368C29.7786 1.16564 30.3915 0.819074 31.052 0.564606C34.2546 -0.671383 37.8268 0.603382 39.5438 3.59641C41.2559 6.57733 40.6049 10.3459 37.9794 12.5682C37.7648 12.75 37.7577 12.8857 37.8364 13.1329C39.2361 17.5849 38.4659 21.5643 35.2562 24.9718C33.1028 27.2547 30.9114 29.4989 28.7366 31.7624C28.6483 31.8545 28.5672 31.9515 28.417 32.1211C29.4138 31.9248 30.3152 31.7333 31.219 31.571C31.8461 31.4571 32.4494 31.2389 33.0885 31.1711C33.4963 31.1275 33.8969 31.1469 34.2904 31.2389C35.8499 31.6073 36.5033 33.2093 35.6735 34.6173C35.2276 35.3735 34.5408 35.7951 33.7348 36.0569C30.6514 37.0578 27.5729 38.066 24.4919 39.0669C23.7121 39.3189 22.9276 39.5613 22.143 39.7939C20.6502 40.2374 19.167 40.1599 17.679 39.743C14.2832 38.7906 10.8827 37.86 7.487 36.9124C7.23185 36.8421 7.11261 36.8276 7.02915 37.1475C6.929 37.5279 6.59515 37.7073 6.21599 37.7097C4.60159 37.7194 2.98718 37.717 1.37278 37.7097C0.948313 37.7097 0.681233 37.4504 0.5 37.0844L0.5 26.1278ZM7.09354 31.6122C7.09354 32.8167 7.10069 34.0187 7.08877 35.2232C7.08638 35.4728 7.14838 35.5916 7.40354 35.6618C10.99 36.6458 14.5742 37.6443 18.1583 38.6379C19.3506 38.9675 20.5501 39.0305 21.74 38.6694C25.7367 37.4601 29.6904 36.1126 33.6608 34.816C34.0519 34.6876 34.3786 34.4428 34.6147 34.0914C35.1369 33.311 34.8246 32.5501 33.916 32.378C33.6704 32.3319 33.4271 32.3344 33.1791 32.361C32.7618 32.4047 32.3684 32.5476 31.9606 32.63C29.998 33.0251 28.0355 33.4225 26.0681 33.803C25.2526 33.9605 24.4466 34.2005 23.6 34.0841C21.6399 33.8151 19.7035 33.4201 17.7672 33.0251C16.737 32.8142 16.148 31.7842 16.3483 30.7203C16.5463 29.6685 17.4167 29.0287 18.4921 29.1572C19.4078 29.2686 20.3235 29.4043 21.2392 29.5086C21.8831 29.5813 22.5269 29.7218 23.1756 29.5352C24.1914 29.242 24.4871 28.2435 23.7908 27.4316C23.3902 26.9639 22.868 26.7167 22.2718 26.61C21.7352 26.5131 21.1963 26.421 20.6622 26.3095C19.2528 26.0139 17.8435 25.8321 16.4032 26.0866C13.4176 26.61 10.432 27.119 7.4417 27.6158C7.15315 27.6643 7.084 27.7661 7.08638 28.0399C7.09831 29.2299 7.09115 30.4198 7.09115 31.6122H7.09354ZM5.92268 31.6582C5.92268 30.1387 5.91791 28.6167 5.92745 27.0972C5.92745 26.8548 5.88214 26.7482 5.60791 26.753C4.39889 26.7676 3.18749 26.7676 1.97848 26.753C1.70186 26.7506 1.66609 26.8572 1.66609 27.0972C1.67324 30.1241 1.67324 33.1511 1.66609 36.1781C1.66609 36.4616 1.74717 36.5295 2.01663 36.527C3.18749 36.5125 4.35835 36.5077 5.52921 36.527C5.87022 36.5343 5.93222 36.4107 5.92983 36.0981C5.91552 34.6173 5.92268 33.1366 5.92268 31.6558V31.6582Z" fill="#E66A44"/>
<path id="Vector_2" d="M22.0318 16.9015C21.3045 18.1932 20.6082 19.4317 19.9095 20.6676C19.5136 21.368 19.0653 21.3729 18.6361 20.687C18.276 20.1054 17.9087 19.5286 17.5582 18.9397C17.4247 18.7143 17.3484 18.6731 17.2053 18.9324C16.9454 19.405 16.652 19.8582 16.385 20.3284C16.2252 20.6095 16.001 20.7331 15.6815 20.7307C14.5488 20.7234 13.4161 20.7307 12.2834 20.7258C11.8279 20.7258 11.5728 20.4956 11.5823 20.1151C11.5894 19.7491 11.8351 19.5383 12.2738 19.5359C13.2492 19.531 14.2269 19.5286 15.2022 19.5407C15.412 19.5431 15.5313 19.4777 15.6362 19.2935C16.0082 18.6416 16.3921 17.9969 16.7784 17.3547C17.129 16.7706 17.5868 16.7682 17.9517 17.3499C18.3761 18.0236 18.7934 18.7022 19.2203 19.3905C19.3848 19.2669 19.4325 19.1118 19.5065 18.9785C20.1551 17.8321 20.7965 16.6834 21.4476 15.5395C21.8076 14.9045 22.3013 14.9094 22.6518 15.554C23.5604 17.2311 24.4641 18.913 25.3727 20.5925C25.4394 20.7161 25.48 20.864 25.6302 20.9633C26.0905 20.1781 26.5602 19.405 27.0014 18.6125C27.2041 18.2466 27.4664 18.0987 27.8837 18.106C29.367 18.1254 30.8502 18.1133 32.3358 18.1133C32.8342 18.1133 33.0942 18.3168 33.0942 18.7022C33.0942 19.0899 32.8342 19.3008 32.3406 19.3032C31.0267 19.3032 29.7103 19.3178 28.3964 19.2935C28.0626 19.2887 27.8909 19.4026 27.7311 19.691C27.2327 20.5877 26.7033 21.4674 26.1811 22.352C25.8091 22.9821 25.3202 22.9773 24.9744 22.335C24.0778 20.6798 23.186 19.0221 22.2917 17.3644C22.2178 17.2263 22.1367 17.093 22.0294 16.9039L22.0318 16.9015Z" fill="#E66A44"/>
<path id="Vector_3" d="M35.1112 7.73344C34.4673 7.73344 34.1454 8.06466 34.1454 8.72708C34.1454 8.97913 34.1573 9.23117 34.1382 9.48079C34.1096 9.86128 33.8735 10.0915 33.5445 10.0867C33.2178 10.0818 32.9888 9.84432 32.9769 9.4614C32.965 8.99851 32.9602 8.53562 32.9769 8.07273C32.9841 7.82069 32.9125 7.71648 32.6478 7.72617C32.2067 7.74314 31.7631 7.73587 31.322 7.72617C30.9142 7.7189 30.6686 7.50079 30.6567 7.15907C30.6447 6.80039 30.8951 6.55562 31.3196 6.54108C31.7607 6.52654 32.2043 6.52169 32.6455 6.54108C32.9101 6.5532 32.9841 6.45141 32.9745 6.19694C32.9602 5.76071 32.965 5.32448 32.9745 4.88825C32.9817 4.4399 33.1939 4.19755 33.554 4.19997C33.9165 4.19997 34.1287 4.44232 34.1406 4.89067C34.1525 5.3269 34.1549 5.76313 34.1406 6.19936C34.1311 6.45383 34.2074 6.55077 34.4673 6.54108C34.8966 6.52169 35.3258 6.52896 35.755 6.54108C36.1986 6.5532 36.437 6.76404 36.4442 7.12999C36.4513 7.5129 36.2081 7.7189 35.7359 7.7286C35.5285 7.73344 35.3186 7.7286 35.1112 7.7286V7.73344Z" fill="#E66A44"/>
</g>
<defs>
<clipPath id="clip0_777_989">
<rect width="40" height="40" fill="white" transform="translate(0.5 0.092041)"/>
</clipPath>
</defs>
</svg>
