<svg width="41" height="41" viewBox="0 0 41 41" fill="none" xmlns="http://www.w3.org/2000/svg">
<g id="Designed_by_freepik" clip-path="url(#clip0_777_1069)">
<path id="Vector" d="M18.3981 0.184082H19.1803C19.6206 0.336613 20.0609 0.489144 20.3979 0.833569C20.4815 0.919675 20.5529 0.902453 20.6267 0.823728C20.9366 0.494064 21.367 0.373516 21.7557 0.184082H22.6141C23.7234 0.469462 24.299 1.2395 24.6532 2.28507C25.0591 3.47826 25.5781 4.63208 25.9987 5.81788C26.1782 6.32468 26.4587 6.6445 26.958 6.83148C27.2039 6.92496 27.2925 6.87576 27.4056 6.66911C27.7131 6.11065 28.0353 5.56203 28.36 5.01341C28.6355 4.54843 29.0684 4.39836 29.4718 4.62224C29.89 4.8535 29.9859 5.30863 29.7055 5.80312C29.3857 6.36896 29.061 6.93234 28.7265 7.4908C28.6158 7.67286 28.633 7.77126 28.8151 7.89427C30.3918 8.94723 31.7077 10.2708 32.7678 11.8404C32.908 12.0495 33.0138 12.0717 33.2278 11.9388C33.769 11.6042 34.3248 11.2918 34.8807 10.9793C35.3751 10.6989 35.8302 10.7948 36.0614 11.2155C36.2828 11.619 36.1327 12.052 35.6654 12.3275C35.1046 12.6572 34.5413 12.9819 33.978 13.3042C33.8329 13.3878 33.7222 13.4494 33.8255 13.6585C34.6741 15.3806 35.171 17.2011 35.294 19.1201C35.3087 19.3661 35.4194 19.4104 35.6383 19.4054C36.2754 19.3931 36.9149 19.3981 37.552 19.4005C38.1153 19.403 38.4719 19.7179 38.4646 20.1902C38.4572 20.6503 38.1079 20.9553 37.5692 20.9603C36.9715 20.9652 36.3689 20.9898 35.7736 20.9504C35.3874 20.9258 35.3038 21.071 35.2768 21.4203C35.1218 23.5681 34.4897 25.578 33.432 27.4478C33.2819 27.7134 33.3065 27.8266 33.5722 27.9792C35.6679 29.1871 37.7512 30.4123 39.8445 31.6251C40.1077 31.7777 40.329 31.9597 40.4987 32.2107V39.633C40.2995 39.9577 40.0511 40.1841 39.6305 40.1841C35.3604 40.1792 31.0928 40.1841 26.8227 40.1767C26.1217 40.1767 25.7871 39.5887 26.1094 38.9589C26.3234 38.5431 26.53 38.1225 26.7661 37.719C26.9162 37.4607 26.8768 37.3401 26.6062 37.195C25.4059 36.543 24.2129 35.8739 23.1823 34.9611C23.0519 34.8455 22.9265 34.8234 22.7568 34.8504C21.463 35.0472 20.1593 35.1235 18.868 34.9168C18.2456 34.8184 17.8029 34.9439 17.3306 35.3498C16.4402 36.115 15.3924 36.6562 14.3642 37.2171C14.1674 37.3254 14.0567 37.4041 14.2043 37.6526C14.4331 38.0314 14.6151 38.4349 14.8242 38.8236C15.2595 39.6305 14.9373 40.1792 14.0198 40.1792C9.85553 40.1792 5.68876 40.1792 1.52445 40.1792C0.757019 40.1792 0.506128 39.9208 0.506128 39.1385C0.506128 37.0154 0.520886 34.8947 0.496289 32.7716C0.48891 32.218 0.690607 31.8884 1.16779 31.6153C3.2684 30.4172 5.35178 29.1871 7.44254 27.9718C7.6098 27.8734 7.7869 27.8217 7.62702 27.5437C6.51277 25.61 5.87078 23.5262 5.71336 21.2973C5.69614 21.0365 5.61251 20.948 5.34194 20.9553C4.70487 20.975 4.06535 20.9652 3.42828 20.9603C2.89206 20.9553 2.54278 20.6429 2.54032 20.1829C2.54032 19.7203 2.88714 19.4054 3.4209 19.4005C4.04567 19.3956 4.67044 19.3833 5.29521 19.4054C5.58791 19.4153 5.70106 19.3366 5.72074 19.034C5.84126 17.1691 6.32829 15.3978 7.1523 13.7224C7.27282 13.4789 7.19411 13.3878 6.98995 13.2771C6.46603 12.9893 5.95195 12.6818 5.43541 12.3816C4.87705 12.0569 4.70487 11.6436 4.94593 11.2106C5.18944 10.7727 5.63711 10.7038 6.19546 11.0212C6.7366 11.3311 7.2802 11.6362 7.81396 11.9609C7.99844 12.0717 8.09683 12.0471 8.21736 11.8699C9.28242 10.2856 10.6057 8.95461 12.1947 7.89427C12.3792 7.77126 12.3866 7.6704 12.2784 7.48834C11.9414 6.93234 11.6192 6.3665 11.2994 5.80066C11.019 5.30617 11.1149 4.85104 11.5355 4.61978C11.9389 4.39836 12.3718 4.54843 12.6473 5.01587C12.9769 5.57679 13.2967 6.14263 13.6263 6.70355C13.6755 6.78719 13.6976 6.90528 13.8329 6.9102C14.0297 6.91758 14.7479 6.44277 14.8242 6.24596C15.3432 4.915 15.8941 3.59389 16.3664 2.24571C16.728 1.21736 17.3036 0.462082 18.3957 0.184082L18.3981 0.184082ZM13.8132 8.82668C12.9892 9.18587 12.2956 9.68774 11.6659 10.2708C8.30099 13.3829 6.86205 17.2356 7.3294 21.7869C7.50896 23.5262 8.07469 25.1549 8.92576 26.6876C9.05858 26.9287 9.15205 27.0098 9.41524 26.8327C9.81372 26.5645 10.2368 26.3284 10.6623 26.107C10.9058 25.979 10.9698 25.8216 10.955 25.551C10.8739 24.161 10.8124 22.7685 10.7509 21.3785C10.7263 20.8077 11.0214 20.4412 11.4912 20.4215C11.9635 20.3993 12.2833 20.7512 12.3103 21.3096C12.3792 22.7783 12.4136 24.252 12.5366 25.7158C12.6006 26.4932 12.4161 27.0394 11.661 27.3272C11.5527 27.369 11.4642 27.4576 11.356 27.4994C11.1075 27.5978 11.0903 27.7577 11.1567 27.9939C11.3461 28.6557 11.5085 29.3249 11.688 29.9916C12.1873 31.8613 12.6695 33.7384 13.3237 35.5639C13.4393 35.8837 13.5451 35.9157 13.8329 35.7435C14.5708 35.3056 15.326 34.8947 16.027 34.3978C17.9849 33.0127 19.1779 31.1552 19.505 28.759C19.7461 26.9951 19.5345 25.2557 19.2959 23.5115C19.1188 22.2248 18.8507 20.9381 18.9639 19.6293C19.0992 18.0474 19.291 16.4729 19.4558 14.8935C19.5247 14.2341 19.5985 13.5748 19.6428 12.913C19.6674 12.5465 19.4583 12.298 19.1188 12.175C18.7696 12.0471 18.5383 12.2316 18.3686 12.5022C18.2383 12.7088 18.1202 12.9303 18.0267 13.1566C17.3946 14.6819 16.8436 16.2392 16.3935 17.8285C16.2656 18.2787 16.1746 18.7387 16.0417 19.1865C15.9163 19.6219 15.5129 19.8458 15.1046 19.7376C14.6815 19.6244 14.4577 19.2603 14.5388 18.8101C14.5561 18.7215 14.5733 18.6305 14.5954 18.5419C15.1046 16.4532 15.8056 14.4285 16.6296 12.4456C16.8461 11.924 17.1265 11.4418 17.5668 11.0728C17.6873 10.972 17.734 10.8489 17.7685 10.7063C18.3416 8.23624 18.9147 5.76868 19.4903 3.29866C19.5518 3.03051 19.6034 2.76235 19.5616 2.48681C19.5075 2.1227 19.3205 1.8447 18.9467 1.76598C18.5679 1.68479 18.2924 1.87176 18.0981 2.18667C18.0439 2.27523 18.0046 2.37364 17.9677 2.46959C16.7403 5.63091 15.5104 8.79224 14.288 11.956C13.9608 12.8048 13.6583 13.6634 13.3311 14.5121C13.1491 14.9894 12.7359 15.1862 12.3079 15.0263C11.902 14.8738 11.7225 14.4629 11.8627 13.9955C11.8848 13.9217 11.9119 13.8479 11.9389 13.7741C12.3644 12.6424 12.7924 11.5132 13.2204 10.3815C13.4172 9.86241 13.614 9.34578 13.8132 8.82668ZM28.6503 22.4019C28.6503 22.4019 28.6429 22.4019 28.6404 22.4019C28.6503 22.2469 28.6675 22.0895 28.6724 21.9345C28.7167 20.6724 28.8028 19.4104 28.6626 18.1507C28.5101 16.7804 28.028 15.5011 27.5655 14.2169C26.1389 10.2683 24.5179 6.39603 23.0446 2.46467C23.0027 2.35642 22.9585 2.24571 22.8945 2.14976C22.7076 1.8693 22.4493 1.70201 22.1025 1.76105C21.7409 1.82256 21.5392 2.07104 21.4654 2.41792C21.4138 2.66148 21.4384 2.9075 21.4949 3.15351C22.041 5.4956 22.5871 7.83769 23.1233 10.1798C23.2266 10.6275 23.3397 11.0335 23.7161 11.3607C24.0604 11.6583 24.24 12.0987 24.4122 12.5243C24.6114 13.0188 24.8131 13.5109 25 14.0103C25.5805 15.57 26.102 17.1495 26.4611 18.7781C26.5669 19.2529 26.3381 19.6269 25.9003 19.74C25.4772 19.8507 25.096 19.6121 24.9558 19.1471C24.9361 19.0856 24.9189 19.0216 24.9041 18.9601C24.4392 16.9822 23.7653 15.0706 23.0003 13.191C22.8921 12.9253 22.7764 12.6621 22.5993 12.4358C22.2624 12.0077 21.7139 12.0618 21.4507 12.5415C21.3449 12.7359 21.3523 12.9426 21.3744 13.1517C21.5122 14.4851 21.6278 15.821 21.7999 17.1495C22.0582 19.1324 22.1418 21.103 21.7876 23.0932C21.49 24.7711 21.2932 26.4661 21.4384 28.1809C21.5909 29.967 22.1763 31.5735 23.3619 32.9438C24.4146 34.1591 25.7798 34.939 27.1449 35.7262C27.4548 35.9034 27.5729 35.896 27.7033 35.5294C28.4928 33.2956 29.0537 30.9978 29.6563 28.7098C29.7448 28.3728 29.981 27.9988 29.8678 27.7011C29.7522 27.4035 29.3218 27.2977 29.0168 27.1328C28.6134 26.9164 28.4461 26.6064 28.4732 26.1488C28.5445 24.9015 28.5937 23.6517 28.6527 22.4044L28.6503 22.4019ZM27.2433 8.74303C27.199 8.95707 27.2925 9.07762 27.3417 9.20555C28.0575 11.0728 28.7806 12.9376 29.4374 14.827C29.9687 16.3597 30.318 17.9219 30.3007 19.5555C30.2786 21.5212 30.163 23.4819 30.0621 25.4427C30.0425 25.8093 30.1359 26.0135 30.4582 26.1685C30.8197 26.3431 31.1764 26.5424 31.5011 26.7761C31.8061 26.9951 31.9463 26.9533 32.1308 26.6187C34.7381 21.8828 34.2314 16.0375 30.8296 11.8281C29.8309 10.5931 28.6503 9.56965 27.2433 8.74549V8.74303ZM35.8007 38.6194C36.7255 38.6194 37.6504 38.6096 38.5728 38.6268C38.8507 38.6317 38.9516 38.5776 38.9467 38.2701C38.9294 36.5898 38.9344 34.9119 38.9467 33.2316C38.9467 32.9905 38.868 32.8626 38.6613 32.7445C37.5446 32.1049 36.4279 31.4652 35.3284 30.7961C35.0062 30.5992 34.9521 30.6976 34.8684 31.0076C34.2191 33.4703 33.6312 35.9501 32.7432 38.3439C32.6498 38.5973 32.7285 38.6268 32.9523 38.6243C33.9018 38.617 34.8537 38.6219 35.8031 38.6219L35.8007 38.6194ZM5.1919 38.6194H7.49666C8.07223 38.6194 8.26655 38.3504 8.07961 37.8125C7.29496 35.5639 6.7366 33.2513 6.13397 30.951C6.06756 30.7001 6.02082 30.5992 5.74042 30.769C4.60402 31.4529 3.45287 32.1122 2.30418 32.774C2.13938 32.87 2.06805 32.9733 2.06805 33.1726C2.07543 34.8898 2.07789 36.6094 2.06805 38.3266C2.06805 38.5776 2.15168 38.6268 2.38044 38.6243C3.31759 38.612 4.25474 38.6194 5.1919 38.6194ZM12.8761 38.6194C12.9179 38.4595 12.8146 38.3586 12.7629 38.2479C12.3128 37.3081 11.9365 36.3413 11.6044 35.3572C10.8862 33.2267 10.3549 31.0421 9.78912 28.8673C9.71041 28.5671 9.63662 28.4786 9.33899 28.6705C8.81507 29.01 8.27147 29.315 7.72295 29.6152C7.50404 29.7357 7.44008 29.8464 7.51388 30.1023C7.75247 30.9264 7.95171 31.7604 8.17062 32.5895C8.68224 34.5232 9.18649 36.4594 9.93424 38.3193C9.99574 38.4743 10.0228 38.6292 10.2614 38.6243C11.1321 38.6096 12.0029 38.6194 12.8736 38.6194H12.8761ZM28.0722 38.6194C28.9282 38.6194 29.7227 38.5997 30.5147 38.6293C30.8542 38.6416 31.0067 38.5431 31.1321 38.2184C32.1554 35.5417 32.7703 32.747 33.5328 29.994C33.5918 29.7825 33.4664 29.7185 33.3287 29.6373C32.7777 29.3175 32.2193 29.0124 31.6806 28.6705C31.3929 28.4859 31.3092 28.5573 31.2281 28.8648C30.3598 32.1516 29.6219 35.4802 28.0747 38.6219L28.0722 38.6194ZM21.5687 10.3864C21.3228 9.3261 21.0596 8.18949 20.7964 7.05289C20.7496 6.84624 20.5799 6.91758 20.4471 6.90282C20.2774 6.88314 20.2282 6.98155 20.1937 7.1267C19.9453 8.2141 19.6944 9.29903 19.4337 10.384C19.3919 10.5611 19.4337 10.6374 19.6108 10.6915C19.8863 10.7727 20.1396 10.9104 20.3536 11.1023C20.4619 11.1983 20.5406 11.2032 20.6512 11.1023C20.8751 10.9006 21.1457 10.7678 21.431 10.6743C21.5441 10.6374 21.6228 10.598 21.5663 10.3864H21.5687ZM19.3082 33.3965C20.1347 33.4801 20.8874 33.4924 21.6966 33.3915C21.2096 32.7051 20.8406 32.0286 20.5086 31.234C20.1691 32.0212 19.8076 32.7027 19.3082 33.3965Z" fill="#E66A44"/>
<path id="Vector_2" d="M9.12369 8.01966C9.12615 8.3198 8.99824 8.55105 8.73997 8.6962C8.48416 8.84382 8.19391 8.86842 7.96516 8.68882C7.47322 8.30504 7.02309 7.86713 6.64921 7.36771C6.43521 7.07987 6.51884 6.69362 6.77711 6.44268C7.03538 6.18929 7.4191 6.11302 7.70443 6.33198C8.20129 6.71084 8.63174 7.16598 9.02776 7.64817C9.11385 7.75396 9.11631 7.88927 9.12615 8.01966H9.12369Z" fill="#E66A44"/>
<path id="Vector_3" d="M3.74302 16.5048C3.28059 16.372 2.7001 16.2342 2.14174 16.0349C1.78016 15.9046 1.63996 15.4912 1.75311 15.1222C1.86379 14.7606 2.22537 14.5047 2.59433 14.5859C3.12317 14.704 3.64955 14.8442 4.16609 15.0115C4.56457 15.1394 4.74167 15.5085 4.65558 15.9095C4.57933 16.276 4.2448 16.527 3.74302 16.5048Z" fill="#E66A44"/>
<path id="Vector_4" d="M4.68024 24.6383C4.67286 24.995 4.4933 25.2632 4.12926 25.3715C3.63485 25.5215 3.13307 25.6593 2.63129 25.7749C2.24511 25.8635 1.86877 25.615 1.75563 25.2386C1.64002 24.8524 1.7999 24.439 2.18362 24.3111C2.7223 24.1291 3.27328 23.9741 3.82917 23.8683C4.28176 23.7822 4.6704 24.1586 4.68024 24.6383Z" fill="#E66A44"/>
<path id="Vector_5" d="M32.6608 8.79951C32.341 8.79705 32.1147 8.65928 31.9745 8.3985C31.8343 8.13773 31.8196 7.84989 32.0016 7.62355C32.3853 7.14873 32.8133 6.7059 33.3003 6.33442C33.5832 6.11792 33.9743 6.19173 34.2301 6.4402C34.4859 6.68868 34.5745 7.08231 34.3629 7.36523C33.9792 7.87449 33.5192 8.31732 33.0175 8.71095C32.9092 8.79459 32.7739 8.79213 32.6633 8.79951H32.6608Z" fill="#E66A44"/>
<path id="Vector_6" d="M39.294 15.356C39.2694 15.7324 39.08 15.9957 38.7209 16.1039C38.2511 16.2466 37.7764 16.3745 37.2967 16.4877C36.8663 16.5886 36.4604 16.3425 36.3571 15.944C36.2489 15.5233 36.4481 15.1297 36.881 14.9944C37.3754 14.8394 37.8748 14.7041 38.379 14.5934C38.8537 14.49 39.294 14.8738 39.294 15.356Z" fill="#E66A44"/>
<path id="Vector_7" d="M37.2086 23.8559C37.7227 23.9961 38.3278 24.097 38.8886 24.3356C39.2379 24.4857 39.3707 24.9015 39.2501 25.2631C39.1321 25.6149 38.7582 25.856 38.3917 25.7724C37.8752 25.6543 37.3611 25.5165 36.8568 25.3542C36.451 25.2238 36.2714 24.8695 36.3501 24.466C36.4239 24.097 36.7511 23.8412 37.211 23.8535L37.2086 23.8559Z" fill="#E66A44"/>
<path id="Vector_8" d="M12.3905 17.6809C12.3905 18.1238 12.0387 18.4706 11.6009 18.4608C11.1877 18.451 10.8384 18.0942 10.8359 17.6834C10.8359 17.2578 11.2098 16.8937 11.6353 16.9035C12.0584 16.9134 12.388 17.2529 12.388 17.6809H12.3905Z" fill="#E66A44"/>
</g>
<defs>
<clipPath id="clip0_777_1069">
<rect width="40" height="40" fill="white" transform="translate(0.5 0.184082)"/>
</clipPath>
</defs>
</svg>
