<svg width="41" height="41" viewBox="0 0 41 41" fill="none" xmlns="http://www.w3.org/2000/svg">
<g id="Designed_by_freepik" clip-path="url(#clip0_777_1086)">
<path id="Vector" d="M0.498088 37.8425C0.498088 37.4778 0.498088 37.1131 0.498088 36.7504C0.520021 36.6767 0.555911 36.6049 0.563887 36.5292C0.986598 32.7428 1.40333 28.9565 1.83401 25.1721C1.9357 24.2753 2.14506 23.4144 2.76119 22.693C3.55676 21.7604 4.60955 21.3419 5.75406 21.0649C6.62341 20.8556 7.48877 20.6464 8.30627 20.2478C8.77484 20.0187 8.9862 19.7795 8.91641 19.2574C8.88052 18.9844 8.90046 18.7632 8.59738 18.5858C6.60546 17.426 5.55865 15.6564 5.36325 13.3805C5.33533 13.0537 5.22367 12.9242 4.92259 12.8206C3.82195 12.4399 3.1839 11.2562 3.61259 10.2757C3.82993 9.7815 3.84588 9.30522 3.84986 8.80303C3.85186 8.46424 3.84189 8.12546 3.85983 7.78868C3.95754 5.98716 4.58163 4.37497 5.76602 3.02782C7.61837 0.923393 9.96521 0.000714421 12.7727 0.275724C15.9609 0.588598 18.8461 3.12746 19.5819 6.24822C19.8271 7.29047 19.8052 8.3387 19.8172 9.39091C19.8192 9.55831 19.7912 9.73168 19.8949 9.88314C20.5449 10.8437 20.1541 12.3024 18.7165 12.8365C18.4115 12.9501 18.3337 13.0896 18.3137 13.3825C18.1662 15.5009 17.2311 17.2048 15.4465 18.3526C14.8942 18.7074 14.7028 19.0621 14.7945 19.652C14.8005 19.6898 14.8005 19.7297 14.7945 19.7695C14.7765 19.909 14.8463 19.9808 14.966 20.0366C15.3787 20.2279 15.7875 20.4292 16.2002 20.6185C16.5152 20.762 16.7764 20.75 17.0775 20.489C17.8412 19.8273 18.7504 19.4646 19.7554 19.3232C20.2798 19.2494 20.8002 19.2873 21.3206 19.3271C21.2747 19.1239 21.2149 18.9605 21.2029 18.7951C21.1411 17.966 21.0893 17.135 21.0374 16.304C20.9138 14.3311 20.7842 12.3582 20.6726 10.3833C20.5828 8.77712 20.6586 7.18286 21.195 5.64639C21.6755 4.27333 22.4711 3.18126 23.9107 2.68306C24.0682 2.62925 24.1639 2.51566 24.2636 2.39211C24.6943 1.84408 25.2207 1.40566 25.8328 1.06688C27.5655 0.108327 29.4259 -0.0152282 31.2882 0.437143C33.5832 0.995134 35.2999 2.40207 36.4724 4.45468C36.9469 5.28569 37.26 6.17847 37.4155 7.12307C37.4753 7.47979 37.2939 7.77672 36.9828 7.85045C36.6678 7.92618 36.3826 7.74284 36.279 7.3921C36.2431 7.26855 36.2251 7.13902 36.1932 7.01147C35.6588 4.7815 34.3588 3.12746 32.3589 2.04735C31.013 1.31997 29.5415 1.25819 28.062 1.49932C26.7799 1.70857 25.7092 2.30641 24.9675 3.41243C24.8339 3.61171 24.6265 3.68545 24.4131 3.74922C23.5757 3.99832 23.0074 4.55631 22.6067 5.3096C22.0364 6.38374 21.8849 7.55352 21.827 8.73925C21.7652 9.98876 21.9108 11.2343 21.9786 12.4818C22.0823 14.4168 22.1979 16.3518 22.3175 18.2869C22.3554 18.8887 22.4192 18.9365 23.0334 18.9365C23.9047 18.9365 24.778 18.9405 25.6494 18.9326C25.8209 18.9326 26.102 19.0262 26.1459 18.8688C26.2097 18.6476 25.9066 18.6157 25.757 18.52C23.9426 17.3443 22.8439 15.7062 22.6864 13.538C22.5927 12.2426 22.6346 10.9373 22.6346 9.63603C22.6346 8.95249 22.9037 8.61769 23.5817 8.44232C24.477 8.21315 25.2287 7.75679 25.8707 7.09916C26.437 6.51925 27.0112 6.54715 27.5316 7.16891C28.4349 8.24703 29.5515 9.03619 30.8296 9.60414C31.996 10.1223 33.2263 10.3694 34.4984 10.4371C35.1225 10.471 35.605 10.8218 35.6309 11.3598C35.6868 12.4499 35.7286 13.546 35.4395 14.6181C34.961 16.3917 33.9042 17.7169 32.325 18.6416C32.2353 18.6934 32.0618 18.7133 32.1216 18.8728C32.1655 18.9884 32.3071 18.9326 32.4048 18.9326C33.3818 18.9365 34.3568 18.9286 35.3338 18.9365C35.7007 18.9405 35.8782 18.801 35.8961 18.4144C35.9579 17.1291 36.0457 15.8437 36.1174 14.5583C36.2012 13.0657 36.3268 11.5731 36.3567 10.0784C36.3647 9.68983 36.6299 9.43077 36.9569 9.44073C37.2899 9.45069 37.5212 9.71175 37.5192 10.1063C37.5172 10.5089 37.5032 10.9134 37.4793 11.316C37.3417 13.7054 37.1962 16.0948 37.0586 18.4842C36.9988 19.5244 36.4066 20.0984 35.3558 20.1063C34.4186 20.1123 33.4815 20.1063 32.5443 20.1063C32.4666 20.1063 32.3888 20.1023 32.3111 20.1063C32.2393 20.1123 32.1336 20.0764 32.1117 20.1741C32.0818 20.3036 32.2134 20.2996 32.2891 20.3315C32.335 20.3514 32.3908 20.3495 32.4407 20.3634C33.7068 20.7082 35.0048 20.9334 36.2471 21.3618C37.8362 21.9098 38.8172 23.0059 39.0724 24.6779C39.2539 25.8716 39.3616 27.0772 39.4971 28.2789C39.8241 31.1725 40.1571 34.0661 40.4682 36.9617C40.5619 37.8325 40.3565 38.6396 39.7663 39.3232C39.3336 39.8233 38.7494 40.0206 38.1433 40.1821H32.1276C31.8883 39.9748 31.6451 39.7695 31.7906 39.3989C31.9302 39.0402 32.2333 39.0043 32.5623 39.0083C33.2263 39.0143 33.8902 39.0023 34.5542 39.0143C34.7775 39.0182 34.8453 38.9525 34.8234 38.7253C34.7815 38.259 34.7716 37.7907 34.7456 37.3224C34.5821 34.2693 34.4166 31.2183 34.2571 28.1653C34.2332 27.7189 34.4605 27.43 34.8194 27.42C35.1703 27.41 35.3937 27.6492 35.4236 28.0876C35.4654 28.7233 35.5033 29.359 35.5332 29.9967C35.5412 30.1781 35.5731 30.2837 35.8004 30.2558C36.588 30.1601 37.3776 30.0764 38.1672 30.0007C38.4184 29.9768 38.5141 29.915 38.4763 29.6241C38.2988 28.2052 38.1373 26.7843 37.9937 25.3614C37.8203 23.6416 36.9489 22.6572 35.2501 22.2745C35.0387 22.2267 35.0148 22.2845 34.9989 22.4619C34.951 23.0458 34.8633 23.6237 34.6898 24.1856C34.2372 25.6564 33.1824 26.316 31.7926 25.9792C30.8595 25.754 30.0819 25.2339 29.3581 24.63C29.1806 24.4826 29.0709 24.4786 28.8995 24.63C28.3352 25.1183 27.7031 25.5029 27.0172 25.7978C26.8278 25.8795 26.5666 25.8736 26.439 26.0051C26.2775 26.1725 26.5008 26.3997 26.5127 26.6129C26.5666 27.4798 26.1359 28.1275 25.2087 28.526C25.0731 28.5838 24.9056 28.5878 24.8618 28.7911C24.5886 30.0665 23.8848 31.037 22.7761 31.7225C22.499 31.8939 22.6445 32.1709 22.6346 32.4001C22.6246 32.5994 22.822 32.5814 22.9516 32.6133C23.5817 32.7727 24.2138 32.9242 24.8418 33.0856C26.3074 33.4583 27.1289 34.4128 27.2844 35.9074C27.3821 36.8381 27.5017 37.7668 27.5954 38.6974C27.6194 38.9445 27.7091 39.0282 27.9603 39.0163C28.4289 38.9963 28.8975 39.0163 29.366 39.0083C29.699 39.0023 30.0021 39.0481 30.1337 39.4049C30.2693 39.7695 30.04 39.9868 29.7808 40.1821H10.9662C10.6691 40.0206 10.4577 39.8074 10.5654 39.4347C10.6731 39.0621 10.9721 39.0063 11.3051 39.0083C11.8654 39.0143 12.4257 38.9923 12.984 39.0163C13.2731 39.0282 13.3609 38.9306 13.3888 38.6536C13.4825 37.697 13.6041 36.7424 13.7118 35.7859C13.8653 34.4387 14.6071 33.5699 15.8891 33.1753C16.597 32.9581 17.3208 32.7986 18.0386 32.6113C18.1582 32.5794 18.3377 32.5954 18.3476 32.432C18.3676 32.135 18.4334 31.8501 18.0685 31.6288C17.0676 31.023 16.4315 30.1163 16.1503 28.9844C16.0806 28.7014 15.951 28.5778 15.6937 28.4842C14.4735 28.0418 14.0508 26.591 14.8802 25.6683C14.94 25.6025 15.0138 25.5169 15.0158 25.4391C15.0218 24.7118 15.0298 23.9844 15.1933 23.263C14.9321 23.54 14.7127 23.8289 14.4814 24.1079C13.9869 24.7078 13.2851 24.7596 12.7009 24.2514C12.6311 24.1896 12.5912 24.0661 12.4317 24.1099C12.4317 24.8991 12.4337 25.6902 12.4317 26.4834C12.4317 26.6388 12.4257 26.7982 12.3878 26.9457C12.3121 27.2566 12.0927 27.4021 11.7817 27.3722C11.4886 27.3443 11.2932 27.1689 11.2792 26.87C11.2573 26.4017 11.2652 25.9334 11.2633 25.465C11.2613 25.0047 11.2633 24.5444 11.2633 24.0462C11.1715 24.094 11.1356 24.1059 11.1077 24.1279C10.3082 24.8074 9.708 24.7536 9.06396 23.9346C8.57346 23.3108 8.08096 22.689 7.60043 22.0553C7.4788 21.8959 7.36315 21.856 7.17373 21.9059C6.62141 22.0533 6.05913 22.1669 5.5108 22.3243C4.07717 22.7349 3.16794 23.6117 3.01043 25.1601C2.85889 26.6607 2.6914 28.1593 2.51195 29.6579C2.48204 29.913 2.56379 29.9708 2.78711 29.9927C3.59066 30.0705 4.39221 30.1542 5.19377 30.2498C5.42307 30.2777 5.48687 30.198 5.49485 29.9808C5.51678 29.3311 5.55068 28.6815 5.58856 28.0318C5.60451 27.7668 5.71418 27.5495 5.97937 27.4559C6.20468 27.3762 6.41604 27.42 6.5915 27.5934C6.76697 27.7687 6.76697 27.99 6.755 28.2131C6.66528 29.915 6.57356 31.6169 6.48383 33.3188C6.39012 35.0984 6.30238 36.878 6.1987 38.6575C6.18275 38.9226 6.24057 39.0262 6.5277 39.0143C7.07403 38.9923 7.62036 39.0143 8.16869 39.0063C8.50367 39.0003 8.80874 39.0541 8.92838 39.4128C9.04801 39.7735 8.83665 40.0007 8.55352 40.1801H2.84094C2.3624 40.0266 1.87788 39.9011 1.47112 39.5663C0.918805 39.1099 0.67754 38.4941 0.496094 37.8385L0.498088 37.8425ZM17.1812 11.9955C17.1812 11.1745 17.1792 10.5906 17.1812 10.0047C17.1812 9.84129 17.1573 9.70976 17.0077 9.60215C16.25 9.05213 15.9031 8.27293 15.8273 7.3662C15.7994 7.02542 15.6778 6.90187 15.3408 6.95568C13.0079 7.32435 10.675 7.25859 8.34216 6.9497C8.00718 6.90586 7.86362 7.01945 7.8397 7.35823C7.7739 8.26895 7.42297 9.04017 6.67126 9.59617C6.57356 9.66791 6.4938 9.73965 6.49779 9.87716C6.53767 11.2024 6.38812 12.5336 6.58353 13.8509C6.91452 16.0868 8.79678 17.9322 11.014 18.2391C13.4247 18.5739 15.7516 17.3084 16.7047 15.1641C17.1892 14.0721 17.1952 12.9182 17.1792 11.9935L17.1812 11.9955ZM34.4884 12.7807C34.4884 12.4499 34.4645 12.2247 34.4944 12.0075C34.5383 11.6787 34.4047 11.6069 34.0936 11.583C31.2583 11.3578 28.8137 10.2837 26.8697 8.17528C26.6882 7.97999 26.5985 8.02981 26.441 8.18126C25.775 8.82694 24.9874 9.27134 24.0921 9.51247C23.8868 9.56827 23.795 9.65396 23.797 9.88513C23.803 10.8218 23.7711 11.7584 23.7871 12.695C23.8289 14.9449 24.782 16.6667 26.7979 17.7428C28.6741 18.7452 31.2922 18.3307 32.8095 16.8421C33.982 15.6902 34.5482 14.3112 34.4904 12.7847L34.4884 12.7807ZM18.6427 8.04177C18.6168 6.98158 18.3596 5.97919 17.8751 5.04854C16.2082 1.85404 12.3061 0.502906 9.00813 2.0035C6.37616 3.20119 4.86676 5.8656 5.02628 8.68545C5.03026 8.76915 5.00833 8.90864 5.14791 8.8668C5.47491 8.76915 5.84179 8.83292 6.12692 8.54794C6.4938 8.18326 6.63338 7.74882 6.68123 7.25659C6.78292 6.20837 7.35916 5.72012 8.39999 5.80382C8.99617 5.85165 9.59036 5.93136 10.1845 5.99115C11.8535 6.16054 13.5104 6.0051 15.1673 5.81179C16.2999 5.68027 16.8622 6.14659 16.9898 7.29844C17.0496 7.83451 17.237 8.30482 17.6777 8.64758C17.9429 8.85285 18.2938 8.88473 18.565 8.83292C18.7604 8.79505 18.6089 8.4204 18.6447 8.19721C18.6527 8.14739 18.6447 8.09358 18.6447 8.04177H18.6427ZM20.4991 39.0123C21.4621 39.0123 22.4252 39.0023 23.3883 39.0182C23.6714 39.0222 23.7492 38.9326 23.7153 38.6635C23.6834 38.4064 23.6854 38.1434 23.6834 37.8843C23.6794 37.4678 23.8768 37.2287 24.2237 37.2108C24.5687 37.1928 24.798 37.4041 24.8438 37.8186C24.8757 38.1155 24.8857 38.4164 24.8817 38.7153C24.8797 38.9545 24.9774 39.0302 25.2087 39.0163C25.5078 38.9983 25.8089 38.9943 26.106 39.0163C26.3772 39.0362 26.4709 38.9585 26.435 38.6735C26.3153 37.7329 26.2236 36.7883 26.106 35.8457C26.0063 35.0386 25.5397 34.5244 24.7701 34.2893C24.3473 34.1597 23.9147 34.0721 23.492 33.9445C23.2527 33.8728 23.0972 33.9286 22.9117 34.1039C21.6954 35.2418 19.8291 35.4491 18.545 34.4347C17.901 33.9246 17.3646 33.9086 16.6947 34.1558C16.5491 34.2096 16.3916 34.2315 16.2441 34.2773C15.4266 34.5304 14.964 35.0725 14.8742 35.9353C14.7865 36.7743 14.6788 37.6133 14.5791 38.4523C14.5353 38.8243 14.6941 39.0103 15.0557 39.0103C15.3029 39.0103 15.5522 38.9923 15.7974 39.0143C16.0646 39.0382 16.1284 38.9226 16.1264 38.6795C16.1244 38.3805 16.1464 38.0816 16.1803 37.7847C16.2241 37.3981 16.4494 37.1928 16.7824 37.2068C17.1254 37.2207 17.3427 37.4718 17.3367 37.8744C17.3327 38.1474 17.3248 38.4224 17.2909 38.6914C17.257 38.9585 17.3646 39.0163 17.6119 39.0143C18.575 39.0023 19.538 39.0083 20.5011 39.0083L20.4991 39.0123ZM23.803 27.0533C23.803 26.6886 23.797 26.3239 23.805 25.9613C23.809 25.7899 23.7691 25.6743 23.5936 25.5966C23.145 25.3973 22.7781 25.0844 22.497 24.6839C22.3554 24.4826 22.2717 24.5125 22.1261 24.6799C21.7533 25.1083 21.2907 25.4172 20.7762 25.6544C19.7115 26.1426 18.5989 26.2323 17.4584 26.035C17.2291 25.9951 17.1533 26.0489 17.1613 26.2821C17.1812 26.8799 17.1653 27.4798 17.1972 28.0776C17.2749 29.5324 18.3058 30.7699 19.6995 31.1127C21.0933 31.4535 22.5708 30.8237 23.3344 29.5862C23.821 28.799 23.8289 27.9342 23.807 27.0573L23.803 27.0533ZM16.1962 24.915C16.4654 24.7935 16.6987 24.6779 16.9698 24.7377C17.2749 24.8034 17.58 24.8851 17.889 24.911C19.3805 25.0446 20.7124 24.7835 21.6097 23.4124C21.9885 22.8325 22.7083 22.8564 23.0772 23.4842C23.474 24.1577 24.0184 24.6041 24.784 24.8273C24.7461 23.2171 24.1041 21.9258 22.7223 21.0808C21.2348 20.1701 19.6935 20.21 18.218 21.1147C16.8323 21.9656 16.1982 23.257 16.1962 24.915ZM5.17781 35.1502C5.23165 34.0462 5.27352 32.9421 5.35129 31.8381C5.37521 31.5093 5.26355 31.4236 4.96048 31.3977C4.17089 31.3319 3.38129 31.2422 2.5937 31.1446C2.33847 31.1127 2.32053 31.2502 2.30059 31.4336C2.2328 32.0792 2.15503 32.7249 2.08525 33.3706C1.94966 34.636 1.80012 35.9015 1.68447 37.1709C1.57879 38.3208 2.21884 39.0023 3.36933 39.0123C3.78606 39.0163 4.20279 38.9943 4.61752 39.0202C4.90664 39.0382 5.00036 38.9445 5.01033 38.6575C5.0522 37.4878 5.118 36.32 5.17383 35.1502H5.17781ZM36.9968 39.0083C37.3058 39.0083 37.5531 39.0182 37.8003 39.0083C38.6258 38.9724 39.1183 38.536 39.2818 37.7269C39.3655 37.3084 39.2938 36.8979 39.2479 36.4854C39.0625 34.7935 38.8711 33.0996 38.6916 31.4076C38.6697 31.1964 38.6019 31.1167 38.3746 31.1466C37.575 31.2462 36.7734 31.3419 35.9699 31.4057C35.6688 31.4296 35.621 31.5412 35.6369 31.8162C35.7546 33.8548 35.8562 35.8935 35.9639 37.9322C35.9819 38.2689 35.8941 38.6954 36.0676 38.9186C36.269 39.1777 36.7216 38.9585 36.9988 39.0103L36.9968 39.0083ZM25.9963 21.5432C27.6214 23.6436 30.9053 23.4483 32.2712 21.5392C32.1296 21.5033 31.99 21.4674 31.8525 21.4336C31.2224 21.2761 30.9851 21.0091 30.9253 20.3534C30.8994 20.0685 30.9073 19.7815 30.9133 19.4965C30.9173 19.3112 30.8615 19.2295 30.6641 19.2773C29.6352 19.5204 28.6064 19.5424 27.5775 19.2733C27.4319 19.2355 27.3622 19.2793 27.3661 19.4427C27.3741 19.7277 27.3761 20.0147 27.3661 20.3016C27.3422 20.9473 27.071 21.2761 26.4489 21.4316C26.3014 21.4694 26.1538 21.5053 25.9963 21.5452V21.5432ZM10.0769 19.6181C10.0888 19.8851 10.047 20.0844 10.2364 20.2538C10.7209 20.6843 11.1895 21.1326 11.6541 21.585C11.8036 21.7305 11.8953 21.7106 12.0349 21.575C12.4417 21.1765 12.8484 20.7719 13.2831 20.4053C13.5463 20.1821 13.632 19.9369 13.628 19.6021C13.6241 19.3052 13.5682 19.2215 13.2572 19.2972C12.3519 19.5184 11.4327 19.5324 10.5235 19.3212C10.1586 19.2355 9.99512 19.2793 10.0789 19.6181H10.0769ZM30.5724 24.0681C31.023 24.4049 31.4916 24.6719 32.0199 24.8234C32.7298 25.0286 33.1605 24.8214 33.4695 24.1498C33.7527 23.534 33.7866 22.8704 33.8424 22.2128C33.8504 22.1131 33.9221 21.9796 33.7626 21.9098C33.5812 21.8321 33.5054 21.9557 33.4177 22.0713C32.9411 22.701 32.3589 23.2151 31.6551 23.5778C31.3121 23.7552 30.9512 23.8987 30.5724 24.0681ZM20.5569 33.8887C20.8979 33.8887 21.2727 33.801 21.6197 33.6077C21.6974 33.5639 21.841 33.528 21.7154 33.3865C21.4941 33.1334 21.4701 32.8226 21.4681 32.5097C21.4681 32.3542 21.4283 32.2626 21.2448 32.2945C20.7563 32.3801 20.2638 32.3841 19.7753 32.2945C19.5879 32.2606 19.5181 32.3323 19.5201 32.5196C19.5221 32.8345 19.4882 33.1394 19.2688 33.3945C19.1452 33.538 19.3067 33.5699 19.3825 33.6117C19.7294 33.803 20.1063 33.8927 20.5569 33.8887ZM13.5523 23.4244C13.5902 23.3646 13.6141 23.3188 13.646 23.2789C14.0926 22.705 14.5433 22.135 14.9879 21.5591C15.0238 21.5133 15.0677 21.4375 15.0537 21.3957C14.9899 21.2124 14.286 21.0629 14.1405 21.1984C13.8733 21.4455 13.6081 21.6946 13.3429 21.9437C12.8577 22.3994 12.869 22.8438 13.3768 23.2769C13.4227 23.3168 13.4705 23.3566 13.5523 23.4264V23.4244ZM10.9562 22.6033C10.9422 22.4878 10.8565 22.4419 10.7927 22.3821C10.4537 22.0593 10.0829 21.7664 9.78177 21.4116C9.4767 21.0529 9.19755 21.0549 8.82469 21.2781C8.62729 21.3957 8.5914 21.4595 8.74095 21.6408C9.04003 21.9995 9.32118 22.3742 9.6083 22.7428C9.96986 23.2078 10.3593 23.2244 10.7767 22.7927C10.8385 22.7269 10.9004 22.6611 10.9582 22.6033H10.9562ZM27.747 24.0422C26.9634 23.8249 26.3273 23.4662 25.6693 22.9581C25.8348 23.5998 25.9584 24.1538 25.9564 24.7237C25.9564 24.925 26.0821 24.8692 26.1957 24.8393C26.744 24.7018 27.2206 24.4268 27.749 24.0402L27.747 24.0422ZM23.4461 20.1083C23.7252 20.3355 23.9246 20.4929 24.118 20.6603C24.2058 20.7361 24.2935 20.76 24.4032 20.7321C24.9415 20.5966 25.4819 20.463 26.0202 20.3255C26.088 20.3076 26.1917 20.2976 26.1798 20.194C26.1678 20.0844 26.0661 20.1103 25.9963 20.1103C25.1808 20.1083 24.3673 20.1103 23.4481 20.1103L23.4461 20.1083ZM5.32736 10.9353C5.32736 10.7141 5.32337 10.4949 5.32736 10.2737C5.33135 10.0824 5.2476 10.0924 5.11202 10.1621C4.60755 10.4232 4.51185 11.0669 4.92459 11.4734C5.0183 11.5651 5.12996 11.6926 5.24561 11.6607C5.40512 11.6169 5.30941 11.4395 5.32337 11.3239C5.33733 11.1964 5.32736 11.0649 5.32536 10.9353H5.32736ZM18.3536 10.9094C18.3536 11.1027 18.3556 11.2961 18.3536 11.4894C18.3496 11.7026 18.4434 11.6886 18.5889 11.6029C19.0994 11.302 19.1552 10.6484 18.6986 10.2658C18.6208 10.202 18.5391 10.1043 18.4334 10.1382C18.3018 10.1801 18.3616 10.3136 18.3576 10.4072C18.3476 10.5746 18.3556 10.742 18.3576 10.9094H18.3536ZM24.9974 26.2701C24.9714 26.6408 24.9555 26.9537 25.0033 27.2825C25.4719 26.9776 25.4759 26.6408 24.9974 26.2701ZM15.9769 26.2701C15.7017 26.4336 15.6 26.6189 15.6339 26.872C15.6598 27.0673 15.7456 27.2207 15.9769 27.2805V26.2701Z" fill="#E66A44"/>
</g>
<defs>
<clipPath id="clip0_777_1086">
<rect width="40" height="40" fill="white" transform="translate(0.5 0.184082)"/>
</clipPath>
</defs>
</svg>
