<svg width="41" height="41" viewBox="0 0 41 41" fill="none" xmlns="http://www.w3.org/2000/svg">
<g id="Designed_by_freepik" clip-path="url(#clip0_777_1001)">
<path id="Vector" d="M0.5 35.2231C0.72875 34.6737 1.11346 34.4562 1.65761 34.4905C2.12551 34.521 2.59341 34.4905 3.0613 34.4982C3.27965 34.502 3.33511 34.4409 3.245 34.2043C3.11676 33.8686 3.11676 33.5061 3.11676 33.1474C3.11676 25.8823 3.11676 18.6172 3.11676 11.3521C3.11676 9.63123 3.9659 8.70401 5.53596 8.70401C10.8596 8.70401 16.1832 8.7002 21.5068 8.71546C21.902 8.71546 21.9886 8.60099 22.0059 8.17363C22.0302 7.56312 21.9054 7.10905 21.4341 6.75037C21.1499 6.53288 20.935 6.22381 20.7409 5.89184C20.2799 5.11344 21.5172 2.74389 22.3872 2.80494C22.8655 2.83928 23.3056 2.99954 23.7424 3.16743C24.0023 3.27045 24.2172 3.27045 24.4321 3.08349C24.4529 3.06441 24.4771 3.05296 24.5014 3.04151C25.0282 2.81257 25.3436 2.42337 25.3575 1.77088C25.3609 1.57628 25.4268 1.37787 25.4926 1.1909C25.8219 0.225525 26.2621 0.0500027 27.5722 0.0996068C28.4491 0.130132 28.9377 0.439204 29.1388 1.20234C29.2219 1.51905 29.2913 1.83957 29.3329 2.1639C29.371 2.47679 29.5269 2.64468 29.7557 2.82402C30.2548 3.21322 30.7296 3.31243 31.305 3.01862C31.6758 2.82783 32.0882 2.71718 32.518 2.87744C33.1904 3.12927 34.0881 4.70897 33.9737 5.47975C33.9286 5.79645 33.8143 6.08263 33.6028 6.31538C33.4642 6.46801 33.3429 6.65498 33.1765 6.75801C32.5354 7.14721 32.6047 7.79588 32.6151 8.44073C32.622 8.73835 32.7988 8.7002 32.9651 8.7002C33.8247 8.7002 34.6842 8.7002 35.5438 8.7002C36.9856 8.70401 37.8555 9.65031 37.8694 11.2338C37.8763 11.8367 37.8763 12.4358 37.8694 13.0387C37.8624 13.55 37.6441 13.8247 37.2698 13.8132C36.9128 13.8018 36.7083 13.5385 36.7014 13.0463C36.6944 12.432 36.7048 11.8138 36.6944 11.1995C36.6806 10.3791 36.327 10.0014 35.5784 9.98991C35.0828 9.98227 34.5906 9.98991 34.095 9.98991C33.9044 9.98991 33.8385 10.0357 33.9113 10.2608C33.9668 10.4325 34.0188 10.6462 33.9737 10.8065C33.8489 11.2529 34.0292 11.2911 34.3653 11.2872C35.4952 11.272 35.5264 11.314 35.5264 12.5655C35.5264 19.014 35.5264 25.4626 35.5264 31.9111C35.5264 32.0981 35.5334 32.285 35.5264 32.4682C35.5056 32.9604 35.3185 33.1703 34.8783 33.1932C34.7743 33.2008 34.6703 33.1932 34.5664 33.1932C25.1807 33.1932 15.7985 33.1932 6.41283 33.1932C5.58102 33.1932 5.46317 33.0673 5.46317 32.1515C5.46317 30.9495 5.46317 29.7438 5.46317 28.5418C5.46317 28.3129 5.45624 28.0763 5.61914 27.897C5.7855 27.71 5.98306 27.6261 6.22221 27.7177C6.50988 27.8245 6.63118 28.0611 6.63118 28.374C6.63465 29.3927 6.64851 30.4077 6.63118 31.4265C6.62425 31.789 6.7005 31.9149 7.05749 31.9149C16.0238 31.9035 24.9935 31.9035 33.9598 31.9149C34.2926 31.9149 34.3688 31.8005 34.3653 31.4532C34.3549 25.3061 34.3549 19.159 34.3653 13.0119C34.3653 12.638 34.2544 12.5464 33.9425 12.5693C33.5578 12.5922 33.1939 12.5464 32.875 12.9165C32.622 13.2104 32.2304 13.2714 31.8491 13.1646C31.5961 13.0959 31.3258 13.0577 31.1039 12.9242C30.6742 12.6723 30.3345 12.8288 29.9498 13.0615C29.5581 13.2943 29.3259 13.5728 29.3017 14.0727C29.2913 14.3131 29.2115 14.5497 29.1526 14.7824C28.9516 15.5532 28.4629 15.8852 27.6034 15.9119C26.3141 15.9538 25.8392 15.8508 25.4996 14.8053C25.3956 14.4848 25.3193 14.1414 25.2847 13.8056C25.2535 13.5118 25.1079 13.3744 24.9069 13.2104C24.3939 12.7906 23.8914 12.7029 23.2883 13.0043C22.6402 13.3286 22.0094 13.2943 21.4618 12.6685C21.2608 12.4396 20.9384 12.5846 20.6716 12.577C20.013 12.5617 20.013 12.5731 20.1413 13.2523C20.2868 14.0231 21.1291 14.5497 21.8153 14.294C23.3368 13.7331 23.6488 13.8628 24.4563 15.4044C25.0039 16.4461 24.9277 16.9955 24.1236 17.8235C24.0959 17.8541 24.0716 17.8922 24.037 17.9113C23.316 18.3196 23.4478 19.056 23.4547 19.7467C23.4547 19.9184 23.5691 19.9947 23.6626 20.0901C23.9018 20.3305 24.1513 20.5632 24.3801 20.8189C24.848 21.3416 24.9346 21.9827 24.6262 22.6313C24.4563 22.9862 24.2726 23.3334 24.0785 23.6692C23.7389 24.2492 23.2017 24.4819 22.5951 24.3217C22.3803 24.2644 22.1446 24.2339 21.9609 24.1156C21.2677 23.673 20.8241 24.2644 20.3076 24.5621C20.2106 24.6193 20.2071 24.7529 20.1863 24.8673C20.117 25.2298 20.0512 25.5961 19.9611 25.9548C19.7843 26.6531 19.3407 27.0423 18.6925 27.0766C18.3147 27.0957 17.937 27.0957 17.5592 27.0766C16.9353 27.0461 16.4813 26.6454 16.3011 25.9891C16.2491 25.7984 16.1763 25.5999 16.1798 25.4053C16.2005 24.5277 15.5628 24.3064 15.036 23.9706C14.9078 23.8867 14.7865 23.9439 14.6617 23.9859C14.3255 24.1004 13.9962 24.2263 13.6566 24.3217C13.0847 24.4781 12.5475 24.2644 12.2252 23.7264C11.9964 23.3449 11.7884 22.948 11.6013 22.5359C11.3344 21.9483 11.4245 21.395 11.8127 20.9028C11.9306 20.7502 12.0519 20.5823 12.2044 20.4869C12.8594 20.071 12.8767 19.4109 12.8213 18.705C12.8074 18.5104 12.7242 18.3959 12.6029 18.2776C12.3465 18.0334 12.0934 17.7854 11.8578 17.5183C11.4141 17.0146 11.3275 16.3927 11.6186 15.7783C11.7988 15.3968 11.9929 15.0228 12.2078 14.668C12.5406 14.107 13.0812 13.8857 13.667 14.046C13.92 14.1147 14.1834 14.1643 14.4121 14.2902C14.7691 14.481 15.0499 14.3856 15.393 14.1986C15.8713 13.9353 16.1104 13.5843 16.1832 13.0005C16.2317 12.6266 16.1486 12.5693 15.8436 12.5731C13.9685 12.5846 12.0934 12.577 10.2219 12.577C9.16823 12.577 8.11459 12.596 7.05749 12.5655C6.7005 12.5579 6.63118 12.6876 6.63118 13.0539C6.64158 17.0795 6.63812 21.1089 6.63812 25.1344C6.63812 25.3214 6.64158 25.5084 6.60692 25.6915C6.548 26.0158 6.33658 26.1876 6.04891 26.1837C5.76124 26.1837 5.55329 26.0082 5.49437 25.6839C5.46317 25.516 5.46664 25.3405 5.46664 25.1726C5.46664 20.8875 5.46664 16.6025 5.46664 12.3175C5.46664 11.4246 5.59141 11.2872 6.38857 11.2872C11.0225 11.2872 15.6564 11.2872 20.2903 11.2911C20.5814 11.2911 20.7755 11.2796 20.6577 10.8713C20.6265 10.7683 20.6473 10.6424 20.6577 10.5279C20.7062 9.99372 20.7062 9.99372 20.2245 9.99372C15.3549 9.99372 10.4887 9.99372 5.61914 9.99372C5.41119 9.99372 5.19977 9.99372 4.99874 10.0433C4.6071 10.1387 4.33329 10.5241 4.30903 11.024C4.28477 11.5238 4.29516 12.0275 4.29516 12.5273C4.29516 19.3498 4.29516 26.1685 4.29516 32.991C4.29516 33.1779 4.29517 33.3649 4.31596 33.548C4.37488 34.0593 4.69374 34.4104 5.15471 34.4676C5.32107 34.4905 5.4909 34.4867 5.66073 34.4867C15.5524 34.4867 25.4441 34.4867 35.3358 34.4867C35.4675 34.4867 35.5957 34.4905 35.7274 34.4829C36.3132 34.4409 36.6528 34.0708 36.6979 33.4183C36.7083 33.2619 36.7048 33.1016 36.7048 32.9452C36.7048 27.4124 36.7048 21.8834 36.7048 16.3507C36.7048 16.1523 36.7014 15.9462 36.7395 15.7516C36.7984 15.4502 36.9994 15.2861 37.2732 15.2823C37.5644 15.2747 37.7723 15.4425 37.8416 15.7592C37.8763 15.9081 37.8728 16.0721 37.8728 16.2286C37.8728 21.8606 37.8728 27.4925 37.8728 33.1245C37.8728 33.4832 37.8798 33.8495 37.7481 34.1814C37.651 34.4333 37.6995 34.5058 37.9456 34.502C38.4412 34.4905 38.9334 34.4943 39.429 34.502C40.1742 34.5096 40.4965 34.8645 40.4861 35.6925C40.4757 36.3946 40.5589 37.0966 40.4272 37.7911C40.1915 39.035 39.2696 40.0004 38.1189 40.0424C36.4276 40.1072 34.7362 40.0805 33.0448 40.0729C32.6428 40.0729 32.421 39.7867 32.4383 39.3975C32.4522 39.0274 32.674 38.7985 33.0691 38.7985C34.6045 38.7908 36.1399 38.7984 37.6753 38.7908C38.5071 38.7908 39.0478 38.4016 39.2453 37.6652C39.3978 37.1043 39.2904 36.5243 39.3147 35.9557C39.3216 35.8222 39.2419 35.7879 39.1379 35.7879C39.0478 35.7879 38.9542 35.7879 38.8641 35.7879C34.296 35.7879 29.728 35.7917 25.1599 35.7802C24.8064 35.7802 24.6677 35.8527 24.6539 36.2801C24.6192 37.1577 24.0543 37.8064 23.2537 37.8216C21.4202 37.8598 19.5833 37.8598 17.7498 37.8216C16.918 37.8025 16.3738 37.1424 16.3357 36.2C16.3219 35.8489 16.2109 35.7802 15.9233 35.7802C11.3032 35.7879 6.68317 35.7879 2.05966 35.7802C1.75466 35.7802 1.64375 35.868 1.67148 36.2076C1.6992 36.5472 1.67148 36.8944 1.68187 37.2378C1.7096 38.0468 2.23295 38.6763 2.96426 38.7679C3.16875 38.7946 3.38017 38.7946 3.58812 38.7946C12.4262 38.7946 21.2642 38.7946 30.1023 38.7946C30.2583 38.7946 30.4177 38.787 30.5702 38.8099C30.8648 38.8557 31.0381 39.0503 31.0589 39.3823C31.0797 39.7295 30.9341 39.9661 30.6222 40.0462C30.4835 40.0805 30.338 40.0843 30.1959 40.0843C21.2677 40.0843 12.3395 40.0843 3.40789 40.092C1.8829 40.092 0.950568 39.283 0.506932 37.7186V35.227L0.5 35.2231ZM30.5598 11.4322C30.9792 11.4628 31.3604 11.6612 31.7486 11.81C32.0779 11.9359 32.2581 11.8672 32.4279 11.52C32.8646 10.6348 32.8993 10.6195 32.1714 9.98609C31.6411 9.5282 31.3951 8.97111 31.4471 8.2385C31.4609 8.02482 31.4575 7.80732 31.4471 7.59364C31.4263 6.9755 31.6515 6.50998 32.0779 6.10171C33.0795 5.13633 32.9131 5.53317 32.3482 4.34267C32.2477 4.1328 32.1298 4.05649 31.908 4.15188C31.6169 4.2778 31.3119 4.35793 31.0173 4.46859C30.6118 4.62121 30.2236 4.58687 29.8527 4.35411C29.6379 4.22056 29.4334 4.06412 29.2081 3.94965C28.605 3.64058 28.2965 3.1369 28.1718 2.40429C27.9569 1.14129 28.1441 1.42747 27.028 1.38168C26.7508 1.37024 26.5879 1.45036 26.5497 1.78233C26.5151 2.07996 26.4388 2.36995 26.3799 2.66376C26.1789 3.65584 24.6747 4.72805 23.7735 4.51819C23.673 4.4953 23.576 4.45332 23.4755 4.41898C23.3022 4.35793 23.122 4.31596 22.9591 4.2282C22.5639 4.01452 22.3387 4.13662 22.1376 4.56779C21.7703 5.35383 21.7183 5.37672 22.3733 5.93763C22.966 6.44512 23.2433 7.05181 23.1566 7.86837C23.1428 8.00956 23.1428 8.15455 23.1566 8.29955C23.2155 8.98637 22.9937 9.5282 22.4877 9.93648C22.3005 10.0891 22.1446 10.2837 21.9643 10.4516C21.8118 10.5966 21.7807 10.7378 21.8916 10.9362C22.5674 12.1229 22.1792 12.0389 23.3992 11.5925C23.9607 11.3865 24.4633 11.4017 24.9589 11.7604C25.1322 11.8863 25.3124 12.0008 25.4996 12.1C26.061 12.4052 26.3452 12.8975 26.4354 13.5767C26.574 14.6145 26.5948 14.5993 27.5341 14.6145C27.8633 14.6222 28.0609 14.5268 28.0747 14.1414C28.1233 12.9051 28.7471 12.1534 29.7453 11.707C29.8423 11.665 29.929 11.6001 30.0226 11.5505C30.1889 11.4628 30.3692 11.4399 30.5563 11.4246L30.5598 11.4322ZM23.6141 16.4232C23.6037 16.3965 23.5899 16.3583 23.5725 16.3202C23.1913 15.2632 23.0388 15.1869 22.0614 15.5608C21.9747 15.5952 21.8916 15.6295 21.8049 15.66C20.9939 15.9348 19.3545 14.9923 19.098 14.0994C19.0703 14.004 19.053 13.9048 19.0357 13.8056C18.9767 13.4965 18.9074 13.1913 18.8589 12.8822C18.8242 12.6571 18.7203 12.5655 18.5158 12.5693C17.223 12.6075 17.5245 12.3175 17.2265 13.6682C17.2195 13.695 17.2195 13.7255 17.2161 13.7522C17.0462 14.7862 15.5386 15.9119 14.5993 15.702C14.5092 15.6829 14.426 15.6486 14.3394 15.6142C14.1661 15.5532 13.9962 15.4845 13.8195 15.4273C13.1644 15.2174 13.2892 15.122 12.9322 15.8203C12.5232 16.6216 12.4123 16.4117 13.1263 17.0413C13.7848 17.6251 14.0725 18.3005 13.9824 19.201C13.9685 19.3575 13.9789 19.5177 13.9824 19.6742C13.9858 20.2236 13.8021 20.6701 13.407 21.0211C13.1852 21.2157 12.9842 21.4446 12.7658 21.6507C12.6237 21.7842 12.5995 21.9178 12.7 22.0971C13.3897 23.2953 12.9738 23.2037 14.2388 22.7687C14.3255 22.7382 14.4121 22.7038 14.4988 22.6733C14.8384 22.5626 15.1677 22.597 15.4866 22.7611C16.4605 23.2647 17.3304 23.86 17.3443 25.2374C17.3478 25.703 17.5869 25.8136 17.982 25.7907C18.9421 25.7373 18.7445 25.9701 18.9837 24.875C19.0703 24.4705 19.0634 23.9973 19.3822 23.7379C20.2314 23.0472 21.032 22.2612 22.2659 22.8374C23.1393 23.2457 22.9313 23.2304 23.3854 22.3986C23.6869 21.8453 23.7181 21.7842 23.2329 21.4027C22.46 20.7922 22.155 20.0099 22.2797 18.995C22.2901 18.9263 22.2867 18.85 22.2797 18.7813C22.2312 18.1402 22.453 17.6442 22.9209 17.2588C23.1289 17.0871 23.3056 16.8734 23.4963 16.6788C23.5621 16.6101 23.6314 16.5415 23.6176 16.4117L23.6141 16.4232ZM20.4913 35.7879C19.6075 35.7879 18.7237 35.7879 17.8399 35.7879C17.6805 35.7879 17.4795 35.7306 17.4899 36.0359C17.4968 36.2839 17.5418 36.4976 17.8053 36.5396C17.8954 36.5548 17.9855 36.5586 18.0756 36.5586C19.6872 36.5586 21.2989 36.5586 22.9105 36.5586C23.0007 36.5586 23.0942 36.5586 23.1809 36.5396C23.4478 36.4938 23.4893 36.2801 23.4963 36.0321C23.5032 35.723 23.2987 35.7879 23.1428 35.7879C22.2589 35.784 21.3751 35.7879 20.4913 35.7879Z" fill="#E66A44"/>
<path id="Vector_2" d="M27.298 4.50308C29.0622 4.49927 30.4867 6.04081 30.4971 7.97156C30.5075 9.93283 29.0968 11.4973 27.3188 11.5049C25.5512 11.5125 24.1025 9.9252 24.1094 7.99063C24.1198 6.06371 25.5443 4.5069 27.298 4.49927V4.50308ZM27.3327 8.70417C27.8803 8.70417 28.4245 8.69272 28.9721 8.70799C29.1904 8.71562 29.2667 8.60878 29.3083 8.3951C29.4573 7.57472 29.0968 6.64369 28.4314 6.15528C27.7555 5.66306 26.8683 5.66306 26.1855 6.1591C25.5166 6.64751 25.1734 7.55564 25.319 8.39891C25.3606 8.63549 25.4507 8.70799 25.6552 8.70417C26.2132 8.69272 26.7747 8.70417 27.3327 8.70417ZM26.6603 10.0168C27.0935 10.2648 27.5268 10.261 27.9566 10.0168H26.6603Z" fill="#E66A44"/>
<path id="Vector_3" d="M18.1361 22.6849C16.3546 22.6925 14.9336 21.1319 14.9336 19.1783C14.9336 17.2399 16.3407 15.6907 18.1049 15.6793C19.8725 15.6678 21.3178 17.2475 21.3143 19.1859C21.3109 21.109 19.8864 22.6773 18.1326 22.6811L18.1361 22.6849ZM18.1153 16.969C16.9958 16.9728 16.1085 17.9496 16.1085 19.1783C16.1085 20.426 17.0097 21.4028 18.15 21.3914C19.259 21.3799 20.1602 20.3764 20.1463 19.1592C20.1324 17.9343 19.2313 16.9613 18.1153 16.9652V16.969Z" fill="#E66A44"/>
</g>
<defs>
<clipPath id="clip0_777_1001">
<rect width="40" height="40" fill="white" transform="translate(0.5 0.092041)"/>
</clipPath>
</defs>
</svg>
