<svg width="41" height="40" viewBox="0 0 41 40" fill="none" xmlns="http://www.w3.org/2000/svg">
<g id="Designed_by_freepik" clip-path="url(#clip0_777_962)">
<path id="Vector" d="M0.5 20.4432C0.674749 12.6728 3.86391 6.50058 10.7432 2.70544C18.1351 -1.37156 25.4629 -0.764226 32.4179 4.03345C32.7237 4.24558 32.9683 4.35019 33.3644 4.24268C34.2702 4.00148 35.1789 4.1061 36.0439 4.47515C36.2711 4.57395 36.4895 4.61754 36.7371 4.59429C37.0312 4.56523 37.3254 4.55361 37.6225 4.5507C38.4554 4.5507 39.1428 5.07958 39.3583 5.87871C39.5622 6.63715 39.2156 7.44791 38.4991 7.84892C38.0826 8.0814 37.6574 8.29934 37.2235 8.49404C36.9759 8.60737 36.9643 8.70036 37.1128 8.92121C38.5923 11.1065 39.6233 13.4893 40.1068 16.0843C41.2543 22.2129 39.9175 27.7661 36.0002 32.6219C32.7324 36.6728 28.4336 39.0236 23.2843 39.7908C13.3994 41.2641 3.7445 34.8507 1.199 25.1508C0.794161 23.6106 0.578637 22.0473 0.505825 20.4432H0.5ZM31.7276 4.93719C26.5725 1.39487 21.0854 0.386519 15.1323 2.0458C14.9226 2.10392 14.8498 2.2405 14.8061 2.42648C14.6343 3.14133 14.5644 3.862 14.5993 4.5972C14.6255 5.11445 14.6809 5.63171 14.6867 6.14896C14.6954 7.14569 14.2527 7.90995 13.3761 8.38361C12.8839 8.65096 12.3625 8.86309 11.847 9.08685C10.3151 9.7494 9.36559 10.8566 9.09764 12.5362C8.95202 13.4486 8.72776 14.3495 8.19769 15.137C7.28899 16.4824 5.91139 16.834 4.49592 16.0436C4.094 15.8199 3.72703 15.5293 3.34258 15.2706C3.0659 15.0847 2.82416 14.8464 2.48922 14.7185C2.44845 14.8551 2.40767 14.9742 2.37272 15.0934C1.56306 18.0429 1.47277 21.0156 2.13099 24C3.02221 28.0451 5.04347 31.4334 8.15982 34.1679C8.25885 34.255 8.33457 34.3596 8.51806 34.3161C9.07143 34.1882 9.17045 34.2521 9.43549 34.7694C9.58694 35.0658 9.6947 35.3854 10.0005 35.5859C10.9733 36.2311 11.9926 36.789 13.0586 37.2656C13.2858 37.3673 13.3703 37.3295 13.411 37.0825C13.6236 35.8358 14.3255 34.906 15.3274 34.1737C16.4167 33.3774 17.6458 32.8631 18.9156 32.4417C19.6 32.2151 20.0253 31.7676 20.2728 31.1108C20.5524 30.3669 20.6602 29.5881 20.6747 28.8006C20.7213 26.627 20.7272 24.4534 20.7825 22.2797C20.8495 19.6586 22.3349 18.3655 24.8862 18.6909C25.757 18.8013 26.5696 19.1268 27.3705 19.4697C28.853 20.1061 30.3296 20.1817 31.815 19.4959C32.2868 19.2779 32.7674 19.0774 33.2305 18.8507C34.9634 17.9993 36.7866 17.4704 38.7117 17.3222C39.07 17.2961 39.1137 17.145 39.0583 16.8427C38.5778 14.1722 37.5963 11.7051 36.0614 9.4588C35.9158 9.24667 35.8109 9.19146 35.5663 9.31932C34.3838 9.93247 33.1897 10.5282 31.9956 11.1181C31.7713 11.2285 31.6665 11.3564 31.6461 11.6208C31.5121 13.3818 31.3519 15.1428 31.2121 16.9009C31.1801 17.3077 31.017 17.5721 30.618 17.7232C30.0529 17.9354 29.5054 18.1882 28.9491 18.4207C28.3229 18.6793 28.0433 18.5456 27.8628 17.8947C27.5249 16.68 27.1871 15.4653 26.8492 14.2507C26.7618 13.9368 26.5696 13.8545 26.2725 14.0037C23.8785 15.2067 21.4844 16.4127 19.0904 17.6157C18.1292 18.0981 17.1536 18.1068 16.3089 17.4385C15.1789 16.5405 14.1188 15.5496 13.0411 14.5878C12.7528 14.332 12.7557 13.9862 13.0266 13.7334C13.644 13.1639 14.3459 12.7977 15.2255 12.8471C15.8837 12.8849 16.4254 13.2191 16.9934 13.4835C17.1856 13.5736 17.3283 13.5997 17.5293 13.4777C19.6641 12.1787 21.8019 10.8885 23.9513 9.61282C24.2396 9.44137 24.1756 9.3571 23.9717 9.18274C23.1067 8.44173 22.2533 7.69491 21.4 6.93937C21.0068 6.59357 21.0068 6.25648 21.3941 5.90777C21.8514 5.49222 22.3378 5.10864 22.7805 4.67566C23.1329 4.32985 23.4795 4.30079 23.9251 4.47515C25.559 5.11445 27.1987 5.73051 28.8413 6.34656C28.9753 6.39887 29.1064 6.50639 29.2753 6.40468C30.0646 5.9252 30.8568 5.45154 31.7305 4.92557L31.7276 4.93719ZM39.3379 20.0276C39.3146 19.5947 39.2855 19.1617 39.2709 18.7258C39.2651 18.5078 39.1836 18.4323 38.9593 18.4672C38.502 18.5398 38.0419 18.5863 37.5817 18.656C35.8488 18.9147 34.276 19.6237 32.7266 20.388C30.749 21.3644 28.7773 21.4109 26.7618 20.5042C25.8794 20.1061 24.9648 19.7806 23.9629 19.8388C22.8242 19.9056 22.1892 20.4839 22.0291 21.6172C21.9562 22.1315 21.9533 22.6517 21.9446 23.1689C21.9067 25.3978 21.9941 27.6295 21.7698 29.8526C21.5776 31.7472 20.8349 33.2147 18.7845 33.761C17.6749 34.0574 16.6439 34.6037 15.7439 35.3477C15.1061 35.8736 14.6721 36.5216 14.5236 37.3498C14.4653 37.6811 14.5411 37.8438 14.8906 37.9514C17.9603 38.8871 21.0738 39.076 24.2163 38.4337C33.0295 36.635 39.3175 28.9604 39.3379 20.0276ZM13.5566 2.63861C13.446 2.66476 13.4052 2.67057 13.3673 2.6851C13.2741 2.71997 13.1839 2.75194 13.0936 2.79262C10.4228 3.95208 8.13652 5.63461 6.23467 7.83439C4.84833 9.43846 3.77072 11.2372 2.996 13.2074C2.94357 13.3411 2.79503 13.4864 3.02512 13.6375C3.64548 14.0443 4.23962 14.4977 4.86581 14.8958C5.94051 15.5787 6.76183 15.3462 7.36472 14.2187C7.688 13.6172 7.82489 12.9575 7.94139 12.295C8.2705 10.409 9.26365 9.02292 10.9995 8.18601C11.5179 7.9361 12.0451 7.70944 12.5722 7.47697C13.2392 7.18347 13.5712 6.69237 13.51 5.95136C13.4198 4.86164 13.3324 3.77482 13.5566 2.6328V2.63861ZM31.8325 9.82495C31.981 9.8511 32.08 9.76102 32.1907 9.70581C33.746 8.92412 35.2983 8.14242 36.8536 7.35782C37.1798 7.19509 37.506 7.03236 37.8322 6.86672C38.1089 6.72724 38.2836 6.5122 38.2108 6.18964C38.1322 5.85837 37.8904 5.71017 37.5526 5.7247C37.2439 5.73923 36.9351 5.75376 36.6264 5.7741C36.3439 5.79444 36.0759 5.79153 35.808 5.65786C34.6838 5.10283 33.5858 5.18129 32.5198 5.82931C31.4276 6.49186 30.3325 7.1486 29.2374 7.80824C25.4745 10.0749 21.7058 12.3328 17.9516 14.6139C17.5118 14.8813 17.1448 14.9219 16.708 14.6604C16.3847 14.4657 16.0293 14.3262 15.6857 14.1635C15.3828 14.0182 15.0624 13.9979 14.7391 14.0618C14.6372 14.0821 14.4945 14.085 14.4624 14.2071C14.4333 14.3175 14.5615 14.364 14.6314 14.425C15.3041 15.0207 15.9798 15.6135 16.6526 16.2093C17.3836 16.8544 17.8526 16.9241 18.7176 16.4882C20.9369 15.3724 23.1533 14.2536 25.3726 13.1377C25.6988 12.975 26.1444 12.8762 26.3075 12.6117C26.491 12.3124 26.1706 11.9085 26.1007 11.5423C26.1007 11.5278 26.0949 11.5162 26.092 11.5017C25.9871 11.1239 26.1036 10.8566 26.456 10.6619C27.953 9.82786 29.4384 8.97933 30.9354 8.14823C31.4917 7.8373 31.914 8.10464 31.9082 8.73523C31.9053 9.09847 31.7946 9.45299 31.8412 9.81914L31.8325 9.82495ZM30.6354 9.67094C29.584 10.2608 28.6113 10.8188 27.6268 11.3535C27.3851 11.4842 27.3298 11.6092 27.4084 11.8794C27.8365 13.3586 28.2385 14.8464 28.652 16.3284C28.8879 17.1769 28.885 17.1653 29.6831 16.8427C29.9364 16.741 30.0471 16.6161 30.0646 16.3313C30.1054 15.5758 30.1927 14.8231 30.2597 14.0676C30.382 12.6292 30.5044 11.1936 30.6325 9.67094H30.6354ZM27.8103 7.29099C27.7055 7.1486 27.5569 7.13116 27.4288 7.08467C26.4094 6.69237 25.3638 6.35819 24.3736 5.90486C23.7183 5.60265 23.2465 5.6782 22.8242 6.23033C22.8067 6.25357 22.7834 6.27101 22.763 6.28554C22.629 6.37853 22.6232 6.45989 22.7572 6.57322C23.5639 7.26774 24.3649 7.96807 25.1658 8.6713C25.2823 8.77301 25.3755 8.76429 25.5007 8.68583C26.2638 8.21798 27.0327 7.75884 27.8074 7.28808L27.8103 7.29099Z" fill="#E66A44"/>
<path id="Vector_2" d="M11.6571 20.7133C11.6687 20.8964 11.5755 21.0359 11.4823 21.1754C11.0891 21.7711 10.7338 22.3872 10.4018 23.0177C10.1833 23.4333 9.88626 23.5641 9.56298 23.41C9.21931 23.2444 9.14358 22.9131 9.3591 22.4831C9.71734 21.7711 10.1222 21.0853 10.5707 20.4257C10.7338 20.1845 10.9668 20.0711 11.261 20.1787C11.5114 20.2687 11.6425 20.4518 11.6571 20.7133Z" fill="#E66A44"/>
<path id="Vector_3" d="M7.27734 30.5412C7.28608 30.332 7.27734 30.117 7.31229 29.9135C7.37346 29.5794 7.5948 29.3905 7.93848 29.4224C8.25302 29.4515 8.46272 29.6462 8.46272 29.9746C8.46272 30.7737 8.53262 31.567 8.63747 32.3603C8.68407 32.7178 8.51806 32.959 8.15982 33.0345C7.83363 33.1013 7.56568 32.8921 7.48122 32.5056C7.43462 32.2877 7.39967 32.0639 7.37928 31.8431C7.33851 31.4101 7.31229 30.9771 7.28026 30.5441L7.27734 30.5412Z" fill="#E66A44"/>
<path id="Vector_4" d="M7.60372 27.4116C7.76682 26.6008 7.98526 25.7465 8.30854 24.927C8.42504 24.6335 8.69299 24.5115 9.00463 24.6132C9.33082 24.7178 9.49101 24.9735 9.39199 25.3019C9.15316 26.1068 8.92599 26.9118 8.7192 27.7225C8.63474 28.0567 8.35223 28.1817 8.02312 28.1003C7.71148 28.0218 7.5746 27.7865 7.60081 27.4087L7.60372 27.4116Z" fill="#E66A44"/>
<path id="Vector_5" d="M36.4632 12.5535C36.6962 12.5651 36.8913 12.6842 36.9991 12.9225C37.2787 13.5473 37.5204 14.1895 37.7039 14.8491C37.8 15.1949 37.6195 15.503 37.3107 15.5727C36.9583 15.6541 36.7079 15.5175 36.5797 15.1775C36.3554 14.576 36.1312 13.9745 35.9186 13.37C35.7759 12.9632 36.0322 12.5709 36.4632 12.5535Z" fill="#E66A44"/>
<path id="Vector_6" d="M12.6397 19.3796C12.3717 19.3854 12.197 19.2866 12.0776 19.0919C11.9465 18.8769 11.9611 18.6473 12.1125 18.4643C12.4067 18.1097 12.727 17.7756 13.0998 17.5024C13.3387 17.328 13.6124 17.3542 13.8309 17.5605C14.0318 17.7494 14.1105 18.0138 13.9386 18.2434C13.6299 18.6561 13.2484 19.0048 12.8435 19.3244C12.7853 19.3709 12.6863 19.368 12.6426 19.3796H12.6397Z" fill="#E66A44"/>
</g>
<defs>
<clipPath id="clip0_777_962">
<rect width="40" height="40" fill="white" transform="translate(0.5)"/>
</clipPath>
</defs>
</svg>
