<svg width="41" height="41" viewBox="0 0 41 41" fill="none" xmlns="http://www.w3.org/2000/svg">
<g id="Designed_by_freepik" clip-path="url(#clip0_777_1013)">
<path id="Vector" d="M20.108 0.092041C20.4732 0.092041 20.8361 0.092041 21.2013 0.092041C21.9774 0.25866 22.6279 0.674067 23.2785 1.10317C23.913 1.52314 24.5818 1.52314 25.2164 1.10317C25.8669 0.671784 26.5175 0.25866 27.2935 0.092041C27.6588 0.092041 28.0217 0.092041 28.3869 0.092041C28.7019 0.167362 29.0192 0.231271 29.3296 0.320286C29.8569 0.468646 30.003 0.86351 29.7291 1.34283C29.6355 1.50716 29.4757 1.63954 29.4711 1.8541C29.8021 1.89061 30.1262 1.918 30.4458 1.96594C31.5528 2.13484 32.548 2.54796 33.3652 3.33313C33.735 3.68919 33.7053 4.07492 33.3013 4.39218C33.1986 4.47207 33.089 4.54283 32.984 4.62043C31.3314 5.83926 29.8112 7.19504 28.5558 8.83156C28.4029 9.03241 28.38 9.13512 28.5946 9.32228C29.3365 9.96593 29.4574 10.9291 28.9165 11.7485C28.8023 11.9197 28.8092 12.0156 28.921 12.1822C29.3821 12.8829 29.373 13.6955 28.8617 14.3254C28.6494 14.5879 28.743 14.6655 28.9575 14.8139C30.9548 16.2039 32.9566 17.587 34.9356 19.0022C37.5172 20.851 39.2155 23.3229 40.0577 26.3859C40.2723 27.1665 40.3476 27.9676 40.4983 28.7574V30.6313C40.3979 30.8116 40.4321 31.0124 40.4024 31.2042C39.6172 36.3374 35.3693 40.0647 30.1947 40.0761C20.5622 40.0989 10.932 40.0829 1.29948 40.0829C0.715134 40.0829 0.502853 39.8684 0.502853 39.2795C0.500571 38.2113 0.502853 37.1454 0.502853 36.0772C0.502853 35.235 0.628395 35.0935 1.46154 35.0912C1.71491 35.0912 1.76512 35.0045 1.75827 34.7762C1.74458 34.2033 1.72632 33.6281 1.76284 33.0598C1.79023 32.6627 1.67154 32.5485 1.27665 32.5736C0.753938 32.6056 0.507418 32.3637 0.505136 31.8729C0.498288 30.6746 0.498288 29.4786 0.505136 28.2803C0.507418 27.8216 0.744807 27.5933 1.21045 27.5842C1.67838 27.5773 2.1486 27.5659 2.61653 27.5888C2.9087 27.6025 3.02054 27.5363 3.01141 27.2122C2.9863 26.3403 3 25.4684 3.00457 24.5965C3.00685 24.0578 3.22598 23.8364 3.76238 23.8341C4.64803 23.8296 5.53367 23.8204 6.41703 23.8387C6.69779 23.8455 6.76398 23.7588 6.75942 23.4895C6.74116 22.6564 6.75257 21.8233 6.75257 20.9902C6.75257 20.2644 6.93061 20.0818 7.64049 20.0818C8.80005 20.0818 9.9596 20.043 11.1146 20.0955C11.8701 20.1297 12.5207 20.0201 13.0183 19.4084C13.0571 19.3582 13.1187 19.3263 13.1712 19.2898C15.278 17.8084 17.3826 16.3226 19.4917 14.8481C19.7313 14.6792 19.8683 14.5902 19.6104 14.2798C19.1173 13.6841 19.1173 12.8578 19.5624 12.2073C19.7017 12.0042 19.6697 11.89 19.551 11.7074C19.042 10.9246 19.163 9.95224 19.8729 9.34282C20.1262 9.12599 20.0737 9.00731 19.9094 8.79504C18.5923 7.09004 16.9945 5.68634 15.2552 4.43327C14.7622 4.07721 14.7393 3.68919 15.1844 3.27606C15.8806 2.63469 16.7069 2.24668 17.6268 2.04126C18.0879 1.93855 18.5604 1.90203 19.0785 1.84725C18.9553 1.64639 18.8571 1.49347 18.7658 1.34054C18.485 0.865793 18.6357 0.468646 19.163 0.320286C19.478 0.231271 19.7953 0.167362 20.108 0.092041ZM14.3034 20.0087C14.3125 20.0361 14.3216 20.0635 14.333 20.0909C15.7094 20.0909 17.0881 20.0909 18.4645 20.0909C19.0283 20.0909 19.2474 20.3077 19.2497 20.8669C19.2543 21.7137 19.2703 22.5605 19.2406 23.405C19.2292 23.7656 19.3365 23.8501 19.688 23.8478C22.4088 23.8318 25.1297 23.8387 27.8505 23.841C28.3618 23.841 28.6152 24.0555 28.6197 24.512C28.6289 25.7354 28.6243 26.9588 28.6197 28.1822C28.6197 28.4698 28.4919 28.7003 28.2134 28.7848C28.0171 28.8441 27.992 28.9491 27.9943 29.1226C28.0011 29.6955 28.024 30.2706 27.9874 30.8413C27.9623 31.243 28.0742 31.3799 28.4896 31.3502C28.9735 31.316 29.2383 31.5534 29.2429 31.987C29.2543 33.2241 29.2543 34.4612 29.2429 35.696C29.2406 36.0863 28.9941 36.3123 28.5992 36.3351C28.4828 36.342 28.3641 36.3465 28.2477 36.3351C28.0696 36.3191 27.992 36.3716 27.9943 36.5702C28.0034 37.2481 28.0034 37.9237 27.9943 38.6016C27.992 38.7933 28.0628 38.8458 28.2431 38.8413C29.2178 38.8116 30.1947 38.8755 31.1694 38.7773C35.5565 38.3391 39.1447 34.5411 39.2292 30.1383C39.3091 26.023 37.6998 22.6587 34.4038 20.1868C32.1052 18.4635 29.7085 16.8681 27.3575 15.211C27.2068 15.106 27.0516 15.09 26.8804 15.09C25.1365 15.0923 23.3903 15.0946 21.6464 15.0878C21.4113 15.0878 21.2241 15.1517 21.037 15.2863C19.8592 16.1217 18.6745 16.9457 17.4898 17.7742C16.4262 18.5183 15.3625 19.2647 14.2988 20.0087H14.3034ZM31.9432 3.80103C30.9753 3.21216 29.9436 3.0889 28.8731 3.1277C28.6791 3.13455 28.6494 3.27606 28.59 3.39932C28.1107 4.39675 27.7158 5.42614 27.3917 6.48519C27.241 6.97592 26.9626 7.16765 26.5814 7.06037C26.1911 6.94853 26.0541 6.61301 26.2047 6.11087C26.659 4.58619 27.273 3.1277 28.0354 1.73084C28.0947 1.62128 28.2043 1.5277 28.1655 1.3725C27.9076 1.32913 27.6519 1.34283 27.394 1.38619C26.8325 1.47977 26.4079 1.83812 25.9468 2.12799C24.8078 2.84696 23.6711 2.83783 22.5366 2.11886C22.3175 1.97963 22.1029 1.83127 21.8815 1.69432C21.5095 1.46151 21.1032 1.34283 20.6604 1.34511C20.2472 1.34511 20.2449 1.34967 20.4435 1.7103C21.2241 3.1277 21.8473 4.60902 22.3015 6.16109C22.4339 6.60845 22.297 6.93712 21.9386 7.05352C21.5597 7.17678 21.2561 6.98277 21.11 6.5103C20.8452 5.6521 20.5371 4.81216 20.1787 3.98819C19.793 3.09803 19.7953 3.0889 18.8274 3.13683C18.0285 3.17564 17.2707 3.35823 16.5563 3.80559C16.6384 3.88091 16.6932 3.93341 16.7526 3.98134C18.4965 5.3394 20.1011 6.83441 21.3428 8.67863C21.4387 8.82243 21.5528 8.84525 21.7035 8.84297C22.2102 8.8384 22.7192 8.82014 23.226 8.84982C23.5569 8.87036 23.6346 8.76537 23.63 8.44126C23.6094 7.15395 23.6186 5.86437 23.6231 4.57478C23.6231 4.06351 23.9884 3.73712 24.4084 3.86722C24.7576 3.97678 24.8763 4.23926 24.874 4.59076C24.8694 5.90545 24.8763 7.22014 24.8672 8.53484C24.8672 8.76537 24.9174 8.85438 25.1662 8.84525C25.698 8.82471 26.2344 8.83156 26.7663 8.84525C26.9534 8.84982 27.0721 8.79732 27.1817 8.63527C28.1221 7.22927 29.2954 6.03327 30.5759 4.93541C31.0164 4.55652 31.4707 4.19133 31.9409 3.80331L31.9432 3.80103ZM14.2691 36.3374C12.7215 36.3374 11.1716 36.342 9.62406 36.3328C9.35928 36.3328 9.22689 36.3602 9.24058 36.6821C9.27026 37.3052 9.25656 37.9306 9.24515 38.556C9.24058 38.7728 9.30221 38.8435 9.52591 38.8435C12.6736 38.8367 15.8236 38.8367 18.9712 38.8435C19.1972 38.8435 19.2566 38.7705 19.252 38.5537C19.2383 37.9306 19.2337 37.3052 19.252 36.6798C19.2611 36.4104 19.1881 36.3283 18.9096 36.3306C17.362 36.3443 15.8121 36.3374 14.2646 36.3374H14.2691ZM14.2098 35.0889C15.7711 35.0889 17.3323 35.0843 18.8936 35.0935C19.1424 35.0935 19.268 35.0661 19.2566 34.7671C19.2337 34.1303 19.2429 33.4912 19.252 32.8544C19.2543 32.6558 19.2041 32.5851 18.9918 32.5851C15.8304 32.5919 12.669 32.5919 9.50765 32.5851C9.29993 32.5851 9.24058 32.6512 9.24515 32.8521C9.25656 33.4775 9.26341 34.1006 9.24287 34.726C9.23374 35.0113 9.30221 35.1003 9.60351 35.098C11.1397 35.0821 12.6736 35.0912 14.2098 35.0912V35.0889ZM13.0183 28.8395C11.457 28.8395 9.89569 28.8464 8.3344 28.8327C8.05364 28.8304 7.98516 28.9126 7.99201 29.1819C8.01255 29.805 8.00571 30.4304 7.99201 31.0558C7.98745 31.2726 8.04679 31.3434 8.27277 31.3434C11.4205 31.3365 14.5704 31.3365 17.7181 31.3434C17.9441 31.3434 18.0034 31.2704 17.9989 31.0535C17.9852 30.4304 17.9806 29.805 17.9989 29.1796C18.008 28.9103 17.9349 28.8281 17.6565 28.8304C16.1089 28.8441 14.559 28.8373 13.0114 28.8373L13.0183 28.8395ZM14.2303 27.5888C15.7916 27.5888 17.3529 27.5819 18.9142 27.5956C19.1926 27.5979 19.2657 27.518 19.2566 27.2487C19.236 26.6256 19.2429 26.0002 19.2566 25.3748C19.2611 25.1602 19.2041 25.0849 18.9758 25.0849C15.8281 25.0918 12.6782 25.0918 9.53047 25.0849C9.30678 25.0849 9.24287 25.1534 9.24743 25.3725C9.26113 25.9842 9.26798 26.5959 9.24743 27.2076C9.23602 27.5066 9.31135 27.6025 9.62634 27.5979C11.1602 27.5796 12.6964 27.5888 14.2326 27.5888H14.2303ZM13.0183 21.3394C11.4707 21.3394 9.92079 21.344 8.3732 21.3348C8.10614 21.3348 7.97603 21.3645 7.99201 21.6841C8.02169 22.3072 8.00799 22.9326 7.99658 23.5579C7.99201 23.7771 8.05364 23.8455 8.27962 23.8455C11.4273 23.8387 14.5773 23.8387 17.7249 23.8455C17.9532 23.8455 18.0103 23.7702 18.0057 23.5557C17.9943 22.9326 17.9874 22.3072 18.0057 21.6818C18.0148 21.4102 17.9395 21.3303 17.6633 21.3348C16.1157 21.3485 14.5659 21.3417 13.0183 21.3417V21.3394ZM24.2349 13.8393C25.2506 13.8393 26.2641 13.8438 27.2798 13.8393C27.709 13.8393 27.9874 13.5905 27.9966 13.2321C28.0057 12.8532 27.7249 12.6022 27.273 12.593C27.0904 12.5885 26.9078 12.6022 26.7275 12.5862C26.3782 12.5588 26.1386 12.3077 26.1294 11.9813C26.1203 11.6413 26.3691 11.3742 26.7366 11.3468C26.9055 11.3331 27.0744 11.3445 27.2433 11.3423C27.7067 11.3354 27.9897 11.1072 27.9989 10.7328C28.008 10.3448 27.7181 10.096 27.2342 10.0938C25.2438 10.0915 23.2511 10.0915 21.2607 10.0938C20.8019 10.0938 20.5143 10.3311 20.5051 10.7032C20.496 11.0935 20.7859 11.34 21.2698 11.3423C22.0116 11.3468 22.7535 11.3423 23.4953 11.3423C23.961 11.3445 24.2394 11.5751 24.2486 11.9517C24.2577 12.342 23.9701 12.5885 23.4862 12.5908C22.7444 12.5953 22.0025 12.5908 21.2607 12.5908C20.7996 12.593 20.5165 12.8281 20.5051 13.2002C20.496 13.5905 20.7859 13.837 21.2698 13.8393C22.2582 13.8415 23.2488 13.8393 24.2372 13.8393H24.2349ZM24.2303 35.0889C25.3739 35.0889 26.5197 35.0798 27.6633 35.0957C27.9441 35.1003 28.0126 35.0136 28.0034 34.7465C27.9829 34.1234 27.9897 33.498 28.0034 32.8726C28.008 32.6558 27.9486 32.5828 27.7227 32.5851C25.4081 32.5919 23.0913 32.5919 20.7768 32.5851C20.5508 32.5851 20.4914 32.6581 20.496 32.8749C20.5097 33.498 20.5143 34.1234 20.496 34.7488C20.4869 35.0181 20.5576 35.1026 20.8384 35.098C21.9706 35.0821 23.1027 35.0912 24.2326 35.0912L24.2303 35.0889ZM23.0183 28.8395C21.8747 28.8395 20.7288 28.8487 19.5853 28.8327C19.3045 28.8281 19.236 28.9149 19.2451 29.1819C19.2657 29.805 19.2588 30.4304 19.2451 31.0558C19.2406 31.2726 19.2999 31.3457 19.5259 31.3434C21.8404 31.3365 24.1573 31.3365 26.4718 31.3434C26.6978 31.3434 26.7571 31.2704 26.7526 31.0535C26.7389 30.4304 26.7343 29.805 26.7526 29.1796C26.7617 28.9103 26.6909 28.8259 26.4102 28.8304C25.278 28.8464 24.1459 28.8373 23.016 28.8373L23.0183 28.8395ZM23.9769 25.0895C22.9224 25.0895 21.8701 25.0986 20.8156 25.0826C20.5576 25.0781 20.4869 25.1579 20.4937 25.4113C20.5097 26.0481 20.5051 26.6849 20.4937 27.324C20.4914 27.5203 20.5417 27.5956 20.7517 27.5933C22.8722 27.5865 24.9927 27.5865 27.1132 27.5933C27.3209 27.5933 27.3803 27.5271 27.3757 27.3263C27.3643 26.7032 27.3575 26.0778 27.378 25.4547C27.3871 25.1716 27.3209 25.0758 27.0173 25.0826C26.0039 25.1032 24.9881 25.0895 23.9747 25.0895H23.9769ZM23.6254 38.8367C24.5613 38.8367 25.4994 38.8321 26.4353 38.8413C26.6521 38.8413 26.764 38.8139 26.7549 38.5514C26.7343 37.9009 26.7412 37.2504 26.7526 36.5999C26.7549 36.399 26.6978 36.3306 26.4901 36.3328C24.5773 36.3397 22.6667 36.3397 20.7539 36.3328C20.5417 36.3328 20.4914 36.4059 20.4937 36.6022C20.5029 37.239 20.5097 37.8781 20.4937 38.5149C20.4869 38.7659 20.5554 38.8481 20.8156 38.8435C21.7514 38.8276 22.6873 38.8367 23.6254 38.8367ZM4.87172 38.8367C5.82127 38.8367 6.77083 38.8344 7.72038 38.839C7.89843 38.839 8.01027 38.8253 8.00571 38.5948C7.99201 37.9191 7.99429 37.2413 8.00571 36.5657C8.00799 36.3648 7.92125 36.3328 7.75006 36.3328C5.83725 36.3374 3.92673 36.3374 2.01392 36.3328C1.81077 36.3328 1.74458 36.3922 1.74914 36.5976C1.76056 37.2344 1.76969 37.8735 1.74686 38.508C1.73545 38.7979 1.8473 38.8458 2.10523 38.8413C3.02739 38.8276 3.95184 38.8367 4.87628 38.8367H4.87172ZM4.24857 31.3388C4.99041 31.3388 5.73225 31.3297 6.47181 31.3434C6.6955 31.348 6.75942 31.2749 6.75485 31.0558C6.74116 30.4053 6.74344 29.7548 6.75485 29.1043C6.75713 28.908 6.7092 28.8327 6.49692 28.8327C5.00183 28.8418 3.50673 28.8418 2.01164 28.8327C1.80393 28.8327 1.74458 28.8966 1.74914 29.0997C1.76056 29.7502 1.76512 30.4007 1.74686 31.049C1.74001 31.3114 1.8473 31.3434 2.06642 31.3388C2.79457 31.3274 3.52271 31.3343 4.25086 31.3343L4.24857 31.3388ZM5.50171 35.0889C6.22986 35.0889 6.958 35.0821 7.68614 35.0935C7.90299 35.0958 8.01484 35.0684 8.00799 34.8036C7.98745 34.1531 7.99429 33.5026 8.00571 32.8544C8.00799 32.6535 7.95321 32.5851 7.74549 32.5851C6.2504 32.5942 4.75531 32.5942 3.26021 32.5851C3.04793 32.5851 2.99772 32.6581 3 32.8544C3.00913 33.4912 3.0137 34.128 3 34.7648C2.99315 35.0159 3.05935 35.1003 3.32184 35.0935C4.04999 35.0752 4.77813 35.0866 5.50628 35.0866L5.50171 35.0889ZM6.12257 27.5888C6.6567 27.5888 7.18854 27.5842 7.72267 27.591C7.90299 27.5933 8.01027 27.5751 8.00571 27.3468C7.99201 26.6712 7.99429 25.9956 8.00571 25.32C8.00799 25.1191 7.92125 25.0872 7.75006 25.0872C6.67039 25.0918 5.59302 25.094 4.51335 25.0872C4.30792 25.0872 4.24629 25.1511 4.25086 25.3542C4.26227 26.0047 4.26683 26.6552 4.24857 27.3035C4.24173 27.5637 4.34444 27.6002 4.56585 27.5956C5.08628 27.5819 5.60671 27.591 6.12486 27.591L6.12257 27.5888Z" fill="#E66A44"/>
<path id="Vector_2" d="M12.9936 16.3363C12.6192 16.3317 12.4046 16.0669 12.3727 15.5899C12.2974 14.4395 11.7632 13.5654 10.7658 12.9856C10.3321 12.7323 9.855 12.6159 9.35055 12.5908C8.88719 12.5679 8.61784 12.326 8.62925 11.9471C8.63839 11.5842 8.8986 11.3628 9.34599 11.3377C11.0511 11.2373 12.2745 10.0139 12.375 8.30659C12.4001 7.86151 12.6238 7.60131 12.989 7.59446C13.3656 7.58533 13.603 7.85466 13.6304 8.32028C13.7263 9.9956 14.968 11.2441 16.6343 11.3377C17.1091 11.3651 17.3738 11.5888 17.3761 11.9631C17.3761 12.3397 17.1113 12.5679 16.6388 12.593C14.968 12.6866 13.724 13.9306 13.6327 15.6059C13.6076 16.0738 13.3725 16.3431 12.9981 16.3363H12.9936ZM12.9936 13.4102C13.0438 13.3554 13.0826 13.3257 13.11 13.2846C13.4364 12.8076 13.8335 12.4013 14.3175 12.0818C14.4772 11.9768 14.4202 11.9129 14.3015 11.8307C13.8427 11.5226 13.4524 11.1437 13.1488 10.6826C13.0255 10.4932 12.9525 10.5434 12.8498 10.6986C12.5485 11.146 12.1741 11.5226 11.7244 11.8193C11.535 11.9448 11.5875 12.0156 11.7404 12.1206C12.1764 12.415 12.537 12.7848 12.8406 13.2139C12.884 13.2755 12.9319 13.3326 12.9936 13.4124V13.4102Z" fill="#E66A44"/>
<path id="Vector_3" d="M6.74792 14.4487C6.74336 14.645 6.67945 14.7865 6.56988 14.9006C6.36445 15.1152 6.15902 15.3343 5.93761 15.5306C5.65457 15.7816 5.30761 15.7725 5.06338 15.5306C4.81914 15.2886 4.80773 14.9371 5.05653 14.6587C5.26424 14.4281 5.48565 14.209 5.71848 14.0013C5.91935 13.8233 6.15673 13.7868 6.40325 13.9146C6.63151 14.0333 6.73879 14.2273 6.74792 14.4487Z" fill="#E66A44"/>
<path id="Vector_4" d="M3.62594 15.0763C3.60996 15.3297 3.50953 15.5146 3.29953 15.6332C3.07355 15.7611 2.83388 15.7565 2.64443 15.5922C2.37052 15.3548 2.1103 15.0991 1.87748 14.8253C1.69031 14.6061 1.704 14.3391 1.87748 14.1063C2.04867 13.8758 2.30204 13.7548 2.55997 13.8849C3.00279 14.1108 3.33605 14.476 3.5917 14.9051C3.62366 14.9576 3.61909 15.0307 3.62822 15.0786L3.62594 15.0763Z" fill="#E66A44"/>
<path id="Vector_5" d="M3.62091 17.5116C3.62548 17.749 3.56613 17.8928 3.45657 18.0092C3.24201 18.2352 3.02973 18.4634 2.7969 18.6666C2.51614 18.9131 2.16006 18.8902 1.92495 18.6392C1.69898 18.3995 1.68528 18.0617 1.92267 17.7947C2.13723 17.5527 2.37006 17.3245 2.61201 17.1122C2.80147 16.9456 3.02744 16.9159 3.26483 17.03C3.49994 17.1419 3.60037 17.3382 3.6232 17.5116H3.62091Z" fill="#E66A44"/>
<path id="Vector_6" d="M5.44623 16.9686C5.65851 16.9617 5.80232 17.021 5.91873 17.1306C6.1447 17.3429 6.37296 17.5574 6.57839 17.7902C6.82491 18.071 6.80665 18.4248 6.55785 18.6621C6.32046 18.8904 5.98036 18.9064 5.7133 18.6713C5.47134 18.459 5.24308 18.2239 5.02852 17.9842C4.86189 17.7971 4.82765 17.5688 4.94178 17.3315C5.05363 17.0987 5.24308 16.9868 5.44623 16.9686Z" fill="#E66A44"/>
<path id="Vector_7" d="M5.50391 8.51877C5.50391 8.45258 5.50391 8.38867 5.50391 8.32248C5.51304 7.86599 5.75727 7.58753 6.13618 7.5921C6.51509 7.59666 6.74563 7.8774 6.75248 8.33846C6.75476 8.49367 6.75933 8.65115 6.75248 8.80636C6.73194 9.20351 6.47629 9.46371 6.1202 9.45914C5.7664 9.45458 5.52445 9.18981 5.50619 8.7881C5.50162 8.6968 5.50619 8.60551 5.50619 8.51421L5.50391 8.51877Z" fill="#E66A44"/>
<path id="Vector_8" d="M7.72791 6.34822C7.84432 6.34822 7.9653 6.32996 8.07943 6.3505C8.41725 6.41213 8.6204 6.61983 8.6204 6.96448C8.6204 7.30914 8.41953 7.52825 8.08171 7.57846C7.85117 7.61042 7.61378 7.60129 7.38096 7.58759C7.0089 7.56705 6.7601 7.30914 6.75781 6.96677C6.75781 6.6244 7.00661 6.37105 7.37868 6.34366C7.49509 6.33453 7.61378 6.34366 7.73019 6.34366V6.34822H7.72791Z" fill="#E66A44"/>
<path id="Vector_9" d="M4.56706 7.59225C3.92794 7.59225 3.63348 7.39596 3.62892 6.97142C3.62664 6.54461 3.92337 6.34375 4.56021 6.34375C5.2039 6.34375 5.49607 6.53548 5.49836 6.96458C5.50064 7.3914 5.20162 7.59225 4.56706 7.59225Z" fill="#E66A44"/>
<path id="Vector_10" d="M5.50203 5.38734C5.50203 5.30973 5.49975 5.23213 5.50203 5.15224C5.51801 4.72999 5.77366 4.45838 6.14115 4.46751C6.49495 4.47664 6.73234 4.73912 6.74832 5.14311C6.75517 5.31202 6.75517 5.48092 6.74832 5.64982C6.73234 6.06979 6.47441 6.34369 6.1092 6.33456C5.7554 6.32543 5.51801 6.06066 5.50203 5.65667C5.49746 5.56537 5.50203 5.47407 5.50203 5.38277V5.38734Z" fill="#E66A44"/>
<path id="Vector_11" d="M38.0006 29.6794C38.012 33.2834 35.645 36.3944 32.1869 37.3188C32.1116 37.3393 32.0362 37.3553 31.9586 37.3713C31.5546 37.458 31.2236 37.2754 31.1415 36.9171C31.0639 36.5839 31.2647 36.2849 31.6551 36.1684C32.0157 36.0612 32.3786 35.9607 32.7256 35.8124C35.4373 34.6666 37.0693 31.8455 36.7087 28.9194C36.6813 28.7003 36.6493 28.4811 36.6379 28.2597C36.622 27.9128 36.8434 27.6412 37.1652 27.5933C37.4825 27.5453 37.7792 27.7439 37.8523 28.0863C37.9641 28.609 37.9938 29.1431 37.9984 29.6771L38.0006 29.6794Z" fill="#E66A44"/>
<path id="Vector_12" d="M37.2445 25.9498C37.2422 26.2603 37.0893 26.4657 36.8177 26.5501C36.5278 26.6414 36.2447 26.5638 36.1123 26.2854C35.7562 25.5322 35.3545 24.8109 34.9026 24.1102C34.7268 23.8409 34.8204 23.5487 35.0783 23.3501C35.3385 23.147 35.649 23.1379 35.8544 23.3821C36.4661 24.1148 36.9158 24.9456 37.2331 25.8471C37.2468 25.8837 37.2422 25.9247 37.2445 25.9498Z" fill="#E66A44"/>
</g>
<defs>
<clipPath id="clip0_777_1013">
<rect width="40" height="40" fill="white" transform="translate(0.5 0.092041)"/>
</clipPath>
</defs>
</svg>
