<svg width="184" height="134" viewBox="0 0 184 134" fill="none" xmlns="http://www.w3.org/2000/svg">
<g id="artboard_1" clip-path="url(#clip0_683_9246)">
<path id="Vector" d="M16.5052 56.1922C20.3306 57.2905 23.174 59.0626 26.6476 58.6086C30.2092 58.1399 29.0367 61.0982 29.0513 62.7384C29.1393 77.5004 29.11 92.2477 29.11 107.01C29.11 121.391 29.11 121.464 43.6934 121.347C48.3835 121.303 54.4367 123.383 57.3827 120.468C60.3434 117.539 58.4966 111.462 58.2475 106.805C57.2948 88.9233 62.879 82.875 81.0239 83.7244C95.4021 84.3834 109.839 83.8416 124.246 83.8562C136.793 83.8562 142.069 89.2309 142.084 101.928C142.084 107.024 142.289 112.135 142.01 117.232C141.835 120.703 143.124 121.611 146.422 121.464C151.889 121.215 157.356 121.449 162.838 121.376C169.565 121.303 171.441 119.385 171.5 112.443C171.573 104.432 171.514 96.4068 171.514 88.3961C171.514 66.5314 171.514 44.6667 171.514 22.802C171.514 14.2934 170.093 12.8875 161.724 12.8875C124.51 12.8875 87.3117 12.8875 50.0983 12.8875C41.4362 12.8875 39.1058 10.9983 36.7901 3.71983C35.7055 0.33688 36.8927 -0.0292406 39.6628 4.89958e-05C47.8705 0.073273 56.0783 0.0293386 64.286 0.0293386C96.2083 0.0293386 128.116 0.0293386 160.038 0.0293386C164.42 0.0293386 168.803 0.102563 172.907 1.96245C179.913 5.14038 183.797 10.764 183.841 18.2328C184.046 50.8468 184.075 83.4608 183.841 116.06C183.767 126.517 175.413 133.868 164.245 133.927C141.805 134.044 119.38 133.956 96.9411 133.956C77.2425 133.956 57.5439 133.971 37.8453 133.956C23.7896 133.941 16.5199 126.751 16.5052 112.897C16.4759 94.1369 16.5052 75.3915 16.5052 56.1775V56.1922Z" fill="#E66A44"/>
<path id="Vector_2" d="M125.168 50.759C125.182 64.0712 113.897 75.3184 100.368 75.4648C86.8843 75.6113 75.159 64.1297 74.9977 50.6272C74.8365 36.8757 86.4739 25.072 100.222 25.0427C114.043 25.0281 125.153 36.4657 125.182 50.759H125.168Z" fill="#E66A44"/>
<path id="Vector_3" d="M49.5551 24.8814C49.5404 27.415 47.8549 28.2497 46.0375 28.6012C35.8804 30.5636 30.2522 36.8609 28.1417 46.7461C27.8046 48.2985 27.2183 49.9826 25.1077 50.0998C22.7334 50.2316 22.1178 48.4449 21.4729 46.7168C21.2823 46.2043 21.0772 45.6917 20.9599 45.1645C18.9373 36.5973 13.954 31.0615 5.10137 29.1284C2.94684 28.6598 -0.0577817 28.2937 0.000844993 25.145C0.0594717 22.0257 3.03478 21.7328 5.20397 21.2642C14.1006 19.3164 18.9226 13.6635 20.8573 5.05237C21.3117 3.01674 21.722 0.468542 24.6974 0.556411C27.5847 0.64428 28.0391 3.1339 28.4788 5.18417C30.3988 14.1614 35.7925 19.5214 44.7624 21.4399C46.7996 21.8793 49.218 22.2307 49.5258 24.8961L49.5551 24.8814Z" fill="#E66A44"/>
<path id="Vector_4" d="M68.5474 56.1482C68.3716 57.9788 67.1404 58.4621 65.9386 58.7843C60.7794 60.1755 57.3351 63.1924 56.2358 68.5963C56.016 69.6507 55.5763 70.7637 54.2572 70.8809C52.8648 70.9981 52.3078 69.8997 52.1026 68.8599C50.9887 63.2363 47.4858 60.0877 42.0628 58.7111C41.0808 58.4621 39.791 58.0374 39.7471 56.7633C39.7031 55.1524 41.1688 54.7716 42.3706 54.508C47.5884 53.395 50.4904 50.1146 51.7216 45.0767C52.0147 43.8905 52.3665 42.47 53.9347 42.3235C55.2685 42.2064 55.7815 43.2754 56.0599 44.3592C57.4523 49.9535 60.6182 53.6879 66.5541 54.7277C67.3163 54.8595 67.9612 55.6942 68.5621 56.1336L68.5474 56.1482Z" fill="#E66A44"/>
</g>
<defs>
<clipPath id="clip0_683_9246">
<rect width="184" height="134" fill="white"/>
</clipPath>
</defs>
</svg>
