<svg width="70" height="70" viewBox="0 0 70 70" fill="none" xmlns="http://www.w3.org/2000/svg">
<g id="Group 1287">
<circle id="Ellipse 37" cx="34.7222" cy="34.7222" r="34.7222" fill="#E66A44"/>
<g id="Group 1293">
<path id="Vector" d="M37.4818 44.2846C37.0891 44.3114 36.8239 44.3463 36.5567 44.3463C34.8834 44.3504 33.208 44.3484 31.3846 44.3484C31.0455 32.2076 30.7083 20.1449 30.3691 8H38.3739C38.0759 20.1017 37.7798 32.1356 37.4818 44.2846Z" fill="white"/>
<path id="Vector_2" d="M39.0562 55.4447C38.9699 55.9895 38.9185 56.783 38.7088 57.5333C38.1311 59.6177 36.5216 60.7956 34.3898 60.7812C32.2951 60.7648 30.6629 59.6506 30.2435 57.5168C29.9475 56.0141 29.9187 54.3778 30.1716 52.869C30.5642 50.5132 32.3403 49.3229 34.6941 49.4565C37.056 49.5902 38.5998 51.0846 38.9185 53.5658C38.9884 54.1085 39.0007 54.6574 39.0562 55.4447Z" fill="white"/>
</g>
</g>
</svg>
