<svg width="14" height="17" viewBox="0 0 14 17" fill="none" xmlns="http://www.w3.org/2000/svg">
<path id="arrow.down" d="M6.82031 16.6904C7.40039 16.6904 7.80469 16.2861 7.80469 15.7061L7.80469 4.85156L7.72559 2.94434L10.0107 5.49316L12.0059 7.47949C12.1816 7.65527 12.4277 7.76953 12.709 7.76953C13.2451 7.76953 13.6406 7.36523 13.6406 6.81152C13.6406 6.55664 13.5439 6.31934 13.333 6.1084L7.54981 0.307617C7.35645 0.105468 7.09277 -5.72431e-07 6.82031 -5.96251e-07C6.55664 -6.19302e-07 6.29297 0.105468 6.09961 0.307617L0.307618 6.1084C0.0966806 6.31933 8.85924e-07 6.55664 8.63641e-07 6.81152C8.15234e-07 7.36523 0.404298 7.76953 0.94043 7.76953C1.21289 7.76953 1.45899 7.65527 1.63477 7.47949L3.63867 5.49316L5.91504 2.95312L5.84473 4.85156L5.84473 15.7061C5.84473 16.2861 6.24902 16.6904 6.82031 16.6904Z" fill="#333333"/>
</svg>
