<svg width="29" height="30" viewBox="0 0 29 30" fill="none" xmlns="http://www.w3.org/2000/svg">
<path id="Vector" d="M27.5801 0.501953C27.5801 0.501953 27.6277 0.541614 27.6515 0.549546C28.6193 0.731986 29.1348 1.63625 28.9683 2.63571C28.8572 3.31787 28.5796 3.95245 28.3654 4.60288C25.8033 12.2971 23.2412 19.9913 20.6712 27.6855C20.5443 28.0662 20.3857 28.4232 20.1318 28.7325C19.5131 29.4861 18.5692 29.7082 17.6887 29.2878C17.2128 29.0578 16.84 28.7325 16.5862 28.2407C14.8966 24.941 13.1991 21.657 11.5016 18.3573C11.4144 18.1907 11.3033 18.0796 11.1368 17.9924C7.85284 16.3028 4.56893 14.6053 1.28501 12.9237C0.65837 12.6064 0.301422 12.0988 0.0793217 11.4642C0.0555252 11.3928 0.0793217 11.3056 0 11.258V10.5758C0.237965 9.70327 0.817013 9.15595 1.65782 8.87832C10.0739 6.10206 18.4661 3.23855 26.9059 0.501953C27.1359 0.501953 27.358 0.501953 27.5881 0.501953H27.5801ZM26.7552 4.05556C26.7552 4.05556 26.7235 4.03177 26.7076 4.0159C26.6441 4.07143 26.5807 4.12695 26.5252 4.18248C22.099 8.60863 17.6808 13.0268 13.2467 17.4451C13.0801 17.6116 13.0801 17.7306 13.1833 17.921C14.8173 21.0701 16.4354 24.2191 18.0615 27.3682C18.0933 27.4317 18.125 27.511 18.1726 27.5665C18.4106 27.8759 18.7358 27.86 18.9182 27.511C18.9896 27.3682 19.0451 27.2175 19.0927 27.0668C21.4089 20.1182 23.7251 13.1696 26.0413 6.21311C26.2793 5.49129 26.5172 4.76946 26.7552 4.04763V4.05556ZM25.4702 2.77848C25.3433 2.73882 25.2481 2.81021 25.145 2.84987C18.0695 5.20573 10.994 7.56158 3.91056 9.92537C3.29978 10.1316 2.69694 10.3299 2.09409 10.5441C1.91958 10.6075 1.71335 10.6948 1.70542 10.909C1.70542 11.139 1.83233 11.3135 2.05443 11.4166C2.10996 11.4404 2.15755 11.4721 2.20514 11.4959C5.32248 13.0982 8.43983 14.7005 11.5492 16.3187C11.7713 16.4377 11.8903 16.4218 12.0728 16.2394C16.4672 11.8291 20.8775 7.42673 25.2798 3.02438C25.3512 2.95299 25.4464 2.89747 25.4702 2.78642V2.77848Z" fill="#E66A44"/>
</svg>
