<svg width="31" height="30" viewBox="0 0 31 30" fill="none" xmlns="http://www.w3.org/2000/svg">
<g id="DESIGNED_BY_FREEPIK" clip-path="url(#clip0_1425_3868)">
<path id="Vector" d="M6.20234 23.2845C5.1377 23.2845 4.10561 23.3031 3.07817 23.2798C1.91125 23.2565 1.02328 22.7207 0.418897 21.7189C0.144602 21.267 0.00977907 20.7684 0.00977907 20.2419C0.00048093 14.6786 -0.00416814 9.11063 0.00977907 3.54732C0.0144281 1.85597 1.3952 0.514066 3.10606 0.504748C5.69094 0.49077 8.27118 0.504748 10.8561 0.504748C16.4628 0.504748 22.0696 0.504748 27.6764 0.504748C29.7034 0.504748 31.0051 1.80472 31.0051 3.84087C31.0051 9.25507 31.0051 14.6693 31.0051 20.0835C31.0051 21.5931 30.1032 22.8046 28.6945 23.1726C28.3784 23.2565 28.0344 23.2798 27.7043 23.2798C23.6921 23.2891 19.6753 23.2798 15.6632 23.2938C15.4772 23.2938 15.2634 23.373 15.1193 23.4848C12.8087 25.3206 10.512 27.1704 8.21074 29.0155C8.10846 29.0947 8.01083 29.1786 7.90855 29.2578C7.55987 29.5187 7.18794 29.5886 6.78812 29.3883C6.39295 29.1879 6.21164 28.8524 6.21164 28.4191C6.21164 26.8442 6.21164 25.2694 6.21164 23.6945C6.21164 23.578 6.21164 23.4569 6.21164 23.2891L6.20234 23.2845ZM8.26653 26.2991C8.406 26.1919 8.48038 26.1314 8.55942 26.0708C10.4051 24.5891 12.2601 23.1121 14.1011 21.6211C14.4544 21.3369 14.8217 21.2017 15.2773 21.2017C19.4429 21.2157 23.6038 21.211 27.7694 21.2064C28.5132 21.2064 28.9316 20.7917 28.9316 20.0462C28.9316 14.6134 28.9316 9.17586 28.9316 3.74302C28.9316 2.97888 28.5225 2.56885 27.7554 2.56885C19.587 2.56885 11.4232 2.56885 3.25483 2.56885C2.47379 2.56885 2.06932 2.97422 2.06932 3.76632C2.06932 9.18052 2.06932 14.5947 2.06932 20.0089C2.06932 20.8057 2.46449 21.2064 3.25483 21.2064C4.55657 21.2064 5.85831 21.2064 7.16005 21.2064C7.83881 21.2064 8.26653 21.635 8.26653 22.32C8.26653 23.5174 8.26653 24.7149 8.26653 25.9124C8.26653 26.0149 8.26653 26.122 8.26653 26.2944V26.2991Z" fill="#E66A44"/>
<path id="Vector_2" d="M15.5135 8.78896C18.2379 8.78896 20.9576 8.78896 23.6819 8.78896C24.4769 8.78896 24.993 9.47855 24.728 10.1775C24.5746 10.5875 24.2631 10.8111 23.8261 10.8531C23.7284 10.8624 23.6308 10.8531 23.5378 10.8531C18.1774 10.8531 12.8217 10.8531 7.46134 10.8531C7.31257 10.8531 7.15915 10.8577 7.01038 10.8251C6.48968 10.7086 6.14565 10.2147 6.20609 9.69754C6.26653 9.17569 6.69889 8.78896 7.25213 8.7843C8.72589 8.77964 10.1996 8.7843 11.6734 8.7843C12.9519 8.7843 14.235 8.7843 15.5135 8.7843V8.78896Z" fill="#E66A44"/>
<path id="Vector_3" d="M11.358 14.9999C10.0237 14.9999 8.6894 14.9999 7.35512 14.9999C6.6717 14.9999 6.20215 14.5759 6.20215 13.9655C6.20215 13.3505 6.66706 12.9312 7.35512 12.9312C10.033 12.9312 12.7155 12.9312 15.3934 12.9312C16.0721 12.9312 16.5417 13.3691 16.5324 13.9795C16.5231 14.5759 16.0582 14.9999 15.398 14.9999C14.0544 14.9999 12.7062 14.9999 11.3626 14.9999H11.358Z" fill="#E66A44"/>
</g>
<defs>
<clipPath id="clip0_1425_3868">
<rect width="31" height="29" fill="white" transform="translate(0 0.5)"/>
</clipPath>
</defs>
</svg>
