<svg width="33" height="22" viewBox="0 0 33 22" fill="none" xmlns="http://www.w3.org/2000/svg">
<g id="Group 932">
<g id="Group 931">
<path id="Vector" d="M10.6777 11.0997C9.98981 10.371 9.16241 9.9727 8.19069 9.94356C7.07946 9.90956 5.96343 9.9047 4.8522 9.94356C2.94244 10.0116 1.39346 11.6291 1.34054 13.5673C1.32611 14.1065 1.35016 14.6506 1.33092 15.1898C1.3213 15.4229 1.39346 15.5589 1.60993 15.6221C2.64419 15.933 3.67363 16.273 4.71751 16.5547C5.29958 16.7102 5.62188 17.1814 5.28996 17.5894C5.15526 17.7594 4.84258 17.9051 4.63092 17.8809C3.11561 17.7011 1.69652 17.1911 0.35439 16.477C0.200454 16.3944 0.0417079 16.1564 0.0368974 15.9864C0.0224659 15.0052 -0.0448811 14.0045 0.0801918 13.0378C0.339959 11.0268 1.48005 9.65696 3.34652 8.90404C3.43311 8.87003 3.5197 8.83117 3.6111 8.79231C1.45118 6.58211 2.07655 3.77929 3.65439 2.35116C5.34768 0.821017 7.87801 0.859877 9.51357 2.4726C11.0626 4.00273 11.4859 6.66469 9.45585 8.75831C9.88398 8.98176 10.3362 9.1712 10.7403 9.43351C11.1395 9.69582 11.4859 10.0407 11.8948 10.3807C12.2507 10.2593 12.6596 10.1184 13.107 9.96299C11.6302 8.68059 10.8461 7.09216 10.9952 5.12484C11.1107 3.63356 11.7649 2.39002 12.8761 1.40393C15.137 -0.607113 18.4515 -0.437097 20.4911 1.74396C22.5693 3.96873 22.6895 7.5682 19.9139 9.96299C20.3372 10.1136 20.7365 10.2544 21.1646 10.4099C21.8092 9.65696 22.6126 9.11777 23.6035 8.80203C22.5596 7.7625 22.0449 6.53354 22.2085 5.07626C22.3384 3.95902 22.8579 3.02636 23.7045 2.28801C25.4026 0.811302 27.856 0.898738 29.4675 2.46774C30.9588 3.92016 31.5072 6.63069 29.3905 8.80203C30.2661 9.1032 31.0405 9.56467 31.6563 10.2593C32.5222 11.226 32.9696 12.3578 32.9888 13.6596C32.9984 14.3785 32.9792 15.1023 32.9936 15.8261C32.9984 16.1758 32.8589 16.4041 32.5558 16.5547C31.2955 17.1862 29.9774 17.6477 28.5872 17.8809C28.5198 17.8906 28.4525 17.9003 28.3803 17.9051C27.9426 17.9343 27.654 17.7206 27.6058 17.3417C27.5626 16.9531 27.7838 16.6859 28.2023 16.579C28.972 16.3896 29.7561 16.2341 30.5114 15.9815C31.6755 15.5929 31.6851 15.5638 31.6611 14.3251C31.6515 13.747 31.6515 13.1399 31.4831 12.6007C31.0213 11.1045 29.987 10.1427 28.4381 10.0019C27.12 9.88041 25.7779 9.93384 24.4502 10.0019C23.6179 10.0407 22.9204 10.4828 22.3335 11.0948C22.651 11.4008 22.9637 11.668 23.2379 11.974C24.4502 13.3244 24.9889 14.9177 24.9553 16.7345C24.9408 17.5505 24.9553 18.3715 24.9697 19.1875C24.9793 19.5761 24.835 19.8336 24.479 20.0133C19.1394 22.6801 13.8093 22.6656 8.48894 19.9793C8.28209 19.8773 8.05118 19.5713 8.04637 19.3576C8.0127 18.2355 8.01751 17.1134 8.07524 15.9913C8.17626 14.0725 9.01809 12.5181 10.4709 11.2891C10.5334 11.2357 10.5911 11.1774 10.6681 11.1045L10.6777 11.0997ZM16.5177 11.0899C16.5177 11.0899 16.5177 11.1337 16.5177 11.158C15.8298 11.158 15.1467 11.1482 14.4588 11.158C12.0776 11.1968 9.91766 12.9455 9.5232 15.3112C9.33559 16.4333 9.41255 17.5991 9.39331 18.7504C9.39331 18.8524 9.53763 19.0078 9.65308 19.0612C14.223 21.1889 18.7978 21.1889 23.3726 19.0807C23.6035 18.9738 23.6564 18.8281 23.6516 18.5949C23.6324 17.8469 23.6276 17.0988 23.6228 16.3507C23.6083 13.9171 21.9968 11.8137 19.63 11.3231C18.6198 11.1142 17.5567 11.1628 16.5225 11.0899H16.5177ZM16.5128 1.32621C14.2327 1.32621 12.3085 3.25952 12.2989 5.55716C12.294 7.85966 14.2086 9.8124 16.4792 9.82212C18.7834 9.83184 20.7124 7.8888 20.7124 5.57173C20.7124 3.2741 18.7882 1.33106 16.5128 1.33106V1.32621ZM6.51182 8.57372C8.16182 8.57372 9.50876 7.22817 9.50876 5.57173C9.50876 3.92016 8.1522 2.55517 6.51182 2.56003C4.89069 2.56003 3.54856 3.9153 3.53894 5.5523C3.52932 7.20874 4.87145 8.57372 6.51182 8.57372ZM26.4802 8.57372C28.135 8.57372 29.4771 7.23789 29.4819 5.57659C29.4819 3.92501 28.1302 2.55517 26.4946 2.56003C24.8591 2.56003 23.5073 3.93473 23.5121 5.58631C23.5169 7.22331 24.8591 8.56886 26.4802 8.57372Z" fill="#E66A44"/>
</g>
</g>
</svg>
