<svg width="44" height="37" viewBox="0 0 44 37" fill="none" xmlns="http://www.w3.org/2000/svg">
<g id="Layer_1" clip-path="url(#clip0_1425_4160)">
<g id="Group 970">
<path id="Vector" d="M4.15594 22.6217C3.41915 22.6217 2.73417 22.6217 2.05494 22.6217C0.70225 22.616 0 22.0078 0 20.8372C0 19.1961 0 17.5494 0 15.9083C0 12.7983 1.92831 10.5777 5.382 9.70555C5.44532 9.68834 5.50288 9.66539 5.5662 9.64817C3.6494 7.10625 3.76452 4.95452 5.8943 3.34215C7.72475 1.9593 10.5222 1.9593 12.37 3.3651C13.4406 4.17989 14.0105 5.21272 14.0623 6.45786C14.1141 7.68005 13.6018 8.72436 12.7441 9.53915C13.6536 9.95228 14.6264 10.2793 15.438 10.7958C17.3145 11.9835 18.2125 13.659 18.247 15.6616C18.2758 17.4174 18.2585 19.1732 18.247 20.9348C18.247 21.9791 17.4929 22.6217 16.2784 22.6332C15.5646 22.6389 14.8451 22.6332 14.0623 22.6332C14.0623 22.8398 14.0623 23.0062 14.0623 23.1726C14.0623 26.885 14.0623 30.5975 14.0623 34.31C14.0623 35.6067 13.3773 36.1977 11.8692 36.1977C10.0042 36.1977 8.13919 36.1977 6.2742 36.1977C4.87546 36.1977 4.15018 35.5723 4.15018 34.3673C4.15018 30.6377 4.15018 26.9137 4.15018 23.184C4.15018 23.0176 4.15018 22.8512 4.15018 22.6332L4.15594 22.6217ZM14.068 21.2618C14.8048 21.2618 15.4898 21.2503 16.1748 21.2618C16.5604 21.2733 16.6871 21.1413 16.6871 20.8143C16.6756 19.0986 16.7101 17.383 16.6756 15.6673C16.6238 13.0565 14.5285 11.0827 11.5526 10.9163C9.9236 10.8245 8.27734 10.8245 6.64835 10.9163C3.9775 11.0712 1.8765 12.7237 1.65201 15.0246C1.45631 16.9928 1.5887 18.9896 1.59445 20.9749C1.59445 21.0667 1.77289 21.2331 1.8765 21.2389C2.6248 21.2618 3.36735 21.2503 4.13867 21.2503C4.15018 21.1069 4.1617 21.0093 4.1617 20.9118C4.1617 20.1027 4.1617 19.2937 4.1617 18.4904C4.1617 17.951 4.46677 17.6526 4.9618 17.6584C5.44532 17.6641 5.71586 17.951 5.72737 18.4732C5.72737 18.5994 5.72737 18.7256 5.72737 18.8576C5.72737 23.9472 5.72737 29.0368 5.72737 34.1263C5.72737 34.2698 5.69859 34.419 5.74464 34.5509C5.77917 34.6485 5.91732 34.7919 6.01517 34.7977C6.78074 34.8149 7.54055 34.8092 8.34066 34.8092C8.34066 34.5911 8.34066 34.4247 8.34066 34.2526C8.34066 31.3033 8.34066 28.3539 8.34066 25.4046C8.34066 25.2612 8.32915 25.1177 8.35217 24.98C8.40398 24.6415 8.63422 24.4349 9.01988 24.3947C9.42857 24.3488 9.72789 24.5152 9.84877 24.8538C9.90633 25.0087 9.91209 25.1866 9.91209 25.3587C9.91209 28.3367 9.91209 31.3147 9.91209 34.287V34.8149C10.5856 34.8149 11.1842 34.8149 11.7886 34.8149C12.2606 34.8149 12.4966 34.6122 12.4966 34.2067C12.4966 29.031 12.4966 23.8611 12.4966 18.6855C12.4966 17.9797 12.7384 17.6698 13.2852 17.6698C13.8263 17.6698 14.068 17.974 14.068 18.6797C14.068 19.5289 14.068 20.3724 14.068 21.2676V21.2618ZM9.0832 9.5162C10.9597 9.53341 12.4736 8.27106 12.5024 6.65869C12.5369 5.02337 11.0633 3.6979 9.1753 3.66347C7.32182 3.62905 5.7619 4.95452 5.73888 6.57836C5.71586 8.17925 7.21821 9.50472 9.07745 9.52194L9.0832 9.5162Z" fill="#E66A44"/>
<path id="Vector_2" d="M31.8172 0.186857C38.1144 0.209809 43.2201 4.65099 43.1913 10.0848C43.1625 15.5359 38.005 19.9656 31.7481 19.9197C25.4221 19.8738 20.3797 15.4613 20.4142 10.0045C20.4488 4.56493 25.5602 0.163905 31.8172 0.186857ZM31.0171 1.60987C27.7361 1.74758 23.7355 3.61816 22.4001 7.49703C21.105 11.2669 22.7915 15.1744 26.6136 17.2688C30.2054 19.2426 34.6665 18.7377 37.1646 17.1081C37.0898 17.0163 37.015 16.9245 36.9344 16.8384C35.0867 14.7957 33.2505 12.753 31.3912 10.7218C31.1207 10.4234 31.0113 10.125 31.0113 9.75205C31.0228 7.19865 31.0171 4.65099 31.0171 2.0976C31.0171 1.94267 31.0171 1.79349 31.0171 1.60987ZM32.6173 1.60987C32.6058 1.69594 32.5885 1.75332 32.5885 1.8107C32.5885 4.40426 32.5827 6.99782 32.6 9.59138C32.6 9.76926 32.7209 9.97009 32.8475 10.1135C34.6262 12.0931 36.4106 14.067 38.2007 16.0351C38.2756 16.1212 38.3677 16.1958 38.4483 16.2704C41.3091 14.1416 42.3797 10.3373 41.0213 7.14701C39.4383 3.43455 35.5587 1.73611 32.6173 1.60987Z" fill="#E66A44"/>
<path id="Vector_3" d="M36.6796 28.395C34.8146 28.395 32.9496 28.395 31.0846 28.395C30.0197 28.395 29.375 27.8384 29.375 26.9146C29.375 26.0367 29.375 25.1588 29.375 24.2808C29.375 23.3857 30.0254 22.8062 31.05 22.8004C34.8146 22.7947 38.5733 22.7947 42.3378 22.8004C43.3452 22.8004 43.9899 23.38 43.9956 24.2464C44.0014 25.153 44.0014 26.0596 43.9956 26.9662C43.9899 27.8384 43.3394 28.3892 42.3206 28.395C40.4383 28.395 38.5561 28.395 36.6738 28.395H36.6796ZM42.4127 24.189H30.9752V27.0006H42.4127V24.189Z" fill="#E66A44"/>
<path id="Vector_4" d="M36.6833 30.5812C38.4964 30.5812 40.3154 30.5812 42.1286 30.5812C43.4122 30.5812 43.9936 31.0861 43.9936 32.1821C43.9936 32.9911 43.9936 33.8002 43.9936 34.6035C43.9936 35.6421 43.3892 36.17 42.1804 36.1757C40.2808 36.1814 38.3871 36.1757 36.4875 36.1757C34.7377 36.1757 32.9878 36.1757 31.2379 36.1757C29.9716 36.1757 29.3672 35.6535 29.3672 34.5633C29.3672 33.7428 29.3672 32.9165 29.3672 32.096C29.3672 31.1148 29.9889 30.5812 31.1343 30.5754C32.982 30.5754 34.8298 30.5754 36.6775 30.5754L36.6833 30.5812ZM30.9616 34.7814H42.3876V31.964H30.9616V34.7814Z" fill="#E66A44"/>
<path id="Vector_5" d="M20.4087 33.3409C20.4087 32.8589 20.3914 32.3769 20.4087 31.8949C20.4375 31.1605 21.0591 30.6039 21.8995 30.5867C23.045 30.5637 24.1847 30.5695 25.3302 30.5867C26.1475 30.5981 26.7922 31.0974 26.8268 31.7916C26.8728 32.836 26.8728 33.886 26.8268 34.9303C26.798 35.6017 26.2166 36.1181 25.4453 36.141C24.225 36.1812 22.9932 36.1812 21.7729 36.141C20.99 36.1123 20.4317 35.55 20.4087 34.8672C20.3856 34.3565 20.4087 33.8458 20.4087 33.3409ZM22.0204 31.958V34.7754H25.2496V31.958H22.0204Z" fill="#E66A44"/>
<path id="Vector_6" d="M23.6024 28.3946C23.0613 28.3946 22.526 28.4003 21.9849 28.3946C21.0927 28.3831 20.4365 27.8323 20.4192 27.0576C20.4019 26.0937 20.4019 25.1354 20.4192 24.1714C20.4307 23.3968 21.0581 22.8288 21.9561 22.8058C23.067 22.7771 24.178 22.7829 25.2889 22.8058C26.1926 22.823 26.8316 23.3624 26.8603 24.1485C26.8949 25.1125 26.8891 26.0764 26.8603 27.0347C26.8373 27.8667 26.1869 28.3888 25.2198 28.3946C24.6788 28.3946 24.1434 28.3946 23.6024 28.3946ZM25.2659 24.1829H22.0137V27.006H25.2659V24.1829Z" fill="#E66A44"/>
</g>
</g>
<defs>
<clipPath id="clip0_1425_4160">
<rect width="44" height="36" fill="white" transform="translate(0 0.186768)"/>
</clipPath>
</defs>
</svg>
