<svg width="29" height="26" viewBox="0 0 29 26" fill="none" xmlns="http://www.w3.org/2000/svg">
<path id="Vector" d="M0 8.12053C0.0958299 7.55079 0.148101 6.97228 0.296201 6.42007C1.05413 3.48371 2.76164 1.34499 5.67139 0.41587C8.7815 -0.574604 11.4996 0.223035 13.7385 2.60718C13.9999 2.88767 14.2351 3.19446 14.5052 3.51001C14.7578 3.21199 14.993 2.9052 15.2544 2.62472C16.4914 1.28363 17.9725 0.345748 19.8019 0.117852C22.6246 -0.241524 25.0377 0.626236 26.8933 2.80879C28.749 4.99133 29.2891 7.57709 28.8622 10.382C28.5921 12.1613 27.7819 13.7128 26.7278 15.1327C25.3426 16.9997 23.6525 18.5863 21.9189 20.1026C19.8629 21.8995 17.8069 23.6789 15.7422 25.467C14.9495 26.1507 14.0957 26.1857 13.3378 25.5196C10.6458 23.1705 7.95388 20.8302 5.29678 18.446C3.94645 17.2364 2.73551 15.8866 1.75107 14.3526C0.81891 12.9151 0.19166 11.3549 0.043559 9.61939C0.043559 9.55803 0.0174236 9.48791 0 9.42655C0 8.98829 0 8.55003 0 8.11177V8.12053ZM14.4964 24.2749C14.5748 24.2135 14.6271 24.1697 14.6881 24.1259C16.9793 22.1274 19.2879 20.1552 21.5617 18.1392C23.1473 16.728 24.6631 15.2379 25.8392 13.4498C26.963 11.7406 27.5119 9.89111 27.2592 7.83128C26.9805 5.61367 26.0396 3.77296 24.0794 2.61595C22.2587 1.53782 20.3334 1.40634 18.3906 2.33546C17.2494 2.88767 16.3956 3.79049 15.69 4.83356C15.5854 4.98257 15.4983 5.14034 15.3938 5.28059C14.9233 5.92045 14.0957 5.92045 13.6166 5.28059C13.2071 4.72838 12.8238 4.14111 12.3533 3.64149C10.8375 2.02868 8.95574 1.39758 6.79521 1.8709C4.46044 2.37929 2.92717 3.86938 2.15182 6.10452C1.24579 8.7078 1.68138 11.1533 3.1711 13.4323C4.09455 14.8435 5.22708 16.0882 6.47287 17.2101C8.52886 19.0683 10.6284 20.8827 12.7105 22.7147C13.3029 23.2318 13.8953 23.7402 14.4964 24.2574V24.2749Z" fill="#E66A44"/>
</svg>
