<svg width="78" height="78" viewBox="0 0 78 78" fill="none" xmlns="http://www.w3.org/2000/svg">
<g id="Layer_1" clip-path="url(#clip0_1425_4349)">
<path id="Vector" d="M36.3164 0.267548C37.9271 0.267548 39.5378 0.267548 41.1485 0.267548C41.3612 0.297938 41.5739 0.358719 41.8171 0.389109C43.8836 0.723402 45.9805 0.875354 47.9863 1.39199C68.1959 6.34561 80.8686 26.464 76.6747 46.8559C73.1191 64.1784 58.0759 77.0031 40.4495 77.702C30.8462 78.0971 22.1849 75.3316 14.6481 69.3143C6.98977 63.1755 2.30966 55.274 0.577416 45.6099C0.334293 44.2119 0.182342 42.814 0 41.416C0 39.8053 0 38.1947 0 36.584C0.121561 35.6723 0.212732 34.7302 0.334293 33.8184C1.42834 25.9474 4.61933 18.988 9.93763 13.0923C15.9245 6.49756 23.3398 2.36448 32.1226 0.844963C33.5205 0.601841 34.9185 0.449889 36.3164 0.267548ZM67.6792 58.2826C76.2189 46.0961 76.3101 26.2817 62.2393 13.2442C48.7157 0.723403 27.2905 1.14887 14.1315 14.3383C0.820538 27.6188 1.67147 46.9471 9.78568 58.2826C14.7393 51.1409 21.3948 46.3696 29.8129 43.9992C21.6987 38.2858 21.2124 26.8287 27.716 20.3252C33.7332 14.2775 43.5189 14.2167 49.6274 20.234C56.1309 26.6159 55.8878 38.1947 47.652 43.9992C56.0701 46.3696 62.7256 51.1409 67.6792 58.2826ZM65.248 61.5648C58.9572 52.1134 50.2048 46.7951 38.7476 46.7951C27.2905 46.7951 18.5381 52.083 12.2473 61.5648C25.9533 77.9452 51.6027 77.9148 65.2784 61.5648H65.248ZM39.0515 42.8748C45.6159 42.5709 50.6303 37.2222 50.3567 30.8098C50.0832 24.2759 44.5826 19.2919 38.0183 19.6566C31.7579 19.9909 26.7739 25.5219 27.1082 31.7823C27.4424 38.1643 32.8519 43.1787 39.0515 42.8748Z" fill="#E66A44"/>
</g>
<defs>
<clipPath id="clip0_1425_4349">
<rect width="77.4953" height="77.4649" fill="white" transform="translate(0 0.267548)"/>
</clipPath>
</defs>
</svg>
