<svg width="44" height="40" viewBox="0 0 44 40" fill="none" xmlns="http://www.w3.org/2000/svg">
<g id="DESIGNED_BY_FREEPIK" clip-path="url(#clip0_1425_3786)">
<path id="Vector" d="M43.1304 39.17C42.8804 39.63 42.5004 39.77 41.9804 39.77C39.8004 39.75 37.6304 39.77 35.4504 39.77C34.6404 39.77 34.3604 39.49 34.3604 38.68C34.3604 35.45 34.3604 32.22 34.3604 29C34.3604 28.24 34.9504 27.78 35.5604 28.08C35.9504 28.27 36.0504 28.62 36.0504 29.03C36.0504 31.88 36.0504 34.73 36.0504 37.58C36.0504 37.73 36.0504 37.88 36.0504 38.07H41.4203V12.01H36.0504V12.48C36.0504 15.33 36.0504 18.18 36.0504 21.03C36.0504 21.28 35.9804 21.56 35.8404 21.77C35.6504 22.07 35.3104 22.14 34.9804 22.04C34.6404 21.94 34.4404 21.7 34.3904 21.34C34.3704 21.22 34.3804 21.09 34.3804 20.96C34.3804 17.77 34.3804 14.59 34.3804 11.4C34.3804 10.57 34.6604 10.29 35.4904 10.29C37.6404 10.29 39.7904 10.3 41.9304 10.29C42.4504 10.29 42.8604 10.41 43.1404 10.87V39.18L43.1304 39.17Z" fill="#E66A44"/>
<path id="Vector_2" d="M29.3001 10.8599C31.3901 8.9899 33.4901 7.1099 35.6201 5.2099C35.1301 4.1999 35.0601 3.1599 35.5101 2.1299C35.8501 1.3599 36.4001 0.769902 37.1501 0.389902C38.6401 -0.370098 40.4501 0.0199016 41.4901 1.3099C42.5601 2.6399 42.5401 4.4999 41.4601 5.8099C40.6101 6.8399 38.7801 7.6899 36.7401 6.4699C36.0501 7.0899 35.3501 7.7099 34.6501 8.3399C33.3201 9.5299 31.9901 10.7199 30.6601 11.8999C30.5001 12.0399 30.4301 12.1499 30.5201 12.3899C31.1001 13.8199 30.8801 15.1399 29.8101 16.2399C28.7801 17.3099 27.5001 17.6099 26.1001 17.1099C24.6501 16.5899 23.8901 15.4999 23.7501 13.9699C23.7501 13.9399 23.7501 13.9099 23.7301 13.8299C23.0901 13.6799 22.4301 13.5199 21.7701 13.3599C20.9401 13.1599 20.1101 12.9599 19.2701 12.7799C19.1501 12.7499 18.9501 12.7799 18.8801 12.8599C17.3101 14.7699 16.0101 15.0899 13.8201 14.0599C11.7201 15.9799 9.61007 17.9199 7.51007 19.8399C8.24007 22.0399 7.77006 23.6899 6.15006 24.6199C4.68006 25.4699 2.82006 25.1599 1.71006 23.8799C0.610065 22.5999 0.550065 20.7599 1.58006 19.4199C2.69006 17.9599 4.43006 17.6599 6.37006 18.6099C8.47006 16.6899 10.5801 14.7499 12.7001 12.8099C12.2901 11.9899 12.1701 11.1499 12.3801 10.2699C12.7801 8.5999 14.2901 7.4899 16.0701 7.5799C17.7101 7.6599 19.1101 8.9699 19.3001 10.6499C19.3401 10.9599 19.4301 11.0999 19.7601 11.1699C21.1001 11.4599 22.4401 11.7899 23.7701 12.1099C23.9601 12.1499 24.1101 12.2099 24.2701 11.9799C25.5101 10.1899 27.3301 9.7899 29.3001 10.8699V10.8599ZM38.7701 1.6799C37.7601 1.6799 36.9101 2.4899 36.9001 3.5099C36.8901 4.5299 37.7001 5.3699 38.7101 5.3899C39.7401 5.4099 40.6001 4.5699 40.6001 3.5399C40.6001 2.5299 39.7801 1.6899 38.7601 1.6799H38.7701ZM2.53006 21.5599C2.53006 22.5699 3.36006 23.4099 4.37006 23.4099C5.38006 23.4099 6.22006 22.5899 6.23006 21.5799C6.23006 20.5499 5.40006 19.6999 4.37006 19.7099C3.36006 19.7099 2.53006 20.5499 2.53006 21.5599ZM27.3101 11.9399C26.2801 11.9399 25.4501 12.7299 25.4401 13.7499C25.4301 14.7799 26.2601 15.6399 27.2901 15.6399C28.3001 15.6399 29.1401 14.7999 29.1401 13.7999C29.1401 12.7799 28.3301 11.9499 27.3101 11.9499V11.9399ZM13.9701 11.0799C13.9701 12.0999 14.7801 12.9299 15.7901 12.9499C16.8001 12.9699 17.6801 12.0899 17.6701 11.0799C17.6601 10.0599 16.8301 9.2499 15.8101 9.2499C14.7801 9.2499 13.9701 10.0599 13.9701 11.0899V11.0799Z" fill="#E66A44"/>
<path id="Vector_3" d="M11.4404 28.7801C11.4404 25.5401 11.4404 22.3001 11.4404 19.0601C11.4404 18.0801 11.6704 17.8601 12.6604 17.8601C14.8204 17.8601 16.9804 17.8601 19.1404 17.8601C19.8904 17.8601 20.2004 18.1601 20.2004 18.9001C20.2004 25.5101 20.2004 32.1201 20.2004 38.7301C20.2004 39.4701 19.8904 39.7601 19.1304 39.7601C16.9104 39.7601 14.7004 39.7601 12.4804 39.7601C11.7304 39.7601 11.4404 39.4701 11.4404 38.7201C11.4404 35.4101 11.4404 32.1001 11.4404 28.7901V28.7801ZM18.4904 19.5701H13.1504V38.0501H18.4904V19.5701Z" fill="#E66A44"/>
<path id="Vector_4" d="M22.9102 30.1601C22.9102 27.3301 22.9102 24.4901 22.9102 21.6601C22.9102 20.8301 23.1802 20.5601 24.0202 20.5601C26.2102 20.5601 28.4002 20.5601 30.5902 20.5601C31.3902 20.5601 31.6702 20.8501 31.6702 21.6601C31.6702 27.3301 31.6702 33.0001 31.6702 38.6701C31.6702 39.5001 31.3902 39.7701 30.5502 39.7701C28.3802 39.7701 26.2002 39.7701 24.0302 39.7701C23.1702 39.7701 22.9102 39.5001 22.9102 38.6301C22.9102 35.8101 22.9102 32.9901 22.9102 30.1701V30.1601ZM29.9602 38.0601V22.2601H24.6202V38.0601H29.9602Z" fill="#E66A44"/>
<path id="Vector_5" d="M0.000234375 34.0601C0.000234375 32.5201 0.000234375 30.9701 0.000234375 29.4301C0.000234375 28.6201 0.280234 28.3301 1.08023 28.3201C3.28023 28.3201 5.49023 28.3201 7.69023 28.3201C8.47023 28.3201 8.76023 28.6201 8.76023 29.3901C8.76023 32.4901 8.76023 35.5901 8.76023 38.7001C8.76023 39.4501 8.46023 39.7601 7.72023 39.7601C5.49023 39.7601 3.26023 39.7601 1.02023 39.7601C0.300234 39.7601 -0.00976562 39.4501 -0.00976562 38.7401C-0.00976562 37.1801 -0.00976562 35.6201 -0.00976562 34.0701L0.000234375 34.0601ZM7.07023 30.0401H1.71023V38.0401H7.06023V30.0401H7.07023Z" fill="#E66A44"/>
<path id="Vector_6" d="M36.0501 25.0099C36.0501 25.4699 35.7001 25.8499 35.2401 25.8599C34.7601 25.8699 34.3701 25.4999 34.3701 25.0199C34.3701 24.5699 34.7601 24.1899 35.2001 24.1799C35.6501 24.1799 36.0401 24.5599 36.0501 25.0099Z" fill="#E66A44"/>
</g>
<defs>
<clipPath id="clip0_1425_3786">
<rect width="43.13" height="39.77" fill="white"/>
</clipPath>
</defs>
</svg>
