<svg width="37" height="24" viewBox="0 0 37 24" fill="none" xmlns="http://www.w3.org/2000/svg">
<g id="Group 933">
<path id="Vector" d="M0 11.7871C0.177251 11.4956 0.324117 11.1843 0.536819 10.9225C3.14495 7.73585 6.16835 5.00374 9.80453 2.96331C12.1949 1.61455 14.7473 0.710435 17.5276 0.532577C20.075 0.364599 22.5059 0.85371 24.8405 1.82699C28.188 3.22516 31.0494 5.31005 33.5917 7.8149C34.6501 8.85734 35.6123 9.98378 36.5898 11.1003C37.1468 11.7327 37.1266 12.2564 36.5898 12.9086C33.9614 16.1545 30.9076 18.9409 27.2208 21.0159C24.324 22.6463 21.2347 23.6295 17.8416 23.4862C15.512 23.3874 13.3141 22.7748 11.2327 21.7718C6.86216 19.6721 3.36271 16.5547 0.359567 12.8542C0.207637 12.6665 0.121544 12.4244 0 12.212C0 12.0687 0 11.9303 0 11.7871ZM2.76006 11.9748C2.89679 12.1329 2.98795 12.2564 3.0943 12.3602C4.21858 13.4866 5.29729 14.6624 6.4874 15.7197C8.78154 17.7602 11.334 19.4251 14.3017 20.4083C16.0792 20.9962 17.9024 21.2482 19.7762 21.0456C22.1767 20.7887 24.3543 19.9192 26.4105 18.7186C29.0794 17.1574 31.3583 15.1516 33.4296 12.9036C33.698 12.6072 33.9563 12.3058 34.25 11.9748C33.541 11.2238 32.8725 10.4828 32.1635 9.78122C29.7782 7.41965 27.1448 5.39898 24.0049 4.06999C22.44 3.40796 20.8093 2.97319 19.0925 2.89414C16.4692 2.77557 14.0535 3.487 11.7543 4.64803C9.18669 5.94244 6.96345 7.69632 4.93772 9.69229C4.19833 10.4235 3.49945 11.1991 2.77019 11.9748H2.76006Z" fill="#E66A44"/>
<path id="Vector_2" d="M25.9998 12.0312C25.9686 16.1941 22.5759 19.5463 18.4506 19.4995C14.2941 19.4527 10.9742 16.0902 11.0002 11.9688C11.0313 7.80588 14.4188 4.45371 18.5493 4.50048C22.7006 4.54726 26.031 7.90983 25.9998 12.0312ZM23.5007 12.0156C23.5163 9.26629 21.2978 7.02631 18.5233 7.00032C15.7801 6.96914 13.4888 9.2507 13.4992 12.0104C13.5044 14.7649 15.7385 17.0049 18.4974 17.0101C21.2458 17.0153 23.4851 14.7857 23.5007 12.0208V12.0156Z" fill="#E66A44"/>
</g>
</svg>
