<svg width="17" height="10" viewBox="0 0 17 10" fill="none" xmlns="http://www.w3.org/2000/svg">
<g id="Group 820">
<g id="Group 817">
<g id="Group 819">
<g id="Group 815">
<path id="chevron.down" d="M8.44433 9.56738C8.75195 9.5586 9.0332 9.44434 9.26172 9.19824L15.9414 2.36035C16.1348 2.16699 16.2402 1.9209 16.2402 1.63086C16.2402 1.05078 15.7832 0.584964 15.2031 0.584963C14.9219 0.584963 14.6494 0.699221 14.4473 0.90137L8.45312 7.0625L2.44141 0.901368C2.23926 0.708008 1.97559 0.584961 1.68555 0.584961C1.10547 0.584961 0.648437 1.05078 0.648437 1.63086C0.648437 1.9209 0.753906 2.16699 0.947265 2.36035L7.63574 9.19824C7.87305 9.44434 8.13672 9.56738 8.44433 9.56738Z" fill="#E66A44"/>
</g>
</g>
</g>
</g>
</svg>
