<svg width="24" height="25" viewBox="0 0 24 25" fill="none" xmlns="http://www.w3.org/2000/svg">
<g id="Group 808">
<path id="Vector" d="M10.0439 10.5395C9.89025 9.40981 9.98699 8.2922 9.97276 7.17761C9.95854 6.05698 9.97561 4.93636 9.96707 3.81574C9.96138 3.26145 10.2061 2.85176 10.5873 2.51136C11.2133 1.95406 11.9588 1.65281 12.7355 1.44194C15.6007 0.667751 18.4688 0.664738 21.3255 1.47508C21.8803 1.63173 22.4124 1.90285 22.9245 2.183C23.2147 2.34266 23.4623 2.61077 23.6927 2.86983C23.9488 3.15601 23.9972 3.53257 23.9972 3.92117C23.9915 7.37642 23.9972 10.8287 23.9972 14.2839C23.9972 15.7178 23.983 17.1517 24.0029 18.5827C24.0143 19.2454 23.7582 19.7304 23.283 20.116C22.6371 20.6401 21.8888 20.9263 21.1121 21.1372C18.8444 21.7517 16.5511 21.7999 14.2435 21.4445C14.1838 21.4354 14.124 21.4294 14.0358 21.4173C14.0358 21.5559 14.0301 21.6824 14.0358 21.809C14.0757 22.4386 13.8054 22.9055 13.3615 23.279C12.7668 23.7821 12.0726 24.0653 11.3499 24.2761C9.42931 24.8364 7.4746 24.9569 5.49713 24.7913C4.32487 24.6919 3.16684 24.5051 2.0714 24.0502C1.57632 23.8454 1.10116 23.5592 0.662982 23.2459C0.196355 22.9175 -0.00281525 22.4175 3.0033e-05 21.8029C0.0142565 18.9833 0.0142565 16.1637 3.0033e-05 13.344C-0.00281525 12.7295 0.219117 12.2626 0.654446 11.889C1.32878 11.3076 2.13115 11.0094 2.95913 10.7895C5.26381 10.178 7.59126 10.1388 9.93008 10.5274C9.96992 10.5334 10.0098 10.5395 10.0439 10.5425V10.5395ZM6.90839 15.1696C8.39932 15.1575 9.76221 15.034 11.091 14.6334C11.734 14.4376 12.3656 14.2026 12.8892 13.7417C13.3444 13.341 13.3643 12.9223 12.8835 12.5668C12.4624 12.2566 11.9958 11.9794 11.5092 11.8167C8.66962 10.8708 5.80442 10.8889 2.94206 11.6812C2.35877 11.8439 1.79256 12.1481 1.27187 12.4795C0.637374 12.8831 0.651601 13.3953 1.26334 13.8321C1.55356 14.0399 1.87507 14.2207 2.20228 14.3592C3.75296 15.0039 5.38331 15.1455 6.91123 15.1696H6.90839ZM17.3961 1.73716C15.8284 1.7221 14.6988 1.82452 13.5834 2.08359C12.7611 2.27337 11.9531 2.51738 11.2475 3.03552C10.6044 3.51148 10.6073 3.98142 11.2475 4.45738C11.7795 4.85201 12.3799 5.09301 13.003 5.25869C15.4556 5.9154 17.9253 5.93046 20.3979 5.40329C21.2145 5.22856 22.014 4.97552 22.7083 4.45738C23.3513 3.97841 23.3712 3.47834 22.7026 3.04757C22.2132 2.73126 21.6726 2.48123 21.1263 2.29747C19.7748 1.84561 18.3749 1.7462 17.3961 1.74017V1.73716ZM23.1948 5.16832C21.2429 6.35521 19.1232 6.60223 16.9693 6.59922C14.8183 6.59922 12.7014 6.34316 10.7581 5.1653C10.7581 5.67139 10.778 6.14736 10.7524 6.62332C10.7296 7.04205 10.8861 7.35534 11.2048 7.54813C11.6401 7.81021 12.0868 8.06326 12.5534 8.23798C13.7058 8.66876 14.9122 8.82239 16.13 8.87661C17.9253 8.95494 19.7008 8.83143 21.425 8.24099C21.9543 8.06025 22.4778 7.84335 22.8847 7.43065C23.0298 7.28304 23.1635 7.0541 23.1806 6.85226C23.2204 6.304 23.1948 5.75273 23.1948 5.17133V5.16832ZM0.802401 14.54C0.802401 15.0491 0.830854 15.513 0.793865 15.9739C0.756876 16.4559 0.950356 16.7963 1.3174 16.9921C1.86938 17.2873 2.43275 17.5976 3.02742 17.7663C5.47436 18.4622 7.94692 18.4531 10.4195 17.935C11.2446 17.7633 12.047 17.4982 12.7555 16.9831C13.0827 16.7421 13.2733 16.4408 13.242 15.989C13.2135 15.5883 13.2392 15.1816 13.2363 14.778C13.2363 14.7117 13.2221 14.6454 13.2135 14.5641C13.0001 14.6906 12.818 14.8111 12.6246 14.9105C12.4226 15.0159 12.2177 15.1184 12.0043 15.1937C9.32688 16.1516 6.59825 16.2089 3.84117 15.7088C2.77988 15.516 1.75273 15.1997 0.799556 14.543L0.802401 14.54ZM13.2335 17.6639C12.5705 18.1338 11.8933 18.4049 11.1877 18.6037C9.35818 19.1128 7.49452 19.2333 5.61663 19.0857C4.396 18.9893 3.18675 18.7935 2.03441 18.3266C1.619 18.1579 1.2235 17.935 0.802401 17.7301C0.802401 18.1217 0.83939 18.5194 0.793865 18.908C0.722733 19.5376 1.0158 19.9141 1.48812 20.1973C1.62469 20.2786 1.76126 20.357 1.90353 20.4263C2.80264 20.8661 3.75581 21.089 4.73174 21.2155C6.8401 21.4896 8.93708 21.4384 11.0028 20.8661C11.6173 20.6944 12.212 20.4654 12.7355 20.0768C12.9717 19.9021 13.2135 19.7033 13.2278 19.3689C13.2505 18.8206 13.2335 18.2724 13.2335 17.6639ZM10.7609 8.32534C10.7609 8.70491 10.7979 9.09351 10.7524 9.46705C10.6755 10.1207 10.9771 10.5093 11.4694 10.7985C11.6429 10.901 11.8165 11.0064 12.0015 11.0877C12.8977 11.4733 13.8338 11.6902 14.7898 11.8258C16.3804 12.0517 17.9737 12.0065 19.5585 11.7655C20.5459 11.6149 21.5132 11.3679 22.4067 10.8618C22.9473 10.5575 23.2944 10.1599 23.2062 9.44596C23.1607 9.07543 23.1977 8.68984 23.1977 8.34341C22.6912 8.57838 22.2189 8.83444 21.7238 9.01518C20.2073 9.56646 18.6338 9.73516 17.0376 9.74118C15.339 9.7472 13.6631 9.55742 12.0527 8.9459C11.6173 8.78022 11.2076 8.54223 10.7638 8.32534H10.7609ZM0.802401 20.7426C0.802401 21.1312 0.816628 21.4776 0.799556 21.824C0.782484 22.1403 0.884914 22.3994 1.12107 22.5621C1.47389 22.8061 1.83524 23.0531 2.2222 23.2218C3.39161 23.7218 4.62647 23.9086 5.87839 23.9839C7.66239 24.0894 9.43785 24.0171 11.1592 23.4568C11.7141 23.276 12.2405 22.9778 12.764 22.6976C13.003 22.5711 13.2135 22.3482 13.2306 22.0379C13.2562 21.6222 13.2363 21.2035 13.2363 20.7697C13.1879 20.7817 13.1595 20.7847 13.1396 20.7968C12.4482 21.2758 11.6771 21.5499 10.8833 21.7517C9.05089 22.2156 7.19576 22.309 5.32641 22.1222C3.75865 21.9656 2.21935 21.6734 0.802401 20.7426ZM14.0387 17.8808C14.1041 17.8988 14.1525 17.9199 14.2037 17.9259C16.3405 18.2784 18.4716 18.2543 20.5885 17.7512C21.3425 17.5705 22.0852 17.3325 22.7168 16.8354C22.9074 16.6848 23.1436 16.4499 23.1664 16.233C23.2261 15.6214 23.1863 14.9979 23.1863 14.4014C20.267 16.001 17.177 15.9649 14.0387 15.5883V17.8838V17.8808ZM23.192 11.401C20.2243 13.0097 17.1031 12.9976 13.9932 12.5879V14.7267C14.7386 14.8021 15.4272 14.8985 16.1186 14.9346C17.914 15.025 19.6923 14.9045 21.4108 14.299C21.8746 14.1363 22.3099 13.8772 22.7396 13.6242C22.9729 13.4856 23.1806 13.2717 23.1891 12.9554C23.2034 12.4343 23.192 11.9101 23.192 11.404V11.401ZM23.192 17.6126C20.2613 19.1972 17.1799 19.1791 14.0501 18.7935V20.5829C16.3917 20.9625 18.6993 20.9354 20.984 20.3088C21.6071 20.1371 22.2189 19.9141 22.731 19.4864C22.9245 19.3267 23.1322 19.0827 23.1749 18.8477C23.246 18.4441 23.1948 18.0133 23.1948 17.6126H23.192Z" fill="#E66A44"/>
</g>
</svg>
