<svg width="18" height="20" viewBox="0 0 18 20" fill="none" xmlns="http://www.w3.org/2000/svg">
<g id="Group 811">
<g id="Group 810">
<path id="Vector" d="M0.227502 19.0851C0.151956 18.9786 0.0336015 18.8819 0.00590142 18.7658C-0.0318714 18.6037 0.116702 18.4706 0.308084 18.4513C0.403775 18.4416 0.501984 18.4464 0.597675 18.444C0.685812 18.444 0.773948 18.444 0.884749 18.444C0.884749 18.3448 0.884749 18.2674 0.884749 18.19C0.884749 14.3048 0.884749 10.4197 0.884749 6.53695C0.884749 6.14747 0.975403 6.06038 1.38587 6.06038C2.1791 6.06038 2.96981 6.06038 3.76304 6.06038H3.98967C3.98967 5.96845 3.98967 5.89588 3.98967 5.8233C3.98967 5.06127 3.98967 4.30166 3.98967 3.53963C3.98967 3.17433 4.10551 3.06547 4.48576 3.06305C4.76024 3.06305 5.03472 3.06305 5.32935 3.06305C5.32935 2.63486 5.32935 2.22845 5.32935 1.82203C5.32935 1.464 5.43763 1.35755 5.8078 1.35513C6.23086 1.35513 6.65643 1.35513 7.10467 1.35513C7.10467 1.09145 7.10467 0.839855 7.10467 0.588263C7.10467 0.520527 7.09963 0.452791 7.10719 0.385055C7.12482 0.215714 7.25576 0.0947569 7.41944 0.0850803C7.59823 0.0754037 7.74177 0.181846 7.76192 0.365702C7.78206 0.561653 7.77451 0.760023 7.77954 0.958393C7.77954 1.08177 7.77954 1.20515 7.77954 1.35513C7.99863 1.35513 8.20008 1.35513 8.40405 1.35513C8.64328 1.35513 8.87999 1.35271 9.11922 1.35513C9.42896 1.35997 9.55235 1.47367 9.55487 1.77123C9.5599 2.18006 9.5599 2.58648 9.5599 2.99532C9.5599 3.00741 9.56746 3.01951 9.57501 3.04612H10.2146C10.2146 2.68809 10.2146 2.33489 10.2146 1.98411C10.2146 1.88493 10.2121 1.78574 10.2197 1.68656C10.2373 1.48577 10.3355 1.389 10.5445 1.35997C10.6024 1.35271 10.6604 1.35271 10.7183 1.35271C12.6825 1.35271 14.6466 1.35271 16.6108 1.35271C17.0087 1.35271 17.1094 1.4519 17.1094 1.83654C17.1094 7.28689 17.1094 12.7348 17.1094 18.1852C17.1094 18.2626 17.1094 18.3424 17.1094 18.4392C17.2706 18.4392 17.4116 18.4416 17.5501 18.4392C17.744 18.4343 17.9178 18.4682 17.9807 18.6714C18.0437 18.8674 17.9203 18.9859 17.7642 19.0802H0.227502V19.0851ZM13.317 9.89473C13.3246 9.84151 13.3246 9.80522 13.3321 9.77135C13.3699 9.58992 13.5084 9.4738 13.6746 9.47864C13.8383 9.48348 13.9617 9.59476 13.9919 9.77377C14.0045 9.85361 14.0045 9.93344 14.0045 10.0133C14.0045 12.7397 14.0045 15.4685 14.0045 18.1948C14.0045 18.2722 14.0045 18.3497 14.0045 18.4319H16.4295V2.0204H10.9021V9.88747H11.9849C11.995 9.66975 12.0731 9.48831 12.3198 9.48106C12.5918 9.4738 12.6573 9.67701 12.6825 9.89231H13.3145L13.317 9.89473ZM1.5697 6.71597V18.4319H3.10075C3.10075 18.3521 3.10075 18.2843 3.10075 18.219C3.10075 17.861 3.09823 17.5005 3.10075 17.1425C3.10327 16.8788 3.21155 16.7458 3.44826 16.7409C4.035 16.7312 4.61922 16.7337 5.20596 16.7409C5.43511 16.7433 5.55095 16.874 5.55347 17.1014C5.5585 17.4425 5.55347 17.7812 5.55347 18.1223C5.55347 18.2239 5.55347 18.3279 5.55347 18.4271H7.0946V6.71597H1.5697ZM7.79465 18.4319H13.3145V10.5576H7.79465V18.4319ZM4.68217 3.72832V6.06038C4.76528 6.06038 4.83578 6.06038 4.90629 6.06038C5.72974 6.06038 6.55319 6.06038 7.37663 6.06038C7.62845 6.06038 7.72163 6.13779 7.77451 6.37245C7.78206 6.40632 7.79465 6.44019 7.80976 6.48131C8.08173 6.48131 8.34614 6.48131 8.60803 6.48131C8.94295 6.48131 9.11418 6.59743 9.10915 6.81515C9.10411 7.02804 8.94043 7.13206 8.61306 7.13206C8.33858 7.13206 8.06662 7.13206 7.79717 7.13206V8.18923C7.9533 8.18923 8.09432 8.18923 8.23282 8.18923C8.43175 8.19407 8.63069 8.18923 8.82963 8.20858C9.00842 8.22552 9.10159 8.34889 9.10663 8.5134C9.11167 8.67306 9.01346 8.78192 8.85481 8.82305C8.78934 8.83998 8.71379 8.83756 8.64328 8.83756C8.36125 8.83756 8.08173 8.83756 7.79969 8.83756V9.88022H10.202V3.72832H4.68217ZM8.8674 3.05338V2.0204H6.01178V3.05338H8.8674ZM3.79325 17.3868V18.444C3.86125 18.4392 3.91665 18.4367 3.98967 18.4319C3.98967 18.2674 3.98212 18.1126 3.98967 17.9602C4.00226 17.7231 4.13069 17.5925 4.33466 17.5949C4.53612 17.5973 4.66203 17.7376 4.66455 17.9699C4.66707 18.1223 4.66455 18.2747 4.66455 18.4319H4.86348V17.3868H3.79074H3.79325Z" fill="#E66A44"/>
</g>
</g>
</svg>
