<svg width="17" height="17" viewBox="0 0 17 17" fill="none" xmlns="http://www.w3.org/2000/svg">
<g id="Group 820">
<g id="Group 817">
<g id="Group 819">
<g id="Group 818">
<path id="Vector" d="M2.94714 13.6077C2.20684 13.6274 1.75443 13.1929 1.79555 12.5608C1.85725 11.7904 1.91894 11.02 2.02176 10.2694C2.04232 10.0521 2.20684 9.85458 2.30966 9.6373C2.35079 9.57804 2.41248 9.51878 2.47417 9.45952C5.33258 6.7336 8.19099 3.98792 11.0494 1.22249C11.9337 0.373104 13.3115 0.373104 14.1957 1.22249C14.4014 1.42002 14.607 1.59779 14.7921 1.79533C15.5529 2.58545 15.5529 3.77063 14.7921 4.56076C14.5042 4.85705 14.2163 5.1336 13.9078 5.41014C11.3579 7.85952 8.80792 10.2892 6.27853 12.7385C5.86725 13.1336 5.41484 13.3904 4.81848 13.4101C4.16043 13.4299 3.50238 13.5287 2.92658 13.5682L2.94714 13.6077ZM10.3914 3.47434C10.3914 3.47434 10.3502 3.51384 10.3297 3.5336C7.98535 5.78545 5.62048 8.05705 3.27617 10.3089C3.21448 10.3682 3.17335 10.4867 3.15279 10.5657C3.11166 11.0003 3.07053 11.4348 3.0294 11.8694C3.0294 12.0472 2.98827 12.2447 2.98827 12.4225C3.07053 12.4225 3.11166 12.4225 3.15279 12.4225C3.74914 12.3632 4.3455 12.3237 4.94186 12.2645C5.06525 12.2645 5.18863 12.1657 5.27089 12.0867C7.57407 9.87434 9.87725 7.66199 12.1804 5.44965C12.2216 5.41014 12.2627 5.35088 12.3038 5.31138C11.6458 4.67928 11.0083 4.06693 10.3708 3.45459L10.3914 3.47434ZM13.2086 4.5015C13.4348 4.28421 13.661 4.06693 13.8873 3.84965C14.2574 3.47434 14.278 2.941 13.8873 2.5657C13.6816 2.34841 13.476 2.15088 13.2703 1.9731C12.9619 1.69656 12.5095 1.61755 12.1599 1.85458C11.8103 2.09162 11.5224 2.38792 11.2345 2.64471C11.8925 3.29656 12.53 3.90891 13.1881 4.52125L13.2086 4.5015Z" fill="#E66A44"/>
<path id="Vector_2" d="M8.48129 16.5903C5.89021 16.5903 3.3197 16.5903 0.728618 16.5903C0.584669 16.5903 0.44072 16.5705 0.296772 16.5113C0.0705664 16.4125 -0.0322541 16.1755 0.00887408 15.9384C0.0500023 15.7211 0.235079 15.5434 0.461285 15.4841C0.543541 15.4841 0.625797 15.4644 0.708054 15.4644C5.86965 15.4644 11.0518 15.4644 16.2134 15.4644C16.6658 15.4644 16.9331 15.7014 16.9126 16.0569C16.9126 16.3335 16.6658 16.5705 16.3779 16.5903C16.2957 16.5903 16.234 16.5903 16.1517 16.5903C13.5812 16.5903 11.0107 16.5903 8.46072 16.5903H8.48129Z" fill="#E66A44"/>
</g>
</g>
</g>
</g>
</svg>
