<svg width="24" height="18" viewBox="0 0 24 18" fill="none" xmlns="http://www.w3.org/2000/svg">
<g id="Group 808">
<path id="Vector" d="M12 0.0883789C15.1775 0.0883789 18.3482 0.0883789 21.5256 0.0883789C22.9859 0.0883789 24 1.12496 24 2.61765C24 6.59813 24 10.5717 24 14.5522C24 16.0311 22.9724 17.0815 21.5189 17.0815C15.1775 17.0815 8.83606 17.0815 2.49465 17.0815C1.02761 17.0815 0.00676056 16.0311 0.00676056 14.5246C0 10.5579 0 6.59122 0 2.62456C0 1.12496 1.02085 0.0883789 2.47437 0.0883789C5.64507 0.0883789 8.82254 0.0883789 12 0.0883789ZM1.50761 15.955C1.85915 16.0242 2.13634 16.1347 2.41352 16.1347C4.5431 16.1485 6.67268 16.1416 8.80225 16.1416C13.0411 16.1416 17.2868 16.1416 21.5256 16.1416C21.8569 16.1416 22.1611 16.0863 22.4518 15.8721C20.2208 13.2737 17.9966 10.6823 15.7589 8.077C15.6642 8.15992 15.5899 8.22212 15.5155 8.29122C14.4676 9.23106 13.4265 10.1778 12.3786 11.1176C12.0946 11.3733 11.9121 11.3664 11.6282 11.1176C11.4862 10.9933 11.351 10.8689 11.2158 10.7445C10.2423 9.86683 9.26197 8.98228 8.26817 8.08391C6.03042 10.6892 3.8062 13.2807 1.51437 15.955H1.50761ZM1.92676 1.11805C5.30028 4.1587 8.64676 7.17862 12.0068 10.2124C15.3735 7.17171 18.72 4.15179 22.0732 1.12496C21.7893 0.986753 2.29183 0.972932 1.92676 1.11805ZM1.11549 1.62944C1.04113 1.94041 0.932958 2.1961 0.932958 2.4587C0.919437 6.53594 0.926197 10.6132 0.932958 14.6973C0.932958 14.8286 0.966761 14.9599 0.993803 15.1534C3.21803 12.562 5.39493 10.0258 7.58535 7.46887C5.42873 5.527 3.30592 3.61277 1.11549 1.62944ZM22.9724 15.0636C22.9724 15.0636 23.0265 15.0498 23.0468 15.0428C23.0535 14.8701 23.0738 14.6904 23.0738 14.5176C23.0738 12.0989 23.0738 9.67334 23.0738 7.25464C23.0738 5.68594 23.0806 4.12415 23.067 2.55545C23.067 2.27212 22.9656 1.98879 22.8913 1.62944C20.6873 3.61968 18.5645 5.53391 16.4349 7.45505C18.6254 10.005 20.7955 12.5343 22.9656 15.0636H22.9724Z" fill="#E66A44"/>
</g>
</svg>
