<svg width="24" height="25" viewBox="0 0 24 25" fill="none" xmlns="http://www.w3.org/2000/svg">
<g id="Symbol.svg" clip-path="url(#clip0_656_7103)">
<path id="Vector" d="M19.8206 6.17281C19.8206 5.37618 19.175 4.73291 18.3813 4.73291C17.5876 4.73291 16.9414 5.37618 16.9414 6.17281C16.9414 6.96651 17.5876 7.60975 18.3813 7.60975C19.175 7.60975 19.8206 6.96651 19.8206 6.17281Z" fill="url(#paint0_linear_656_7103)"/>
<g id="Group 797">
<path id="Vector_2" d="M21.7394 17.4123C21.6861 18.581 21.4906 19.2159 21.3284 19.6376C21.1103 20.1968 20.8503 20.5966 20.4286 21.0159C20.0116 21.4353 19.6118 21.6947 19.0527 21.9103C18.631 22.075 17.9937 22.271 16.825 22.3267C15.5617 22.3824 15.1873 22.3943 11.9836 22.3943C8.78274 22.3943 8.40539 22.3824 7.14202 22.3267C5.97344 22.271 5.33906 22.075 4.9173 21.9103C4.35522 21.6947 3.9584 21.4353 3.53904 21.0159C3.11671 20.5966 2.85671 20.1968 2.6417 19.6376C2.47938 19.2159 2.28098 18.581 2.23061 17.4123C2.16904 16.149 2.15776 15.7687 2.15776 12.5714C2.15776 9.36767 2.16904 8.99037 2.23061 7.72695C2.28098 6.55837 2.47938 5.92403 2.6417 5.49873C2.85671 4.94019 3.11671 4.54273 3.53904 4.12338C3.9584 3.70465 4.35522 3.4446 4.9173 3.22666C5.33906 3.06141 5.97344 2.8683 7.14202 2.81264C8.40539 2.75693 8.78274 2.74272 11.9836 2.74272C15.1873 2.74272 15.5617 2.75693 16.825 2.81264C17.9937 2.8683 18.631 3.06141 19.0527 3.22666C19.6118 3.4446 20.0116 3.70465 20.4286 4.12338C20.8503 4.54273 21.1103 4.94019 21.3284 5.49873C21.4906 5.92403 21.6861 6.55837 21.7394 7.72695C21.798 8.99037 21.8122 9.36767 21.8122 12.5714C21.8122 15.7687 21.798 16.149 21.7394 17.4123ZM23.8972 7.62866C23.8386 6.35163 23.6371 5.47918 23.338 4.71927C23.0336 3.9309 22.6255 3.26277 21.9573 2.59465C21.2922 1.92951 20.6241 1.5214 19.8357 1.21341C19.0729 0.917246 18.2033 0.713477 16.9257 0.657815C15.6481 0.596201 15.24 0.584961 11.9836 0.584961C8.72998 0.584961 8.31897 0.596201 7.04135 0.657815C5.7667 0.713477 4.89775 0.917246 4.13133 1.21341C3.34594 1.5214 2.67782 1.92951 2.01267 2.59465C1.34455 3.26277 0.936436 3.9309 0.629029 4.71927C0.332861 5.47918 0.131492 6.35163 0.0698773 7.62866C0.0142153 8.90628 0 9.31495 0 12.5714C0 15.825 0.0142153 16.2331 0.0698773 17.5107C0.131492 18.7853 0.332861 19.6572 0.629029 20.4207C0.936436 21.2061 1.34455 21.8772 2.01267 22.5423C2.67782 23.2075 3.34594 23.6185 4.13133 23.926C4.89775 24.2221 5.7667 24.4235 7.04135 24.4821C8.31897 24.5408 8.72998 24.555 11.9836 24.555C15.24 24.555 15.6481 24.5408 16.9257 24.4821C18.2033 24.4235 19.0729 24.2221 19.8357 23.926C20.6241 23.6185 21.2922 23.2075 21.9573 22.5423C22.6255 21.8772 23.0336 21.2061 23.338 20.4207C23.6371 19.6572 23.8386 18.7853 23.8972 17.5107C23.9558 16.2331 23.97 15.825 23.97 12.5714C23.97 9.31495 23.9558 8.90628 23.8972 7.62866Z" fill="url(#paint1_linear_656_7103)"/>
</g>
<path id="Vector_3" d="M11.9843 16.5628C9.77913 16.5628 7.98978 14.7764 7.98978 12.5712C7.98978 10.3625 9.77913 8.57381 11.9843 8.57381C14.1901 8.57381 15.9818 10.3625 15.9818 12.5712C15.9818 14.7764 14.1901 16.5628 11.9843 16.5628ZM11.9843 6.41309C8.58506 6.41309 5.83203 9.17201 5.83203 12.5712C5.83203 15.9676 8.58506 18.7236 11.9843 18.7236C15.3835 18.7236 18.1395 15.9676 18.1395 12.5712C18.1395 9.17201 15.3835 6.41309 11.9843 6.41309Z" fill="url(#paint2_linear_656_7103)"/>
</g>
<defs>
<linearGradient id="paint0_linear_656_7103" x1="0.215304" y1="24.3072" x2="21.9727" y2="2.54988" gradientUnits="userSpaceOnUse">
<stop stop-color="#FFD521"/>
<stop offset="0.05" stop-color="#FFD521"/>
<stop offset="0.501119" stop-color="#F50000"/>
<stop offset="0.95" stop-color="#B900B4"/>
<stop offset="0.950079" stop-color="#B900B4"/>
<stop offset="1" stop-color="#B900B4"/>
</linearGradient>
<linearGradient id="paint1_linear_656_7103" x1="0.216206" y1="24.337" x2="21.9915" y2="2.56179" gradientUnits="userSpaceOnUse">
<stop stop-color="#FFD521"/>
<stop offset="0.05" stop-color="#FFD521"/>
<stop offset="0.501119" stop-color="#F50000"/>
<stop offset="0.95" stop-color="#B900B4"/>
<stop offset="0.950079" stop-color="#B900B4"/>
<stop offset="1" stop-color="#B900B4"/>
</linearGradient>
<linearGradient id="paint2_linear_656_7103" x1="0.222622" y1="24.3374" x2="21.9926" y2="2.56741" gradientUnits="userSpaceOnUse">
<stop stop-color="#FFD521"/>
<stop offset="0.05" stop-color="#FFD521"/>
<stop offset="0.501119" stop-color="#F50000"/>
<stop offset="0.95" stop-color="#B900B4"/>
<stop offset="0.950079" stop-color="#B900B4"/>
<stop offset="1" stop-color="#B900B4"/>
</linearGradient>
<clipPath id="clip0_656_7103">
<rect width="24" height="24" fill="white" transform="translate(0 0.584961)"/>
</clipPath>
</defs>
</svg>
