<svg width="24" height="24" viewBox="0 0 24 24" fill="none" xmlns="http://www.w3.org/2000/svg">
<g id="Layer_1" clip-path="url(#clip0_656_6937)">
<path id="Vector" d="M17.9758 24.0002C17.6479 23.939 17.2994 23.8982 16.9715 23.8369C15.6598 23.592 14.4301 23.1022 13.2414 22.5308C11.2943 21.5716 9.47023 20.4084 7.8511 18.9798C4.57186 16.0818 2.00994 12.7349 0.554776 8.59204C0.185861 7.57163 -0.0190921 6.53082 0.00140324 5.42878C0.0218985 4.38796 0.370319 3.44919 1.10815 2.69408C1.764 2.02061 2.39935 1.32674 3.11669 0.714492C4.26443 -0.285508 5.43266 -0.2651 6.5394 0.775717C7.64615 1.81653 8.71191 2.89817 9.75717 4.02061C10.618 4.93898 10.618 6.16347 9.75717 7.08184C9.1628 7.7349 8.52745 8.32674 7.91259 8.93898C7.78962 9.06143 7.76912 9.14306 7.8511 9.30633C8.46596 10.6125 9.36776 11.6941 10.3515 12.7349C11.3353 13.7961 12.4421 14.7349 13.6718 15.5308C13.9997 15.7349 14.3481 15.8982 14.676 16.1022C14.799 16.1839 14.881 16.1635 15.004 16.0614C15.5163 15.5308 16.0492 15.0002 16.5821 14.49C16.992 14.0818 17.4634 13.7553 18.0373 13.6533C18.8366 13.5308 19.5129 13.7757 20.0663 14.3267C21.0911 15.3267 22.0953 16.3471 23.1201 17.3471C24.2064 18.4288 24.2883 19.6737 23.2841 20.8165C22.5872 21.6125 21.8084 22.3471 21.0501 23.0818C20.4967 23.592 19.7999 23.8573 19.062 23.939C19.0005 23.939 18.9596 23.9594 18.8981 23.9798H17.9553L17.9758 24.0002ZM1.21063 5.44919C1.21063 6.7349 1.51806 7.77572 1.90747 8.77572C2.97322 11.6329 4.69483 14.0614 6.76485 16.2655C8.77339 18.4084 11.1099 20.1431 13.7742 21.4288C15.0859 22.0818 16.4591 22.592 17.9348 22.7553C18.8366 22.8573 19.6974 22.7553 20.3737 22.1022C21.0706 21.4288 21.7469 20.7553 22.3823 20.041C22.9152 19.4696 22.8947 18.8982 22.3618 18.3267C21.3165 17.2655 20.2508 16.2043 19.185 15.1635C18.7546 14.7349 18.2012 14.7349 17.7093 15.1022C17.6069 15.1839 17.5044 15.2859 17.4019 15.388C16.828 15.9594 16.2337 16.5512 15.6598 17.1227C15.2704 17.49 14.8605 17.5716 14.3891 17.3267C14.0407 17.1635 13.7128 16.9798 13.3848 16.7757C11.8272 15.8573 10.495 14.6737 9.26528 13.3471C8.26101 12.2451 7.33872 11.0818 6.70337 9.69408C6.37544 8.9798 6.43693 8.67368 7.0108 8.14306C7.62566 7.55123 8.22002 6.9798 8.81438 6.36755C9.30627 5.83694 9.30627 5.28592 8.81438 4.75531C8.05606 3.95939 7.25674 3.18388 6.47792 2.38796C6.19099 2.10225 5.90405 1.81653 5.59662 1.55123C5.12523 1.12266 4.57186 1.12266 4.07997 1.51041C3.97749 1.59204 3.89551 1.67368 3.79303 1.75531C3.23966 2.28592 2.70678 2.83694 2.15341 3.36755C1.51806 3.9798 1.21063 4.7349 1.23112 5.40837L1.21063 5.44919Z" fill="#E66A44"/>
</g>
<defs>
<clipPath id="clip0_656_6937">
<rect width="24" height="24" fill="white"/>
</clipPath>
</defs>
</svg>
