<svg width="25" height="25" viewBox="0 0 25 25" fill="none" xmlns="http://www.w3.org/2000/svg">
<g id="Group 811">
<g id="Group 810">
<g id="Group 808">
<g id="Group 814">
<g id="Group 813">
<g id="Group 812">
<path id="Vector" d="M5.60452 0.823283C10.3132 0.623521 15.136 0.951702 19.859 0.809015C23.0124 0.923164 24.5677 2.12174 24.5819 5.44635C24.4535 10.155 24.7674 14.9636 24.5819 19.6723C24.4678 22.8114 23.2121 24.3381 19.9446 24.3524C15.2359 24.224 10.4273 24.5379 5.71867 24.3524C2.55101 24.2383 1.03852 22.9541 1.03852 19.6723C1.19548 14.9636 0.881566 10.1693 1.05279 5.48916C1.18121 2.25016 2.35124 0.965971 5.60452 0.823283ZM5.36195 1.83636C2.95053 1.96478 2.16575 2.93506 2.06587 5.30366C1.85184 10.3691 2.19429 15.6342 2.12295 20.7139C2.20856 22.1122 3.30725 23.1966 4.70559 23.2965C9.79952 23.2252 15.0932 23.5819 20.1729 23.3536C22.5986 23.2395 23.4832 22.3548 23.5974 19.9291C23.84 14.8494 23.4547 9.55574 23.5403 4.46181C23.312 2.60687 22.0136 1.82209 20.2157 1.82209C15.3215 2.00759 10.2419 1.56526 5.36195 1.82209V1.83636Z" fill="#E66A44" stroke="#E66A44" stroke-width="0.25" stroke-miterlimit="10"/>
</g>
<path id="Vector_2" d="M10.7555 16.7471H20.658C21.3001 16.7899 21.3287 17.6603 20.658 17.7316H10.8982C10.2989 17.6745 10.1562 16.9326 10.7555 16.7471Z" fill="#E66A44" stroke="#E66A44" stroke-width="0.25" stroke-miterlimit="10"/>
<path id="Vector_3" d="M10.8111 4.97559H20.6137C21.1702 4.97559 21.3557 5.63195 20.8706 5.93159L10.8396 5.9744C10.2118 5.90305 10.2118 5.11827 10.7968 4.98985L10.8111 4.97559Z" fill="#E66A44" stroke="#E66A44" stroke-width="0.25" stroke-miterlimit="10"/>
<path id="Vector_4" d="M10.7134 10.8828L20.8727 10.9113C21.2437 11.1254 21.2152 11.5534 20.8727 11.796L10.7847 11.8245C10.2425 11.7675 10.214 11.054 10.6991 10.8828H10.7134Z" fill="#E66A44" stroke="#E66A44" stroke-width="0.25" stroke-miterlimit="10"/>
<path id="Vector_5" d="M6.10472 10.6404C8.84431 10.2408 9.2153 14.2361 6.73254 14.5215C4.07856 14.8354 3.75038 10.9828 6.10472 10.6404ZM6.26167 11.6392C5.30567 11.8104 5.31994 13.38 6.30448 13.5226C7.74562 13.7224 7.73135 11.3823 6.26167 11.6392Z" fill="#E66A44" stroke="#E66A44" stroke-width="0.25" stroke-miterlimit="10"/>
<path id="Vector_6" d="M6.25908 16.5048C8.74184 16.2337 9.24125 19.9579 6.8441 20.3859C4.19011 20.871 3.59083 16.7902 6.25908 16.5048ZM5.78821 19.116C6.67287 20.072 8.01413 18.6023 7.10094 17.7319C6.18774 16.8615 4.9749 18.2456 5.78821 19.116Z" fill="#E66A44" stroke="#E66A44" stroke-width="0.25" stroke-miterlimit="10"/>
<path id="Vector_7" d="M6.40143 4.7333C9.15529 4.66196 8.98407 8.95684 6.24447 8.6572C3.80452 8.3861 4.01855 4.79038 6.40143 4.7333ZM6.40143 5.73211C5.17432 5.83199 5.28847 7.77254 6.52985 7.67266C7.77123 7.57278 7.57147 5.63223 6.40143 5.73211Z" fill="#E66A44" stroke="#E66A44" stroke-width="0.25" stroke-miterlimit="10"/>
<path id="Vector_8" d="M10.7555 19.2012L16.9624 19.2297C17.4476 19.5151 17.2335 20.1429 16.7056 20.2H10.8982C10.2989 20.1429 10.1562 19.4009 10.7555 19.2154V19.2012Z" fill="#E66A44" stroke="#E66A44" stroke-width="0.25" stroke-miterlimit="10"/>
<path id="Vector_9" d="M17.1175 7.58681C17.3886 7.88646 17.1603 8.4144 16.7608 8.42867H10.8536C10.2115 8.35732 10.2115 7.5012 10.9106 7.42986C12.7656 7.55828 14.8488 7.25863 16.6752 7.42986C16.8179 7.42986 17.0319 7.48693 17.1318 7.60108L17.1175 7.58681Z" fill="#E66A44" stroke="#E66A44" stroke-width="0.25" stroke-miterlimit="10"/>
<path id="Vector_10" d="M10.7112 13.3369L16.9751 13.3655C17.3319 13.5652 17.3319 14.0361 16.9751 14.2358H10.6398C10.2688 14.0218 10.2831 13.4796 10.7112 13.3369Z" fill="#E66A44" stroke="#E66A44" stroke-width="0.25" stroke-miterlimit="10"/>
</g>
</g>
</g>
</g>
</g>
</svg>
