<svg width="81" height="81" viewBox="0 0 81 81" fill="none" xmlns="http://www.w3.org/2000/svg">
<path id="Vector" d="M37.9164 0C39.6047 0 41.293 0 42.9813 0C43.2275 0.0351566 43.4385 0.10547 43.6847 0.140627C45.8303 0.492193 48.0462 0.667976 50.1565 1.19533C71.2954 6.36335 84.5556 27.4222 80.159 48.7271C76.4307 66.8328 60.7084 80.2274 42.2778 80.9657C32.2184 81.3524 23.1789 78.4696 15.3002 72.1766C7.31596 65.7781 2.39176 57.5162 0.597939 47.3911C0.351729 45.9497 0.175864 44.4731 0 43.0317C0 41.3442 0 39.6567 0 37.9692C0.105519 37.0199 0.211037 36.0355 0.351729 35.0863C1.51243 26.8597 4.81868 19.5822 10.4112 13.4298C16.6016 6.50398 24.3396 2.21487 33.5549 0.597663C34.997 0.351566 36.4391 0.21094 37.9164 0ZM70.7327 60.6452C79.6666 47.9185 79.7721 27.1761 65.0347 13.5705C50.8952 0.492193 28.49 0.949228 14.7023 14.6955C0.808976 28.5823 1.6883 48.7974 10.165 60.6452C15.3354 53.1568 22.2996 48.1997 31.128 45.7388C22.6513 39.7621 22.1589 27.8089 28.9121 20.9885C35.2081 14.6603 45.4082 14.6252 51.8448 20.883C58.6684 27.5628 58.387 39.6567 49.7696 45.7388C58.598 48.1997 65.5271 53.192 70.7327 60.6803V60.6452ZM68.165 64.0554C61.5877 54.1764 52.4428 48.6216 40.4488 48.6216C28.4549 48.6216 19.3099 54.1412 12.7326 64.0554C27.0831 81.1767 53.8849 81.1415 68.165 64.0554ZM40.7654 44.5435C47.6593 44.227 52.8648 38.6371 52.5835 31.9574C52.3021 25.137 46.5337 19.9338 39.7102 20.2854C33.168 20.6369 27.9624 26.4026 28.279 32.9418C28.6307 39.5864 34.2936 44.8599 40.7654 44.5435Z" fill="#BDBDBD"/>
</svg>
