<svg width="27" height="27" viewBox="0 0 27 27" fill="none" xmlns="http://www.w3.org/2000/svg">
<g id="Group 807">
<path id="Vector" d="M12.59 0C13.15 0 13.71 0 14.27 0C14.35 0.02 14.42 0.03 14.5 0.05C15.22 0.16 15.94 0.22 16.64 0.4C23.64 2.11 28.04 9.1 26.58 16.16C25.34 22.16 20.13 26.61 14.02 26.85C10.69 26.98 7.68 26.03 5.08 23.94C2.43 21.81 0.8 19.07 0.2 15.72C0.11 15.24 0.07 14.75 0 14.27C0 13.71 0 13.15 0 12.59C0.04 12.27 0.07 11.95 0.12 11.63C0.5 8.9 1.6 6.49 3.45 4.45C5.53 2.16 8.09 0.73 11.14 0.2C11.62 0.12 12.11 0.07 12.59 0ZM23.47 20.12C26.44 15.9 26.46 9.02 21.58 4.5C16.89 0.16 9.47 0.31 4.9 4.87C0.29 9.48 0.58 16.18 3.39 20.11C5.11 17.63 7.42 15.98 10.34 15.16C7.52 13.18 7.36 9.21 9.61 6.96C11.7 4.86 15.08 4.85 17.21 6.92C19.47 9.13 19.38 13.15 16.52 15.16C19.44 15.98 21.75 17.63 23.47 20.11V20.12ZM22.62 21.25C20.43 17.97 17.4 16.13 13.43 16.13C9.45 16.13 6.42 17.97 4.24 21.25C8.99 26.93 17.88 26.92 22.62 21.25ZM13.54 14.77C15.82 14.66 17.55 12.81 17.46 10.59C17.36 8.33 15.46 6.6 13.19 6.72C11.02 6.83 9.29 8.75 9.41 10.92C9.53 13.13 11.4 14.87 13.55 14.77H13.54Z" fill="#E66A44"/>
</g>
</svg>
