<svg width="23" height="18" viewBox="0 0 23 18" fill="none" xmlns="http://www.w3.org/2000/svg">
<g id="Group 1088">
<g id="Group 1009">
<path id="Vector" opacity="0.3" fill-rule="evenodd" clip-rule="evenodd" d="M15.7027 10.2258L15.1807 12.1792C15.7796 12.6848 16.5355 12.934 17.3403 12.8522C18.745 12.7095 20.029 11.5861 20.6051 9.99561C20.6051 9.99561 18.7606 13.0047 15.7026 10.2259L15.7027 10.2258Z" fill="#1E003D"/>
<path id="Vector_2" d="M20.3061 4.0205C21.4126 4.0205 22.3096 3.12354 22.3096 2.01708C22.3096 0.910631 21.4126 0.0136719 20.3061 0.0136719C19.1997 0.0136719 18.3027 0.910631 18.3027 2.01708C18.3027 3.12354 19.1997 4.0205 20.3061 4.0205Z" fill="#E66A44"/>
<path id="Vector_3" fill-rule="evenodd" clip-rule="evenodd" d="M4.05801 16.6671L6.97621 5.74734C6.37229 5.21816 5.60537 4.96309 4.78466 5.05964C3.35213 5.22816 2.0307 6.43571 1.42441 8.13017L0.0807044 13.1581C-0.256245 14.419 0.492678 15.7142 1.75355 16.0512L4.05792 16.667L4.05801 16.6671Z" fill="#E66A44"/>
<path id="Vector_4" fill-rule="evenodd" clip-rule="evenodd" d="M1.36142 8.4216C1.36142 8.4216 3.26925 5.2353 6.41975 7.88509L6.90085 6.08486C6.28465 5.60167 5.51611 5.35279 4.70587 5.40991C3.29171 5.5095 2.02247 6.52187 1.47825 7.98421L1.36133 8.42151L1.36142 8.4216Z" fill="#E66A44"/>
<path id="Vector_5" fill-rule="evenodd" clip-rule="evenodd" d="M16.2487 6.95531L15.1455 12.0233C15.7494 12.6593 16.5163 12.9658 17.3371 12.8498C18.7696 12.6472 20.091 11.1958 20.6973 9.15914L21.5436 5.24629L19.604 4.62323C18.1417 4.15356 16.6395 5.19754 16.2486 6.95521L16.2487 6.95531Z" fill="#E66A44"/>
<path id="Vector_6" fill-rule="evenodd" clip-rule="evenodd" d="M21.7657 5.28237C21.7512 5.34302 21.736 5.40491 21.7199 5.46832L21.1192 8.03481L20.6667 10.0054L20.3019 11.5934L20.1925 12.0703C19.9163 12.6519 19.6072 13.1425 19.2676 13.543L18.5247 13.3162L17.4014 12.9735L17.4315 12.8425L17.4373 12.8175L17.7715 11.3652L18.8475 6.68853L19.3239 4.65323C19.3277 4.65246 19.3412 4.61381 19.3619 4.54688L21.7657 5.28237Z" fill="#E66A44"/>
<path id="Vector_7" fill-rule="evenodd" clip-rule="evenodd" d="M3.94103 6.91088L1.5166 15.983L4.05119 16.6603L6.34319 8.08368L6.90074 5.99724C6.22408 5.44731 5.37538 5.17015 4.4765 5.24699C4.44536 5.24965 4.41423 5.2527 4.38319 5.25622L3.94103 6.91079V6.91088Z" fill="#E66A44"/>
<path id="Vector_8" fill-rule="evenodd" clip-rule="evenodd" d="M20.6683 9.99583C20.5276 10.8423 20.197 12.2043 19.6914 13.6919C18.9897 15.7567 18.6198 16.845 17.7095 17.4843C16.9236 18.0363 16.002 18.0658 15.1983 17.9158C13.7682 17.6487 12.5333 16.7542 11.8138 15.4897C11.7887 15.4456 11.7638 15.4006 11.7393 15.3549C11.6114 15.1165 8.89001 9.23539 7.53469 6.95044C7.32361 6.59464 7.05959 6.29035 6.75673 6.04718C6.16205 5.5698 5.41769 5.32739 4.63059 5.39061C3.25661 5.50096 2.01631 6.52104 1.47656 7.98461L2.06658 5.77697L2.14465 5.48477C2.34821 4.76003 2.9467 2.84574 3.90709 1.5624C4.99829 0.104352 6.66761 -0.351611 8.20449 0.291629C9.29046 0.766823 10.2307 1.6181 10.8658 2.78461C10.8834 2.81689 10.8997 2.84993 10.915 2.88335C11.0138 3.09795 11.1127 3.31303 11.2119 3.5283L11.2121 3.52868C12.4546 6.2237 13.7413 8.95271 15.0965 11.2377C15.3076 11.5935 15.5716 11.8977 15.8745 12.1409C16.3926 12.5568 16.9089 12.6932 17.1178 12.7388C17.1178 12.7388 17.5956 12.918 18.0007 12.7974C19.0859 12.4743 19.9911 11.5448 20.6681 9.99583H20.6683Z" fill="#E66A44"/>
<g id="Group">
<path id="Vector_9" fill-rule="evenodd" clip-rule="evenodd" d="M1.59703 7.67919L1.51562 7.98453C1.56037 7.86294 1.60998 7.7446 1.66406 7.62939C1.64159 7.64577 1.61921 7.66234 1.59703 7.67919Z" fill="#E66A44"/>
<path id="Vector_10" fill-rule="evenodd" clip-rule="evenodd" d="M20.6695 9.99586C20.5997 10.4167 20.483 10.965 20.3213 11.5928C20.2826 11.7432 20.2414 11.8981 20.1975 12.0569C20.1955 12.0612 20.1934 12.0654 20.1914 12.0697C19.9153 12.6514 19.6061 13.142 19.2665 13.5424C19.0331 13.8178 18.7851 14.0504 18.5236 14.2407C18.2061 14.4717 17.8685 14.64 17.5126 14.7462C17.0867 14.8733 16.5846 14.6845 16.5846 14.6845C16.3651 14.6364 15.8224 14.4927 15.278 14.0548C14.9595 13.7987 14.6821 13.4783 14.4602 13.1035C13.0358 10.6972 11.6835 7.82307 10.3775 4.98486L10.3773 4.98438C10.2731 4.75769 10.169 4.53118 10.0653 4.30525C10.0491 4.27002 10.032 4.23527 10.0135 4.20118C9.34581 2.97278 8.35762 2.07619 7.21634 1.57576C6.00821 1.06924 4.7223 1.21016 3.6709 1.95565C3.75783 1.81969 3.84808 1.68802 3.94187 1.56243C5.03088 0.104385 6.69687 -0.351578 8.2307 0.291567C9.31448 0.766761 10.2528 1.61804 10.8868 2.78455C10.9043 2.81683 10.9206 2.84987 10.9359 2.88328C11.0345 3.09789 11.1332 3.31297 11.2322 3.52824L11.2324 3.52862C12.4725 6.22364 13.7565 8.95265 15.1091 11.2376C15.1803 11.3579 15.2576 11.4724 15.3403 11.5805C15.5024 11.7922 15.6855 11.9799 15.8855 12.1409C16.4026 12.5567 16.9179 12.6932 17.1263 12.7389C17.1263 12.7389 17.2554 12.7873 17.4362 12.8169C17.4633 12.8213 17.4916 12.8253 17.5207 12.8287C17.671 12.846 17.845 12.8459 18.0075 12.7974C18.1844 12.7447 18.3565 12.6756 18.5236 12.5905C18.959 12.3685 19.3605 12.0363 19.7242 11.5928C20.0739 11.1666 20.3889 10.6375 20.6656 10.0048C20.667 10.0019 20.6682 9.99882 20.6695 9.99586Z" fill="#E66A44"/>
</g>
</g>
</g>
</svg>
