<svg width="58" height="58" viewBox="0 0 58 58" fill="none" xmlns="http://www.w3.org/2000/svg">
<g id="nextreach logo FINAL-01 1">
<path id="Vector" opacity="0.3" fill-rule="evenodd" clip-rule="evenodd" d="M37.5646 30.8672L36.7695 33.842C37.6817 34.6121 38.8329 34.9916 40.0586 34.867C42.1979 34.6497 44.1532 32.9388 45.0306 30.5166C45.0306 30.5166 42.2215 35.0993 37.5644 30.8674L37.5646 30.8672Z" fill="#1E003D"/>
<path id="Vector_2" d="M44.5784 21.4161C46.2635 21.4161 47.6295 20.0501 47.6295 18.3651C47.6295 16.68 46.2635 15.314 44.5784 15.314C42.8934 15.314 41.5273 16.68 41.5273 18.3651C41.5273 20.0501 42.8934 21.4161 44.5784 21.4161Z" fill="#8853F5"/>
<path id="Vector_3" fill-rule="evenodd" clip-rule="evenodd" d="M19.8325 40.6769L24.2767 24.0467C23.357 23.2408 22.189 22.8523 20.9391 22.9993C18.7575 23.256 16.745 25.095 15.8216 27.6756L13.7753 35.3329C13.2621 37.2531 14.4027 39.2257 16.3229 39.7389L19.8323 40.6767L19.8325 40.6769Z" fill="#8853F5"/>
<path id="Vector_4" fill-rule="evenodd" clip-rule="evenodd" d="M15.7267 28.1194C15.7267 28.1194 18.6322 23.2669 23.4303 27.3023L24.163 24.5607C23.2245 23.8248 22.0541 23.4458 20.8201 23.5328C18.6664 23.6844 16.7334 25.2262 15.9046 27.4533L15.7266 28.1193L15.7267 28.1194Z" fill="#8853F5"/>
<path id="Vector_5" fill-rule="evenodd" clip-rule="evenodd" d="M38.395 25.8863L36.7148 33.6045C37.6346 34.5731 38.8026 35.04 40.0525 34.8632C42.2341 34.5547 44.2466 32.3443 45.1699 29.2426L46.4588 23.2835L43.5049 22.3346C41.2778 21.6194 38.99 23.2093 38.3948 25.8861L38.395 25.8863Z" fill="#8853F5"/>
<path id="Vector_6" fill-rule="evenodd" clip-rule="evenodd" d="M46.799 23.3372C46.777 23.4295 46.7538 23.5238 46.7293 23.6204L45.8145 27.529L45.1253 30.53L44.5698 32.9485L44.403 33.6748C43.9825 34.5606 43.5117 35.3078 42.9945 35.9177L41.8631 35.5723L40.1523 35.0503L40.1982 34.8509L40.207 34.8128L40.716 32.6009L42.3548 25.4787L43.0802 22.379C43.086 22.3778 43.1066 22.319 43.1382 22.217L46.799 23.3372Z" fill="#8853F5"/>
<path id="Vector_7" fill-rule="evenodd" clip-rule="evenodd" d="M19.6532 25.8181L15.9609 39.6344L19.821 40.666L23.3116 27.6042L24.1607 24.4267C23.1302 23.5892 21.8376 23.1671 20.4687 23.2841C20.4213 23.2882 20.3739 23.2928 20.3266 23.2982L19.6532 25.818V25.8181Z" fill="#8853F5"/>
<path id="Vector_8" fill-rule="evenodd" clip-rule="evenodd" d="M45.1303 30.5164C44.9161 31.8056 44.4125 33.8798 43.6426 36.1453C42.5739 39.2899 42.0106 40.9473 40.6243 41.921C39.4273 42.7617 38.0238 42.8066 36.7999 42.5781C34.6218 42.1714 32.7412 40.8091 31.6454 38.8834C31.6071 38.8161 31.5693 38.7476 31.5319 38.678C31.3372 38.3149 27.1926 29.3583 25.1285 25.8784C24.8071 25.3366 24.405 24.8732 23.9438 24.5028C23.0381 23.7758 21.9045 23.4066 20.7058 23.5029C18.6133 23.671 16.7243 25.2245 15.9023 27.4534L16.8009 24.0913L16.9198 23.6463C17.2298 22.5426 18.1413 19.6272 19.6039 17.6728C21.2657 15.4522 23.808 14.7578 26.1486 15.7374C27.8025 16.4611 29.2344 17.7576 30.2017 19.5341C30.2285 19.5833 30.2533 19.6336 30.2766 19.6845C30.427 20.0113 30.5776 20.3389 30.7287 20.6667L30.729 20.6673C32.6213 24.7717 34.5808 28.9278 36.6447 32.4076C36.9662 32.9495 37.3683 33.4129 37.8297 33.7833C38.6186 34.4166 39.405 34.6244 39.7231 34.6939C39.7231 34.6939 40.4507 34.9668 41.0677 34.783C42.7204 34.2911 44.099 32.8754 45.13 30.5164H45.1303Z" fill="#E66A44"/>
<g id="Group">
<path id="Vector_9" fill-rule="evenodd" clip-rule="evenodd" d="M16.0849 26.9884L15.9609 27.4534C16.0291 27.2683 16.1046 27.088 16.187 26.9126C16.1528 26.9375 16.1187 26.9628 16.0849 26.9884Z" fill="#E66A44"/>
<path id="Vector_10" fill-rule="evenodd" clip-rule="evenodd" d="M45.1302 30.5165C45.0239 31.1574 44.8461 31.9924 44.5999 32.9486C44.5409 33.1775 44.4781 33.4134 44.4113 33.6553C44.4082 33.6618 44.4051 33.6683 44.402 33.6749C43.9815 34.5607 43.5107 35.3078 42.9935 35.9177C42.6379 36.3371 42.2604 36.6913 41.862 36.9811C41.3785 37.3329 40.8644 37.5893 40.3223 37.7509C39.6737 37.9445 38.9091 37.657 38.9091 37.657C38.5747 37.5838 37.7482 37.365 36.9191 36.698C36.4341 36.3079 36.0116 35.82 35.6737 35.2493C33.5044 31.5845 31.445 27.2074 29.456 22.885L29.4557 22.8842C29.2969 22.539 29.1384 22.194 28.9805 21.85C28.9559 21.7963 28.9298 21.7434 28.9017 21.6915C27.8848 19.8207 26.3798 18.4552 24.6417 17.6931C22.8018 16.9217 20.8434 17.1363 19.2422 18.2717C19.3746 18.0646 19.512 17.8641 19.6549 17.6728C21.3134 15.4523 23.8506 14.7579 26.1865 15.7373C27.8371 16.461 29.266 17.7575 30.2316 19.534C30.2583 19.5832 30.2831 19.6335 30.3064 19.6844C30.4565 20.0112 30.6069 20.3388 30.7577 20.6666L30.7579 20.6672C32.6466 24.7716 34.602 28.9277 36.6619 32.4076C36.7704 32.5908 36.8881 32.7651 37.0141 32.9298C37.2609 33.2522 37.5397 33.5381 37.8444 33.7832C38.6319 34.4165 39.4166 34.6243 39.734 34.6939C39.734 34.6939 39.9306 34.7677 40.206 34.8128C40.2473 34.8195 40.2904 34.8256 40.3348 34.8307C40.5636 34.857 40.8286 34.8569 41.076 34.7831C41.3454 34.7028 41.6076 34.5976 41.862 34.468C42.5251 34.1299 43.1366 33.624 43.6905 32.9486C44.2231 32.2994 44.7027 31.4936 45.1243 30.5301C45.1263 30.5256 45.1282 30.521 45.1302 30.5165Z" fill="#E66A44"/>
</g>
</g>
</svg>
