<svg width="48" height="49" viewBox="0 0 48 49" fill="none" xmlns="http://www.w3.org/2000/svg">
<g id="_x30_7" clip-path="url(#clip0_1744_179)">
<path id="Vector" d="M38.3795 23.869C38.1699 24.0616 38.0287 24.1942 37.8833 24.3268C36.3647 25.666 34.5937 26.5559 32.7158 27.2533C30.0636 28.2373 27.3131 28.785 24.5069 29.0716C22.043 29.3198 19.5747 29.3669 17.1022 29.1829C13.1368 28.8919 9.26977 28.1561 5.65084 26.4276C4.35042 25.8072 3.14839 25.0413 2.10891 24.0402C2.07041 24.0017 2.01908 23.9717 1.94636 23.9161C1.9378 24.0188 1.92924 24.0872 1.92924 24.1514C1.92924 25.7815 1.94636 27.4159 1.92497 29.046C1.90358 30.4408 2.60084 31.4633 3.5676 32.3489C4.96641 33.6239 6.64326 34.424 8.40139 35.07C11.0878 36.0541 13.8726 36.5718 16.713 36.8156C19.3822 37.0424 22.0515 36.9996 24.7122 36.7087C25.5036 36.6231 26.0469 37.1879 25.8672 37.8938C25.7646 38.3046 25.4352 38.5741 24.9775 38.6254C22.5263 38.8993 20.0667 38.9506 17.6027 38.8137C14.5142 38.6383 11.4813 38.1548 8.534 37.1879C6.59621 36.5504 4.73969 35.7375 3.10561 34.4882C2.71634 34.193 2.35274 33.8635 1.94208 33.5212C1.9378 33.6539 1.92924 33.7566 1.92924 33.8592C1.92924 35.1813 1.93352 36.5033 1.92924 37.8211C1.92924 38.7024 2.24579 39.4597 2.78478 40.14C3.82426 41.4578 5.21024 42.3049 6.69887 43.0023C9.22271 44.1831 11.8963 44.8335 14.6425 45.2228C17.3974 45.6164 20.1651 45.7106 22.937 45.5052C24.4214 45.394 25.8929 45.1458 27.3687 44.9618C27.527 44.9404 27.6852 44.9019 27.8435 44.9062C28.3098 44.919 28.7033 45.2913 28.7504 45.7491C28.8017 46.2539 28.5151 46.7074 28.0103 46.793C26.9751 46.9727 25.9399 47.1438 24.8962 47.2679C22.4579 47.5588 20.0068 47.6016 17.5557 47.4519C13.6458 47.208 9.83014 46.532 6.22405 44.9319C4.42314 44.1361 2.7634 43.1264 1.47153 41.6032C0.487662 40.4267 -0.00427283 39.1046 4.86104e-06 37.5644C0.0213933 30.7574 0.00856025 23.9546 0.00428255 17.1476C0.00428255 14.7645 -0.0128282 12.3814 0.00856025 10.0026C0.0213933 8.55217 0.65877 7.33709 1.59986 6.27603C2.76767 4.95399 4.23064 4.0384 5.80483 3.28967C8.14473 2.17727 10.6215 1.50555 13.1667 1.07771C17.0509 0.423103 20.9479 0.337534 24.862 0.761101C28.0103 1.10338 31.0774 1.77937 33.9906 3.05863C35.6631 3.79025 37.2117 4.71012 38.4864 6.04072C39.6927 7.29858 40.3044 8.77465 40.3002 10.5331C40.283 15.7186 40.2916 20.9041 40.2916 26.0853C40.2916 26.2051 40.2916 26.3249 40.2873 26.4447C40.2531 26.988 39.8638 27.3688 39.342 27.3731C38.8115 27.3731 38.3966 26.9709 38.388 26.419C38.3752 25.7002 38.388 24.9772 38.388 24.2584C38.388 24.1557 38.388 24.0487 38.388 23.8648L38.3795 23.869ZM19.8442 17.7722C23.4546 17.7637 26.757 17.4 29.9866 16.4973C32.0399 15.9239 34.0077 15.1581 35.7744 13.9345C36.5443 13.3997 37.2331 12.7793 37.7549 11.992C38.5848 10.7299 38.6062 9.40786 37.7207 8.18422C37.3143 7.62374 36.8224 7.10605 36.2877 6.66537C34.7905 5.43317 33.0366 4.68017 31.2143 4.0769C28.3868 3.13992 25.4737 2.66501 22.5049 2.49815C18.655 2.28423 14.8479 2.55805 11.1006 3.49076C8.99599 4.01701 6.96409 4.73579 5.10757 5.87813C4.17931 6.44717 3.33661 7.11889 2.6864 8.00453C1.70253 9.34368 1.68114 10.7299 2.62223 12.0947C3.10989 12.805 3.74299 13.374 4.43597 13.8703C5.88611 14.9014 7.49452 15.6031 9.17566 16.1507C12.7304 17.3059 16.3878 17.7466 19.8485 17.7722H19.8442ZM1.92497 14.281C1.92497 14.4693 1.92497 14.5762 1.92497 14.6832C1.92497 16.1849 1.96347 17.6867 1.91213 19.1884C1.86936 20.519 2.37413 21.5801 3.281 22.4914C4.46164 23.6765 5.89894 24.4595 7.4218 25.0927C10.814 26.5046 14.3816 27.1121 18.0305 27.3132C20.6442 27.4587 23.2493 27.3431 25.8416 26.9624C28.3526 26.5944 30.808 26.004 33.1436 24.9814C34.5552 24.3653 35.8899 23.6252 36.9892 22.5213C37.7549 21.7512 38.3538 20.8827 38.3666 19.7446C38.3838 17.9819 38.3752 16.2234 38.3752 14.4607C38.3752 14.4265 38.3538 14.3965 38.3324 14.3452C38.2811 14.3794 38.2469 14.4008 38.2212 14.4265C37.0021 15.6031 35.569 16.4545 34.0291 17.1262C30.3502 18.7392 26.4618 19.4109 22.4836 19.6376C20.2207 19.766 17.962 19.7061 15.7077 19.4708C12.7989 19.1713 9.95848 18.5894 7.22503 17.5284C5.51823 16.8652 3.90982 16.0266 2.51101 14.8244C2.33135 14.6704 2.16024 14.5078 1.92497 14.2896V14.281Z" fill="#E66A44"/>
<path id="Vector_2" d="M45.0826 32.2933C45.0826 31.6044 45.0826 30.9199 45.0826 30.2311C45.0826 30 45.0741 29.769 45.0869 29.5422C45.1211 28.9989 45.5532 28.6052 46.0793 28.6224C46.5969 28.6395 47.0033 29.0374 47.0033 29.5722C47.0076 31.6558 47.0033 33.7351 47.0033 35.8187C47.0033 35.8658 46.9905 35.9171 46.9777 36.007H45.8441C44.2528 36.007 42.6615 36.007 41.0702 36.007C40.8905 36.007 40.7108 36.007 40.5312 35.9941C39.9922 35.9471 39.6115 35.5363 39.62 35.0229C39.6286 34.5052 40.0179 34.1031 40.5654 34.0902C41.5749 34.0731 42.5845 34.0817 43.5983 34.0774C43.7052 34.0774 43.8122 34.0774 43.9191 34.0774C43.9362 34.0517 43.9491 34.0261 43.9662 33.9961C43.6796 33.6966 43.4101 33.3843 43.1063 33.1062C40.9162 31.0996 37.8448 30.6632 35.1156 31.9553C32.0913 33.3886 30.3631 36.5632 30.8037 39.8918C31.2357 43.1691 33.7296 45.7918 36.9935 46.3993C41.6562 47.2679 45.904 43.7767 46.0152 38.9591C46.0323 38.2446 46.6782 37.6841 47.3798 37.958C47.7947 38.1205 48.0214 38.5013 48.0086 39.019C47.9273 41.7786 46.8835 44.1147 44.8516 45.9801C39.5944 50.8104 31.0646 48.3546 29.1183 41.462C27.5441 35.8915 31.317 30.1284 37.0406 29.3497C40.1419 28.9261 42.7256 29.9358 44.8773 32.1564C44.9244 32.2077 44.9671 32.2633 45.0099 32.3189C45.0356 32.3104 45.0613 32.3018 45.0869 32.289L45.0826 32.2933Z" fill="#E66A44"/>
</g>
<defs>
<clipPath id="clip0_1744_179">
<rect width="48" height="48" fill="white" transform="translate(0 0.5)"/>
</clipPath>
</defs>
</svg>
