<svg width="48" height="49" viewBox="0 0 48 49" fill="none" xmlns="http://www.w3.org/2000/svg">
<g id="_x30_7" clip-path="url(#clip0_1745_197)">
<path id="Vector" d="M35.999 24.4988C35.999 24.8233 35.999 25.1211 35.999 25.4189C36.0001 26.0538 36.4212 26.5114 37.0015 26.5092C37.566 26.5076 37.9991 26.0527 38.0056 25.438C38.0127 24.8108 38.0133 24.1836 38.0056 23.5569C37.998 22.9188 37.578 22.4912 36.9437 22.4901C33.6449 22.4857 30.3456 22.4857 27.0469 22.4901C26.4284 22.4912 26.0029 22.9204 26.0046 23.5078C26.0062 24.0925 26.4393 24.4983 27.066 24.4988C29.5106 24.4994 31.9552 24.4988 34.4004 24.4988C34.918 24.4988 35.4361 24.4988 35.999 24.4988ZM22.0087 42.4961C21.0002 42.4961 19.9917 42.4928 18.9832 42.4977C18.4733 42.4999 18.0451 42.8904 18.002 43.3753C17.9551 43.9049 18.2698 44.3663 18.7792 44.4617C19.0351 44.5097 19.3023 44.5048 19.5647 44.5054C21.3455 44.5092 23.1263 44.5097 24.9066 44.507C25.5393 44.5059 26.0002 44.0811 26.0089 43.5046C26.0176 42.9253 25.5606 42.4977 24.9246 42.4967C23.9526 42.495 22.9801 42.4967 22.0082 42.4967L22.0087 42.4961ZM44.001 23.9802C44.001 24.7977 43.9988 25.6158 44.0016 26.4334C44.0037 27.059 44.4128 27.4964 44.9893 27.498C45.5729 27.4997 45.9869 27.0693 45.988 26.4443C45.9913 24.8179 45.9907 23.191 45.9886 21.5646C45.9875 20.9319 45.5844 20.5125 44.9997 20.5005C44.4657 20.4896 43.9705 20.9493 43.9928 21.5809C44.0212 22.3794 43.9999 23.18 44.0005 23.9796L44.001 23.9802ZM41.9982 23.4953C41.9982 22.8408 42.0004 22.1863 41.9976 21.5324C41.9955 20.9472 41.5864 20.5179 41.0257 20.5048C40.4497 20.4912 39.9948 20.9128 39.9905 21.5002C39.9806 22.8272 39.9812 24.1541 39.9905 25.4811C39.9943 26.0685 40.4546 26.5185 41.0061 26.5086C41.5706 26.4988 41.9949 26.0527 41.9976 25.4593C42.0004 24.8048 41.9982 24.1503 41.9982 23.4964V23.4953ZM24.9977 48.4967C25.6517 48.4967 26.3062 48.4983 26.9601 48.4961C27.5448 48.4939 27.9839 48.08 27.9926 47.528C28.0019 46.9466 27.5907 46.4923 27.0032 46.4868C25.6768 46.4737 24.3503 46.4754 23.0238 46.4857C22.4353 46.4901 21.9875 46.9466 21.9891 47.4991C21.9907 48.062 22.4554 48.495 23.0625 48.4967C23.7077 48.4983 24.3524 48.4967 24.9977 48.4967ZM5.00605 13.4811H5.00769C5.00769 14.1443 5.00278 14.8075 5.00933 15.4707C5.01533 16.0641 5.39931 16.4743 5.94965 16.4917C6.54798 16.5108 6.98705 16.134 6.99578 15.5236C7.01487 14.1792 7.01487 12.8348 6.99633 11.4904C6.98815 10.9013 6.52944 10.4781 5.98783 10.4923C5.42003 10.507 5.01205 10.9412 5.00714 11.546C5.00224 12.1912 5.00605 12.8359 5.00605 13.4811ZM11.9996 45.9872H11.9985C11.9985 45.7511 11.9985 45.5149 11.9985 45.2788C11.9985 45.0333 12.0001 44.7884 11.9996 44.543C11.9979 43.9458 11.5932 43.5084 11.0205 43.4849C10.4882 43.4631 10.0066 43.9033 9.99674 44.4743C9.97874 45.4915 9.97765 46.5092 9.99837 47.5264C10.0104 48.11 10.4914 48.5223 11.062 48.4961C11.5992 48.4716 11.9974 48.032 11.999 47.4587C12.0001 46.9684 11.999 46.4776 11.999 45.9872H11.9996ZM15.9932 46.0058C15.9932 45.5155 15.9725 45.0246 15.9986 44.5359C16.0281 43.9927 15.5841 43.4882 14.9841 43.4871C14.4387 43.486 14.0111 43.93 14.0067 44.5119C13.9996 45.5013 13.9996 46.4907 14.0067 47.4795C14.0111 48.0707 14.4267 48.4923 14.9874 48.4967C15.5612 48.501 15.9861 48.0729 15.9916 47.4762C15.9965 46.9859 15.9926 46.4961 15.9926 46.0058H15.9932ZM40.4961 18.4994C40.669 18.4994 40.8413 18.5016 41.0142 18.4994C41.5122 18.4923 41.9431 18.104 41.9966 17.6164C42.0511 17.1173 41.7331 16.6145 41.2395 16.5436C40.7944 16.4797 40.3319 16.4694 39.8847 16.5125C39.2999 16.5692 38.952 17.0453 39 17.6164C39.0431 18.129 39.4859 18.4977 40.0603 18.4994C40.2059 18.4994 40.351 18.4994 40.4966 18.4994H40.4961ZM18.9941 48.4961C19.5439 48.4983 20.0032 48.0461 20.0076 47.4986C20.0119 46.9586 19.5478 46.489 19.0056 46.4841C18.4607 46.4786 18.0009 46.9373 17.9993 47.4882C17.9976 48.0456 18.44 48.4945 18.9936 48.4967L18.9941 48.4961ZM44.9926 18.4994C45.556 18.4994 45.9875 18.0685 45.9902 17.5029C45.9929 16.9499 45.5435 16.4907 44.9986 16.4907C44.4488 16.4907 43.9994 16.9428 43.9994 17.4975C43.9994 18.0603 44.4341 18.4988 44.9931 18.4988L44.9926 18.4994Z" fill="#E66A44"/>
<path id="Vector_2" d="M8.94826 38.9238C8.67773 38.812 8.42192 38.7176 8.17648 38.6014C8.03249 38.5333 7.94576 38.5753 7.8454 38.6794C7.54869 38.9865 7.2427 39.2848 6.94163 39.5875C6.49055 40.0413 5.89058 40.062 5.44278 39.6175C4.24993 38.4329 3.06198 37.2439 1.87731 36.0511C1.44642 35.617 1.45078 35.0263 1.87622 34.5911C2.18711 34.2726 2.49965 33.9551 2.82309 33.6497C2.94363 33.5357 2.95944 33.4397 2.88963 33.2941C2.78 33.0656 2.68946 32.8283 2.57819 32.5633C2.10366 32.5633 1.61441 32.5644 1.12571 32.5633C0.403559 32.5616 0.000486554 32.1553 0.000486554 31.4288C0.000486554 29.7926 -5.88759e-05 28.1569 0.000486554 26.5207C0.000486554 25.8515 0.417195 25.4375 1.09026 25.4348C1.51733 25.4332 1.94494 25.4266 2.37147 25.4386C2.53564 25.443 2.60819 25.3836 2.66873 25.2352C2.96817 24.5027 2.97199 24.5044 2.41619 23.9502C2.2362 23.7708 2.05403 23.5924 1.87786 23.4092C1.45188 22.9663 1.44478 22.3838 1.87567 21.9491C3.05926 20.7563 4.2472 19.5684 5.43842 18.3838C5.87586 17.9486 6.48019 17.9557 6.92035 18.3882C7.22525 18.6876 7.53233 18.9849 7.82249 19.2979C7.95067 19.4365 8.0603 19.4577 8.22393 19.3743C8.45519 19.2559 8.783 19.2156 8.90845 19.0323C9.02789 18.8572 8.94281 18.5414 8.94444 18.2873C8.94663 18.0599 8.94444 17.833 8.94444 17.6055C8.94499 16.9014 9.35024 16.4902 10.0593 16.4885C11.5865 16.4853 13.1132 16.4875 14.6404 16.4885C14.8127 16.4885 14.9873 16.4804 15.1574 16.5033C15.7089 16.5774 16.0448 16.9609 16.0541 17.5254C16.0618 17.9704 16.0618 18.416 16.0503 18.8611C16.0459 19.0241 16.0999 19.107 16.2548 19.1583C16.503 19.2407 16.7654 19.4501 16.983 19.4076C17.2006 19.365 17.3719 19.0809 17.5606 18.8992C17.7433 18.7225 17.9184 18.5376 18.1033 18.3626C18.538 17.9519 19.1216 17.9448 19.5438 18.3636C20.7437 19.5543 21.9393 20.7487 23.1294 21.9491C23.5625 22.386 23.5538 22.9581 23.1218 23.4059C22.8125 23.7266 22.5 24.044 22.1755 24.3489C22.0533 24.4635 22.0413 24.5562 22.1128 24.6985C22.2295 24.9331 22.2666 25.2685 22.4504 25.3906C22.6353 25.5139 22.9587 25.4305 23.2216 25.4337C23.4763 25.4365 23.7305 25.4294 23.9852 25.4354C24.565 25.4485 24.9872 25.8597 24.9888 26.4335C24.9948 28.1329 24.9953 29.8324 24.9904 31.5324C24.9888 32.1417 24.5716 32.5524 23.9601 32.5622C23.5151 32.5693 23.0694 32.5704 22.6244 32.56C22.4722 32.5567 22.3947 32.6031 22.3435 32.7476C22.2562 32.9947 22.0391 33.2532 22.0778 33.4714C22.1166 33.6873 22.4018 33.8613 22.5829 34.0489C22.7722 34.2447 22.9729 34.4307 23.1583 34.6298C23.5461 35.0454 23.5451 35.6219 23.1453 36.0249C21.9551 37.2248 20.7617 38.422 19.5634 39.6137C19.1167 40.0582 18.5429 40.0544 18.0837 39.6154C17.7684 39.3137 17.4619 39.0034 17.1597 38.6887C17.0528 38.5774 16.9672 38.5442 16.8095 38.6069C16.0558 38.9058 16.0536 38.8992 16.0536 39.7021C16.0536 39.9655 16.0579 40.2295 16.0514 40.4929C16.0378 41.0738 15.6369 41.4959 15.0538 41.4992C13.3542 41.5095 11.6547 41.509 9.95458 41.4997C9.36388 41.4965 8.95099 41.0585 8.94772 40.4711C8.94444 39.9535 8.94717 39.4365 8.94717 38.9238H8.94826ZM4.0034 22.7105C4.27175 22.974 4.54283 23.2412 4.81554 23.5068C5.16898 23.8515 5.23934 24.2535 5.05553 24.7034C4.77409 25.3912 4.48665 26.0768 4.20248 26.7634C4.01103 27.2265 3.67014 27.455 3.16507 27.4452C2.78709 27.4376 2.40856 27.4436 2.03658 27.4436V30.5524C2.42219 30.5524 2.78545 30.56 3.14871 30.5507C3.66468 30.5376 4.01158 30.7656 4.2063 31.2423C4.48119 31.9137 4.76318 32.5824 5.04135 33.2527C5.2497 33.7555 5.17607 34.1269 4.78827 34.5175C4.52646 34.7809 4.26029 35.0405 4.01376 35.2848C4.75063 36.0217 5.47333 36.7449 6.2162 37.4883C6.46383 37.2357 6.72182 36.9685 6.98362 36.7056C7.36433 36.3227 7.72977 36.2464 8.22229 36.4487C8.87626 36.7176 9.52914 36.9898 10.182 37.2619C10.77 37.5074 10.956 37.7899 10.9565 38.4313C10.9565 38.7814 10.9565 39.1316 10.9565 39.4774H14.0622C14.0622 39.0509 14.0589 38.6434 14.0633 38.2366C14.0682 37.7992 14.2842 37.4921 14.6791 37.3236C15.3963 37.0176 16.1185 36.7225 16.8395 36.4269C17.2759 36.248 17.6588 36.3478 17.9844 36.6762C18.2577 36.9521 18.5233 37.2358 18.7775 37.5003C19.5329 36.7443 20.2545 36.0222 20.9963 35.2799C20.7557 35.0459 20.4999 34.8016 20.2485 34.5524C19.8181 34.1258 19.745 33.7812 19.9736 33.2237C20.2348 32.5862 20.5043 31.9513 20.7683 31.3143C21.0083 30.7351 21.281 30.5524 21.9131 30.5524C22.272 30.5524 22.6309 30.5524 22.9871 30.5524V27.4436C22.5889 27.4436 22.2087 27.4397 21.8286 27.4446C21.3366 27.4512 20.9974 27.2297 20.8086 26.7776C20.5288 26.1084 20.2496 25.4386 19.973 24.7678C19.745 24.2148 19.8181 23.8695 20.2528 23.4414C20.5081 23.1894 20.7683 22.9423 20.993 22.7253C20.2397 21.9666 19.5247 21.2467 18.7862 20.5022C18.538 20.7558 18.2762 21.0181 18.0204 21.2865C17.6571 21.6677 17.2421 21.7473 16.7583 21.5395C16.1583 21.2821 15.554 21.0356 14.9502 20.7858C14.1942 20.4733 14.0578 20.2709 14.0584 19.4534C14.0584 19.1398 14.0584 18.8262 14.0584 18.5185H10.9582C10.9582 18.9107 10.9598 19.2827 10.9582 19.6546C10.9554 20.1755 10.7302 20.5082 10.2513 20.7073C9.58969 20.9816 8.92808 21.2565 8.26702 21.5314C7.74068 21.7506 7.38397 21.6846 6.97981 21.2832C6.71691 21.0225 6.46001 20.7552 6.2102 20.5005C5.46787 21.245 4.75063 21.9639 4.00612 22.7105H4.0034Z" fill="#E66A44"/>
<path id="Vector_3" d="M38.9983 10.5312C38.9983 11.1764 38.9999 11.8216 38.9983 12.4668C38.9961 13.0662 38.5969 13.4802 38.0007 13.496C37.7013 13.5042 37.4002 13.5113 37.1013 13.4922C36.8979 13.4791 36.8668 13.6116 36.8106 13.7463C36.7566 13.875 36.7026 13.9825 36.8449 14.1058C37.0571 14.2901 37.2491 14.4979 37.4455 14.6997C37.8933 15.16 37.896 15.7491 37.446 16.2001C36.5422 17.1077 35.6363 18.013 34.7276 18.9162C34.2203 19.4207 33.6613 19.412 33.1502 18.901C32.9577 18.7084 32.775 18.5028 32.5666 18.3294C32.5033 18.2765 32.3599 18.2814 32.2677 18.3092C32.1532 18.3435 31.9955 18.3512 32.0064 18.5552C32.0223 18.854 32.0168 19.1551 32.0081 19.4545C31.9895 20.0916 31.5663 20.5044 30.9314 20.5055C29.6496 20.5077 28.3684 20.5072 27.0867 20.5061C26.4196 20.5055 26.0138 20.109 26.0023 19.4474C25.998 19.202 26.0007 18.9566 25.9996 18.7112C25.9985 18.433 25.8507 18.2601 25.5807 18.2448C25.524 18.2416 25.4542 18.2972 25.4067 18.343C25.1973 18.5448 24.9977 18.7564 24.7882 18.9577C24.341 19.3864 23.7683 19.4044 23.3287 18.9719C22.3758 18.0354 21.4327 17.0897 20.4968 16.1363C20.1057 15.7376 20.1259 15.1404 20.5153 14.7379C20.7237 14.5224 20.9288 14.3016 21.1546 14.1052C21.2838 13.9929 21.2609 13.898 21.1987 13.7763C21.1328 13.6471 21.1284 13.4758 20.902 13.4916C20.6124 13.5118 20.3206 13.502 20.0299 13.496C19.4026 13.4834 18.9952 13.0733 18.993 12.4439C18.9892 11.1442 18.9881 9.8445 18.993 8.5448C18.9952 7.92686 19.419 7.50744 20.0392 7.49435C20.3206 7.48835 20.6042 7.46926 20.8835 7.49326C21.0978 7.51181 21.1349 7.37982 21.1998 7.23801C21.2631 7.10057 21.274 7.00076 21.1415 6.88514C20.9228 6.69424 20.7237 6.48099 20.523 6.27101C20.127 5.85759 20.0948 5.27565 20.4897 4.87096C21.442 3.89632 22.4069 2.93313 23.3832 1.98249C23.771 1.60453 24.3372 1.62852 24.7391 1.9994C24.966 2.20883 25.1886 2.42481 25.3942 2.65498C25.5175 2.79242 25.6227 2.74442 25.7525 2.68988C25.8867 2.63316 26.0198 2.6048 26.0062 2.40027C25.9871 2.11066 26.0002 1.81887 26.004 1.52817C26.0127 0.912406 26.4207 0.501716 27.0316 0.500626C28.3406 0.497899 29.6491 0.498444 30.9581 0.500626C31.5619 0.501716 31.9868 0.911861 32.0081 1.51781C32.0184 1.81723 32.0239 2.1183 32.0059 2.41718C31.995 2.6048 32.1106 2.63698 32.2393 2.6877C32.3648 2.73679 32.469 2.81042 32.5966 2.66479C32.794 2.44009 33.0133 2.23392 33.2304 2.02667C33.6607 1.61434 34.2416 1.60889 34.667 2.0294C35.6101 2.96204 36.5482 3.90014 37.4804 4.84423C37.8785 5.24729 37.8824 5.82596 37.5006 6.2432C37.2982 6.46408 37.0904 6.68334 36.8624 6.87641C36.6999 7.01385 36.7648 7.1322 36.8149 7.28165C36.8695 7.44309 36.9508 7.50962 37.1286 7.49872C37.4095 7.48181 37.692 7.4889 37.9734 7.49544C38.5767 7.50962 38.9923 7.93504 38.995 8.5399C38.9978 9.20311 38.9956 9.86686 38.9956 10.5301H38.9983V10.5312ZM29.9993 18.4859C29.9993 18.2279 29.9954 17.9841 30.0004 17.7414C30.0091 17.3209 30.2071 17.0019 30.5834 16.8322C31.1621 16.5721 31.7512 16.3337 32.3441 16.1079C32.7411 15.9569 33.1169 16.0256 33.4229 16.337C33.5926 16.5099 33.7447 16.7002 33.8805 16.8557C34.3971 16.3463 34.8601 15.8898 35.3248 15.4311C35.1672 15.2696 35.003 15.1017 34.8394 14.9331C34.5307 14.6146 34.444 14.2426 34.6065 13.8303C34.8329 13.2566 35.063 12.6839 35.3139 12.1205C35.4857 11.7343 35.7895 11.5096 36.2313 11.5113C36.4741 11.5118 36.7168 11.5113 36.9628 11.5113V9.49981C36.713 9.49981 36.4866 9.49817 36.2597 9.49981C35.8097 9.50362 35.4928 9.28874 35.3161 8.88732C35.0679 8.32282 34.8361 7.75015 34.6065 7.17747C34.4407 6.76406 34.5263 6.39045 34.8378 6.07685C35.0085 5.90504 35.1978 5.75124 35.3439 5.62034C34.8421 5.11148 34.3856 4.64843 33.8931 4.14939C33.736 4.32119 33.5811 4.51262 33.4044 4.68061C33.0842 4.9844 32.7095 5.05421 32.2982 4.88459C31.7365 4.65334 31.173 4.42536 30.6156 4.1832C30.2114 4.00758 29.9987 3.69179 29.9993 3.24347C29.9993 3.0024 29.9993 2.76187 29.9993 2.52953H27.9926C27.9926 2.79733 27.9986 3.04985 27.9915 3.30237C27.979 3.72833 27.7592 4.02285 27.3779 4.18811C26.8205 4.42918 26.2565 4.65607 25.6942 4.88623C25.2704 5.05912 24.8897 4.97895 24.5695 4.65825C24.3982 4.48645 24.2499 4.29119 24.1343 4.15648C23.6112 4.66643 23.1459 5.11966 22.6725 5.58162C22.8318 5.74033 23.0003 5.9045 23.1645 6.07357C23.4743 6.39373 23.5463 6.77278 23.3886 7.17966C23.1661 7.75451 22.9278 8.32391 22.6812 8.88895C22.5051 9.29364 22.1838 9.49981 21.7371 9.49926C21.496 9.49926 21.2549 9.49926 21.0209 9.49926V11.508C21.2675 11.508 21.4933 11.5113 21.7191 11.5074C22.1914 11.4998 22.5143 11.7191 22.6954 12.1499C22.9239 12.6937 23.1508 13.238 23.3728 13.7845C23.5517 14.2252 23.477 14.6212 23.1367 14.9577C22.9769 15.1158 22.8078 15.2647 22.6709 15.3924C23.165 15.8887 23.6226 16.3485 24.1108 16.8388C24.2488 16.6882 24.3982 16.5181 24.5559 16.3555C24.8755 16.0256 25.2649 15.953 25.6805 16.1123C26.256 16.3326 26.8238 16.5743 27.3888 16.8213C27.7701 16.9882 27.985 17.2866 27.9932 17.7131C27.9981 17.965 27.9943 18.2176 27.9943 18.4859H29.9998H29.9993Z" fill="#E66A44"/>
<path id="Vector_4" d="M37.9793 48.4967C36.943 48.4967 35.9067 48.4984 34.8709 48.4967C31.6764 48.4913 28.7283 46.0506 28.148 42.9101C28.0514 42.3871 28.0023 41.8482 27.9974 41.3159C27.98 39.353 27.986 37.3895 27.9914 35.4261C28.0002 32.0479 30.5702 29.0743 33.9044 28.5889C34.3162 28.5289 34.7357 28.4973 35.1513 28.4951C37.0963 28.4853 39.0424 28.4585 40.9868 28.4989C43.7718 28.5562 45.8548 29.8313 47.2036 32.2698C47.7491 33.2565 47.9934 34.3347 47.9967 35.461C48.0032 37.4517 47.9989 39.4419 47.9983 41.4326C47.9978 44.8414 45.6688 47.6999 42.3324 48.3691C41.9255 48.4509 41.5039 48.4847 41.0888 48.4913C40.0531 48.5082 39.0167 48.4967 37.9804 48.4967H37.9793ZM37.9886 46.4831V46.482C39.0064 46.482 40.0247 46.488 41.0425 46.4782C41.3403 46.4755 41.6435 46.4569 41.9348 46.3996C44.4301 45.9099 46.0266 43.7053 45.9906 41.4266C45.9595 39.455 45.9846 37.4823 45.9835 35.5106C45.9835 35.329 45.9884 35.1458 45.9688 34.9658C45.6928 32.4318 43.5411 30.5016 40.989 30.4984C38.9895 30.4956 36.9899 30.4951 34.9904 30.5011C34.71 30.5022 34.4253 30.5202 34.151 30.5731C31.6447 31.0607 29.9986 33.0716 29.9986 35.6323C29.9986 37.5679 29.9888 39.5041 30.0062 41.4397C30.0101 41.8799 30.0657 42.3293 30.171 42.7569C30.7044 44.9249 32.7285 46.4869 34.9626 46.4836C35.9711 46.482 36.9801 46.4836 37.9886 46.4836V46.4831Z" fill="#E66A44"/>
<path id="Vector_5" d="M8.53226 9.54652C8.40899 9.23564 8.301 8.93731 8.169 8.65042C8.139 8.58443 8.03155 8.52553 7.95247 8.51516C7.39613 8.43881 6.99251 8.01993 6.99415 7.50344C6.99578 6.96458 7.39122 6.56752 7.97865 6.49825C8.04792 6.49007 8.14009 6.42735 8.16846 6.36518C8.28245 6.1192 8.38336 5.86613 8.47226 5.61034C8.49571 5.54271 8.49081 5.4249 8.44772 5.38017C8.04792 4.96676 8.1041 4.27846 8.49408 3.93431C8.93097 3.54816 9.47258 3.58307 9.95037 4.02702C10.2727 3.90431 10.5945 3.78923 10.9087 3.65615C10.96 3.63433 10.9998 3.53507 11.0063 3.46798C11.0625 2.88713 11.4449 2.51025 11.9886 2.51025C12.5586 2.51025 12.9366 2.87622 12.9982 3.47071C13.0053 3.53943 13.0653 3.63379 13.1259 3.66051C13.4226 3.79141 13.728 3.90322 14.0455 4.02757C14.3924 3.6796 14.8118 3.54271 15.2896 3.78541C15.8661 4.07775 16.0117 4.81732 15.5928 5.31636C15.4881 5.44126 15.4549 5.53398 15.5519 5.67088C15.6032 5.74341 15.6408 5.83068 15.6665 5.91685C15.7717 6.26864 15.8999 6.52825 16.3554 6.58388C16.7688 6.63406 17.047 7.15983 17.0077 7.57052C16.9602 8.06575 16.6003 8.45026 16.0941 8.50044C15.9179 8.51789 15.8252 8.55934 15.8061 8.73878C15.7996 8.79986 15.7712 8.86095 15.7423 8.91658C15.5639 9.26073 15.4221 9.5547 15.7363 9.95503C16.0036 10.2954 15.8039 10.8386 15.4489 11.1189C15.09 11.4031 14.5707 11.4162 14.2156 11.1146C14.0635 10.9858 13.9593 10.9809 13.7929 11.0698C13.5944 11.1762 13.3697 11.2318 13.1679 11.3327C13.0926 11.3704 13.0091 11.4702 13.0004 11.5498C12.9344 12.1225 12.5493 12.4977 12.0039 12.4983C11.4476 12.4983 11.0691 12.1241 11.0052 11.528C10.9981 11.4603 10.9289 11.3818 10.8672 11.3425C10.7849 11.2913 10.6763 11.2842 10.588 11.2395C10.2427 11.0638 9.94819 10.9297 9.54948 11.2324C9.2015 11.4969 8.66043 11.3022 8.38499 10.952C8.10191 10.5915 8.10191 10.0783 8.38717 9.71614C8.43735 9.65288 8.4919 9.59288 8.53226 9.54598V9.54652ZM12.0132 5.51489C10.8951 5.51325 9.99019 6.41154 10.0006 7.51216C10.0109 8.60734 10.9114 9.50016 12.0034 9.49962C13.0921 9.49907 14.0013 8.59425 14.0051 7.50834C14.0089 6.41644 13.1095 5.51653 12.0132 5.51543V5.51489Z" fill="#E66A44"/>
<path id="Vector_6" d="M35.9989 24.4988C35.436 24.4988 34.9184 24.4988 34.4002 24.4988C31.9556 24.4988 29.511 24.4988 27.0658 24.4988C26.4391 24.4988 26.006 24.0925 26.0044 23.5078C26.0028 22.9204 26.4282 22.4912 27.0467 22.4901C30.3455 22.4857 33.6448 22.4857 36.9435 22.4901C37.5779 22.4906 37.9979 22.9188 38.0055 23.5569C38.0131 24.1841 38.0126 24.8108 38.0055 25.438C37.9984 26.0527 37.5659 26.5075 37.0014 26.5092C36.421 26.5108 35.9999 26.0532 35.9989 25.4189C35.9989 25.1211 35.9989 24.8239 35.9989 24.4988Z" fill="#E66A44"/>
<path id="Vector_7" d="M3.00254 8.51144C3.00254 10.3554 3.00254 12.1536 3.00254 13.9524C3.00254 15.1065 3.00418 16.2605 3.002 17.4146C3.0009 18.0626 2.59674 18.4994 2.00604 18.5C1.41807 18.5 0.993723 18.0587 0.993177 17.4212C0.989905 14.1411 0.989905 10.861 0.993177 7.58043C0.993723 6.91176 1.41861 6.50162 2.09004 6.50053C2.71728 6.49944 3.34398 6.49835 3.97122 6.50053C4.55592 6.50271 5.0119 6.94121 5.01354 7.49862C5.01518 8.04184 4.57556 8.48907 4.00613 8.50871C3.6816 8.52016 3.35652 8.51089 3.00254 8.51089V8.51144Z" fill="#E66A44"/>
<path id="Vector_8" d="M22.0087 42.4962C22.9806 42.4962 23.9531 42.4946 24.9251 42.4962C25.5611 42.4973 26.0181 42.9249 26.0094 43.5041C26.0007 44.0806 25.5398 44.5055 24.9071 44.5066C23.1263 44.5093 21.3454 44.5088 19.5652 44.505C19.3028 44.505 19.0356 44.5093 18.7797 44.4613C18.2703 44.3659 17.9551 43.9045 18.0025 43.3749C18.0456 42.89 18.4743 42.4995 18.9837 42.4973C19.9922 42.4924 21.0007 42.4957 22.0092 42.4957L22.0087 42.4962Z" fill="#E66A44"/>
<path id="Vector_9" d="M44.001 23.9803C44.001 23.1807 44.0223 22.3801 43.9939 21.5816C43.9715 20.95 44.4662 20.4903 45.0008 20.5012C45.5855 20.5132 45.9885 20.9326 45.9896 21.5653C45.9918 23.1916 45.9923 24.8186 45.9891 26.445C45.988 27.07 45.574 27.5003 44.9904 27.4987C44.4139 27.4971 44.0048 27.0597 44.0026 26.4341C43.9999 25.6165 44.0021 24.7984 44.0015 23.9808L44.001 23.9803Z" fill="#E66A44"/>
<path id="Vector_10" d="M41.9981 23.4953C41.9981 24.1497 42.0003 24.8042 41.9975 25.4582C41.9948 26.0521 41.571 26.4977 41.0059 26.5075C40.4545 26.5174 39.9942 26.0674 39.9904 25.48C39.9811 24.153 39.9811 22.826 39.9904 21.4991C39.9947 20.9117 40.4491 20.4906 41.0256 20.5037C41.5868 20.5168 41.9954 20.9466 41.9975 21.5313C42.0003 22.1857 41.9981 22.8402 41.9981 23.4942V23.4953Z" fill="#E66A44"/>
<path id="Vector_11" d="M24.9976 48.4967C24.3524 48.4967 23.7077 48.4978 23.0624 48.4967C22.4554 48.4956 21.9907 48.0626 21.989 47.4992C21.9874 46.9467 22.4352 46.4902 23.0237 46.4858C24.3502 46.4755 25.6767 46.4744 27.0032 46.4869C27.5906 46.4924 28.0018 46.9472 27.9926 47.5281C27.9838 48.08 27.5448 48.494 26.9601 48.4962C26.3061 48.4984 25.6516 48.4967 24.9976 48.4962V48.4967Z" fill="#E66A44"/>
<path id="Vector_12" d="M5.00605 13.4811C5.00605 12.8359 5.00224 12.1912 5.00714 11.546C5.01151 10.9412 5.42003 10.507 5.98783 10.4923C6.52944 10.4781 6.98869 10.9013 6.99633 11.4904C7.01433 12.8348 7.01487 14.1792 6.99578 15.5236C6.98705 16.134 6.54798 16.5108 5.94965 16.4917C5.39931 16.4743 5.01533 16.0641 5.00933 15.4707C5.00278 14.8075 5.00769 14.1443 5.00769 13.4811H5.00605Z" fill="#E66A44"/>
<path id="Vector_13" d="M11.9994 45.9873C11.9994 46.4776 12.0005 46.9684 11.9994 47.4588C11.9977 48.0314 11.5996 48.4716 11.0623 48.4961C10.4918 48.5223 10.0107 48.11 9.99874 47.5264C9.97801 46.5092 9.9791 45.4915 9.9971 44.4743C10.0069 43.9033 10.4885 43.4626 11.0209 43.4849C11.5936 43.5084 11.9983 43.9458 11.9999 44.543C12.0005 44.7885 11.9988 45.0334 11.9988 45.2788C11.9988 45.5149 11.9988 45.7511 11.9988 45.9873H11.9999H11.9994Z" fill="#E66A44"/>
<path id="Vector_14" d="M15.993 46.0057C15.993 46.4961 15.9968 46.9858 15.9919 47.4762C15.9859 48.0728 15.5615 48.501 14.9878 48.4966C14.4271 48.4922 14.0109 48.0712 14.0071 47.4794C14 46.4901 14.0005 45.5007 14.0071 44.5119C14.0114 43.9299 14.4385 43.4854 14.9845 43.4871C15.5839 43.4887 16.0284 43.9927 15.999 44.5359C15.9723 45.0246 15.9935 45.516 15.993 46.0057Z" fill="#E66A44"/>
<path id="Vector_15" d="M40.4959 18.4995C40.3503 18.4995 40.2052 18.4995 40.0596 18.4995C39.4852 18.4979 39.0424 18.1292 38.9993 17.6165C38.9513 17.0455 39.2998 16.5693 39.884 16.5126C40.3312 16.4695 40.7943 16.4799 41.2388 16.5437C41.7324 16.6146 42.0499 17.1169 41.9959 17.6165C41.943 18.1041 41.5121 18.4919 41.0135 18.4995C40.8412 18.5023 40.6683 18.4995 40.4954 18.4995H40.4959Z" fill="#E66A44"/>
<path id="Vector_16" d="M18.9941 48.4962C18.4399 48.494 17.9976 48.0452 17.9998 47.4878C18.0014 46.9369 18.4607 46.4788 19.0061 46.4837C19.5482 46.4891 20.0124 46.9587 20.008 47.4981C20.0037 48.0457 19.5439 48.4984 18.9946 48.4957L18.9941 48.4962Z" fill="#E66A44"/>
<path id="Vector_17" d="M44.9926 18.4994C44.4335 18.4994 43.9988 18.0609 43.9988 17.498C43.9988 16.9434 44.4482 16.4907 44.998 16.4912C45.5429 16.4912 45.9923 16.9504 45.9896 17.5035C45.9869 18.0691 45.5554 18.4999 44.992 18.4999L44.9926 18.4994Z" fill="#E66A44"/>
<path id="Vector_18" d="M12.5132 24.1699C15.1683 24.1688 17.3429 26.3363 17.3419 28.9826C17.3408 31.6572 15.1781 33.8269 12.5148 33.8263C9.82529 33.8258 7.67084 31.684 7.67139 29.0126C7.67193 26.3112 9.81111 24.1716 12.5132 24.1705V24.1699ZM12.4919 26.1737C10.932 26.1803 9.65839 27.4527 9.66384 28.9989C9.6693 30.5643 10.9549 31.8323 12.5219 31.8192C14.1118 31.8061 15.3341 30.5457 15.3265 28.9275C15.3194 27.4211 14.0284 26.1672 12.4919 26.1737Z" fill="#E66A44"/>
<path id="Vector_19" d="M32.9986 10.5125C32.9975 12.7132 31.191 14.5147 28.9881 14.5119C26.7943 14.5087 24.9792 12.6859 24.9873 10.4929C24.995 8.27797 26.7998 6.49831 29.0355 6.50049C31.2161 6.50267 32.9992 8.30796 32.9986 10.5125ZM30.9882 10.5005C30.9865 9.39223 30.1089 8.51413 29.0022 8.51413C27.8874 8.51413 26.9945 9.40695 26.9994 10.5169C27.0038 11.6022 27.9125 12.4999 29.0061 12.4994C30.0958 12.4994 30.9898 11.5973 30.9882 10.4999V10.5005Z" fill="#E66A44"/>
<path id="Vector_20" d="M37.4908 40.5038H34.4958C34.4958 40.6053 34.4958 40.7007 34.4958 40.7962C34.4953 41.3776 34.5067 41.9595 34.4904 42.5404C34.4767 43.0209 34.1293 43.4098 33.693 43.4779C33.1792 43.5581 32.7374 43.316 32.5606 42.8404C32.5176 42.7253 32.5045 42.5927 32.5045 42.4684C32.5023 40.5878 32.4952 38.7073 32.5077 36.8267C32.5181 35.2494 33.8391 33.7959 35.3991 33.5412C37.3386 33.2243 39.1942 34.5295 39.4767 36.5518C39.4941 36.6767 39.4909 36.8055 39.4909 36.9325C39.4914 38.7678 39.492 40.6026 39.4909 42.4379C39.4909 43.0542 39.0927 43.4834 38.5216 43.4894C37.9162 43.4959 37.4979 43.0716 37.4924 42.4335C37.487 41.7992 37.4913 41.1643 37.4913 40.5033L37.4908 40.5038ZM34.5242 38.4798H37.4913C37.4913 38.0201 37.4935 37.5767 37.4902 37.1332C37.4891 36.9882 37.4881 36.8404 37.463 36.6986C37.3348 35.9753 36.6825 35.4845 35.8949 35.5118C35.2191 35.5347 34.5793 36.0953 34.5324 36.7673C34.4931 37.3263 34.5242 37.8903 34.5242 38.4804V38.4798Z" fill="#E66A44"/>
<path id="Vector_21" d="M41.5017 38.5065C41.5017 37.1702 41.4995 35.8345 41.5028 34.4983C41.5039 34.0058 41.8137 33.6207 42.2806 33.5127C42.7098 33.4135 43.1767 33.6224 43.3791 34.032C43.4489 34.1732 43.4876 34.3445 43.4881 34.5021C43.4963 37.156 43.4991 39.81 43.4952 42.4634C43.4947 42.9946 43.1478 43.4086 42.6847 43.4778C42.1611 43.5564 41.6991 43.2897 41.547 42.8081C41.5099 42.6903 41.505 42.5583 41.505 42.4328C41.5022 41.1239 41.5033 39.8154 41.5033 38.5065H41.5011H41.5017Z" fill="#E66A44"/>
</g>
<defs>
<clipPath id="clip0_1745_197">
<rect width="48" height="48" fill="white" transform="translate(0 0.5)"/>
</clipPath>
</defs>
</svg>
