<svg width="48" height="49" viewBox="0 0 48 49" fill="none" xmlns="http://www.w3.org/2000/svg">
<g id="_x30_7" clip-path="url(#clip0_1744_160)">
<path id="Vector" d="M32.0626 48.5C31.2677 48.2688 30.8138 47.5982 30.2298 47.0924C30.0506 46.9363 29.7846 46.8352 29.5447 46.8091C29.1111 46.7658 28.6716 46.7976 28.2322 46.7976C26.9978 46.7976 26.5093 46.4739 26.0236 45.3091H25.5004C17.9234 45.3091 10.3464 45.3091 2.76945 45.3091C0.939533 45.3062 0 44.3697 0 42.543C0 29.4555 0 16.3651 0 3.27473C0 1.43647 0.927969 0.508671 2.76367 0.508671C10.6847 0.508671 18.6056 0.514452 26.5266 0.5C27.2147 0.5 27.7524 0.705215 28.2351 1.19657C29.7875 2.78048 31.3573 4.34994 32.9415 5.90206C33.4127 6.36451 33.6093 6.87611 33.6064 7.52932C33.5919 11.0758 33.6006 14.6222 33.6006 18.1658C33.6006 18.3508 33.6006 18.5387 33.6006 18.8277C33.8955 18.7121 34.1412 18.6398 34.3638 18.5242C35.4421 17.975 36.5059 17.9866 37.6073 18.4924C38.0005 18.6745 38.4746 18.7872 38.9024 18.767C40.1889 18.7034 41.2094 19.1312 42.0361 20.1197C42.2616 20.3914 42.6143 20.6168 42.9525 20.7267C44.2014 21.1255 44.9848 21.9319 45.3924 23.169C45.5081 23.5187 45.7567 23.8685 46.0371 24.1112C46.9969 24.9408 47.4103 25.9582 47.3409 27.2213C47.3206 27.623 47.4536 28.0421 47.5693 28.4381C47.6791 28.8225 47.8555 29.1867 48.0029 29.5624V30.5943C47.8555 30.9845 47.6791 31.366 47.5664 31.7678C47.4536 32.1638 47.3178 32.5829 47.3409 32.9817C47.4074 34.2246 47.0142 35.2391 46.066 36.0542C45.8347 36.2536 45.5775 36.4964 45.4878 36.7681C45.1496 37.7913 44.6466 38.6728 43.6435 39.1873C43.7244 39.3838 43.7793 39.5255 43.8429 39.6671C44.4963 41.1672 45.1641 42.6615 45.8001 44.1674C46.3551 45.4767 45.5168 46.7513 44.0915 46.7889C43.5452 46.8034 42.9959 46.7629 42.4553 46.8063C42.2212 46.8236 41.9523 46.9363 41.776 47.0924C41.1978 47.604 40.7324 48.2572 39.946 48.4971H39.1973C38.437 48.2399 37.9918 47.6936 37.6883 46.9623C37.2315 45.8582 36.7083 44.7772 36.211 43.6876C36.1561 43.5691 36.0867 43.4592 35.9913 43.2829C35.4132 44.5576 34.8408 45.7455 34.332 46.9623C34.0255 47.6936 33.5832 48.2399 32.8229 48.4971H32.0742L32.0626 48.5ZM26.4081 2.10414C26.1855 2.10414 26.0178 2.10414 25.8502 2.10414C18.1633 2.10414 10.4765 2.10414 2.78969 2.10414C1.82125 2.10414 1.59576 2.3267 1.59576 3.28051C1.59576 16.3536 1.59576 29.4295 1.59576 42.5025C1.59576 43.4852 1.81836 43.7049 2.81571 43.7049C10.2221 43.7049 17.6256 43.676 25.032 43.7367C26.1046 43.7454 26.6451 43.4737 26.9776 42.4505C27.3361 41.3464 27.8853 40.303 28.3681 39.1931C27.3679 38.667 26.8562 37.8115 26.5237 36.797C26.4283 36.5079 26.1653 36.2507 25.9224 36.0426C25.0089 35.2478 24.6158 34.265 24.6504 33.054C24.6649 32.5915 24.5579 32.0915 24.37 31.6695C23.9046 30.6145 23.8526 29.5856 24.3845 28.5595C24.6215 28.097 24.7169 27.6375 24.6765 27.1201C24.5811 25.9351 25.0205 24.9726 25.8993 24.1662C26.2289 23.8656 26.5035 23.4465 26.6596 23.0274C27.0788 21.8915 27.8246 21.1371 28.9723 20.7527C29.2758 20.6515 29.617 20.5157 29.8164 20.2844C30.412 19.5965 31.074 19.0387 31.9643 18.845V7.71431C30.9063 7.71431 29.8771 7.72587 28.8509 7.71142C27.6945 7.69696 26.7695 6.9975 26.4948 5.92807C26.4197 5.63037 26.4168 5.30954 26.4139 5.00027C26.4052 4.05224 26.411 3.10131 26.411 2.10703L26.4081 2.10414ZM32.9704 20.3711C32.2968 20.2497 31.6926 20.6197 31.1029 21.2382C30.6837 21.6805 30.0853 22.0042 29.5129 22.2441C28.8422 22.5244 28.3623 22.9089 28.1629 23.6141C27.9605 24.328 27.5616 24.9119 26.9805 25.3714C26.4341 25.805 26.1913 26.3686 26.2693 27.0594C26.3561 27.8311 26.2086 28.5479 25.8357 29.2243C25.5177 29.8023 25.5177 30.3891 25.8357 30.9672C26.2173 31.6608 26.3647 32.3892 26.2722 33.1783C26.2 33.8113 26.4081 34.3575 26.9082 34.7593C27.5529 35.2767 27.9865 35.9154 28.212 36.7103C28.3826 37.3115 28.7902 37.7161 29.3799 37.8895C30.172 38.1236 30.8138 38.5485 31.3341 39.1873C31.7475 39.696 32.3055 39.907 32.9588 39.8232C33.6815 39.7307 34.3667 39.8492 34.994 40.2018C35.6907 40.592 36.3498 40.5718 37.0349 40.1874C37.6362 39.8521 38.2954 39.7278 38.9805 39.8145C39.7119 39.907 40.2987 39.6642 40.7555 39.0948C41.2065 38.5283 41.7817 38.1323 42.4756 37.9387C43.2069 37.7335 43.6492 37.2652 43.8545 36.5484C44.0482 35.8663 44.4327 35.3056 44.9848 34.8662C45.5746 34.398 45.8174 33.7968 45.7307 33.054C45.6497 32.369 45.7711 31.7129 46.1065 31.1088C46.4794 30.4382 46.4881 29.7821 46.1065 29.1087C45.7596 28.493 45.6353 27.8253 45.722 27.1201C45.8116 26.3946 45.5688 25.805 44.9906 25.3483C44.4211 24.9003 44.0337 24.3251 43.8372 23.6257C43.6348 22.9002 43.1694 22.4522 42.4438 22.2499C41.7962 22.0678 41.2354 21.7238 40.8249 21.1891C40.3276 20.5446 39.7003 20.2902 38.9024 20.3769C38.2 20.455 37.5379 20.2989 36.9193 19.9549C36.3093 19.6168 35.6994 19.6168 35.0894 19.9549C34.4852 20.2873 33.8434 20.4434 32.9675 20.3682L32.9704 20.3711ZM42.198 39.8983C42.0188 40.0949 41.9003 40.2336 41.7702 40.3666C41.0243 41.1469 40.105 41.5343 39.0354 41.4158C38.3329 41.3377 37.7663 41.5718 37.1708 41.9273C37.8935 43.5199 38.6047 45.0952 39.3187 46.6675C39.4401 46.9363 39.6165 46.9652 39.8275 46.7542C40.1368 46.445 40.4606 46.1501 40.7526 45.8264C41.1689 45.3611 41.669 45.1645 42.2905 45.1934C42.8514 45.2195 43.4122 45.1963 43.9759 45.1992C44.3113 45.1992 44.4471 45.0663 44.2997 44.7339C43.6117 43.15 42.9236 41.5689 42.198 39.9012V39.8983ZM34.835 41.9302C34.1759 41.5169 33.5514 41.3666 32.8229 41.4302C31.8111 41.5169 30.9323 41.1123 30.2298 40.3666C30.1055 40.2336 29.9841 40.0949 29.8656 39.959C29.8106 39.9966 29.7731 40.0082 29.7615 40.0313C29.0706 41.6007 28.3826 43.1673 27.6974 44.7397C27.55 45.0778 27.7061 45.1992 28.0357 45.1992C28.6745 45.1992 29.3221 45.1443 29.9523 45.2195C30.3426 45.2657 30.7502 45.4536 31.074 45.6848C31.4613 45.9623 31.7764 46.3467 32.1089 46.6964C32.3864 46.9883 32.5657 46.9421 32.7246 46.5808C33.0947 45.7397 33.4792 44.9044 33.8608 44.0691C34.1816 43.361 34.5025 42.6557 34.8321 41.9302H34.835ZM30.6779 6.10438C29.7846 5.21127 28.8914 4.32104 28.0154 3.44815C28.0154 4.04935 27.9981 4.71413 28.0212 5.37602C28.0357 5.81535 28.3305 6.0697 28.7439 6.09282C29.4059 6.1304 30.0708 6.10149 30.6779 6.10149V6.10438Z" fill="#E66A44"/>
<path id="Vector_2" d="M16.8161 6.11877C18.7067 6.11877 20.5944 6.10432 22.4851 6.12455C23.5952 6.13611 24.5463 6.95697 24.7486 8.01195C24.9626 9.13629 24.4277 10.2317 23.3986 10.674C23.0633 10.8185 22.6759 10.8965 22.3116 10.8994C18.6431 10.9167 14.9717 10.9139 11.3032 10.9081C9.86354 10.9081 8.80259 9.86466 8.80837 8.49175C8.81415 7.13617 9.85776 6.12744 11.2887 6.11877C13.1302 6.1101 14.9746 6.11877 16.8161 6.11877ZM16.8016 7.71424C14.9919 7.71424 13.1794 7.71424 11.3697 7.71424C10.7597 7.71424 10.4128 8.00039 10.4041 8.48885C10.3955 8.99178 10.7655 9.30682 11.3841 9.30971C14.9891 9.30971 18.594 9.30971 22.1989 9.30971C22.8291 9.30971 23.1876 9.00912 23.1818 8.49753C23.1789 7.99172 22.8291 7.71424 22.1815 7.71135C20.3863 7.71135 18.5911 7.71135 16.7958 7.71135L16.8016 7.71424Z" fill="#E66A44"/>
<path id="Vector_3" d="M16.8306 15.7004C13.2228 15.7004 9.6179 15.7004 6.01009 15.7004C5.85399 15.7004 5.69788 15.709 5.54177 15.6946C5.1226 15.6541 4.81038 15.3246 4.80171 14.9229C4.79304 14.5471 5.07345 14.1974 5.46083 14.1222C5.5967 14.0962 5.74124 14.1049 5.88 14.1049C13.1563 14.1049 20.4326 14.1049 27.709 14.1049C27.8506 14.1049 27.9923 14.0962 28.1281 14.1222C28.5415 14.1974 28.8104 14.5471 28.7873 14.9576C28.7641 15.3535 28.4808 15.6483 28.0703 15.6917C27.9171 15.709 27.7581 15.7004 27.602 15.7004C24.0115 15.7004 20.4182 15.7004 16.8277 15.7004H16.8306Z" fill="#E66A44"/>
<path id="Vector_4" d="M15.9981 18.1138C19.3688 18.1138 22.7425 18.1138 26.1132 18.1138C26.3127 18.1138 26.5787 18.082 26.7001 18.1889C26.9111 18.3768 27.1597 18.6659 27.1568 18.9115C27.1539 19.1543 26.8995 19.4434 26.6798 19.6197C26.5382 19.7353 26.2636 19.7064 26.0467 19.7064C19.3515 19.7093 12.6533 19.7093 5.95809 19.7093C5.88003 19.7093 5.80198 19.7093 5.72393 19.7093C5.17466 19.689 4.81041 19.3798 4.79885 18.9173C4.78728 18.4404 5.15732 18.1138 5.74127 18.1138C9.16117 18.1109 12.5782 18.1138 15.9981 18.1138Z" fill="#E66A44"/>
<path id="Vector_5" d="M13.9658 35.6986C11.2975 35.6986 8.62634 35.6986 5.95807 35.6986C5.1891 35.6986 4.81039 35.4414 4.79883 34.9153C4.78726 34.3748 5.1862 34.0945 5.97541 34.0945C11.3293 34.0945 16.6832 34.0945 22.0371 34.0945C22.2221 34.0945 22.4158 34.0945 22.595 34.1407C22.9969 34.239 23.1992 34.5223 23.1819 34.9298C23.1674 35.3402 22.9419 35.6004 22.5343 35.6697C22.3522 35.7015 22.1614 35.6957 21.9735 35.6957C19.3052 35.6957 16.6341 35.6957 13.9658 35.6957V35.6986Z" fill="#E66A44"/>
<path id="Vector_6" d="M13.5988 30.1116C16.189 30.1116 18.7821 30.1059 21.3723 30.1203C21.6209 30.1203 21.9418 30.1694 22.1008 30.3255C22.2714 30.4932 22.4072 30.8429 22.3494 31.0568C22.2858 31.2938 22.0112 31.5048 21.7799 31.658C21.644 31.7476 21.4157 31.7071 21.2307 31.7071C16.1427 31.7071 11.0519 31.7071 5.96397 31.7071C5.88591 31.7071 5.80786 31.7071 5.72981 31.7071C5.15742 31.6898 4.7816 31.3545 4.79606 30.8776C4.81051 30.4122 5.1632 30.1116 5.72981 30.1116C8.35183 30.1087 10.9738 30.1116 13.5988 30.1116Z" fill="#E66A44"/>
<path id="Vector_7" d="M16.3738 27.6983C14.7202 27.6983 13.0666 27.6983 11.4101 27.6983C10.7626 27.6983 10.4099 27.4179 10.4041 26.9121C10.3983 26.4092 10.7626 26.1028 11.3899 26.1028C14.7289 26.1028 18.0678 26.1028 21.4097 26.1028C22.0225 26.1028 22.407 26.4265 22.3954 26.9179C22.3868 27.3977 22.0225 27.6954 21.427 27.6983C19.7416 27.7011 18.0563 27.6983 16.3709 27.6983H16.3738Z" fill="#E66A44"/>
<path id="Vector_8" d="M9.98221 39.6961C8.58013 39.6961 7.17517 39.6961 5.7731 39.6961C5.17758 39.6961 4.81333 39.3955 4.80177 38.9186C4.7902 38.4272 5.17469 38.1006 5.78466 38.1006C8.5917 38.1006 11.3987 38.1006 14.2058 38.1006C14.836 38.1006 15.1973 38.4012 15.1944 38.907C15.1916 39.4157 14.8418 39.6961 14.1971 39.6961C12.795 39.6961 11.3901 39.6961 9.98799 39.6961H9.98221Z" fill="#E66A44"/>
<path id="Vector_9" d="M9.96763 23.7009C8.62337 23.7009 7.27912 23.7009 5.93776 23.7009C5.76719 23.7009 5.59085 23.7009 5.42607 23.6691C5.03869 23.5881 4.83055 23.3193 4.81032 22.9436C4.79008 22.565 4.97799 22.2759 5.3538 22.1632C5.53014 22.1112 5.72383 22.1025 5.90885 22.1025C8.64361 22.0996 11.3784 22.0996 14.1102 22.1025C14.2664 22.1025 14.4253 22.1083 14.5757 22.1401C14.9746 22.2297 15.2261 22.565 15.1885 22.9609C15.151 23.3685 14.9226 23.6228 14.5121 23.6806C14.3126 23.7095 14.1074 23.7038 13.905 23.7038C12.5925 23.7038 11.2801 23.7038 9.96763 23.7038V23.7009Z" fill="#E66A44"/>
<path id="Vector_10" d="M20.4009 23.7008C19.5279 23.7008 18.6548 23.7066 17.7789 23.7008C17.1718 23.6951 16.8163 23.406 16.7989 22.9291C16.7816 22.4378 17.1603 22.1054 17.7789 22.1025C19.525 22.0967 21.274 22.0967 23.0201 22.1025C23.6387 22.1025 24.0116 22.432 23.9943 22.9291C23.9798 23.4118 23.63 23.6951 23.0172 23.7008C22.1441 23.7066 21.2711 23.7008 20.3952 23.7008H20.4009Z" fill="#E66A44"/>
<path id="Vector_11" d="M6.79056 27.6981C6.40318 27.6981 6.01291 27.7068 5.62554 27.6952C5.14565 27.6779 4.80742 27.3513 4.79875 26.9177C4.79007 26.49 5.12831 26.12 5.59374 26.1084C6.40318 26.0882 7.21262 26.0882 8.01918 26.1084C8.48461 26.12 8.81706 26.5044 8.79682 26.9322C8.77947 27.3484 8.45281 27.6606 8.00183 27.6923C7.97003 27.6923 7.93823 27.6923 7.90932 27.6923C7.5364 27.6923 7.16348 27.6923 6.79056 27.6923V27.6981Z" fill="#E66A44"/>
<path id="Vector_12" d="M36.0549 22.0995C40.4288 22.1197 44.0048 25.7239 43.9903 30.097C43.9759 34.5713 40.3999 38.1149 35.9248 38.0946C31.5278 38.0744 28.0009 34.4817 28.0125 30.0363C28.024 25.6488 31.6434 22.0792 36.0549 22.0995ZM36.052 23.7036C32.4991 23.6891 29.6314 26.5217 29.6111 30.0624C29.5938 33.6088 32.4297 36.4818 35.971 36.4992C39.4806 36.5194 42.3714 33.6666 42.3888 30.1635C42.4061 26.6084 39.5702 23.7152 36.0491 23.7007L36.052 23.7036Z" fill="#E66A44"/>
<path id="Vector_13" d="M34.4128 31.3632C35.52 30.2562 36.5897 29.1665 37.6882 28.1029C37.8848 27.915 38.1999 27.7271 38.4456 27.7473C38.6826 27.7676 39.018 28.0133 39.0932 28.2329C39.1741 28.4728 39.0932 28.8688 38.9313 29.074C38.5439 29.5596 38.0669 29.97 37.6246 30.4123C36.7862 31.2505 35.9508 32.0915 35.1066 32.9269C34.595 33.4356 34.2076 33.4327 33.7017 32.9384C33.5109 32.7534 33.323 32.5656 33.138 32.3748C32.7419 31.9673 32.7014 31.5221 33.0223 31.1753C33.349 30.8227 33.7884 30.8342 34.2249 31.2042C34.2712 31.2447 34.3174 31.2851 34.4071 31.3632H34.4128Z" fill="#E66A44"/>
</g>
<defs>
<clipPath id="clip0_1744_160">
<rect width="48" height="48" fill="white" transform="translate(0 0.5)"/>
</clipPath>
</defs>
</svg>
