<svg width="48" height="49" viewBox="0 0 48 49" fill="none" xmlns="http://www.w3.org/2000/svg">
<g id="Isolation_Mode" clip-path="url(#clip0_1745_222)">
<path id="Vector" d="M48 24.5194C48.0803 37.6568 37.2989 48.4309 24.162 48.5001C10.9107 48.5702 -0.0202775 37.8736 2.8245e-05 24.4595C0.020334 11.157 10.8313 0.530504 23.9719 0.500064C37.2463 0.469623 48.1025 11.3378 48 24.5185V24.5194ZM46.5011 24.4927C46.5712 12.2667 36.4571 1.67341 23.3599 2.01655C11.4266 2.32834 1.52204 12.1348 1.51834 24.5065C1.51465 36.8976 11.5448 46.8351 23.6968 46.991C36.4368 47.1542 46.5657 36.8017 46.502 24.4936L46.5011 24.4927Z" fill="#E66A44"/>
<path id="Vector_2" d="M24.6956 21.9089C22.3171 21.9089 20.0105 21.9089 17.704 21.9089C16.8862 21.9089 16.5622 21.586 16.5604 20.7706C16.5604 20.4016 16.5493 20.0317 16.5733 19.6646C16.6028 19.2098 16.865 18.9137 17.3108 18.8584C17.7436 18.8049 18.1867 18.8132 18.6251 18.8122C20.5957 18.8086 22.5653 18.8104 24.7159 18.8104C24.3089 18.3879 24.0218 17.9987 23.6508 17.7219C22.6106 16.9462 21.3867 16.6574 20.1194 16.5652C19.2933 16.5052 18.4617 16.5135 17.632 16.5015C16.8354 16.4895 16.4487 16.1261 16.4219 15.3264C16.4108 14.9887 16.409 14.6493 16.4275 14.3117C16.4736 13.44 16.8631 13.0756 17.739 13.0756C20.3852 13.0747 23.0305 13.0756 25.6767 13.0756C27.5845 13.0756 29.4914 13.0747 31.3993 13.0756C32.3056 13.0756 32.6757 13.451 32.6785 14.3624C32.6785 14.7314 32.685 15.1004 32.6776 15.4693C32.6637 16.1086 32.2807 16.4932 31.6383 16.4979C30.5612 16.5052 29.485 16.4997 28.4078 16.5006C28.2592 16.5006 28.1097 16.5006 27.9713 16.5006C28.3248 17.2773 28.6617 18.0199 29.0189 18.8049C29.7951 18.8049 30.6359 18.8132 31.4768 18.803C32.4718 18.7901 32.8188 19.1139 32.816 20.1018C32.8151 20.4523 32.8253 20.8121 32.756 21.1525C32.6508 21.6672 32.3324 21.9015 31.8072 21.907C30.9922 21.9163 30.1763 21.9135 29.3613 21.907C29.1407 21.9052 28.9921 21.9227 28.9506 22.2031C28.3829 26.0534 25.4737 27.9628 22.0337 28.0043C21.9571 28.0043 21.8814 28.0043 21.7005 28.0043C21.9885 28.3466 22.2248 28.6316 22.4657 28.9129C24.8359 31.671 27.208 34.4273 29.5764 37.1872C29.7656 37.4077 29.9428 37.6411 30.1043 37.8827C30.4393 38.3836 30.2584 38.7425 29.6493 38.76C29.0346 38.7784 28.4189 38.7563 27.8033 38.7572C27.3243 38.7572 26.8443 38.7489 26.3671 38.7757C26.0515 38.7941 25.8318 38.6936 25.6241 38.4537C22.6696 35.0444 19.7041 31.6452 16.7542 28.2322C16.6111 28.0671 16.5207 27.8042 16.5142 27.5828C16.4865 26.7258 16.5031 25.868 16.5031 25.0267C17.2037 25.0267 17.8599 25.0461 18.5143 25.023C19.9773 24.9723 21.4107 24.773 22.7259 24.0683C23.6148 23.5923 24.3107 22.9374 24.6965 21.9098L24.6956 21.9089Z" fill="#E66A44"/>
</g>
<defs>
<clipPath id="clip0_1745_222">
<rect width="48" height="48" fill="white" transform="translate(0 0.5)"/>
</clipPath>
</defs>
</svg>
