<svg width="16" height="17" viewBox="0 0 16 17" fill="none" xmlns="http://www.w3.org/2000/svg">
<g id="Layer_1" clip-path="url(#clip0_1445_14785)">
<path id="Vector" d="M-0.000223627 13.6341C0.134963 13.3587 0.357771 13.2761 0.658602 13.2769C3.07903 13.2848 5.49903 13.2798 7.91946 13.2848C8.06591 13.2848 8.1189 13.2435 8.15979 13.102C8.44101 12.1301 9.37396 11.4465 10.3941 11.4507C11.4118 11.4549 12.3385 12.1514 12.6172 13.1221C12.6314 13.1717 12.646 13.221 12.6635 13.2815C12.7495 13.2815 12.8321 13.2815 12.9147 13.2815C13.7579 13.2815 14.6012 13.2802 15.4444 13.2823C15.7645 13.2831 15.9835 13.4768 15.9931 13.7564C16.004 14.0656 15.7811 14.2855 15.4499 14.2864C14.5857 14.2881 13.7216 14.2868 12.8579 14.2868C12.7958 14.2868 12.734 14.2868 12.6719 14.2868C12.6827 14.296 12.694 14.3047 12.7048 14.3139C12.5471 14.6081 12.4178 14.9228 12.225 15.1924C11.8753 15.6815 11.3809 15.9678 10.7863 16.0746C10.7617 16.0792 10.7383 16.0925 10.7146 16.1021H10.0274C9.9944 16.0905 9.96228 16.075 9.92806 16.0679C9.59343 15.997 9.28551 15.8651 9.01013 15.6614C8.54532 15.3176 8.24824 14.8614 8.10638 14.2876H7.90402C5.48526 14.2876 3.06651 14.2843 0.647754 14.2918C0.343167 14.2926 0.124532 14.1987 -0.000640869 13.9162V13.6349L-0.000223627 13.6341ZM10.3766 15.1047C11.1097 15.1064 11.713 14.508 11.7105 13.7806C11.708 13.057 11.1151 12.4627 10.3891 12.4569C9.66228 12.4506 9.05811 13.0528 9.0577 13.7835C9.05728 14.5084 9.6506 15.1031 10.3766 15.1047Z" fill="#9F9E9E"/>
<path id="Vector_2" d="M0 2.29419C0.123087 2.00833 0.343808 1.91777 0.647978 1.91861C3.06798 1.9257 5.48841 1.92236 7.90841 1.92236C7.97058 1.92236 8.03234 1.92236 8.10494 1.92236C8.26683 1.28595 8.61481 0.788507 9.17057 0.441715C9.61035 0.16712 10.0918 0.0698845 10.6026 0.110364C11.4258 0.175884 12.3654 0.758043 12.6633 1.92278C12.7155 1.92278 12.7718 1.92278 12.8281 1.92278C13.7077 1.92278 14.5872 1.92194 15.4668 1.92361C15.7209 1.92403 15.9174 2.07135 15.9808 2.2992C16.0396 2.5112 15.9466 2.75742 15.7421 2.85674C15.6399 2.9064 15.5131 2.92434 15.3975 2.92518C14.5543 2.9306 13.7114 2.9281 12.8682 2.9281C12.806 2.9281 12.7438 2.9281 12.6767 2.9281C12.6149 3.09085 12.564 3.25319 12.4935 3.40676C12.0909 4.28188 11.1621 4.83107 10.2233 4.75429C9.23858 4.67374 8.42037 4.01563 8.15292 3.0775C8.11662 2.95022 8.05654 2.9256 7.93595 2.9256C5.51052 2.92894 3.08509 2.92434 0.660078 2.93269C0.358829 2.93353 0.137273 2.84839 0.000417243 2.57547V2.29419H0ZM10.3827 1.10484C9.64873 1.10484 9.05583 1.70118 9.05792 2.43566C9.06 3.15679 9.66042 3.75314 10.3835 3.75272C11.1062 3.75272 11.7049 3.15804 11.7107 2.43483C11.7166 1.7087 11.1133 1.10442 10.3827 1.10484Z" fill="#9F9E9E"/>
<path id="Vector_3" d="M0 7.97947C0.115159 7.69695 0.32378 7.59595 0.627533 7.60054C1.47078 7.61348 2.31403 7.60514 3.15727 7.60514H3.32459C3.65254 6.34817 4.69815 5.75767 5.64279 5.77478C6.74306 5.79439 7.62886 6.53972 7.89089 7.60514C7.95139 7.60514 8.01731 7.60514 8.08324 7.60514C10.5404 7.60514 12.9975 7.60514 15.4547 7.60514C15.8523 7.60514 16.1089 7.95819 15.9554 8.29955C15.8577 8.51614 15.6808 8.60545 15.4413 8.60503C13.2495 8.60169 11.0582 8.60336 8.8664 8.60336C8.54429 8.60336 8.22218 8.60336 7.89089 8.60336C7.73442 9.22475 7.40021 9.71552 6.86656 10.0636C6.47644 10.3181 6.04459 10.4425 5.58187 10.4341C4.5905 10.4162 3.62918 9.77686 3.32542 8.60336C3.08426 8.60336 2.84017 8.60336 2.59608 8.60336C1.94018 8.60336 1.28386 8.59335 0.628367 8.60795C0.324615 8.61463 0.117245 8.50905 0.000417242 8.22944V7.97947H0ZM5.61275 9.42423C6.34918 9.42339 6.93874 8.8308 6.93624 8.09423C6.93374 7.36893 6.34083 6.78343 5.60941 6.78427C4.87965 6.7851 4.288 7.37144 4.28383 8.09757C4.27966 8.82746 4.8784 9.42506 5.61316 9.42381L5.61275 9.42423Z" fill="#9F9E9E"/>
</g>
<defs>
<clipPath id="clip0_1445_14785">
<rect width="16" height="16" fill="white" transform="translate(0 0.101562)"/>
</clipPath>
</defs>
</svg>
