<svg width="16" height="17" viewBox="0 0 16 17" fill="none" xmlns="http://www.w3.org/2000/svg">
<g id="Layer_1" clip-path="url(#clip0_1445_14777)">
<path id="Vector" d="M10.9538 13.3631V13.0905C10.9538 9.09027 10.9538 5.09002 10.9538 1.08977C10.9538 1.01475 10.9581 0.939726 10.9512 0.865202C10.9238 0.559607 10.8011 0.304027 10.486 0.181489C9.91388 -0.0405809 9.26007 0.240007 9.26113 0.924721C9.26639 5.71722 9.26376 10.5102 9.26429 15.3027C9.26429 15.6648 9.45974 15.9309 9.80482 16.0454C10.1841 16.1715 10.5403 16.0805 10.7789 15.8014C10.8574 15.7098 10.9391 15.6198 11.0271 15.5363C12.193 14.4279 13.3599 13.3206 14.5268 12.2127C14.9267 11.8331 15.3276 11.455 15.7254 11.0734C15.9298 10.8773 16.0431 10.6453 15.9836 10.3627C15.9161 10.0411 15.7112 9.822 15.3845 9.72797C15.07 9.63694 14.7887 9.71847 14.5548 9.94104C14.0437 10.4267 13.5317 10.9113 13.0206 11.397C12.3468 12.0367 11.674 12.6774 10.9533 13.3621L10.9538 13.3631ZM5.0475 2.84632C5.0475 2.96386 5.0475 3.03188 5.0475 3.1004C5.0475 7.10665 5.0475 11.1129 5.0475 15.1192C5.0475 15.1942 5.04433 15.2692 5.05013 15.3437C5.08174 15.7464 5.34463 16.0264 5.73449 16.0745C6.34931 16.1505 6.73706 15.8289 6.73706 15.2397C6.73706 10.4597 6.73706 5.67971 6.73706 0.899713C6.73706 0.532098 6.5474 0.269516 6.20232 0.15448C5.83143 0.0309415 5.43946 0.132473 5.20871 0.40906C5.13969 0.491585 5.06594 0.572111 4.98744 0.646634C3.83525 1.74198 2.68253 2.83582 1.52929 3.93016C1.11098 4.32728 0.691619 4.72391 0.274892 5.12203C0.074694 5.31309 -0.0396293 5.54066 0.0120006 5.81425C0.0725867 6.13335 0.26857 6.36692 0.594154 6.46445C0.918685 6.56148 1.2095 6.48296 1.45816 6.24588C2.58928 5.16605 3.72514 4.09121 4.85942 3.01487C4.90894 2.96786 4.96109 2.92385 5.0475 2.84632Z" fill="#9F9E9E"/>
<path id="Vector_2" d="M10.954 13.3628C11.6742 12.6781 12.3475 12.0374 13.0213 11.3977C13.5323 10.912 14.0444 10.4274 14.5554 9.94171C14.7893 9.71964 15.0707 9.63812 15.3852 9.72864C15.7118 9.82317 15.9162 10.0417 15.9842 10.3633C16.0437 10.6459 15.9305 10.8775 15.7261 11.0741C15.3283 11.4557 14.9274 11.8338 14.5275 12.2134C13.3606 13.3213 12.1936 14.4281 11.0277 15.537C10.9398 15.6205 10.8581 15.7105 10.7796 15.802C10.5404 16.0811 10.1848 16.1717 9.80547 16.0461C9.4604 15.9316 9.26494 15.665 9.26494 15.3034C9.26494 10.5109 9.26758 5.71789 9.26178 0.925393C9.26125 0.240179 9.91453 -0.0399089 10.4867 0.18216C10.8017 0.304199 10.9245 0.560279 10.9519 0.865874C10.9587 0.940397 10.9545 1.01542 10.9545 1.09044C10.9545 5.09069 10.9545 9.09094 10.9545 13.0912V13.3638L10.954 13.3628Z" fill="#9F9E9E"/>
<path id="Vector_3" d="M5.04741 2.84632C4.961 2.92335 4.90885 2.96786 4.85933 3.01487C3.72505 4.09121 2.58866 5.16605 1.45807 6.24588C1.20941 6.48296 0.918595 6.56148 0.594064 6.46445C0.268479 6.36692 0.0730234 6.13335 0.0119104 5.81425C-0.0402463 5.54066 0.074077 5.31309 0.274801 5.12203C0.692055 4.72391 1.11089 4.32728 1.5292 3.93016C2.68191 2.83582 3.83516 1.74198 4.98735 0.646634C5.06585 0.572111 5.1396 0.491585 5.20862 0.40906C5.43937 0.132473 5.83134 0.0309414 6.20223 0.15448C6.54731 0.269516 6.73697 0.532598 6.73697 0.899713C6.73697 5.67971 6.73697 10.4597 6.73697 15.2397C6.73697 15.8289 6.34922 16.1505 5.7344 16.0745C5.34454 16.0264 5.08165 15.7464 5.05004 15.3437C5.04424 15.2692 5.04741 15.1942 5.04741 15.1192C5.04741 11.1129 5.04741 7.10665 5.04741 3.1004C5.04741 3.03188 5.04741 2.96386 5.04741 2.84632Z" fill="#9F9E9E"/>
</g>
<defs>
<clipPath id="clip0_1445_14777">
<rect width="16" height="16" fill="white" transform="translate(0 0.101562)"/>
</clipPath>
</defs>
</svg>
