<svg width="10" height="16" viewBox="0 0 10 16" fill="none" xmlns="http://www.w3.org/2000/svg">
<rect width="10" height="16" fill="#1E1E1E"/>
<g id="Nextreachai" clip-path="url(#clip0_1_2)">
<rect width="1440" height="3387" transform="translate(-1213 -2731)" fill="#FFF9F9"/>
<g id="Frame 3551">
<g id="Frame 3547">
<rect x="-131.5" y="-22.5" width="198" height="61" rx="7.5" fill="white"/>
<rect x="-131.5" y="-22.5" width="198" height="61" rx="7.5" stroke="#9F9F9F"/>
<g id="Frame 3546">
<g id="Frame 3545">
<path id="control" d="M2.28061 0.306651L9.13859 7.17024C9.38541 7.41375 9.5 7.68433 9.5 8C9.5 8.31567 9.37659 8.60428 9.13859 8.83878L2.28061 15.6933C2.07786 15.8918 1.83986 16 1.54897 16C0.958372 16 0.499998 15.531 0.499998 14.9357C0.499998 14.6471 0.614592 14.3675 0.817335 14.1601L6.99657 8.00902L0.817335 1.83991C0.614592 1.63247 0.499999 1.36189 0.499999 1.06426C0.499999 0.468996 0.958373 -3.73366e-07 1.54897 -3.47551e-07C1.83105 -3.35221e-07 2.07786 0.10823 2.28061 0.306651Z" fill="#1C1C1E"/>
</g>
</g>
</g>
</g>
</g>
<defs>
<clipPath id="clip0_1_2">
<rect width="1440" height="3387" fill="white" transform="translate(-1213 -2731)"/>
</clipPath>
</defs>
</svg>
