<svg width="9" height="16" viewBox="0 0 9 16" fill="none" xmlns="http://www.w3.org/2000/svg">
<path id="control" d="M7.21939 15.6933L0.36141 8.82976C0.114593 8.58625 -3.35893e-07 8.31567 -3.49691e-07 8C-3.6349e-07 7.68433 0.123408 7.39572 0.36141 7.16122L7.21939 0.306652C7.42214 0.10823 7.66014 -3.34835e-07 7.95103 -3.47551e-07C8.54163 -3.73366e-07 9 0.468997 9 1.06426C9 1.35287 8.88541 1.63247 8.68266 1.83991L2.50343 7.99098L8.68266 14.1601C8.88541 14.3675 9 14.6381 9 14.9357C9 15.531 8.54163 16 7.95103 16C7.66895 16 7.42214 15.8918 7.21939 15.6933Z" fill="#1C1C1E"/>
</svg>
