<svg width="22" height="27" viewBox="0 0 22 27" fill="none" xmlns="http://www.w3.org/2000/svg">
<g id="Object" clip-path="url(#clip0_2497_1484)">
<path id="Vector" d="M11.5897 20.8024V18.9347C12.1239 18.6002 12.482 18.0054 12.482 17.3212C12.482 15.8788 10.9007 14.8127 9.40412 15.8149C9.29429 15.8888 9.19856 15.9865 9.12719 16.0991C8.39255 17.2456 8.80111 18.4099 9.63789 18.9352V20.8028H11.5901L11.5897 20.8024Z" fill="white"/>
<path id="Vector_2" d="M7.9482 4.38819C9.47431 3.40199 11.0846 3.5875 11.7688 3.71263C13.0569 3.9481 13.9621 4.5737 14.4172 4.93994C14.9728 5.34528 15.5283 5.75106 16.0839 6.1564C16.4826 5.27317 16.8818 4.3895 17.2805 3.50626C16.8083 2.89369 15.2984 1.09811 12.6505 0.418633C11.9158 0.230083 9.30679 -0.253894 6.60414 1.19326C4.34169 2.4045 2.96002 4.82829 2.96002 7.42803V10.7928H1.45699C0.65269 10.7928 0.000961304 11.4554 0.000961304 12.273V24.0244H21.2276V12.2726C21.2276 11.4554 20.5763 10.7928 19.772 10.7928H6.31567V7.43759C6.31567 6.20636 6.92595 5.04856 7.9482 4.38819ZM9.12729 16.0988C9.19866 15.9862 9.29482 15.8885 9.40423 15.8146C10.9009 14.8124 12.4821 15.8789 12.4821 17.3209C12.4821 18.0051 12.124 18.5999 11.5898 18.9344V20.8021H9.63757V18.9344C8.80079 18.4096 8.39266 17.2448 9.12687 16.0983L9.12729 16.0988Z" fill="#E66A44"/>
<path id="Vector_3" d="M2.33041 26.7711H18.8976C19.9848 26.7711 20.8963 26.0117 21.1523 24.9868H0.0752182C0.331636 26.0117 1.2432 26.7711 2.33041 26.7711Z" fill="#E66A44"/>
<path id="Vector_4" d="M0 24.4011C0 24.6035 0.0277786 24.799 0.0752159 24.9867H21.1523C21.1993 24.7986 21.2271 24.6031 21.2271 24.4011V24.0244H0V24.4011Z" fill="#E66A44"/>
</g>
<defs>
<clipPath id="clip0_2497_1484">
<rect width="21.2267" height="26.5835" fill="white" transform="translate(0 0.1875)"/>
</clipPath>
</defs>
</svg>
